%FSLAX35Y35*%
%MOIN*%
G04 10=Kupferinnen/CopperinsideL3[Ebene10](X.L#)*
%ADD10C,0.00591*%
%ADD11C,0.00394*%
%ADD12C,0.00472*%
%ADD13C,0.00650*%
%ADD14C,0.00709*%
%ADD15C,0.00787*%
%ADD16C,0.00945*%
%ADD17C,0.01181*%
%ADD18C,0.01575*%
%ADD19C,0.01969*%
%ADD20C,0.02362*%
%ADD21C,0.02489*%
%ADD22C,0.03937*%
%ADD23C,0.07000*%
%ADD24C,0.15748*%
%AMR_25*21,1,0.01420,0.01420,0,0,0.000*%
%ADD25R_25*%
%AMR_26*21,1,0.02200,0.02200,0,0,0.000*%
%ADD26R_26*%
%AMR_27*21,1,0.02200,0.02200,0,0,45.000*%
%ADD27R_27*%
%AMR_28*21,1,0.02200,0.02200,0,0,90.000*%
%ADD28R_28*%
%AMR_29*21,1,0.02200,0.02200,0,0,135.000*%
%ADD29R_29*%
%AMR_30*21,1,0.02200,0.02200,0,0,180.000*%
%ADD30R_30*%
%AMR_31*21,1,0.02200,0.02200,0,0,225.000*%
%ADD31R_31*%
%AMR_32*21,1,0.02200,0.02200,0,0,315.000*%
%ADD32R_32*%
%AMR_33*21,1,0.04375,0.17500,0,0,0.000*%
%ADD33R_33*%
%AMR_34*21,1,0.04409,0.06299,0,0,135.000*%
%ADD34R_34*%
%AMR_35*21,1,0.04724,0.01181,0,0,45.000*%
%ADD35R_35*%
%AMR_36*21,1,0.04724,0.01181,0,0,315.000*%
%ADD36R_36*%
%AMR_37*21,1,0.05000,0.05000,0,0,225.000*%
%ADD37R_37*%
%AMR_38*21,1,0.06102,0.02362,0,0,0.000*%
%ADD38R_38*%
%AMR_39*21,1,0.06563,0.14063,0,0,0.000*%
%ADD39R_39*%
%AMR_40*21,1,0.09688,0.06250,0,0,0.000*%
%ADD40R_40*%
%AMR_41*21,1,0.20079,0.20079,0,0,45.000*%
%ADD41R_41*%
%ADD42O,0.06102X0.02362*%
%AMRR_43*21,1,0.02559,0.10610,0,0,270.000*21,1,0.02303,0.10866,0,0,270.000*1,1,0.00256,0.05305,-0.01152*1,1,0.00256,-0.05305,0.01152*1,1,0.00256,-0.05305,-0.01152*1,1,0.00256,0.05305,0.01152*%
%ADD43RR_43*%
G54D10*
X86911Y48608D02*
X84204Y45900D01*
X81838Y48266D01*
X84545Y50974D01*
X86911Y48608D01*
X83653Y46451D02*
X84755Y46451D01*
X83102Y47003D02*
X85306Y47003D01*
X82550Y47554D02*
X85857Y47554D01*
X81999Y48105D02*
X86409Y48105D01*
X82227Y48656D02*
X86863Y48656D01*
X82778Y49207D02*
X86312Y49207D01*
X83330Y49758D02*
X85761Y49758D01*
X83881Y50310D02*
X85209Y50310D01*
X84432Y50861D02*
X84658Y50861D01*
G54D13*
X3937Y97874D02*
X3937Y102598D01*
X3937Y100236D02*
X8267Y100236D01*
X8267Y102598D02*
X8267Y97874D01*
X3937Y102598D02*
X6102Y104960D01*
X8267Y102598D01*
X9566Y104960D02*
X9566Y97874D01*
X9566Y100236D02*
X12814Y103779D01*
X11190Y102007D02*
X13897Y97874D01*
X15196Y104960D02*
X15196Y99055D01*
X16279Y97874D01*
X19527Y97874D01*
X15196Y102007D02*
X17362Y102007D01*
X20826Y102007D02*
X20826Y99055D01*
X21909Y97874D01*
X24074Y97874D01*
X25157Y99055D01*
X25157Y102007D02*
X25157Y97874D01*
X30787Y98464D02*
X29704Y97874D01*
X27539Y97874D01*
X26456Y99055D01*
X26456Y100826D01*
X27539Y102007D01*
X29704Y102007D01*
X30787Y101417D01*
X30787Y100826D01*
X29704Y100236D01*
X26456Y100236D01*
X32086Y97874D02*
X36417Y97874D01*
X33169Y104960D02*
X34251Y104960D01*
X34251Y97874D01*
X37716Y97874D02*
X42047Y97874D01*
X38799Y104960D02*
X39881Y104960D01*
X39881Y97874D01*
X47677Y98464D02*
X46594Y97874D01*
X44429Y97874D01*
X43346Y99055D01*
X43346Y100826D01*
X44429Y102007D01*
X46594Y102007D01*
X47677Y101417D01*
X47677Y100826D01*
X46594Y100236D01*
X43346Y100236D01*
X48976Y97874D02*
X52765Y97874D01*
X53307Y99055D01*
X52765Y100236D01*
X49517Y100236D01*
X48976Y101417D01*
X49517Y102007D01*
X53307Y102007D01*
X60236Y104960D02*
X60236Y97874D01*
X60236Y101417D02*
X62942Y101417D01*
X64025Y102007D01*
X64566Y103188D01*
X64025Y104370D01*
X62942Y104960D01*
X60236Y104960D01*
X65866Y102007D02*
X65866Y97874D01*
X65866Y100236D02*
X67490Y102007D01*
X70196Y102007D01*
X71496Y100826D02*
X71496Y99055D01*
X71496Y100826D02*
X72578Y102007D01*
X74744Y102007D01*
X75826Y100826D01*
X75826Y99055D01*
X74744Y97874D01*
X72578Y97874D01*
X71496Y99055D01*
X77125Y95511D02*
X80374Y95511D01*
X81456Y96692D01*
X81456Y102007D01*
X79832Y102007D01*
X81456Y104960D02*
X81456Y104370D01*
X87086Y98464D02*
X86003Y97874D01*
X83838Y97874D01*
X82755Y99055D01*
X82755Y100826D01*
X83838Y102007D01*
X86003Y102007D01*
X87086Y101417D01*
X87086Y100826D01*
X86003Y100236D01*
X82755Y100236D01*
X88385Y104960D02*
X88385Y97874D01*
X88385Y100236D02*
X91633Y103779D01*
X90009Y102007D02*
X92716Y97874D01*
X94015Y104960D02*
X94015Y99055D01*
X95098Y97874D01*
X98346Y97874D01*
X94015Y102007D02*
X96181Y102007D01*
X105275Y102007D02*
X107440Y97874D01*
X109606Y102007D01*
X110905Y100826D02*
X110905Y99055D01*
X110905Y100826D02*
X111988Y102007D01*
X114153Y102007D01*
X115236Y100826D01*
X115236Y99055D01*
X114153Y97874D01*
X111988Y97874D01*
X110905Y99055D01*
X116535Y97874D02*
X116535Y102007D01*
X116535Y100826D02*
X117618Y102007D01*
X119783Y102007D01*
X120866Y100826D01*
X120866Y97874D01*
X127795Y104960D02*
X132125Y104960D01*
X129960Y104960D02*
X129960Y97874D01*
X133425Y97874D02*
X133425Y102598D01*
X133425Y100236D02*
X137755Y100236D01*
X137755Y102598D02*
X137755Y97874D01*
X133425Y102598D02*
X135590Y104960D01*
X137755Y102598D01*
X139055Y104960D02*
X139055Y97874D01*
X139055Y101417D02*
X141761Y101417D01*
X142844Y102007D01*
X143385Y103188D01*
X142844Y104370D01*
X141761Y104960D01*
X139055Y104960D01*
X141220Y101417D02*
X143385Y97874D01*
X146309Y104960D02*
X145226Y104370D01*
X144685Y103188D01*
X144685Y99645D01*
X145226Y98464D01*
X146309Y97874D01*
X147391Y97874D01*
X148474Y98464D01*
X149015Y99645D01*
X149015Y101417D01*
X147933Y101417D01*
X146309Y104960D02*
X147391Y104960D01*
X148474Y104370D01*
X150314Y104960D02*
X150314Y97874D01*
X154645Y97874D01*
X150314Y101417D02*
X152480Y101417D01*
X150314Y104960D02*
X154645Y104960D01*
X155944Y104960D02*
X160275Y104960D01*
X158110Y104960D02*
X158110Y97874D01*
X167204Y97874D02*
X167204Y104960D01*
X171535Y97874D01*
X171535Y104960D01*
X175541Y97874D02*
X176624Y98464D01*
X177165Y99645D01*
X175541Y97874D02*
X174458Y97874D01*
X173375Y98464D01*
X172834Y99645D01*
X172834Y103188D01*
X173375Y104370D01*
X174458Y104960D01*
X175541Y104960D01*
X176624Y104370D01*
X177165Y103188D01*
X178464Y101417D02*
X182795Y101417D01*
X184094Y104960D02*
X184094Y97874D01*
X188425Y97874D01*
X184094Y101417D02*
X186259Y101417D01*
X184094Y104960D02*
X188425Y104960D01*
X194055Y104960D02*
X194055Y97874D01*
X190807Y97874D01*
X189724Y99055D01*
X189724Y100826D01*
X190807Y102007D01*
X194055Y102007D01*
X195354Y97874D02*
X199685Y97874D01*
X197519Y97874D02*
X197519Y102007D01*
X197519Y104960D02*
X197519Y104370D01*
X195895Y102007D02*
X197519Y102007D01*
X200984Y104960D02*
X200984Y99055D01*
X202066Y97874D01*
X205314Y97874D01*
X200984Y102007D02*
X203149Y102007D01*
X206614Y97874D02*
X210944Y97874D01*
X208779Y97874D02*
X208779Y102007D01*
X208779Y104960D02*
X208779Y104370D01*
X207155Y102007D02*
X208779Y102007D01*
X212244Y100826D02*
X212244Y99055D01*
X212244Y100826D02*
X213326Y102007D01*
X215492Y102007D01*
X216574Y100826D01*
X216574Y99055D01*
X215492Y97874D01*
X213326Y97874D01*
X212244Y99055D01*
X217874Y97874D02*
X217874Y102007D01*
X217874Y100826D02*
X218956Y102007D01*
X221122Y102007D01*
X222204Y100826D01*
X222204Y97874D01*
X224586Y98464D02*
X224586Y97874D01*
X225127Y97874D01*
X225127Y98464D01*
X224586Y98464D01*
X225127Y101417D02*
X224586Y101417D01*
X224586Y100826D01*
X225127Y100826D01*
X225127Y101417D01*
X234763Y104960D02*
X234763Y97874D01*
X234763Y100236D02*
X239094Y104960D01*
X236387Y102007D02*
X239094Y97874D01*
X240393Y100826D02*
X240393Y99055D01*
X240393Y100826D02*
X241476Y102007D01*
X243641Y102007D01*
X244724Y100826D01*
X244724Y99055D01*
X243641Y97874D01*
X241476Y97874D01*
X240393Y99055D01*
X250354Y97874D02*
X250354Y100826D01*
X249271Y102007D01*
X248188Y97874D02*
X248188Y100826D01*
X246023Y102007D02*
X249271Y102007D01*
X246023Y97874D02*
X246023Y102007D01*
X248188Y100826D02*
X247106Y102007D01*
X255984Y97874D02*
X255984Y100826D01*
X254901Y102007D01*
X253818Y97874D02*
X253818Y100826D01*
X251653Y102007D02*
X254901Y102007D01*
X251653Y97874D02*
X251653Y102007D01*
X253818Y100826D02*
X252736Y102007D01*
X261614Y98464D02*
X260531Y97874D01*
X258366Y97874D01*
X257283Y99055D01*
X257283Y100826D01*
X258366Y102007D01*
X260531Y102007D01*
X261614Y101417D01*
X261614Y100826D01*
X260531Y100236D01*
X257283Y100236D01*
X262913Y102007D02*
X262913Y97874D01*
X262913Y100236D02*
X264537Y102007D01*
X267244Y102007D01*
X268543Y102007D02*
X272874Y102007D01*
X268543Y97874D01*
X272874Y97874D01*
X274173Y97874D02*
X278503Y97874D01*
X276338Y97874D02*
X276338Y102007D01*
X276338Y104960D02*
X276338Y104370D01*
X274714Y102007D02*
X276338Y102007D01*
X284133Y98464D02*
X283051Y97874D01*
X280885Y97874D01*
X279803Y99055D01*
X279803Y100826D01*
X280885Y102007D01*
X283051Y102007D01*
X284133Y101417D01*
X284133Y100826D01*
X283051Y100236D01*
X279803Y100236D01*
X285433Y97874D02*
X289763Y97874D01*
X286515Y104960D02*
X287598Y104960D01*
X287598Y97874D01*
X291062Y97874D02*
X295393Y97874D01*
X292145Y104960D02*
X293228Y104960D01*
X293228Y97874D01*
X301023Y98464D02*
X299940Y97874D01*
X297775Y97874D01*
X296692Y99055D01*
X296692Y100826D01*
X297775Y102007D01*
X299940Y102007D01*
X301023Y101417D01*
X301023Y100826D01*
X299940Y100236D01*
X296692Y100236D01*
X307952Y97874D02*
X307952Y104960D01*
X312283Y97874D01*
X312283Y104960D01*
X313582Y102007D02*
X313582Y99055D01*
X314665Y97874D01*
X316830Y97874D01*
X317913Y99055D01*
X317913Y102007D02*
X317913Y97874D01*
X319212Y104960D02*
X319212Y99055D01*
X320295Y97874D01*
X323543Y97874D01*
X319212Y102007D02*
X321377Y102007D01*
X324842Y102007D02*
X329173Y102007D01*
X324842Y97874D01*
X329173Y97874D01*
X330472Y102007D02*
X330472Y99055D01*
X331555Y97874D01*
X333720Y97874D01*
X334803Y99055D01*
X334803Y102007D02*
X334803Y97874D01*
X336102Y97874D02*
X336102Y102007D01*
X336102Y100826D02*
X337185Y102007D01*
X339350Y102007D01*
X340433Y100826D01*
X340433Y97874D01*
X346062Y99055D02*
X344980Y97874D01*
X342814Y97874D01*
X341732Y99055D01*
X341732Y100826D01*
X342814Y102007D01*
X344980Y102007D01*
X346062Y100826D01*
X346062Y96692D01*
X344980Y95511D01*
X341732Y95511D01*
X352992Y97874D02*
X357322Y97874D01*
X355157Y97874D02*
X355157Y102007D01*
X355157Y104960D02*
X355157Y104370D01*
X353533Y102007D02*
X355157Y102007D01*
X358622Y97874D02*
X362411Y97874D01*
X362952Y99055D01*
X362411Y100236D01*
X359163Y100236D01*
X358622Y101417D01*
X359163Y102007D01*
X362952Y102007D01*
X364251Y104960D02*
X364251Y99055D01*
X365334Y97874D01*
X368582Y97874D01*
X364251Y102007D02*
X366417Y102007D01*
X375511Y97874D02*
X379301Y97874D01*
X379842Y99055D01*
X379301Y100236D01*
X376053Y100236D01*
X375511Y101417D01*
X376053Y102007D01*
X379842Y102007D01*
X381141Y104960D02*
X381141Y99055D01*
X382224Y97874D01*
X385472Y97874D01*
X381141Y102007D02*
X383307Y102007D01*
X386771Y102007D02*
X386771Y97874D01*
X386771Y100236D02*
X388395Y102007D01*
X391102Y102007D01*
X392401Y99055D02*
X393484Y97874D01*
X395649Y97874D01*
X396732Y99055D01*
X392401Y99055D02*
X392401Y100826D01*
X393484Y102007D01*
X395649Y102007D01*
X396732Y100826D01*
X396732Y97874D01*
X398031Y95511D02*
X398031Y103779D01*
X399114Y104960D01*
X402362Y104960D01*
X398031Y100236D02*
X400196Y100236D01*
X403661Y104960D02*
X403661Y97874D01*
X406909Y97874D01*
X407992Y99055D01*
X407992Y100826D01*
X406909Y102007D01*
X403661Y102007D01*
X409291Y99055D02*
X410374Y97874D01*
X412539Y97874D01*
X413622Y99055D01*
X409291Y99055D02*
X409291Y100826D01*
X410374Y102007D01*
X412539Y102007D01*
X413622Y100826D01*
X413622Y97874D01*
X414921Y102007D02*
X414921Y97874D01*
X414921Y100236D02*
X416545Y102007D01*
X419251Y102007D01*
X422716Y97874D02*
X422716Y98464D01*
X423257Y98464D01*
X423257Y97874D01*
X422716Y97874D01*
X422716Y100236D02*
X423257Y100236D01*
X423799Y103779D01*
X423257Y104960D01*
X422716Y104960D01*
X422175Y103779D01*
X422716Y100236D01*
G54D15*
X118330Y18437D02*
X115157Y18437D01*
X118330Y18437D02*
X118437Y18330D01*
X99215Y24062D02*
X98125Y23284D01*
X97812Y22812D02*
X98125Y23284D01*
X118330Y18437D02*
X105153Y18437D01*
X99215Y24062D01*
X99215Y24215D02*
X97812Y22812D01*
X99215Y24215D02*
X99215Y24062D01*
X97812Y22812D02*
X104375Y16875D01*
X112344Y17187D01*
X113907Y17187D01*
X115625Y17187D01*
X118437Y17500D01*
X98125Y23284D02*
X97034Y23284D01*
X77343Y34531D02*
X78750Y35937D01*
X77343Y34531D02*
X78437Y33437D01*
X85312Y50625D02*
X85937Y50000D01*
X86562Y49375D02*
X85312Y48125D01*
X84062Y49375D02*
X85312Y48125D01*
X84062Y49375D02*
X85000Y50312D01*
X84062Y49375D02*
X82812Y48125D01*
X82812Y44687D01*
X82812Y43437D02*
X85485Y40467D01*
X85625Y40312D02*
X86250Y41250D01*
X86875Y41562D02*
X86562Y41914D01*
X84375Y44375D02*
X84375Y46875D01*
X86562Y49375D01*
X77343Y34531D02*
X78750Y33125D01*
X77343Y34531D02*
X77812Y33750D01*
X85937Y50000D02*
X86562Y49375D01*
X86875Y41562D02*
X85625Y40312D01*
X118437Y17500D02*
X118437Y18330D01*
X82812Y44687D02*
X82812Y43437D01*
X77433Y34441D02*
X77343Y34531D01*
X77433Y34441D02*
X77343Y34531D01*
X77433Y34441D02*
X77433Y34441D01*
X78750Y35937D02*
X80312Y37500D01*
X86875Y41562D02*
X99215Y29221D01*
X99215Y28284D01*
X99215Y24062D02*
X99215Y23284D01*
X97034Y23284D02*
X95312Y23284D01*
X85485Y40467D02*
X85625Y40312D01*
X86562Y41914D02*
X85000Y43671D01*
X84375Y44375D01*
G54D19*
X126250Y59892D03*
X129687Y56562D03*
X122812Y63437D03*
X178750Y27500D03*
X123666Y22523D03*
X125937Y24580D03*
X85000Y59794D03*
X89062Y63750D03*
X88437Y60419D03*
X86875Y61669D03*
X68907Y42187D03*
X70157Y43437D03*
X71407Y44687D03*
X72657Y45937D03*
X67657Y43437D03*
X68907Y44687D03*
X70157Y45937D03*
X71407Y47187D03*
X67657Y43437D02*
X71407Y47187D01*
X72657Y45937D01*
X68907Y42187D01*
X67657Y43437D01*
X85000Y59794D02*
X86875Y61669D01*
X88955Y63750D01*
X89062Y63750D01*
X88437Y60419D02*
X87187Y61669D01*
X86875Y61669D01*
X122812Y63437D02*
X126250Y59999D01*
X126250Y59892D01*
X129580Y56562D01*
X129687Y56562D01*
X164687Y61875D02*
X164687Y57187D01*
X162500Y53750D02*
X160937Y52187D01*
X164375Y45312D01*
X173750Y27500D02*
X178750Y27500D01*
X123666Y22523D02*
X122607Y21250D01*
X107969Y52812D03*
X109844Y50937D03*
X111719Y49062D03*
X113594Y47187D03*
X115469Y45312D03*
X117344Y43437D03*
X106094Y54687D03*
X106407Y51250D03*
X108282Y49375D03*
X110157Y47500D03*
X112032Y45625D03*
X113907Y43750D03*
X115782Y41875D03*
X104532Y53125D03*
X104844Y49687D03*
X106719Y47812D03*
X108594Y45937D03*
X110469Y44062D03*
X112344Y42187D03*
X114219Y40312D03*
X102969Y51562D03*
X100157Y45000D03*
X102032Y43125D03*
X103907Y41250D03*
X105782Y39375D03*
X107657Y37500D03*
X109532Y35625D03*
X98282Y46875D03*
X95782Y40312D03*
X97657Y38437D03*
X99532Y36562D03*
X93907Y42187D03*
X22500Y86357D03*
X25000Y86357D03*
X27500Y86357D03*
X30000Y86357D03*
X32500Y86357D03*
X35000Y86357D03*
X37500Y86357D03*
X40000Y86357D03*
X42500Y86357D03*
X45000Y86357D03*
X47500Y86357D03*
X50000Y86357D03*
X52500Y86357D03*
X55000Y86357D03*
X57500Y86357D03*
X22500Y83857D03*
X25000Y83857D03*
X27500Y83857D03*
X30000Y83857D03*
X32500Y83857D03*
X35000Y83857D03*
X37500Y83857D03*
X40000Y83857D03*
X42500Y83857D03*
X45000Y83857D03*
X47500Y83857D03*
X50000Y83857D03*
X52500Y83857D03*
X55000Y83857D03*
X57500Y83857D03*
X22500Y81357D03*
X25000Y81357D03*
X27500Y81357D03*
X30000Y81357D03*
X32500Y81357D03*
X35000Y81357D03*
X37500Y81357D03*
X40000Y81357D03*
X42500Y81357D03*
X45000Y81357D03*
X47500Y81357D03*
X50000Y81357D03*
X52500Y81357D03*
X55000Y81357D03*
X57500Y81357D03*
X22500Y78857D03*
X25000Y78857D03*
X27500Y78857D03*
X30000Y78857D03*
X32500Y78857D03*
X35000Y78857D03*
X37500Y78857D03*
X40000Y78857D03*
X42500Y78857D03*
X45000Y78857D03*
X47500Y78857D03*
X50000Y78857D03*
X52500Y78857D03*
X55000Y78857D03*
X57500Y78857D03*
X22500Y76357D03*
X25000Y76357D03*
X27500Y76357D03*
X30000Y76357D03*
X32500Y76357D03*
X35000Y76357D03*
X37500Y76357D03*
X40000Y76357D03*
X42500Y76357D03*
X45000Y76357D03*
X47500Y76357D03*
X50000Y76357D03*
X52500Y76357D03*
X55000Y76357D03*
X57500Y76357D03*
X22500Y72607D03*
X25000Y72607D03*
X27500Y72607D03*
X30000Y72607D03*
X32500Y72607D03*
X35000Y72607D03*
X37500Y72607D03*
X40000Y72607D03*
X42500Y72607D03*
X45000Y72607D03*
X47500Y72607D03*
X50000Y72607D03*
X52500Y72607D03*
X55000Y72607D03*
X57500Y72607D03*
X22500Y70107D03*
X25000Y70107D03*
X27500Y70107D03*
X30000Y70107D03*
X32500Y70107D03*
X35000Y70107D03*
X37500Y70107D03*
X40000Y70107D03*
X42500Y70107D03*
X45000Y70107D03*
X47500Y70107D03*
X50000Y70107D03*
X52500Y70107D03*
X55000Y70107D03*
X57500Y70107D03*
X22500Y67607D03*
X25000Y67607D03*
X27500Y67607D03*
X30000Y67607D03*
X32500Y67607D03*
X35000Y67607D03*
X37500Y67607D03*
X40000Y67607D03*
X42500Y67607D03*
X45000Y67607D03*
X47500Y67607D03*
X50000Y67607D03*
X52500Y67607D03*
X55000Y67607D03*
X57500Y67607D03*
X22500Y65107D03*
X25000Y65107D03*
X27500Y65107D03*
X30000Y65107D03*
X32500Y65107D03*
X35000Y65107D03*
X37500Y65107D03*
X40000Y65107D03*
X42500Y65107D03*
X45000Y65107D03*
X47500Y65107D03*
X50000Y65107D03*
X52500Y65107D03*
X55000Y65107D03*
X22500Y62607D03*
X25000Y62607D03*
X27500Y62607D03*
X30000Y62607D03*
X32500Y62607D03*
X35000Y62607D03*
X37500Y62607D03*
X40000Y62607D03*
X42500Y62607D03*
X45000Y62607D03*
X47500Y62607D03*
X50000Y62607D03*
X52500Y62607D03*
X21875Y18857D03*
X24375Y18857D03*
X26875Y18857D03*
X29375Y18857D03*
X21875Y16357D03*
X24375Y16357D03*
X26875Y16357D03*
X29375Y16357D03*
X21875Y13857D03*
X24375Y13857D03*
X26875Y13857D03*
X29375Y13857D03*
X21875Y11357D03*
X24375Y11357D03*
X26875Y11357D03*
X29375Y11357D03*
X40937Y18857D03*
X43437Y18857D03*
X45937Y18857D03*
X48437Y18857D03*
X40937Y16357D03*
X43437Y16357D03*
X45937Y16357D03*
X48437Y16357D03*
X40937Y13857D03*
X43437Y13857D03*
X45937Y13857D03*
X48437Y13857D03*
X40937Y11357D03*
X43437Y11357D03*
X45937Y11357D03*
X48437Y11357D03*
X120000Y77607D03*
X122500Y77607D03*
X125000Y77607D03*
X127500Y77607D03*
X130000Y77607D03*
X132500Y77607D03*
X135000Y77607D03*
X137500Y77607D03*
X140000Y77607D03*
X120000Y75107D03*
X122500Y75107D03*
X125000Y75107D03*
X127500Y75107D03*
X130000Y75107D03*
X132500Y75107D03*
X135000Y75107D03*
X137500Y75107D03*
X140000Y75107D03*
X120000Y72607D03*
X122500Y72607D03*
X125000Y72607D03*
X127500Y72607D03*
X130000Y72607D03*
X132500Y72607D03*
X135000Y72607D03*
X137500Y72607D03*
X140000Y72607D03*
X130000Y70107D03*
X132500Y70107D03*
X135000Y70107D03*
X137500Y70107D03*
X140000Y70107D03*
X132500Y67607D03*
X135000Y67607D03*
X137500Y67607D03*
X140000Y67607D03*
X132187Y27607D03*
X134687Y27607D03*
X137187Y27607D03*
X139687Y27607D03*
X129687Y25107D03*
X132187Y25107D03*
X134687Y25107D03*
X137187Y25107D03*
X139687Y25107D03*
X124375Y61874D03*
X127812Y58437D03*
X176875Y27500D03*
X175000Y27500D03*
X173125Y27500D03*
X171250Y27500D03*
X123666Y22523D02*
X125937Y24580D01*
X123647Y53125D03*
X86660Y36875D03*
X117483Y56562D03*
X119320Y30937D03*
X95000Y58042D03*
X194062Y57500D03*
X146250Y57500D03*
X166875Y52187D03*
X112187Y24062D03*
X89687Y47812D02*
X94375Y52500D01*
X89687Y42187D02*
X89687Y47812D01*
X89687Y42187D02*
X109062Y22812D01*
X75570Y64687D03*
X76508Y63750D03*
X77445Y62812D03*
X78383Y61875D03*
X75570Y64687D02*
X78383Y61875D01*
X112187Y21562D03*
X92500Y56250D03*
X91250Y57500D03*
X84008Y56250D02*
X75570Y64687D01*
X84008Y56250D02*
X88125Y56250D01*
X89375Y57500D01*
X91250Y57500D01*
X92500Y56250D02*
X91250Y57500D01*
X94375Y54375D02*
X92500Y56250D01*
X94375Y54375D02*
X94375Y52500D01*
X112187Y21562D02*
X112187Y22812D01*
X109062Y22812D01*
X112187Y22812D02*
X112187Y24062D01*
X120312Y53823D03*
X181562Y60000D03*
X183437Y60000D03*
X119687Y27812D03*
X67812Y72886D03*
X68750Y71948D03*
X69687Y71011D03*
X70625Y70073D03*
X120937Y26562D03*
X119687Y27812D01*
X70625Y70073D02*
X67812Y72886D01*
X120937Y26562D02*
X137812Y43437D01*
X112344Y18848D03*
X115625Y18848D03*
X115625Y17187D03*
X113907Y17187D03*
X112344Y17187D03*
X86562Y49375D03*
X85312Y48125D03*
X85312Y50625D03*
X84062Y49375D03*
X85625Y40312D03*
X86875Y41562D03*
X80312Y37500D03*
X78750Y33125D03*
X77343Y34531D03*
X99215Y24062D03*
X97812Y22812D03*
X94062Y23125D02*
X94062Y23284D01*
X113907Y18848D03*
X78750Y35937D03*
X80625Y31250D03*
X77343Y34531D02*
X77343Y34531D01*
X77433Y34441D01*
X77343Y34531D02*
X77433Y34441D01*
X77343Y34531D02*
X77433Y34441D01*
X78437Y33437D02*
X78750Y33125D01*
X77433Y34441D02*
X77433Y34441D01*
X80625Y31250D02*
X78750Y31250D01*
X79375Y31250D02*
X77433Y33191D01*
X79375Y31250D02*
X78750Y31250D01*
X77433Y33191D02*
X77433Y34441D01*
X78437Y33437D01*
X90628Y54062D03*
X87187Y53437D03*
X88437Y52187D03*
X195000Y52500D03*
X151250Y62500D03*
X141250Y22500D03*
X185000Y47500D03*
X86290Y30937D03*
X89074Y30312D03*
X92187Y31266D03*
X83819Y27187D03*
G54D20*
X170576Y8919D02*
X171642Y9864D01*
X172904Y10526D01*
X174287Y10867D01*
X175712Y10867D01*
X177095Y10526D01*
X178357Y9864D01*
X179423Y8919D01*
X179871Y8271D01*
X179719Y10000D01*
X179876Y11785D01*
X180339Y13516D01*
X181097Y15140D01*
X182124Y16607D01*
X183392Y17875D01*
X184859Y18902D01*
X186483Y19660D01*
X188214Y20123D01*
X190000Y20280D01*
X191785Y20123D01*
X193516Y19660D01*
X195140Y18902D01*
X196607Y17875D01*
X196850Y17632D01*
X196850Y50411D01*
X196078Y49896D01*
X195000Y49681D01*
X193921Y49896D01*
X193007Y50507D01*
X192396Y51421D01*
X192181Y52500D01*
X192396Y53578D01*
X193007Y54492D01*
X193239Y54648D01*
X192908Y54714D01*
X191930Y55367D01*
X191276Y56346D01*
X191047Y57500D01*
X191276Y58653D01*
X191930Y59632D01*
X192908Y60285D01*
X194062Y60515D01*
X195216Y60285D01*
X196194Y59632D01*
X196848Y58653D01*
X196850Y58643D01*
X196850Y72367D01*
X196607Y72124D01*
X195140Y71097D01*
X193516Y70339D01*
X191785Y69876D01*
X190000Y69719D01*
X188214Y69876D01*
X186483Y70339D01*
X184859Y71097D01*
X183392Y72124D01*
X182124Y73392D01*
X181097Y74859D01*
X180339Y76483D01*
X179876Y78214D01*
X179719Y80000D01*
X179871Y81728D01*
X179423Y81080D01*
X178357Y80135D01*
X177095Y79473D01*
X175712Y79132D01*
X174287Y79132D01*
X172904Y79473D01*
X171642Y80135D01*
X170576Y81080D01*
X170000Y81915D01*
X169423Y81080D01*
X168357Y80135D01*
X167095Y79473D01*
X165712Y79132D01*
X164287Y79132D01*
X162904Y79473D01*
X161642Y80135D01*
X160576Y81080D01*
X160000Y81915D01*
X159423Y81080D01*
X158357Y80135D01*
X157095Y79473D01*
X155712Y79132D01*
X154287Y79132D01*
X152904Y79473D01*
X151642Y80135D01*
X150576Y81080D01*
X150000Y81915D01*
X149423Y81080D01*
X148357Y80135D01*
X147095Y79473D01*
X145712Y79132D01*
X144287Y79132D01*
X142904Y79473D01*
X141642Y80135D01*
X140576Y81080D01*
X140000Y81915D01*
X139423Y81080D01*
X138357Y80135D01*
X137095Y79473D01*
X135712Y79132D01*
X134287Y79132D01*
X132904Y79473D01*
X131642Y80135D01*
X130576Y81080D01*
X130000Y81915D01*
X129423Y81080D01*
X128357Y80135D01*
X127095Y79473D01*
X125712Y79132D01*
X124287Y79132D01*
X122904Y79473D01*
X121642Y80135D01*
X120576Y81080D01*
X120000Y81915D01*
X119423Y81080D01*
X118357Y80135D01*
X117095Y79473D01*
X115712Y79132D01*
X114287Y79132D01*
X112904Y79473D01*
X111642Y80135D01*
X110576Y81080D01*
X110000Y81915D01*
X109423Y81080D01*
X108357Y80135D01*
X107095Y79473D01*
X105712Y79132D01*
X104287Y79132D01*
X102904Y79473D01*
X101642Y80135D01*
X100576Y81080D01*
X100000Y81915D01*
X99423Y81080D01*
X98357Y80135D01*
X97095Y79473D01*
X95712Y79132D01*
X94287Y79132D01*
X92904Y79473D01*
X91642Y80135D01*
X90576Y81080D01*
X90000Y81915D01*
X89423Y81080D01*
X88357Y80135D01*
X87095Y79473D01*
X85712Y79132D01*
X84287Y79132D01*
X82904Y79473D01*
X81642Y80135D01*
X80576Y81080D01*
X80000Y81915D01*
X79423Y81080D01*
X78357Y80135D01*
X77095Y79473D01*
X75712Y79132D01*
X74287Y79132D01*
X72904Y79473D01*
X71642Y80135D01*
X70576Y81080D01*
X70000Y81915D01*
X69423Y81080D01*
X68357Y80135D01*
X67095Y79473D01*
X65712Y79132D01*
X64287Y79132D01*
X62904Y79473D01*
X61642Y80135D01*
X60576Y81080D01*
X59766Y82253D01*
X59261Y83585D01*
X59089Y85000D01*
X59261Y86414D01*
X59426Y86850D01*
X17632Y86850D01*
X17875Y86607D01*
X18902Y85140D01*
X19660Y83516D01*
X20123Y81785D01*
X20280Y80000D01*
X20123Y78214D01*
X19660Y76483D01*
X18902Y74859D01*
X17875Y73392D01*
X16607Y72124D01*
X15140Y71097D01*
X13516Y70339D01*
X11785Y69876D01*
X10000Y69719D01*
X8214Y69876D01*
X6483Y70339D01*
X4859Y71097D01*
X3392Y72124D01*
X3149Y72367D01*
X3149Y17632D01*
X3392Y17875D01*
X4859Y18902D01*
X6483Y19660D01*
X8214Y20123D01*
X10000Y20280D01*
X11785Y20123D01*
X13516Y19660D01*
X15140Y18902D01*
X16607Y17875D01*
X17875Y16607D01*
X18902Y15140D01*
X19660Y13516D01*
X20123Y11785D01*
X20280Y10000D01*
X20128Y8271D01*
X20576Y8919D01*
X21642Y9864D01*
X22904Y10526D01*
X24287Y10867D01*
X25712Y10867D01*
X27095Y10526D01*
X28357Y9864D01*
X29423Y8919D01*
X30000Y8084D01*
X30576Y8919D01*
X31642Y9864D01*
X32904Y10526D01*
X34287Y10867D01*
X35712Y10867D01*
X37095Y10526D01*
X38357Y9864D01*
X39423Y8919D01*
X40000Y8084D01*
X40576Y8919D01*
X41642Y9864D01*
X42904Y10526D01*
X44287Y10867D01*
X45712Y10867D01*
X47095Y10526D01*
X48357Y9864D01*
X49423Y8919D01*
X50000Y8084D01*
X50576Y8919D01*
X51642Y9864D01*
X52904Y10526D01*
X54287Y10867D01*
X55712Y10867D01*
X57095Y10526D01*
X58357Y9864D01*
X59423Y8919D01*
X60000Y8084D01*
X60576Y8919D01*
X61642Y9864D01*
X62904Y10526D01*
X64287Y10867D01*
X65712Y10867D01*
X67095Y10526D01*
X68357Y9864D01*
X69423Y8919D01*
X70000Y8084D01*
X70576Y8919D01*
X71642Y9864D01*
X72904Y10526D01*
X74287Y10867D01*
X75712Y10867D01*
X77095Y10526D01*
X78357Y9864D01*
X79423Y8919D01*
X80000Y8084D01*
X80576Y8919D01*
X81642Y9864D01*
X82904Y10526D01*
X84287Y10867D01*
X85712Y10867D01*
X87095Y10526D01*
X88357Y9864D01*
X89423Y8919D01*
X90000Y8084D01*
X90576Y8919D01*
X91642Y9864D01*
X92904Y10526D01*
X94287Y10867D01*
X95712Y10867D01*
X97095Y10526D01*
X98357Y9864D01*
X99423Y8919D01*
X100000Y8084D01*
X100576Y8919D01*
X101642Y9864D01*
X102904Y10526D01*
X104287Y10867D01*
X105712Y10867D01*
X107095Y10526D01*
X108357Y9864D01*
X109423Y8919D01*
X110000Y8084D01*
X110576Y8919D01*
X111642Y9864D01*
X112904Y10526D01*
X114287Y10867D01*
X115712Y10867D01*
X117095Y10526D01*
X118357Y9864D01*
X119423Y8919D01*
X120000Y8084D01*
X120576Y8919D01*
X121642Y9864D01*
X122904Y10526D01*
X124287Y10867D01*
X125712Y10867D01*
X127095Y10526D01*
X128357Y9864D01*
X129423Y8919D01*
X130000Y8084D01*
X130576Y8919D01*
X131642Y9864D01*
X132904Y10526D01*
X134287Y10867D01*
X135712Y10867D01*
X137095Y10526D01*
X138357Y9864D01*
X139423Y8919D01*
X140000Y8084D01*
X140576Y8919D01*
X141642Y9864D01*
X142904Y10526D01*
X144287Y10867D01*
X145712Y10867D01*
X147095Y10526D01*
X148357Y9864D01*
X149423Y8919D01*
X150000Y8084D01*
X150576Y8919D01*
X151642Y9864D01*
X152904Y10526D01*
X154287Y10867D01*
X155712Y10867D01*
X157095Y10526D01*
X158357Y9864D01*
X159423Y8919D01*
X160000Y8084D01*
X160576Y8919D01*
X161642Y9864D01*
X162904Y10526D01*
X164287Y10867D01*
X165712Y10867D01*
X167095Y10526D01*
X168357Y9864D01*
X169423Y8919D01*
X170000Y8084D01*
X170576Y8919D01*
X141250Y19484D02*
X140096Y19714D01*
X139117Y20367D01*
X138464Y21346D01*
X138234Y22500D01*
X138464Y23653D01*
X139117Y24632D01*
X140096Y25285D01*
X141250Y25515D01*
X142403Y25285D01*
X143382Y24632D01*
X144035Y23653D01*
X144265Y22500D01*
X144035Y21346D01*
X143382Y20367D01*
X142403Y19714D01*
X141250Y19484D01*
X185000Y44484D02*
X183846Y44714D01*
X182867Y45367D01*
X182214Y46346D01*
X181984Y47500D01*
X182214Y48653D01*
X182867Y49632D01*
X183846Y50285D01*
X185000Y50515D01*
X186153Y50285D01*
X187132Y49632D01*
X187785Y48653D01*
X188015Y47500D01*
X187785Y46346D01*
X187132Y45367D01*
X186153Y44714D01*
X185000Y44484D01*
X166875Y49172D02*
X165721Y49401D01*
X164742Y50055D01*
X164089Y51033D01*
X163859Y52187D01*
X164089Y53341D01*
X164742Y54319D01*
X165721Y54973D01*
X166875Y55202D01*
X168028Y54973D01*
X169007Y54319D01*
X169660Y53341D01*
X169890Y52187D01*
X169660Y51033D01*
X169007Y50055D01*
X168028Y49401D01*
X166875Y49172D01*
X146250Y54484D02*
X145096Y54714D01*
X144117Y55367D01*
X143464Y56346D01*
X143234Y57500D01*
X143464Y58653D01*
X144117Y59632D01*
X145096Y60285D01*
X146250Y60515D01*
X147403Y60285D01*
X148382Y59632D01*
X149035Y58653D01*
X149265Y57500D01*
X149035Y56346D01*
X148382Y55367D01*
X147403Y54714D01*
X146250Y54484D01*
X151250Y59484D02*
X150096Y59714D01*
X149117Y60367D01*
X148464Y61346D01*
X148234Y62500D01*
X148464Y63653D01*
X149117Y64632D01*
X150096Y65285D01*
X151250Y65515D01*
X152403Y65285D01*
X153382Y64632D01*
X154035Y63653D01*
X154265Y62500D01*
X154035Y61346D01*
X153382Y60367D01*
X152403Y59714D01*
X151250Y59484D01*
X122177Y15325D02*
X118111Y11259D01*
X101888Y11259D01*
X99697Y13450D01*
X99697Y13450D01*
X96888Y16259D01*
X76888Y16259D01*
X74697Y18450D01*
X74697Y18450D01*
X73763Y19384D01*
X73763Y19384D01*
X71572Y21575D01*
X71572Y38736D01*
X73763Y40927D01*
X73763Y40927D01*
X79072Y46236D01*
X79072Y48424D01*
X81263Y50615D01*
X81263Y50615D01*
X81477Y50829D01*
X81930Y51507D01*
X82196Y51685D01*
X83002Y52490D01*
X83180Y52757D01*
X83446Y52935D01*
X84005Y53494D01*
X82866Y53494D01*
X77282Y59078D01*
X77229Y59089D01*
X76251Y59742D01*
X75875Y60304D01*
X75313Y60680D01*
X74938Y61242D01*
X74376Y61617D01*
X74000Y62179D01*
X73438Y62555D01*
X72785Y63533D01*
X72555Y64687D01*
X72785Y65841D01*
X72835Y65917D01*
X70326Y65917D01*
X68481Y67762D01*
X68481Y67762D01*
X67475Y68768D01*
X67475Y68998D01*
X67179Y69440D01*
X66617Y69816D01*
X66242Y70378D01*
X65680Y70753D01*
X65026Y71732D01*
X64797Y72886D01*
X65026Y74039D01*
X65680Y75018D01*
X66658Y75671D01*
X67812Y75901D01*
X68966Y75671D01*
X69944Y75018D01*
X70320Y74456D01*
X70882Y74080D01*
X71257Y73518D01*
X71699Y73223D01*
X71929Y73223D01*
X72936Y72216D01*
X113487Y72216D01*
X125520Y60184D01*
X127800Y57903D01*
X127800Y57903D01*
X135679Y50024D01*
X135679Y50024D01*
X137524Y48179D01*
X137524Y48179D01*
X140962Y44742D01*
X140962Y44742D01*
X141929Y43774D01*
X165882Y43774D01*
X178412Y56304D01*
X178412Y61304D01*
X180257Y63149D01*
X184742Y63149D01*
X186587Y61304D01*
X186587Y58695D01*
X184742Y56850D01*
X184712Y56850D01*
X184712Y53695D01*
X182867Y51850D01*
X182867Y51850D01*
X170337Y39320D01*
X170337Y39320D01*
X168492Y37475D01*
X139320Y37475D01*
X137673Y39122D01*
X123247Y24696D01*
X123069Y24430D01*
X122803Y24252D01*
X122160Y23609D01*
X121251Y23609D01*
X120937Y23547D01*
X120623Y23609D01*
X119714Y23609D01*
X119071Y24252D01*
X118805Y24430D01*
X118627Y24696D01*
X117984Y25339D01*
X117984Y25393D01*
X117555Y25680D01*
X116901Y26658D01*
X116672Y27812D01*
X116901Y28966D01*
X117107Y29274D01*
X116717Y29858D01*
X116502Y30937D01*
X116717Y32016D01*
X117327Y32930D01*
X118242Y33541D01*
X119320Y33755D01*
X120399Y33541D01*
X121313Y32930D01*
X121924Y32016D01*
X121972Y31773D01*
X133497Y43298D01*
X131225Y45570D01*
X131225Y45570D01*
X125649Y51145D01*
X125640Y51132D01*
X124726Y50521D01*
X123647Y50306D01*
X122569Y50521D01*
X121906Y50963D01*
X121617Y50673D01*
X119007Y50673D01*
X117162Y52518D01*
X117162Y53611D01*
X116329Y53776D01*
X115351Y54430D01*
X114697Y55408D01*
X114468Y56562D01*
X114697Y57716D01*
X115351Y58694D01*
X116329Y59348D01*
X117262Y59533D01*
X110878Y65917D01*
X78587Y65917D01*
X78640Y65882D01*
X79015Y65320D01*
X79577Y64944D01*
X79953Y64382D01*
X80515Y64007D01*
X81169Y63028D01*
X81179Y62976D01*
X85149Y59005D01*
X86983Y59005D01*
X88233Y60255D01*
X90935Y60255D01*
X91250Y60318D01*
X91564Y60255D01*
X92391Y60255D01*
X92709Y59937D01*
X92867Y60174D01*
X93846Y60828D01*
X95000Y61057D01*
X96153Y60828D01*
X97132Y60174D01*
X97785Y59196D01*
X98015Y58042D01*
X97785Y56888D01*
X97132Y55910D01*
X96895Y55752D01*
X97130Y55516D01*
X97130Y51358D01*
X92443Y46670D01*
X92443Y43329D01*
X109864Y25908D01*
X110055Y26194D01*
X111033Y26848D01*
X112187Y27077D01*
X113341Y26848D01*
X114319Y26194D01*
X114973Y25216D01*
X115202Y24062D01*
X114973Y22908D01*
X114943Y22863D01*
X114943Y22761D01*
X114973Y22716D01*
X115161Y21771D01*
X115625Y21863D01*
X116778Y21633D01*
X117367Y21240D01*
X119986Y21240D01*
X122177Y19049D01*
X122177Y15325D01*
X183437Y60000D02*
X181562Y60000D01*
X167187Y40625D02*
X181562Y55000D01*
X167187Y40625D02*
X140625Y40625D01*
X112183Y69066D02*
X71631Y69066D01*
X70625Y70073D01*
X112183Y69066D02*
X123869Y57380D01*
X120312Y53823D01*
X123869Y57380D02*
X124650Y56599D01*
X134375Y46875D01*
X134375Y46874D02*
X134375Y46875D01*
X140625Y40625D02*
X137812Y43437D01*
X134375Y46874D01*
X181562Y55000D02*
X181562Y60000D01*
X85625Y40312D02*
X87187Y40312D01*
X95312Y32187D01*
X99215Y28284D02*
X99215Y24062D01*
X95312Y32187D02*
X95312Y29687D01*
X97343Y30156D02*
X97343Y23284D01*
X97343Y30156D02*
X99215Y28284D01*
X97343Y23593D02*
X97034Y23284D01*
X97343Y23593D02*
X97343Y23284D01*
X97034Y23284D02*
X97343Y23284D01*
X95312Y29687D02*
X94687Y29062D01*
X95312Y29687D02*
X95312Y26250D01*
X93750Y28125D02*
X90937Y28125D01*
X90000Y27187D01*
X87812Y27187D02*
X90000Y27187D01*
X94687Y29062D02*
X94687Y26250D01*
X95312Y26250D02*
X95312Y23284D01*
X94687Y26250D02*
X95312Y26250D01*
X94375Y25937D02*
X94687Y26250D01*
X85625Y40312D02*
X85312Y40312D01*
X85485Y40467D01*
X85312Y40312D02*
X80937Y35937D01*
X80937Y25625D01*
X82187Y24375D01*
X85000Y24375D02*
X82187Y24375D01*
X85000Y24375D02*
X86562Y25937D01*
X94375Y25937D01*
X86562Y25937D02*
X87812Y27187D01*
X86562Y49375D02*
X86562Y41875D01*
X86875Y41562D01*
X86562Y41875D02*
X86562Y41914D01*
X85312Y50625D02*
X85000Y50312D01*
X85000Y43671D01*
X95312Y32187D02*
X97343Y30156D01*
X94687Y29062D02*
X93750Y28125D01*
G54D22*
X82812Y46875D02*
X82812Y44687D01*
X84687Y41875D02*
X81331Y38338D01*
X77965Y23284D02*
X81562Y23284D01*
X95312Y23284D02*
X97343Y23284D01*
X99215Y23284D02*
X105000Y17500D01*
X118437Y17500D01*
X81331Y38338D02*
X78527Y35535D01*
X75312Y32320D02*
X75312Y25937D01*
X77965Y23284D01*
X77433Y34441D02*
X77433Y34441D01*
X75312Y32320D01*
X99215Y23284D02*
X97343Y23284D01*
X89528Y23284D02*
X94062Y23284D01*
X75312Y32320D02*
X75312Y37187D01*
X82812Y44687D01*
X81562Y23284D02*
X78750Y26096D01*
X81562Y23284D02*
X89528Y23284D01*
X78750Y26096D02*
X78750Y31250D01*
X78750Y35312D02*
X78750Y35937D01*
X78527Y35535D02*
X77433Y34441D01*
X78750Y35312D02*
X78527Y35535D01*
X75312Y25937D02*
X75312Y23125D01*
X78437Y20000D01*
X98437Y20000D01*
X103437Y15000D01*
X116562Y15000D01*
X78750Y31250D02*
X78750Y33125D01*
X78750Y35312D01*
X118437Y16875D02*
X116562Y15000D01*
X118437Y16875D02*
X118437Y17500D01*
X95312Y23284D02*
X89528Y23284D01*
G54D23*
X65000Y85000D03*
X75000Y85000D03*
X85000Y85000D03*
X95000Y85000D03*
X105000Y85000D03*
X115000Y85000D03*
X125000Y85000D03*
X135000Y85000D03*
X145000Y85000D03*
X155000Y85000D03*
X165000Y85000D03*
X175000Y85000D03*
X65000Y5000D03*
X75000Y5000D03*
X85000Y5000D03*
X95000Y5000D03*
X105000Y5000D03*
X115000Y5000D03*
X125000Y5000D03*
X135000Y5000D03*
X145000Y5000D03*
X155000Y5000D03*
X165000Y5000D03*
X175000Y5000D03*
X55000Y5000D03*
X45000Y5000D03*
X35000Y5000D03*
X25000Y5000D03*
G54D24*
X190000Y80000D03*
X190000Y10000D03*
X10000Y80000D03*
X10000Y10000D03*
G36*
X17814Y86459D02*
X59574Y86703D01*
X59574Y86998D01*
X17533Y86998D01*
X17458Y86815D01*
X17814Y86459D01*
X17814Y86459D01*
G37*
G36*
X59363Y86266D02*
X59641Y86999D01*
X17727Y86754D01*
X17727Y86460D01*
X59363Y86266D01*
X59363Y86266D01*
G37*
G36*
X18827Y84989D02*
X59411Y86271D01*
X59407Y86561D01*
X17785Y86755D01*
X17702Y86596D01*
X18827Y84989D01*
X18827Y84989D01*
G37*
G36*
X59220Y84851D02*
X59428Y86567D01*
X18753Y85283D01*
X18757Y84992D01*
X59220Y84851D01*
X59220Y84851D01*
G37*
G36*
X59428Y83431D02*
X59220Y85147D01*
X18758Y85288D01*
X18752Y84998D01*
X59428Y83431D01*
X59428Y83431D01*
G37*
G36*
X19566Y83368D02*
X59406Y83438D01*
X59411Y83727D01*
X18666Y85296D01*
X19566Y83368D01*
X19566Y83368D01*
G37*
G36*
X59983Y82098D02*
X59363Y83733D01*
X19514Y83663D01*
X19510Y83373D01*
X59983Y82098D01*
X59983Y82098D01*
G37*
G36*
X20010Y81636D02*
X59912Y82107D01*
X59915Y82396D01*
X19466Y83669D01*
X20010Y81636D01*
X20010Y81636D01*
G37*
G36*
X60663Y80931D02*
X60748Y81090D01*
X59843Y82401D01*
X19976Y81931D01*
X19975Y81640D01*
X60663Y80931D01*
X60663Y80931D01*
G37*
G36*
X69334Y80933D02*
X70665Y80933D01*
X70748Y81091D01*
X70000Y82175D01*
X69251Y81091D01*
X69334Y80933D01*
X69334Y80933D01*
G37*
G36*
X79334Y80933D02*
X80665Y80933D01*
X80748Y81091D01*
X80000Y82175D01*
X79251Y81091D01*
X79334Y80933D01*
X79334Y80933D01*
G37*
G36*
X89334Y80933D02*
X90665Y80933D01*
X90748Y81091D01*
X90000Y82175D01*
X89251Y81091D01*
X89334Y80933D01*
X89334Y80933D01*
G37*
G36*
X99334Y80933D02*
X100665Y80933D01*
X100748Y81091D01*
X100000Y82175D01*
X99251Y81091D01*
X99334Y80933D01*
X99334Y80933D01*
G37*
G36*
X109334Y80933D02*
X110665Y80933D01*
X110748Y81091D01*
X110000Y82175D01*
X109251Y81091D01*
X109334Y80933D01*
X109334Y80933D01*
G37*
G36*
X119334Y80933D02*
X120665Y80933D01*
X120748Y81091D01*
X120000Y82175D01*
X119251Y81091D01*
X119334Y80933D01*
X119334Y80933D01*
G37*
G36*
X129334Y80933D02*
X130665Y80933D01*
X130748Y81091D01*
X130000Y82175D01*
X129251Y81091D01*
X129334Y80933D01*
X129334Y80933D01*
G37*
G36*
X139334Y80933D02*
X140665Y80933D01*
X140748Y81091D01*
X140000Y82175D01*
X139251Y81091D01*
X139334Y80933D01*
X139334Y80933D01*
G37*
G36*
X149334Y80933D02*
X150665Y80933D01*
X150748Y81091D01*
X150000Y82175D01*
X149251Y81091D01*
X149334Y80933D01*
X149334Y80933D01*
G37*
G36*
X159334Y80933D02*
X160665Y80933D01*
X160748Y81091D01*
X160000Y82175D01*
X159251Y81091D01*
X159334Y80933D01*
X159334Y80933D01*
G37*
G36*
X169334Y80933D02*
X170665Y80933D01*
X170748Y81091D01*
X170000Y82175D01*
X169251Y81091D01*
X169334Y80933D01*
X169334Y80933D01*
G37*
G36*
X61740Y79984D02*
X61818Y80177D01*
X60633Y81227D01*
X19980Y81935D01*
X19972Y81643D01*
X61740Y79984D01*
X61740Y79984D01*
G37*
G36*
X68299Y79950D02*
X70744Y80992D01*
X70696Y81228D01*
X69367Y81228D01*
X68165Y80163D01*
X68299Y79950D01*
X68299Y79950D01*
G37*
G36*
X71744Y79988D02*
X71816Y80178D01*
X70604Y81253D01*
X68188Y80224D01*
X68236Y79988D01*
X71744Y79988D01*
X71744Y79988D01*
G37*
G36*
X78299Y79950D02*
X80744Y80992D01*
X80696Y81228D01*
X79367Y81228D01*
X78165Y80163D01*
X78299Y79950D01*
X78299Y79950D01*
G37*
G36*
X81744Y79988D02*
X81816Y80178D01*
X80604Y81253D01*
X78188Y80224D01*
X78236Y79988D01*
X81744Y79988D01*
X81744Y79988D01*
G37*
G36*
X88299Y79950D02*
X90744Y80992D01*
X90696Y81228D01*
X89367Y81228D01*
X88165Y80163D01*
X88299Y79950D01*
X88299Y79950D01*
G37*
G36*
X91744Y79988D02*
X91816Y80178D01*
X90604Y81253D01*
X88188Y80224D01*
X88236Y79988D01*
X91744Y79988D01*
X91744Y79988D01*
G37*
G36*
X98299Y79950D02*
X100744Y80992D01*
X100696Y81228D01*
X99367Y81228D01*
X98165Y80163D01*
X98299Y79950D01*
X98299Y79950D01*
G37*
G36*
X101744Y79988D02*
X101816Y80178D01*
X100604Y81253D01*
X98188Y80224D01*
X98236Y79988D01*
X101744Y79988D01*
X101744Y79988D01*
G37*
G36*
X108299Y79950D02*
X110744Y80992D01*
X110696Y81228D01*
X109367Y81228D01*
X108165Y80163D01*
X108299Y79950D01*
X108299Y79950D01*
G37*
G36*
X111744Y79988D02*
X111816Y80178D01*
X110604Y81253D01*
X108188Y80224D01*
X108236Y79988D01*
X111744Y79988D01*
X111744Y79988D01*
G37*
G36*
X118299Y79950D02*
X120744Y80992D01*
X120696Y81228D01*
X119367Y81228D01*
X118165Y80163D01*
X118299Y79950D01*
X118299Y79950D01*
G37*
G36*
X121744Y79988D02*
X121816Y80178D01*
X120604Y81253D01*
X118188Y80224D01*
X118236Y79988D01*
X121744Y79988D01*
X121744Y79988D01*
G37*
G36*
X128299Y79950D02*
X130744Y80992D01*
X130696Y81228D01*
X129367Y81228D01*
X128165Y80163D01*
X128299Y79950D01*
X128299Y79950D01*
G37*
G36*
X131744Y79988D02*
X131816Y80178D01*
X130604Y81253D01*
X128188Y80224D01*
X128236Y79988D01*
X131744Y79988D01*
X131744Y79988D01*
G37*
G36*
X138299Y79950D02*
X140744Y80992D01*
X140696Y81228D01*
X139367Y81228D01*
X138165Y80163D01*
X138299Y79950D01*
X138299Y79950D01*
G37*
G36*
X141744Y79988D02*
X141816Y80178D01*
X140604Y81253D01*
X138188Y80224D01*
X138236Y79988D01*
X141744Y79988D01*
X141744Y79988D01*
G37*
G36*
X148299Y79950D02*
X150744Y80992D01*
X150696Y81228D01*
X149367Y81228D01*
X148165Y80163D01*
X148299Y79950D01*
X148299Y79950D01*
G37*
G36*
X151744Y79988D02*
X151816Y80178D01*
X150604Y81253D01*
X148188Y80224D01*
X148236Y79988D01*
X151744Y79988D01*
X151744Y79988D01*
G37*
G36*
X158299Y79950D02*
X160744Y80992D01*
X160696Y81228D01*
X159367Y81228D01*
X158165Y80163D01*
X158299Y79950D01*
X158299Y79950D01*
G37*
G36*
X161744Y79988D02*
X161816Y80178D01*
X160604Y81253D01*
X158188Y80224D01*
X158236Y79988D01*
X161744Y79988D01*
X161744Y79988D01*
G37*
G36*
X168299Y79950D02*
X170744Y80992D01*
X170696Y81228D01*
X169367Y81228D01*
X168165Y80163D01*
X168299Y79950D01*
X168299Y79950D01*
G37*
G36*
X171744Y79988D02*
X171816Y80178D01*
X170604Y81253D01*
X168188Y80224D01*
X168236Y79988D01*
X171744Y79988D01*
X171744Y79988D01*
G37*
G36*
X179610Y79841D02*
X179856Y79864D01*
X180028Y81829D01*
X179814Y81906D01*
X179263Y81108D01*
X179610Y79841D01*
X179610Y79841D01*
G37*
G36*
X179919Y79831D02*
X179503Y81348D01*
X178187Y80182D01*
X178246Y79998D01*
X179919Y79831D01*
X179919Y79831D01*
G37*
G36*
X20144Y79851D02*
X61787Y79988D01*
X61792Y80277D01*
X19962Y81939D01*
X20144Y79851D01*
X20144Y79851D01*
G37*
G36*
X63018Y79324D02*
X63075Y79550D01*
X61678Y80283D01*
X20133Y80147D01*
X20131Y79854D01*
X63018Y79324D01*
X63018Y79324D01*
G37*
G36*
X66993Y79309D02*
X71799Y80009D01*
X71779Y80283D01*
X68321Y80283D01*
X66916Y79546D01*
X66993Y79309D01*
X66993Y79309D01*
G37*
G36*
X73019Y79326D02*
X73075Y79550D01*
X71668Y80288D01*
X66938Y79600D01*
X66958Y79326D01*
X73019Y79326D01*
X73019Y79326D01*
G37*
G36*
X76993Y79309D02*
X81799Y80009D01*
X81779Y80283D01*
X78321Y80283D01*
X76916Y79546D01*
X76993Y79309D01*
X76993Y79309D01*
G37*
G36*
X83019Y79326D02*
X83075Y79550D01*
X81668Y80288D01*
X76938Y79600D01*
X76958Y79326D01*
X83019Y79326D01*
X83019Y79326D01*
G37*
G36*
X86993Y79309D02*
X91799Y80009D01*
X91779Y80283D01*
X88321Y80283D01*
X86916Y79546D01*
X86993Y79309D01*
X86993Y79309D01*
G37*
G36*
X93019Y79326D02*
X93075Y79550D01*
X91668Y80288D01*
X86938Y79600D01*
X86958Y79326D01*
X93019Y79326D01*
X93019Y79326D01*
G37*
G36*
X96993Y79309D02*
X101799Y80009D01*
X101779Y80283D01*
X98321Y80283D01*
X96916Y79546D01*
X96993Y79309D01*
X96993Y79309D01*
G37*
G36*
X103019Y79326D02*
X103075Y79550D01*
X101668Y80288D01*
X96938Y79600D01*
X96958Y79326D01*
X103019Y79326D01*
X103019Y79326D01*
G37*
G36*
X106993Y79309D02*
X111799Y80009D01*
X111779Y80283D01*
X108321Y80283D01*
X106916Y79546D01*
X106993Y79309D01*
X106993Y79309D01*
G37*
G36*
X113019Y79326D02*
X113075Y79550D01*
X111668Y80288D01*
X106938Y79600D01*
X106958Y79326D01*
X113019Y79326D01*
X113019Y79326D01*
G37*
G36*
X116993Y79309D02*
X121799Y80009D01*
X121779Y80283D01*
X118321Y80283D01*
X116916Y79546D01*
X116993Y79309D01*
X116993Y79309D01*
G37*
G36*
X123019Y79326D02*
X123075Y79550D01*
X121668Y80288D01*
X116938Y79600D01*
X116958Y79326D01*
X123019Y79326D01*
X123019Y79326D01*
G37*
G36*
X126993Y79309D02*
X131799Y80009D01*
X131779Y80283D01*
X128321Y80283D01*
X126916Y79546D01*
X126993Y79309D01*
X126993Y79309D01*
G37*
G36*
X133019Y79326D02*
X133075Y79550D01*
X131668Y80288D01*
X126938Y79600D01*
X126958Y79326D01*
X133019Y79326D01*
X133019Y79326D01*
G37*
G36*
X136993Y79309D02*
X141799Y80009D01*
X141779Y80283D01*
X138321Y80283D01*
X136916Y79546D01*
X136993Y79309D01*
X136993Y79309D01*
G37*
G36*
X143019Y79326D02*
X143075Y79550D01*
X141668Y80288D01*
X136938Y79600D01*
X136958Y79326D01*
X143019Y79326D01*
X143019Y79326D01*
G37*
G36*
X146993Y79309D02*
X151799Y80009D01*
X151779Y80283D01*
X148321Y80283D01*
X146916Y79546D01*
X146993Y79309D01*
X146993Y79309D01*
G37*
G36*
X153019Y79326D02*
X153075Y79550D01*
X151668Y80288D01*
X146938Y79600D01*
X146958Y79326D01*
X153019Y79326D01*
X153019Y79326D01*
G37*
G36*
X156993Y79309D02*
X161799Y80009D01*
X161779Y80283D01*
X158321Y80283D01*
X156916Y79546D01*
X156993Y79309D01*
X156993Y79309D01*
G37*
G36*
X163019Y79326D02*
X163075Y79550D01*
X161668Y80288D01*
X156938Y79600D01*
X156958Y79326D01*
X163019Y79326D01*
X163019Y79326D01*
G37*
G36*
X166993Y79309D02*
X171799Y80009D01*
X171779Y80283D01*
X168321Y80283D01*
X166916Y79546D01*
X166993Y79309D01*
X166993Y79309D01*
G37*
G36*
X173019Y79326D02*
X173075Y79550D01*
X171668Y80288D01*
X166938Y79600D01*
X166958Y79326D01*
X173019Y79326D01*
X173019Y79326D01*
G37*
G36*
X176999Y79303D02*
X179873Y79880D01*
X179861Y80134D01*
X178328Y80287D01*
X176913Y79545D01*
X176999Y79303D01*
X176999Y79303D01*
G37*
G36*
X64416Y78982D02*
X64451Y79244D01*
X62923Y79621D01*
X20134Y80149D01*
X20130Y79855D01*
X64416Y78982D01*
X64416Y78982D01*
G37*
G36*
X65585Y78979D02*
X73055Y79333D01*
X73048Y79621D01*
X67077Y79621D01*
X65547Y79244D01*
X65585Y78979D01*
X65585Y78979D01*
G37*
G36*
X74418Y78985D02*
X74449Y79244D01*
X72918Y79622D01*
X65561Y79273D01*
X65568Y78985D01*
X74418Y78985D01*
X74418Y78985D01*
G37*
G36*
X75585Y78979D02*
X83055Y79333D01*
X83048Y79621D01*
X77077Y79621D01*
X75547Y79244D01*
X75585Y78979D01*
X75585Y78979D01*
G37*
G36*
X84418Y78985D02*
X84449Y79244D01*
X82918Y79622D01*
X75561Y79273D01*
X75568Y78985D01*
X84418Y78985D01*
X84418Y78985D01*
G37*
G36*
X85585Y78979D02*
X93055Y79333D01*
X93048Y79621D01*
X87077Y79621D01*
X85547Y79244D01*
X85585Y78979D01*
X85585Y78979D01*
G37*
G36*
X94418Y78985D02*
X94449Y79244D01*
X92918Y79622D01*
X85561Y79273D01*
X85568Y78985D01*
X94418Y78985D01*
X94418Y78985D01*
G37*
G36*
X95585Y78979D02*
X103055Y79333D01*
X103048Y79621D01*
X97077Y79621D01*
X95547Y79244D01*
X95585Y78979D01*
X95585Y78979D01*
G37*
G36*
X104418Y78985D02*
X104449Y79244D01*
X102918Y79622D01*
X95561Y79273D01*
X95568Y78985D01*
X104418Y78985D01*
X104418Y78985D01*
G37*
G36*
X105585Y78979D02*
X113055Y79333D01*
X113048Y79621D01*
X107077Y79621D01*
X105547Y79244D01*
X105585Y78979D01*
X105585Y78979D01*
G37*
G36*
X114418Y78985D02*
X114449Y79244D01*
X112918Y79622D01*
X105561Y79273D01*
X105568Y78985D01*
X114418Y78985D01*
X114418Y78985D01*
G37*
G36*
X115585Y78979D02*
X123055Y79333D01*
X123048Y79621D01*
X117077Y79621D01*
X115547Y79244D01*
X115585Y78979D01*
X115585Y78979D01*
G37*
G36*
X124418Y78985D02*
X124449Y79244D01*
X122918Y79622D01*
X115561Y79273D01*
X115568Y78985D01*
X124418Y78985D01*
X124418Y78985D01*
G37*
G36*
X125585Y78979D02*
X133055Y79333D01*
X133048Y79621D01*
X127077Y79621D01*
X125547Y79244D01*
X125585Y78979D01*
X125585Y78979D01*
G37*
G36*
X134418Y78985D02*
X134449Y79244D01*
X132918Y79622D01*
X125561Y79273D01*
X125568Y78985D01*
X134418Y78985D01*
X134418Y78985D01*
G37*
G36*
X135585Y78979D02*
X143055Y79333D01*
X143048Y79621D01*
X137077Y79621D01*
X135547Y79244D01*
X135585Y78979D01*
X135585Y78979D01*
G37*
G36*
X144418Y78985D02*
X144449Y79244D01*
X142918Y79622D01*
X135561Y79273D01*
X135568Y78985D01*
X144418Y78985D01*
X144418Y78985D01*
G37*
G36*
X145585Y78979D02*
X153055Y79333D01*
X153048Y79621D01*
X147077Y79621D01*
X145547Y79244D01*
X145585Y78979D01*
X145585Y78979D01*
G37*
G36*
X154418Y78985D02*
X154449Y79244D01*
X152918Y79622D01*
X145561Y79273D01*
X145568Y78985D01*
X154418Y78985D01*
X154418Y78985D01*
G37*
G36*
X155585Y78979D02*
X163055Y79333D01*
X163048Y79621D01*
X157077Y79621D01*
X155547Y79244D01*
X155585Y78979D01*
X155585Y78979D01*
G37*
G36*
X164418Y78985D02*
X164449Y79244D01*
X162918Y79622D01*
X155561Y79273D01*
X155568Y78985D01*
X164418Y78985D01*
X164418Y78985D01*
G37*
G36*
X165585Y78979D02*
X173055Y79333D01*
X173048Y79621D01*
X167077Y79621D01*
X165547Y79244D01*
X165585Y78979D01*
X165585Y78979D01*
G37*
G36*
X174418Y78985D02*
X174449Y79244D01*
X172918Y79622D01*
X165561Y79273D01*
X165568Y78985D01*
X174418Y78985D01*
X174418Y78985D01*
G37*
G36*
X175601Y78957D02*
X179894Y79886D01*
X179834Y80173D01*
X177063Y79617D01*
X175535Y79241D01*
X175601Y78957D01*
X175601Y78957D01*
G37*
G36*
X19962Y78063D02*
X64435Y78988D01*
X64435Y79277D01*
X20145Y80150D01*
X19962Y78063D01*
X19962Y78063D01*
G37*
G36*
X19978Y78066D02*
X175860Y78986D01*
X175859Y79280D01*
X64286Y79280D01*
X19974Y78359D01*
X19978Y78066D01*
X19978Y78066D01*
G37*
G36*
X180040Y78027D02*
X179852Y80179D01*
X175564Y79252D01*
X175564Y79014D01*
X180040Y78027D01*
X180040Y78027D01*
G37*
G36*
X180008Y78067D02*
X180037Y78330D01*
X175728Y79280D01*
X19975Y78361D01*
X19976Y78067D01*
X180008Y78067D01*
X180008Y78067D01*
G37*
G36*
X19467Y76334D02*
X180024Y78068D01*
X180022Y78362D01*
X20010Y78362D01*
X19467Y76334D01*
X19467Y76334D01*
G37*
G36*
X180532Y76336D02*
X179989Y78363D01*
X19511Y76630D01*
X19513Y76336D01*
X180532Y76336D01*
X180532Y76336D01*
G37*
G36*
X67811Y75753D02*
X180487Y76337D01*
X180487Y76631D01*
X19513Y76631D01*
X19511Y76338D01*
X67811Y75753D01*
X67811Y75753D01*
G37*
G36*
X66671Y75523D02*
X67971Y75782D01*
X67947Y76047D01*
X19514Y76633D01*
X19510Y76338D01*
X66671Y75523D01*
X66671Y75523D01*
G37*
G36*
X68952Y75524D02*
X180488Y76337D01*
X180486Y76632D01*
X67678Y76048D01*
X67652Y75782D01*
X68952Y75524D01*
X68952Y75524D01*
G37*
G36*
X65723Y74869D02*
X66830Y75609D01*
X66769Y75817D01*
X19516Y76634D01*
X19508Y76341D01*
X65723Y74869D01*
X65723Y74869D01*
G37*
G36*
X69900Y74869D02*
X180489Y76338D01*
X180485Y76632D01*
X68856Y75818D01*
X68793Y75609D01*
X69900Y74869D01*
X69900Y74869D01*
G37*
G36*
X181329Y74711D02*
X180433Y76632D01*
X69796Y75163D01*
X69797Y74870D01*
X181329Y74711D01*
X181329Y74711D01*
G37*
G36*
X18670Y74711D02*
X65825Y74871D01*
X65830Y75161D01*
X19567Y76634D01*
X18670Y74711D01*
X18670Y74711D01*
G37*
G36*
X70241Y74308D02*
X181244Y74712D01*
X181244Y75007D01*
X69856Y75165D01*
X69772Y75009D01*
X70241Y74308D01*
X70241Y74308D01*
G37*
G36*
X70837Y73932D02*
X181245Y74713D01*
X181244Y75008D01*
X70210Y74603D01*
X70147Y74394D01*
X70837Y73932D01*
X70837Y73932D01*
G37*
G36*
X65104Y73890D02*
X65852Y75009D01*
X65768Y75166D01*
X18756Y75007D01*
X18754Y74714D01*
X65104Y73890D01*
X65104Y73890D01*
G37*
G36*
X71179Y73370D02*
X181246Y74714D01*
X181243Y75008D01*
X70792Y74227D01*
X70710Y74071D01*
X71179Y73370D01*
X71179Y73370D01*
G37*
G36*
X182214Y73244D02*
X182297Y73403D01*
X181173Y75008D01*
X71109Y73664D01*
X71110Y73371D01*
X182214Y73244D01*
X182214Y73244D01*
G37*
G36*
X17786Y73243D02*
X65174Y73894D01*
X65174Y74184D01*
X18826Y75008D01*
X17702Y73402D01*
X17786Y73243D01*
X17786Y73243D01*
G37*
G36*
X71655Y73075D02*
X182272Y73244D01*
X182272Y73539D01*
X71148Y73666D01*
X71084Y73456D01*
X71655Y73075D01*
X71655Y73075D01*
G37*
G36*
X71929Y73075D02*
X182272Y73244D01*
X182272Y73539D01*
X71552Y73370D01*
X71552Y73075D01*
X71929Y73075D01*
X71929Y73075D01*
G37*
G36*
X64918Y72737D02*
X65207Y74190D01*
X17727Y73537D01*
X17727Y73246D01*
X64918Y72737D01*
X64918Y72737D01*
G37*
G36*
X72875Y72068D02*
X182273Y73246D01*
X182271Y73539D01*
X71830Y73370D01*
X71755Y73188D01*
X72875Y72068D01*
X72875Y72068D01*
G37*
G36*
X113488Y72068D02*
X182274Y73246D01*
X182270Y73541D01*
X72787Y72362D01*
X72789Y72068D01*
X113488Y72068D01*
X113488Y72068D01*
G37*
G36*
X183490Y71977D02*
X183566Y72159D01*
X182185Y73540D01*
X113338Y72361D01*
X113341Y72069D01*
X183490Y71977D01*
X183490Y71977D01*
G37*
G36*
X16510Y71975D02*
X64945Y72740D01*
X64944Y73032D01*
X17814Y73540D01*
X16433Y72159D01*
X16510Y71975D01*
X16510Y71975D01*
G37*
G36*
X65206Y71583D02*
X64918Y73035D01*
X16459Y72270D01*
X16460Y71978D01*
X65206Y71583D01*
X65206Y71583D01*
G37*
G36*
X15032Y70948D02*
X65174Y71586D01*
X65174Y71878D01*
X16561Y72273D01*
X14966Y71155D01*
X15032Y70948D01*
X15032Y70948D01*
G37*
G36*
X184966Y70947D02*
X185034Y71155D01*
X183438Y72272D01*
X113341Y72364D01*
X113338Y72071D01*
X184966Y70947D01*
X184966Y70947D01*
G37*
G36*
X65768Y70605D02*
X65852Y70762D01*
X65105Y71880D01*
X14991Y71242D01*
X14992Y70950D01*
X65768Y70605D01*
X65768Y70605D01*
G37*
G36*
X66350Y70229D02*
X66416Y70439D01*
X65725Y70901D01*
X14993Y71245D01*
X14990Y70951D01*
X66350Y70229D01*
X66350Y70229D01*
G37*
G36*
X13397Y70192D02*
X66389Y70230D01*
X66390Y70523D01*
X15108Y71245D01*
X13346Y70423D01*
X13397Y70192D01*
X13397Y70192D01*
G37*
G36*
X186600Y70189D02*
X186655Y70422D01*
X184893Y71244D01*
X113343Y72366D01*
X113336Y72072D01*
X186600Y70189D01*
X186600Y70189D01*
G37*
G36*
X11656Y69727D02*
X66390Y70232D01*
X66389Y70526D01*
X13496Y70487D01*
X11621Y69985D01*
X11656Y69727D01*
X11656Y69727D01*
G37*
G36*
X188341Y69724D02*
X188380Y69984D01*
X186505Y70487D01*
X113344Y72367D01*
X113335Y72073D01*
X188341Y69724D01*
X188341Y69724D01*
G37*
G36*
X66706Y69668D02*
X66789Y69824D01*
X66320Y70526D01*
X11636Y70022D01*
X11638Y69728D01*
X66706Y69668D01*
X66706Y69668D01*
G37*
G36*
X9858Y69572D02*
X66765Y69669D01*
X66765Y69963D01*
X11778Y70023D01*
X9846Y69854D01*
X9858Y69572D01*
X9858Y69572D01*
G37*
G36*
X190138Y69567D02*
X190155Y69854D01*
X188223Y70023D01*
X113344Y72368D01*
X113335Y72073D01*
X190138Y69567D01*
X190138Y69567D01*
G37*
G36*
X67288Y69292D02*
X67353Y69502D01*
X66662Y69964D01*
X9852Y69867D01*
X9852Y69572D01*
X67288Y69292D01*
X67288Y69292D01*
G37*
G36*
X67562Y68849D02*
X67647Y69006D01*
X67259Y69588D01*
X9853Y69868D01*
X9851Y69574D01*
X67562Y68849D01*
X67562Y68849D01*
G37*
G36*
X67623Y68618D02*
X67623Y69144D01*
X9854Y69869D01*
X9850Y69574D01*
X67623Y68618D01*
X67623Y68618D01*
G37*
G36*
X70419Y65763D02*
X70503Y65949D01*
X67537Y68915D01*
X9858Y69869D01*
X9846Y69581D01*
X70419Y65763D01*
X70419Y65763D01*
G37*
G36*
X78595Y65734D02*
X111026Y65769D01*
X111025Y66065D01*
X78478Y66065D01*
X78414Y65855D01*
X78595Y65734D01*
X78595Y65734D01*
G37*
G36*
X72862Y65691D02*
X73007Y65908D01*
X72924Y66065D01*
X70181Y66065D01*
X70177Y65774D01*
X72862Y65691D01*
X72862Y65691D01*
G37*
G36*
X151119Y65352D02*
X191946Y69744D01*
X191917Y70035D01*
X189985Y69866D01*
X151087Y65646D01*
X151119Y65352D01*
X151119Y65352D01*
G37*
G36*
X151244Y65366D02*
X190152Y69587D01*
X190142Y69862D01*
X113355Y72368D01*
X113326Y72095D01*
X151244Y65366D01*
X151244Y65366D01*
G37*
G36*
X78938Y65170D02*
X111027Y65772D01*
X111024Y66065D01*
X78551Y66029D01*
X78468Y65873D01*
X78938Y65170D01*
X78938Y65170D01*
G37*
G36*
X150096Y65135D02*
X151398Y65394D01*
X151396Y65639D01*
X113368Y72387D01*
X113315Y72098D01*
X150096Y65135D01*
X150096Y65135D01*
G37*
G36*
X152397Y65136D02*
X191948Y69746D01*
X191915Y70038D01*
X151108Y65648D01*
X151096Y65395D01*
X152397Y65136D01*
X152397Y65136D01*
G37*
G36*
X79535Y64795D02*
X111029Y65774D01*
X111022Y66067D01*
X78904Y65465D01*
X78843Y65257D01*
X79535Y64795D01*
X79535Y64795D01*
G37*
G36*
X72661Y64460D02*
X72963Y65983D01*
X70215Y66068D01*
X70153Y65844D01*
X72661Y64460D01*
X72661Y64460D01*
G37*
G36*
X72662Y64530D02*
X72731Y64759D01*
X70369Y66062D01*
X9863Y69876D01*
X9842Y69584D01*
X72662Y64530D01*
X72662Y64530D01*
G37*
G36*
X149148Y64474D02*
X150260Y65218D01*
X150220Y65412D01*
X113371Y72388D01*
X113314Y72102D01*
X149148Y64474D01*
X149148Y64474D01*
G37*
G36*
X153346Y64478D02*
X191949Y69749D01*
X191913Y70039D01*
X152284Y65420D01*
X152236Y65220D01*
X153346Y64478D01*
X153346Y64478D01*
G37*
G36*
X79877Y64231D02*
X111031Y65777D01*
X111020Y66069D01*
X79486Y65089D01*
X79406Y64934D01*
X79877Y64231D01*
X79877Y64231D01*
G37*
G36*
X80474Y63856D02*
X111034Y65779D01*
X111017Y66072D01*
X79839Y64524D01*
X79782Y64319D01*
X80474Y63856D01*
X80474Y63856D01*
G37*
G36*
X148529Y63485D02*
X149361Y64731D01*
X113376Y72391D01*
X113311Y72107D01*
X148529Y63485D01*
X148529Y63485D01*
G37*
G36*
X153965Y63492D02*
X191952Y69754D01*
X191909Y70042D01*
X153128Y64746D01*
X153965Y63492D01*
X153965Y63492D01*
G37*
G36*
X72968Y63367D02*
X72678Y64825D01*
X9865Y69878D01*
X9839Y69587D01*
X72968Y63367D01*
X72968Y63367D01*
G37*
G36*
X72917Y63372D02*
X72946Y63666D01*
X10013Y69866D01*
X8081Y70035D01*
X8054Y69743D01*
X72917Y63372D01*
X72917Y63372D01*
G37*
G36*
X180197Y62950D02*
X195336Y71034D01*
X195207Y71291D01*
X193449Y70471D01*
X180058Y63209D01*
X180197Y62950D01*
X180197Y62950D01*
G37*
G36*
X180200Y62950D02*
X193701Y70272D01*
X193604Y70516D01*
X191727Y70013D01*
X180057Y63203D01*
X180200Y62950D01*
X180200Y62950D01*
G37*
G36*
X180296Y63001D02*
X191965Y69810D01*
X191882Y70041D01*
X153878Y63777D01*
X153898Y63508D01*
X180296Y63001D01*
X180296Y63001D01*
G37*
G36*
X184792Y63001D02*
X195337Y71062D01*
X195190Y71291D01*
X180086Y63225D01*
X180142Y63001D01*
X184792Y63001D01*
X184792Y63001D01*
G37*
G36*
X184713Y62943D02*
X196812Y72094D01*
X196641Y72329D01*
X195052Y71216D01*
X184535Y63177D01*
X184713Y62943D01*
X184713Y62943D01*
G37*
G36*
X81095Y62873D02*
X111037Y65784D01*
X111013Y66073D01*
X80421Y64149D01*
X80345Y63996D01*
X81095Y62873D01*
X81095Y62873D01*
G37*
G36*
X81060Y62816D02*
X111039Y65784D01*
X111010Y66078D01*
X80992Y63160D01*
X81060Y62816D01*
X81060Y62816D01*
G37*
G36*
X73515Y62398D02*
X73613Y62559D01*
X72869Y63673D01*
X8083Y70037D01*
X8052Y69745D01*
X73515Y62398D01*
X73515Y62398D01*
G37*
G36*
X148348Y62314D02*
X148636Y63763D01*
X113381Y72394D01*
X113307Y72113D01*
X148348Y62314D01*
X148348Y62314D01*
G37*
G36*
X154144Y62349D02*
X180405Y63005D01*
X180405Y63294D01*
X153855Y63805D01*
X154144Y62349D01*
X154144Y62349D01*
G37*
G36*
X74099Y62019D02*
X74179Y62238D01*
X73490Y62698D01*
X8084Y70039D01*
X8051Y69746D01*
X74099Y62019D01*
X74099Y62019D01*
G37*
G36*
X74452Y61459D02*
X74551Y61621D01*
X74085Y62318D01*
X8085Y70039D01*
X8050Y69747D01*
X74452Y61459D01*
X74452Y61459D01*
G37*
G36*
X148657Y61131D02*
X148361Y62617D01*
X113387Y72397D01*
X113304Y72118D01*
X148657Y61131D01*
X148657Y61131D01*
G37*
G36*
X153853Y61185D02*
X180412Y63012D01*
X180398Y63300D01*
X154143Y62644D01*
X153853Y61185D01*
X153853Y61185D01*
G37*
G36*
X178473Y61156D02*
X180434Y63117D01*
X180349Y63303D01*
X153883Y61483D01*
X153892Y61198D01*
X178473Y61156D01*
X178473Y61156D01*
G37*
G36*
X186591Y61091D02*
X196808Y72123D01*
X196626Y72324D01*
X184517Y63165D01*
X186591Y61091D01*
X186591Y61091D01*
G37*
G36*
X186594Y61096D02*
X197057Y72373D01*
X196848Y72574D01*
X196501Y72227D01*
X186378Y61296D01*
X186594Y61096D01*
X186594Y61096D01*
G37*
G36*
X75035Y61080D02*
X75117Y61300D01*
X74429Y61760D01*
X8087Y70040D01*
X8049Y69748D01*
X75035Y61080D01*
X75035Y61080D01*
G37*
G36*
X95012Y60906D02*
X111049Y65815D01*
X110996Y66077D01*
X81034Y63110D01*
X81029Y62848D01*
X95012Y60906D01*
X95012Y60906D01*
G37*
G36*
X93848Y60677D02*
X95151Y60937D01*
X95143Y61186D01*
X81055Y63142D01*
X81011Y62854D01*
X93848Y60677D01*
X93848Y60677D01*
G37*
G36*
X96164Y60675D02*
X111063Y65825D01*
X110973Y66100D01*
X94846Y61165D01*
X94858Y60935D01*
X96164Y60675D01*
X96164Y60675D01*
G37*
G36*
X75388Y60521D02*
X75489Y60683D01*
X75023Y61380D01*
X8087Y70041D01*
X8049Y69749D01*
X75388Y60521D01*
X75388Y60521D01*
G37*
G36*
X146251Y60358D02*
X148614Y61244D01*
X148608Y61455D01*
X113393Y72400D01*
X113301Y72126D01*
X146251Y60358D01*
X146251Y60358D01*
G37*
G36*
X194176Y60354D02*
X197020Y72444D01*
X196819Y72551D01*
X186416Y61338D01*
X186480Y61167D01*
X194176Y60354D01*
X194176Y60354D01*
G37*
G36*
X149201Y60215D02*
X149291Y60374D01*
X148521Y61525D01*
X146085Y60611D01*
X146122Y60373D01*
X149201Y60215D01*
X149201Y60215D01*
G37*
G36*
X153297Y60216D02*
X178563Y61162D01*
X178557Y61452D01*
X153956Y61493D01*
X153209Y60374D01*
X153297Y60216D01*
X153297Y60216D01*
G37*
G36*
X91245Y60167D02*
X93995Y60706D01*
X93992Y60952D01*
X81065Y63145D01*
X81005Y62869D01*
X91245Y60167D01*
X91245Y60167D01*
G37*
G36*
X75971Y60142D02*
X76055Y60362D01*
X75367Y60822D01*
X8088Y70042D01*
X8048Y69750D01*
X75971Y60142D01*
X75971Y60142D01*
G37*
G36*
X145083Y60132D02*
X146389Y60392D01*
X146405Y60616D01*
X113399Y72404D01*
X113298Y72130D01*
X145083Y60132D01*
X145083Y60132D01*
G37*
G36*
X147392Y60137D02*
X149265Y60227D01*
X149265Y60508D01*
X146120Y60669D01*
X146086Y60397D01*
X147392Y60137D01*
X147392Y60137D01*
G37*
G36*
X192911Y60135D02*
X194215Y60395D01*
X194204Y60648D01*
X186459Y61466D01*
X186421Y61181D01*
X192911Y60135D01*
X192911Y60135D01*
G37*
G36*
X195341Y60110D02*
X197015Y72487D01*
X196738Y72538D01*
X193883Y60400D01*
X195341Y60110D01*
X195341Y60110D01*
G37*
G36*
X88207Y60107D02*
X91381Y60173D01*
X91411Y60428D01*
X81082Y63154D01*
X80996Y62888D01*
X88207Y60107D01*
X88207Y60107D01*
G37*
G36*
X90950Y60108D02*
X91411Y60199D01*
X91382Y60468D01*
X88084Y60400D01*
X88087Y60108D01*
X90950Y60108D01*
X90950Y60108D01*
G37*
G36*
X91567Y60104D02*
X94021Y60719D01*
X93958Y61000D01*
X91102Y60439D01*
X91102Y60197D01*
X91567Y60104D01*
X91567Y60104D01*
G37*
G36*
X92419Y60108D02*
X94028Y60741D01*
X93944Y61004D01*
X91401Y60367D01*
X91433Y60108D01*
X92419Y60108D01*
X92419Y60108D01*
G37*
G36*
X92900Y60018D02*
X94038Y60778D01*
X93915Y61013D01*
X92233Y60352D01*
X92256Y60129D01*
X92900Y60018D01*
X92900Y60018D01*
G37*
G36*
X97115Y60007D02*
X111067Y65836D01*
X110965Y66103D01*
X96019Y60937D01*
X95995Y60756D01*
X97115Y60007D01*
X97115Y60007D01*
G37*
G36*
X92732Y59706D02*
X93117Y60281D01*
X92310Y60419D01*
X92210Y60227D01*
X92732Y59706D01*
X92732Y59706D01*
G37*
G36*
X76324Y59582D02*
X76427Y59745D01*
X75961Y60441D01*
X8089Y70042D01*
X8047Y69751D01*
X76324Y59582D01*
X76324Y59582D01*
G37*
G36*
X150184Y59544D02*
X150279Y59769D01*
X149159Y60517D01*
X147267Y60426D01*
X147246Y60168D01*
X150184Y59544D01*
X150184Y59544D01*
G37*
G36*
X152300Y59560D02*
X178567Y61166D01*
X178553Y61457D01*
X153334Y60513D01*
X152227Y59774D01*
X152300Y59560D01*
X152300Y59560D01*
G37*
G36*
X144134Y59465D02*
X145253Y60213D01*
X145232Y60392D01*
X113403Y72406D01*
X113296Y72135D01*
X144134Y59465D01*
X144134Y59465D01*
G37*
G36*
X148340Y59482D02*
X150232Y59573D01*
X150253Y59831D01*
X147315Y60455D01*
X147220Y60230D01*
X148340Y59482D01*
X148340Y59482D01*
G37*
G36*
X191953Y59470D02*
X193074Y60218D01*
X193031Y60415D01*
X186474Y61472D01*
X186411Y61204D01*
X191953Y59470D01*
X191953Y59470D01*
G37*
G36*
X196184Y59461D02*
X196337Y59538D01*
X197005Y72501D01*
X196723Y72527D01*
X195057Y60214D01*
X196184Y59461D01*
X196184Y59461D01*
G37*
G36*
X117357Y59382D02*
X117437Y59567D01*
X110912Y66091D01*
X96965Y60264D01*
X97008Y60030D01*
X117357Y59382D01*
X117357Y59382D01*
G37*
G36*
X151379Y59330D02*
X151413Y59602D01*
X150107Y59862D01*
X148234Y59772D01*
X148234Y59491D01*
X151379Y59330D01*
X151379Y59330D01*
G37*
G36*
X151121Y59328D02*
X178569Y61167D01*
X178550Y61460D01*
X152384Y59861D01*
X151085Y59602D01*
X151121Y59328D01*
X151121Y59328D01*
G37*
G36*
X116341Y59199D02*
X117420Y59414D01*
X117398Y59677D01*
X96990Y60326D01*
X96979Y60033D01*
X116341Y59199D01*
X116341Y59199D01*
G37*
G36*
X97707Y59047D02*
X116474Y59201D01*
X116479Y59489D01*
X97047Y60325D01*
X96958Y60167D01*
X97707Y59047D01*
X97707Y59047D01*
G37*
G36*
X77323Y58925D02*
X77410Y59146D01*
X76305Y59884D01*
X8091Y70043D01*
X8046Y69752D01*
X77323Y58925D01*
X77323Y58925D01*
G37*
G36*
X77402Y58910D02*
X77452Y59195D01*
X77255Y59234D01*
X8091Y70044D01*
X8046Y69753D01*
X77402Y58910D01*
X77402Y58910D01*
G37*
G36*
X85114Y58832D02*
X88381Y60156D01*
X88380Y60357D01*
X81121Y63157D01*
X80990Y62956D01*
X85114Y58832D01*
X85114Y58832D01*
G37*
G36*
X87044Y58858D02*
X88423Y60236D01*
X88289Y60438D01*
X84981Y59097D01*
X85028Y58858D01*
X87044Y58858D01*
X87044Y58858D01*
G37*
G36*
X186439Y58519D02*
X192070Y59506D01*
X192085Y59738D01*
X186439Y61505D01*
X186439Y58519D01*
X186439Y58519D01*
G37*
G36*
X115394Y58545D02*
X116503Y59286D01*
X116438Y59496D01*
X97639Y59342D01*
X97636Y59052D01*
X115394Y58545D01*
X115394Y58545D01*
G37*
G36*
X143517Y58467D02*
X144340Y59700D01*
X113409Y72408D01*
X113294Y72141D01*
X143517Y58467D01*
X143517Y58467D01*
G37*
G36*
X148978Y58474D02*
X151414Y59388D01*
X151377Y59626D01*
X148298Y59784D01*
X148208Y59625D01*
X148978Y58474D01*
X148978Y58474D01*
G37*
G36*
X148920Y58495D02*
X178571Y61170D01*
X178548Y61461D01*
X151218Y59630D01*
X148863Y58746D01*
X148920Y58495D01*
X148920Y58495D01*
G37*
G36*
X191355Y58505D02*
X192107Y59631D01*
X192000Y59794D01*
X186428Y58817D01*
X186451Y58548D01*
X191355Y58505D01*
X191355Y58505D01*
G37*
G36*
X196786Y58480D02*
X196995Y58544D01*
X196998Y72511D01*
X196710Y72518D01*
X196044Y59590D01*
X196786Y58480D01*
X196786Y58480D01*
G37*
G36*
X196732Y58483D02*
X196998Y58510D01*
X196998Y72515D01*
X196702Y72515D01*
X196700Y58638D01*
X196732Y58483D01*
X196732Y58483D01*
G37*
G36*
X97895Y57889D02*
X115499Y58552D01*
X115498Y58838D01*
X97604Y59349D01*
X97895Y57889D01*
X97895Y57889D01*
G37*
G36*
X114775Y57567D02*
X115524Y58687D01*
X115436Y58845D01*
X97866Y58184D01*
X97868Y57897D01*
X114775Y57567D01*
X114775Y57567D01*
G37*
G36*
X143341Y57282D02*
X143631Y58740D01*
X113416Y72410D01*
X113292Y72148D01*
X143341Y57282D01*
X143341Y57282D01*
G37*
G36*
X149147Y57335D02*
X178575Y61176D01*
X178543Y61464D01*
X148858Y58786D01*
X149147Y57335D01*
X149147Y57335D01*
G37*
G36*
X191161Y57316D02*
X191456Y58799D01*
X186458Y58844D01*
X186423Y58586D01*
X191161Y57316D01*
X191161Y57316D01*
G37*
G36*
X97604Y56731D02*
X114847Y57575D01*
X114843Y57861D01*
X97894Y58192D01*
X97604Y56731D01*
X97604Y56731D01*
G37*
G36*
X184653Y56692D02*
X191184Y57365D01*
X191204Y57610D01*
X186542Y58860D01*
X184564Y56881D01*
X184653Y56692D01*
X184653Y56692D01*
G37*
G36*
X114589Y56412D02*
X114879Y57873D01*
X97636Y57028D01*
X97640Y56743D01*
X114589Y56412D01*
X114589Y56412D01*
G37*
G36*
X143477Y56171D02*
X143627Y56283D01*
X143365Y57600D01*
X113422Y72413D01*
X113289Y72154D01*
X143477Y56171D01*
X143477Y56171D01*
G37*
G36*
X148849Y56164D02*
X178580Y61183D01*
X178537Y61469D01*
X149141Y57632D01*
X148849Y56164D01*
X148849Y56164D01*
G37*
G36*
X191459Y56183D02*
X191165Y57660D01*
X184592Y56983D01*
X184596Y56713D01*
X191459Y56183D01*
X191459Y56183D01*
G37*
G36*
X191412Y56187D02*
X191435Y56481D01*
X184747Y56998D01*
X184570Y56998D01*
X184559Y56714D01*
X191412Y56187D01*
X191412Y56187D01*
G37*
G36*
X178560Y56156D02*
X178560Y61479D01*
X148877Y56469D01*
X148899Y56198D01*
X178560Y56156D01*
X178560Y56156D01*
G37*
G36*
X97047Y55759D02*
X114617Y56420D01*
X114614Y56707D01*
X97707Y57037D01*
X96959Y55917D01*
X97047Y55759D01*
X97047Y55759D01*
G37*
G36*
X96790Y55599D02*
X114622Y56421D01*
X114609Y56715D01*
X97084Y56056D01*
X96720Y55812D01*
X96790Y55599D01*
X96790Y55599D01*
G37*
G36*
X97073Y55365D02*
X114623Y56423D01*
X114608Y56716D01*
X96792Y55895D01*
X96723Y55715D01*
X97073Y55365D01*
X97073Y55365D01*
G37*
G36*
X114878Y55259D02*
X114588Y56717D01*
X96979Y55655D01*
X96987Y55369D01*
X114878Y55259D01*
X114878Y55259D01*
G37*
G36*
X144148Y55182D02*
X144305Y55353D01*
X143566Y56459D01*
X113427Y72415D01*
X113288Y72157D01*
X144148Y55182D01*
X144148Y55182D01*
G37*
G36*
X148296Y55217D02*
X178562Y56161D01*
X178558Y56452D01*
X148956Y56493D01*
X148209Y55375D01*
X148296Y55217D01*
X148296Y55217D01*
G37*
G36*
X191997Y55203D02*
X192108Y55367D01*
X191359Y56487D01*
X184585Y57008D01*
X184546Y56733D01*
X191997Y55203D01*
X191997Y55203D01*
G37*
G36*
X166881Y55055D02*
X178569Y56171D01*
X178551Y56456D01*
X148232Y55510D01*
X148236Y55221D01*
X166881Y55055D01*
X166881Y55055D01*
G37*
G36*
X165733Y54825D02*
X167034Y55083D01*
X167009Y55349D01*
X148236Y55516D01*
X148232Y55223D01*
X165733Y54825D01*
X165733Y54825D01*
G37*
G36*
X168023Y54823D02*
X178575Y56176D01*
X178543Y56465D01*
X166733Y55337D01*
X166721Y55082D01*
X168023Y54823D01*
X168023Y54823D01*
G37*
G36*
X145148Y54516D02*
X145295Y54758D01*
X144194Y55494D01*
X113429Y72416D01*
X113287Y72158D01*
X145148Y54516D01*
X145148Y54516D01*
G37*
G36*
X147295Y54565D02*
X165868Y54827D01*
X165869Y55117D01*
X148338Y55516D01*
X147230Y54775D01*
X147295Y54565D01*
X147295Y54565D01*
G37*
G36*
X192992Y54539D02*
X193094Y54767D01*
X191988Y55506D01*
X184600Y57023D01*
X184535Y56743D01*
X192992Y54539D01*
X192992Y54539D01*
G37*
G36*
X192943Y54272D02*
X193403Y54580D01*
X193365Y54773D01*
X192849Y54876D01*
X192737Y54736D01*
X192943Y54272D01*
X192943Y54272D01*
G37*
G36*
X193057Y54325D02*
X193180Y54467D01*
X193014Y54839D01*
X184608Y57030D01*
X184531Y56748D01*
X193057Y54325D01*
X193057Y54325D01*
G37*
G36*
X146118Y54333D02*
X165871Y54829D01*
X165865Y55122D01*
X147388Y54861D01*
X146088Y54603D01*
X146118Y54333D01*
X146118Y54333D01*
G37*
G36*
X115434Y54277D02*
X115525Y54436D01*
X114777Y55555D01*
X96988Y55665D01*
X96978Y55377D01*
X115434Y54277D01*
X115434Y54277D01*
G37*
G36*
X164787Y54171D02*
X165895Y54912D01*
X165828Y55123D01*
X146101Y54628D01*
X146103Y54338D01*
X164787Y54171D01*
X164787Y54171D01*
G37*
G36*
X168976Y54162D02*
X178582Y56189D01*
X178534Y56469D01*
X167908Y55106D01*
X167861Y54907D01*
X168976Y54162D01*
X168976Y54162D01*
G37*
G36*
X116430Y53619D02*
X116507Y53835D01*
X115400Y54575D01*
X96994Y55672D01*
X96972Y55382D01*
X116430Y53619D01*
X116430Y53619D01*
G37*
G36*
X184564Y53532D02*
X193143Y54357D01*
X193165Y54601D01*
X184564Y57045D01*
X184564Y53532D01*
X184564Y53532D01*
G37*
G36*
X117288Y53450D02*
X117329Y53728D01*
X116350Y53923D01*
X96997Y55676D01*
X96970Y55383D01*
X117288Y53450D01*
X117288Y53450D01*
G37*
G36*
X192474Y53429D02*
X193181Y54488D01*
X193085Y54648D01*
X184558Y53828D01*
X184570Y53549D01*
X192474Y53429D01*
X192474Y53429D01*
G37*
G36*
X82943Y53326D02*
X83049Y53520D01*
X77352Y59217D01*
X8096Y70044D01*
X8043Y69762D01*
X82943Y53326D01*
X82943Y53326D01*
G37*
G36*
X164164Y53188D02*
X164914Y54310D01*
X164832Y54466D01*
X146107Y54633D01*
X146097Y54346D01*
X164164Y53188D01*
X164164Y53188D01*
G37*
G36*
X169600Y53165D02*
X178592Y56209D01*
X178518Y56477D01*
X168763Y54419D01*
X169600Y53165D01*
X169600Y53165D01*
G37*
G36*
X83448Y52728D02*
X84179Y53459D01*
X84104Y53641D01*
X82767Y53641D01*
X82692Y53456D01*
X83448Y52728D01*
X83448Y52728D01*
G37*
G36*
X83523Y52766D02*
X83629Y52963D01*
X82939Y53629D01*
X8102Y70051D01*
X8038Y69764D01*
X83523Y52766D01*
X83523Y52766D01*
G37*
G36*
X83209Y52599D02*
X83609Y52866D01*
X83574Y53057D01*
X8103Y70052D01*
X8038Y69764D01*
X83209Y52599D01*
X83209Y52599D01*
G37*
G36*
X117310Y52347D02*
X117310Y53745D01*
X97001Y55677D01*
X96966Y55391D01*
X117310Y52347D01*
X117310Y52347D01*
G37*
G36*
X192298Y52331D02*
X192575Y53723D01*
X184576Y53845D01*
X184553Y53571D01*
X192298Y52331D01*
X192298Y52331D01*
G37*
G36*
X83068Y52323D02*
X83422Y52853D01*
X8104Y70052D01*
X8037Y69765D01*
X83068Y52323D01*
X83068Y52323D01*
G37*
G36*
X163977Y52023D02*
X164266Y53477D01*
X146116Y54641D01*
X146089Y54356D01*
X163977Y52023D01*
X163977Y52023D01*
G37*
G36*
X169782Y51971D02*
X178602Y56232D01*
X178497Y56488D01*
X169490Y53439D01*
X169782Y51971D01*
X169782Y51971D01*
G37*
G36*
X82242Y51521D02*
X83168Y52447D01*
X83120Y52614D01*
X8105Y70053D01*
X8037Y69767D01*
X82242Y51521D01*
X82242Y51521D01*
G37*
G36*
X81958Y51348D02*
X82358Y51615D01*
X82325Y51805D01*
X8106Y70054D01*
X8036Y69768D01*
X81958Y51348D01*
X81958Y51348D01*
G37*
G36*
X192588Y51210D02*
X192306Y52629D01*
X184598Y53863D01*
X184537Y53593D01*
X192588Y51210D01*
X192588Y51210D01*
G37*
G36*
X96983Y51202D02*
X117304Y52379D01*
X117316Y52645D01*
X96983Y55687D01*
X96983Y51202D01*
X96983Y51202D01*
G37*
G36*
X164276Y50846D02*
X163983Y52320D01*
X146127Y54649D01*
X146081Y54366D01*
X164276Y50846D01*
X164276Y50846D01*
G37*
G36*
X169654Y50857D02*
X178609Y56250D01*
X178475Y56498D01*
X169759Y52288D01*
X169497Y50968D01*
X169654Y50857D01*
X169654Y50857D01*
G37*
G36*
X81542Y50660D02*
X82169Y51599D01*
X8108Y70054D01*
X8035Y69770D01*
X81542Y50660D01*
X81542Y50660D01*
G37*
G36*
X119103Y50523D02*
X119183Y50707D01*
X117220Y52670D01*
X96981Y51497D01*
X96985Y51215D01*
X119103Y50523D01*
X119103Y50523D01*
G37*
G36*
X122663Y50356D02*
X122750Y50577D01*
X121888Y51153D01*
X121448Y50714D01*
X121504Y50542D01*
X122663Y50356D01*
X122663Y50356D01*
G37*
G36*
X122702Y50367D02*
X122730Y50644D01*
X121628Y50821D01*
X118863Y50821D01*
X118857Y50532D01*
X122702Y50367D01*
X122702Y50367D01*
G37*
G36*
X122711Y50368D02*
X122722Y50662D01*
X119013Y50821D01*
X96988Y51510D01*
X96978Y51215D01*
X122711Y50368D01*
X122711Y50368D01*
G37*
G36*
X184866Y50350D02*
X192533Y51289D01*
X192553Y51528D01*
X184545Y53898D01*
X184866Y50350D01*
X184866Y50350D01*
G37*
G36*
X193095Y50359D02*
X193179Y50515D01*
X192468Y51579D01*
X184844Y50644D01*
X184861Y50367D01*
X193095Y50359D01*
X193095Y50359D01*
G37*
G36*
X123778Y50153D02*
X123810Y50424D01*
X122586Y50668D01*
X96988Y51510D01*
X96978Y51216D01*
X123778Y50153D01*
X123778Y50153D01*
G37*
G36*
X183645Y50095D02*
X185159Y50396D01*
X184847Y53832D01*
X184599Y53852D01*
X183645Y50095D01*
X183645Y50095D01*
G37*
G36*
X186141Y50137D02*
X193156Y50364D01*
X193152Y50654D01*
X184866Y50663D01*
X184839Y50396D01*
X186141Y50137D01*
X186141Y50137D01*
G37*
G36*
X164806Y49888D02*
X164921Y50053D01*
X164177Y51166D01*
X146136Y54657D01*
X146075Y54374D01*
X164806Y49888D01*
X164806Y49888D01*
G37*
G36*
X164852Y49877D02*
X164920Y50164D01*
X146281Y54628D01*
X144982Y54887D01*
X144920Y54604D01*
X164852Y49877D01*
X164852Y49877D01*
G37*
G36*
X168988Y49865D02*
X178614Y56261D01*
X178460Y56505D01*
X169556Y51143D01*
X168817Y50036D01*
X168988Y49865D01*
X168988Y49865D01*
G37*
G36*
X194026Y49743D02*
X194096Y49956D01*
X193049Y50656D01*
X186007Y50428D01*
X186004Y50145D01*
X194026Y49743D01*
X194026Y49743D01*
G37*
G36*
X195128Y49524D02*
X195164Y49799D01*
X193939Y50043D01*
X186015Y50440D01*
X185997Y50148D01*
X195128Y49524D01*
X195128Y49524D01*
G37*
G36*
X182857Y49447D02*
X183975Y50194D01*
X184888Y53789D01*
X184633Y53879D01*
X182687Y49591D01*
X182857Y49447D01*
X182857Y49447D01*
G37*
G36*
X187087Y49484D02*
X195143Y49534D01*
X195151Y49819D01*
X186050Y50440D01*
X185977Y50226D01*
X187087Y49484D01*
X187087Y49484D01*
G37*
G36*
X165804Y49227D02*
X165906Y49455D01*
X164802Y50192D01*
X144987Y54891D01*
X144917Y54607D01*
X165804Y49227D01*
X165804Y49227D01*
G37*
G36*
X167987Y49197D02*
X178617Y56263D01*
X178454Y56509D01*
X168925Y50178D01*
X167824Y49442D01*
X167987Y49197D01*
X167987Y49197D01*
G37*
G36*
X182260Y48456D02*
X182997Y49560D01*
X184906Y53766D01*
X184644Y53891D01*
X182020Y48595D01*
X182260Y48456D01*
X182260Y48456D01*
G37*
G36*
X187714Y48494D02*
X195157Y49554D01*
X195137Y49830D01*
X187043Y49779D01*
X186960Y49623D01*
X187714Y48494D01*
X187714Y48494D01*
G37*
G36*
X79114Y48257D02*
X81642Y50785D01*
X81597Y50950D01*
X8111Y70055D01*
X8033Y69776D01*
X79114Y48257D01*
X79114Y48257D01*
G37*
G36*
X79170Y48240D02*
X79256Y48522D01*
X8255Y70018D01*
X6381Y70520D01*
X6302Y70240D01*
X79170Y48240D01*
X79170Y48240D01*
G37*
G36*
X187902Y47310D02*
X195174Y49581D01*
X195114Y49846D01*
X187610Y48778D01*
X187902Y47310D01*
X187902Y47310D01*
G37*
G36*
X187916Y47316D02*
X196255Y49794D01*
X196188Y50068D01*
X194963Y49824D01*
X187831Y47597D01*
X187916Y47316D01*
X187916Y47316D01*
G37*
G36*
X92356Y46512D02*
X123800Y50175D01*
X123790Y50448D01*
X97072Y51508D01*
X92264Y46701D01*
X92356Y46512D01*
X92356Y46512D01*
G37*
G36*
X187761Y46175D02*
X196264Y49815D01*
X196170Y50077D01*
X187887Y47616D01*
X187623Y46287D01*
X187761Y46175D01*
X187761Y46175D01*
G37*
G36*
X79219Y46032D02*
X79219Y48533D01*
X6387Y70523D01*
X6299Y70245D01*
X79219Y46032D01*
X79219Y46032D01*
G37*
G36*
X187097Y45184D02*
X196272Y49828D01*
X196151Y50088D01*
X187687Y46464D01*
X186946Y45355D01*
X187097Y45184D01*
X187097Y45184D01*
G37*
G36*
X186098Y44518D02*
X196276Y49833D01*
X196142Y50094D01*
X187057Y45495D01*
X185955Y44759D01*
X186098Y44518D01*
X186098Y44518D01*
G37*
G36*
X142001Y43493D02*
X145270Y54786D01*
X113446Y72407D01*
X113292Y72202D01*
X142001Y43493D01*
X142001Y43493D01*
G37*
G36*
X141717Y43572D02*
X165867Y49284D01*
X165869Y49515D01*
X144994Y54892D01*
X141717Y43572D01*
X141717Y43572D01*
G37*
G36*
X141817Y43599D02*
X167023Y49053D01*
X167021Y49293D01*
X165718Y49552D01*
X141753Y43884D01*
X141817Y43599D01*
X141817Y43599D01*
G37*
G36*
X141816Y43599D02*
X168203Y49288D01*
X168143Y49575D01*
X166844Y49316D01*
X141754Y43887D01*
X141816Y43599D01*
X141816Y43599D01*
G37*
G36*
X165984Y43626D02*
X168198Y49431D01*
X168083Y49564D01*
X141768Y43890D01*
X141796Y43626D01*
X165984Y43626D01*
X165984Y43626D01*
G37*
G36*
X165902Y43585D02*
X178611Y56294D01*
X178442Y56501D01*
X167907Y49498D01*
X165702Y43715D01*
X165902Y43585D01*
X165902Y43585D01*
G37*
G36*
X92295Y43144D02*
X123816Y50193D01*
X123769Y50469D01*
X92295Y46802D01*
X92295Y43144D01*
X92295Y43144D01*
G37*
G36*
X92331Y43152D02*
X124900Y50408D01*
X124840Y50694D01*
X123617Y50451D01*
X92267Y43440D01*
X92331Y43152D01*
X92331Y43152D01*
G37*
G36*
X133497Y43089D02*
X133706Y43298D01*
X125627Y51377D01*
X125450Y51113D01*
X133497Y43089D01*
X133497Y43089D01*
G37*
G36*
X133512Y43094D02*
X133701Y43303D01*
X125659Y51322D01*
X124479Y50533D01*
X133512Y43094D01*
X133512Y43094D01*
G37*
G36*
X133601Y43150D02*
X133671Y43346D01*
X124764Y50680D01*
X92282Y43444D01*
X92311Y43181D01*
X133601Y43150D01*
X133601Y43150D01*
G37*
G36*
X71602Y38558D02*
X79345Y46301D01*
X6399Y70523D01*
X6295Y70267D01*
X71602Y38558D01*
X71602Y38558D01*
G37*
G36*
X71640Y38539D02*
X71769Y38805D01*
X6547Y70473D01*
X4789Y71292D01*
X4663Y71028D01*
X71640Y38539D01*
X71640Y38539D01*
G37*
G36*
X168476Y37272D02*
X182332Y48559D01*
X184900Y53742D01*
X184696Y53888D01*
X168288Y37480D01*
X168476Y37272D01*
X168476Y37272D01*
G37*
G36*
X168464Y37270D02*
X182118Y47415D01*
X182379Y48726D01*
X182201Y48833D01*
X168286Y37498D01*
X168464Y37270D01*
X168464Y37270D01*
G37*
G36*
X168452Y37273D02*
X182378Y46276D01*
X182084Y47757D01*
X168289Y37508D01*
X168452Y37273D01*
X168452Y37273D01*
G37*
G36*
X168438Y37277D02*
X183080Y45315D01*
X182256Y46549D01*
X168292Y37522D01*
X168438Y37277D01*
X168438Y37277D01*
G37*
G36*
X168425Y37280D02*
X183986Y44617D01*
X183999Y44789D01*
X182875Y45540D01*
X168295Y37535D01*
X168425Y37280D01*
X168425Y37280D01*
G37*
G36*
X168416Y37282D02*
X185158Y44391D01*
X185135Y44608D01*
X183827Y44868D01*
X168298Y37547D01*
X168416Y37282D01*
X168416Y37282D01*
G37*
G36*
X168412Y37283D02*
X186333Y44628D01*
X186256Y44885D01*
X184956Y44626D01*
X168299Y37553D01*
X168412Y37283D01*
X168412Y37283D01*
G37*
G36*
X119341Y33591D02*
X133670Y43236D01*
X133606Y43445D01*
X92319Y43476D01*
X92276Y43231D01*
X119341Y33591D01*
X119341Y33591D01*
G37*
G36*
X118229Y33388D02*
X119459Y33633D01*
X119476Y33857D01*
X92355Y43517D01*
X92254Y43242D01*
X118229Y33388D01*
X118229Y33388D01*
G37*
G36*
X120435Y33383D02*
X133701Y43266D01*
X133534Y43501D01*
X119156Y33823D01*
X119195Y33630D01*
X120435Y33383D01*
X120435Y33383D01*
G37*
G36*
X117344Y32763D02*
X118399Y33468D01*
X118378Y33647D01*
X92360Y43518D01*
X92252Y43248D01*
X117344Y32763D01*
X117344Y32763D01*
G37*
G36*
X121324Y32745D02*
X133702Y43278D01*
X133523Y43502D01*
X120143Y33534D01*
X121324Y32745D01*
X121324Y32745D01*
G37*
G36*
X116769Y31828D02*
X117550Y32997D01*
X92366Y43521D01*
X92249Y43256D01*
X116769Y31828D01*
X116769Y31828D01*
G37*
G36*
X121900Y31786D02*
X133702Y43292D01*
X133510Y43503D01*
X121118Y32957D01*
X121900Y31786D01*
X121900Y31786D01*
G37*
G36*
X122014Y31606D02*
X133705Y43297D01*
X133499Y43506D01*
X121764Y32065D01*
X121845Y31658D01*
X122014Y31606D01*
X122014Y31606D01*
G37*
G36*
X116609Y30716D02*
X116884Y32100D01*
X92374Y43524D01*
X92247Y43264D01*
X116609Y30716D01*
X116609Y30716D01*
G37*
G36*
X116727Y29684D02*
X116880Y29795D01*
X116633Y31036D01*
X92381Y43526D01*
X92244Y43270D01*
X116727Y29684D01*
X116727Y29684D01*
G37*
G36*
X117135Y29088D02*
X117295Y29259D01*
X116819Y29970D01*
X92386Y43529D01*
X92242Y43273D01*
X117135Y29088D01*
X117135Y29088D01*
G37*
G36*
X116947Y28768D02*
X117318Y29324D01*
X92389Y43529D01*
X92242Y43275D01*
X116947Y28768D01*
X116947Y28768D01*
G37*
G36*
X116774Y27571D02*
X117067Y29040D01*
X92393Y43529D01*
X92241Y43282D01*
X116774Y27571D01*
X116774Y27571D01*
G37*
G36*
X112145Y26921D02*
X116796Y27683D01*
X116837Y27882D01*
X92405Y43528D01*
X92242Y43303D01*
X112145Y26921D01*
X112145Y26921D01*
G37*
G36*
X110990Y26689D02*
X112307Y26951D01*
X112353Y27132D01*
X92425Y43535D01*
X92236Y43314D01*
X110990Y26689D01*
X110990Y26689D01*
G37*
G36*
X113347Y26696D02*
X116846Y27709D01*
X116785Y27980D01*
X112041Y27203D01*
X112037Y26957D01*
X113347Y26696D01*
X113347Y26696D01*
G37*
G36*
X117083Y26501D02*
X116785Y27999D01*
X113180Y26955D01*
X113208Y26707D01*
X117083Y26501D01*
X117083Y26501D01*
G37*
G36*
X110038Y26005D02*
X111274Y26831D01*
X92433Y43535D01*
X92237Y43323D01*
X110038Y26005D01*
X110038Y26005D01*
G37*
G36*
X114287Y26038D02*
X117057Y26536D01*
X117040Y26799D01*
X113236Y27001D01*
X113165Y26788D01*
X114287Y26038D01*
X114287Y26038D01*
G37*
G36*
X109886Y25676D02*
X110246Y26214D01*
X92441Y43537D01*
X92235Y43328D01*
X109886Y25676D01*
X109886Y25676D01*
G37*
G36*
X117627Y25519D02*
X117731Y25682D01*
X116970Y26821D01*
X114170Y26317D01*
X114173Y26068D01*
X117627Y25519D01*
X117627Y25519D01*
G37*
G36*
X141172Y25321D02*
X186346Y44636D01*
X186233Y44906D01*
X168434Y37611D01*
X141056Y25591D01*
X141172Y25321D01*
X141172Y25321D01*
G37*
G36*
X141134Y25303D02*
X168661Y37388D01*
X168611Y37623D01*
X139147Y37623D01*
X141134Y25303D01*
X141134Y25303D01*
G37*
G36*
X141142Y25341D02*
X141418Y25399D01*
X139458Y37546D01*
X137697Y39306D01*
X137501Y39194D01*
X141142Y25341D01*
X141142Y25341D01*
G37*
G36*
X118072Y25223D02*
X118168Y25448D01*
X117610Y25821D01*
X114201Y26362D01*
X114147Y26081D01*
X118072Y25223D01*
X118072Y25223D01*
G37*
G36*
X118132Y25153D02*
X118132Y25512D01*
X114207Y26370D01*
X114143Y26084D01*
X118132Y25153D01*
X118132Y25153D01*
G37*
G36*
X139976Y25111D02*
X141432Y25401D01*
X137780Y39296D01*
X137503Y39236D01*
X139976Y25111D01*
X139976Y25111D01*
G37*
G36*
X142421Y25131D02*
X186347Y44638D01*
X186230Y44907D01*
X141091Y25608D01*
X141114Y25391D01*
X142421Y25131D01*
X142421Y25131D01*
G37*
G36*
X114896Y25065D02*
X118119Y25197D01*
X118143Y25453D01*
X114255Y26361D01*
X114141Y26196D01*
X114896Y25065D01*
X114896Y25065D01*
G37*
G36*
X123152Y24545D02*
X140270Y25144D01*
X137803Y39236D01*
X137632Y39290D01*
X123072Y24730D01*
X123152Y24545D01*
X123152Y24545D01*
G37*
G36*
X118711Y24535D02*
X118807Y24725D01*
X118043Y25489D01*
X114832Y25358D01*
X114819Y25089D01*
X118711Y24535D01*
X118711Y24535D01*
G37*
G36*
X139162Y24484D02*
X140270Y25224D01*
X140202Y25437D01*
X123097Y24839D01*
X123102Y24549D01*
X139162Y24484D01*
X139162Y24484D01*
G37*
G36*
X143369Y24463D02*
X186348Y44642D01*
X186227Y44908D01*
X142264Y25385D01*
X142249Y25211D01*
X143369Y24463D01*
X143369Y24463D01*
G37*
G36*
X118872Y24265D02*
X118983Y24430D01*
X118713Y24833D01*
X114852Y25382D01*
X114803Y25100D01*
X118872Y24265D01*
X118872Y24265D01*
G37*
G36*
X122982Y24281D02*
X139266Y24486D01*
X139264Y24779D01*
X123168Y24844D01*
X122897Y24438D01*
X122982Y24281D01*
X122982Y24281D01*
G37*
G36*
X119158Y24080D02*
X119256Y24306D01*
X118863Y24569D01*
X114860Y25390D01*
X114797Y25106D01*
X119158Y24080D01*
X119158Y24080D01*
G37*
G36*
X122695Y24102D02*
X139268Y24487D01*
X139262Y24781D01*
X123023Y24577D01*
X122629Y24313D01*
X122695Y24102D01*
X122695Y24102D01*
G37*
G36*
X115082Y23908D02*
X119207Y24111D01*
X119230Y24366D01*
X114783Y25412D01*
X115082Y23908D01*
X115082Y23908D01*
G37*
G36*
X138541Y23503D02*
X139290Y24624D01*
X139204Y24781D01*
X122656Y24396D01*
X122654Y24110D01*
X138541Y23503D01*
X138541Y23503D01*
G37*
G36*
X143985Y23463D02*
X186350Y44647D01*
X186223Y44909D01*
X143163Y24692D01*
X143985Y23463D01*
X143985Y23463D01*
G37*
G36*
X119803Y23452D02*
X119892Y23640D01*
X119129Y24403D01*
X115058Y24203D01*
X115051Y23929D01*
X119803Y23452D01*
X119803Y23452D01*
G37*
G36*
X122062Y23461D02*
X138609Y23506D01*
X138614Y23795D01*
X122744Y24402D01*
X121986Y23644D01*
X122062Y23461D01*
X122062Y23461D01*
G37*
G36*
X121067Y23392D02*
X121100Y23665D01*
X120637Y23757D01*
X119570Y23757D01*
X119563Y23469D01*
X121067Y23392D01*
X121067Y23392D01*
G37*
G36*
X120807Y23392D02*
X122311Y23469D01*
X122304Y23757D01*
X121237Y23757D01*
X120774Y23665D01*
X120807Y23392D01*
X120807Y23392D01*
G37*
G36*
X120794Y23398D02*
X138612Y23507D01*
X138611Y23801D01*
X122156Y23757D01*
X120785Y23687D01*
X120794Y23398D01*
X120794Y23398D01*
G37*
G36*
X114787Y22731D02*
X119865Y23482D01*
X119858Y23743D01*
X115084Y24222D01*
X114787Y22731D01*
X114787Y22731D01*
G37*
G36*
X114845Y22746D02*
X121088Y23414D01*
X121081Y23687D01*
X119707Y23757D01*
X114808Y23033D01*
X114845Y22746D01*
X114845Y22746D01*
G37*
G36*
X114835Y22756D02*
X138614Y23510D01*
X138609Y23802D01*
X120929Y23694D01*
X114816Y23040D01*
X114835Y22756D01*
X114835Y22756D01*
G37*
G36*
X114858Y22713D02*
X138616Y23511D01*
X138607Y23806D01*
X114892Y23053D01*
X114770Y22870D01*
X114858Y22713D01*
X114858Y22713D01*
G37*
G36*
X114795Y22607D02*
X138617Y23511D01*
X138606Y23806D01*
X114795Y23006D01*
X114795Y22607D01*
X114795Y22607D01*
G37*
G36*
X114896Y22565D02*
X138617Y23512D01*
X138606Y23807D01*
X114851Y22905D01*
X114772Y22751D01*
X114896Y22565D01*
X114896Y22565D01*
G37*
G36*
X138355Y22351D02*
X138645Y23808D01*
X114823Y22858D01*
X114827Y22570D01*
X138355Y22351D01*
X138355Y22351D01*
G37*
G36*
X144159Y22276D02*
X186351Y44652D01*
X186218Y44911D01*
X143868Y23735D01*
X144159Y22276D01*
X144159Y22276D01*
G37*
G36*
X144203Y22300D02*
X196277Y49834D01*
X196140Y50095D01*
X186085Y44844D01*
X144065Y22561D01*
X144203Y22300D01*
X144203Y22300D01*
G37*
G36*
X115553Y21713D02*
X138383Y22356D01*
X138381Y22646D01*
X114882Y22864D01*
X114799Y22700D01*
X115553Y21713D01*
X115553Y21713D01*
G37*
G36*
X115045Y21597D02*
X115886Y21764D01*
X115019Y22899D01*
X114805Y22802D01*
X115045Y21597D01*
X115045Y21597D01*
G37*
G36*
X116767Y21485D02*
X138387Y22358D01*
X138377Y22651D01*
X115488Y22007D01*
X115466Y21744D01*
X116767Y21485D01*
X116767Y21485D01*
G37*
G36*
X71557Y21402D02*
X71719Y21484D01*
X71719Y38829D01*
X4803Y71288D01*
X4664Y71058D01*
X71557Y21402D01*
X71557Y21402D01*
G37*
G36*
X71602Y21369D02*
X71778Y21606D01*
X4946Y71216D01*
X3357Y72329D01*
X3187Y72093D01*
X71602Y21369D01*
X71602Y21369D01*
G37*
G36*
X138644Y21196D02*
X138354Y22652D01*
X116629Y21775D01*
X116633Y21488D01*
X138644Y21196D01*
X138644Y21196D01*
G37*
G36*
X144024Y21171D02*
X196278Y49837D01*
X196139Y50095D01*
X144134Y22597D01*
X143872Y21282D01*
X144024Y21171D01*
X144024Y21171D01*
G37*
G36*
X117323Y21092D02*
X138611Y21199D01*
X138612Y21491D01*
X116670Y21782D01*
X116605Y21572D01*
X117323Y21092D01*
X117323Y21092D01*
G37*
G36*
X119987Y21092D02*
X138612Y21199D01*
X138611Y21494D01*
X117219Y21387D01*
X117220Y21092D01*
X119987Y21092D01*
X119987Y21092D01*
G37*
G36*
X139201Y20216D02*
X139291Y20374D01*
X138542Y21494D01*
X119841Y21386D01*
X119836Y21099D01*
X139201Y20216D01*
X139201Y20216D01*
G37*
G36*
X143352Y20182D02*
X196278Y49839D01*
X196136Y50096D01*
X143933Y21458D01*
X143194Y20353D01*
X143352Y20182D01*
X143352Y20182D01*
G37*
G36*
X9870Y20129D02*
X71680Y21430D01*
X71745Y21631D01*
X3401Y72301D01*
X3233Y72203D01*
X9870Y20129D01*
X9870Y20129D01*
G37*
G36*
X9872Y20114D02*
X10165Y20152D01*
X3532Y72193D01*
X3179Y72546D01*
X2989Y72453D01*
X9872Y20114D01*
X9872Y20114D01*
G37*
G36*
X190111Y20104D02*
X197016Y50476D01*
X196851Y50590D01*
X195946Y49985D01*
X189826Y20166D01*
X190111Y20104D01*
X190111Y20104D01*
G37*
G36*
X190120Y20132D02*
X196242Y49959D01*
X196089Y50071D01*
X143210Y20440D01*
X143267Y20220D01*
X190120Y20132D01*
X190120Y20132D01*
G37*
G36*
X8082Y19964D02*
X10166Y20146D01*
X3277Y72530D01*
X2988Y72497D01*
X8082Y19964D01*
X8082Y19964D01*
G37*
G36*
X11780Y19976D02*
X71723Y21431D01*
X71716Y21726D01*
X9857Y20424D01*
X9847Y20145D01*
X11780Y19976D01*
X11780Y19976D01*
G37*
G36*
X188220Y19976D02*
X190153Y20145D01*
X190141Y20427D01*
X143235Y20515D01*
X143233Y20221D01*
X188220Y19976D01*
X188220Y19976D01*
G37*
G36*
X191908Y19964D02*
X197019Y50528D01*
X196738Y50584D01*
X189818Y20147D01*
X191908Y19964D01*
X191908Y19964D01*
G37*
G36*
X140198Y19558D02*
X140272Y19773D01*
X139165Y20513D01*
X119848Y21394D01*
X119830Y21103D01*
X140198Y19558D01*
X140198Y19558D01*
G37*
G36*
X142295Y19565D02*
X188362Y19977D01*
X188362Y20270D01*
X143337Y20515D01*
X142230Y19775D01*
X142295Y19565D01*
X142295Y19565D01*
G37*
G36*
X6348Y19470D02*
X8373Y20013D01*
X3282Y72526D01*
X2993Y72502D01*
X6348Y19470D01*
X6348Y19470D01*
G37*
G36*
X13498Y19511D02*
X71724Y21433D01*
X71715Y21726D01*
X11653Y20268D01*
X11623Y20014D01*
X13498Y19511D01*
X13498Y19511D01*
G37*
G36*
X186503Y19512D02*
X188378Y20014D01*
X188343Y20272D01*
X142255Y19860D01*
X142256Y19566D01*
X186503Y19512D01*
X186503Y19512D01*
G37*
G36*
X193644Y19472D02*
X197012Y50538D01*
X196728Y50577D01*
X191617Y20016D01*
X193644Y19472D01*
X193644Y19472D01*
G37*
G36*
X141376Y19326D02*
X141415Y19602D01*
X140116Y19860D01*
X119851Y21398D01*
X119827Y21105D01*
X141376Y19326D01*
X141376Y19326D01*
G37*
G36*
X141116Y19336D02*
X186631Y19513D01*
X186631Y19807D01*
X142389Y19861D01*
X141089Y19603D01*
X141116Y19336D01*
X141116Y19336D01*
G37*
G36*
X122117Y18900D02*
X141393Y19340D01*
X141401Y19620D01*
X119896Y21395D01*
X119809Y21208D01*
X122117Y18900D01*
X122117Y18900D01*
G37*
G36*
X122032Y18900D02*
X186632Y19513D01*
X186630Y19808D01*
X141248Y19632D01*
X122027Y19193D01*
X122032Y18900D01*
X122032Y18900D01*
G37*
G36*
X4719Y18674D02*
X6637Y19568D01*
X3287Y72521D01*
X2997Y72507D01*
X4719Y18674D01*
X4719Y18674D01*
G37*
G36*
X15110Y18753D02*
X71725Y21435D01*
X71713Y21728D01*
X13394Y19803D01*
X13348Y19575D01*
X15110Y18753D01*
X15110Y18753D01*
G37*
G36*
X184892Y18755D02*
X186654Y19576D01*
X186601Y19808D01*
X122029Y19195D01*
X122030Y18901D01*
X184892Y18755D01*
X184892Y18755D01*
G37*
G36*
X195275Y18676D02*
X197005Y50547D01*
X196719Y50570D01*
X193357Y19570D01*
X195275Y18676D01*
X195275Y18676D01*
G37*
G36*
X3403Y17702D02*
X5010Y18827D01*
X3292Y72517D01*
X3001Y72512D01*
X3244Y17784D01*
X3403Y17702D01*
X3403Y17702D01*
G37*
G36*
X16565Y17724D02*
X71728Y21438D01*
X71711Y21730D01*
X15027Y19045D01*
X14968Y18842D01*
X16565Y17724D01*
X16565Y17724D01*
G37*
G36*
X183437Y17726D02*
X185033Y18843D01*
X184968Y19050D01*
X122031Y19197D01*
X122028Y18904D01*
X183437Y17726D01*
X183437Y17726D01*
G37*
G36*
X196596Y17702D02*
X196754Y17784D01*
X196999Y50554D01*
X196710Y50563D01*
X194988Y18828D01*
X196596Y17702D01*
X196596Y17702D01*
G37*
G36*
X3184Y17458D02*
X3539Y17814D01*
X3296Y72515D01*
X3001Y72514D01*
X3001Y17533D01*
X3184Y17458D01*
X3184Y17458D01*
G37*
G36*
X196815Y17458D02*
X196998Y17533D01*
X196998Y50558D01*
X196703Y50559D01*
X196459Y17814D01*
X196815Y17458D01*
X196815Y17458D01*
G37*
G36*
X17819Y16454D02*
X71731Y21442D01*
X71707Y21732D01*
X16503Y18015D01*
X16436Y17837D01*
X17819Y16454D01*
X17819Y16454D01*
G37*
G36*
X182183Y16457D02*
X183565Y17839D01*
X183492Y18020D01*
X122034Y19199D01*
X122025Y18907D01*
X182183Y16457D01*
X182183Y16457D01*
G37*
G36*
X76986Y16111D02*
X77062Y16294D01*
X71627Y21729D01*
X17721Y16741D01*
X17733Y16461D01*
X76986Y16111D01*
X76986Y16111D01*
G37*
G36*
X122030Y15174D02*
X182271Y16463D01*
X182273Y16749D01*
X122030Y19202D01*
X122030Y15174D01*
X122030Y15174D01*
G37*
G36*
X18827Y14990D02*
X77036Y16115D01*
X77034Y16406D01*
X17786Y16756D01*
X17702Y16596D01*
X18827Y14990D01*
X18827Y14990D01*
G37*
G36*
X18757Y14990D02*
X97036Y16114D01*
X97034Y16407D01*
X76886Y16407D01*
X18752Y15284D01*
X18757Y14990D01*
X18757Y14990D01*
G37*
G36*
X181173Y14992D02*
X182297Y16597D01*
X182212Y16757D01*
X122028Y15470D01*
X122031Y15178D01*
X181173Y14992D01*
X181173Y14992D01*
G37*
G36*
X19567Y13364D02*
X97039Y16117D01*
X97032Y16409D01*
X18672Y15284D01*
X19567Y13364D01*
X19567Y13364D01*
G37*
G36*
X180432Y13365D02*
X181328Y15286D01*
X122032Y15473D01*
X122027Y15182D01*
X180432Y13365D01*
X180432Y13365D01*
G37*
G36*
X20012Y11630D02*
X97042Y16120D01*
X97028Y16412D01*
X19469Y13656D01*
X20012Y11630D01*
X20012Y11630D01*
G37*
G36*
X179987Y11630D02*
X180530Y13657D01*
X122036Y15477D01*
X122023Y15187D01*
X179987Y11630D01*
X179987Y11630D01*
G37*
G36*
X101986Y11111D02*
X102062Y11294D01*
X96945Y16411D01*
X19972Y11924D01*
X19980Y11638D01*
X101986Y11111D01*
X101986Y11111D01*
G37*
G36*
X118013Y11111D02*
X180019Y11638D01*
X180027Y11923D01*
X122120Y15477D01*
X117937Y11294D01*
X118013Y11111D01*
X118013Y11111D01*
G37*
G36*
X24140Y10718D02*
X118259Y11112D01*
X118259Y11407D01*
X101887Y11407D01*
X24139Y11014D01*
X24140Y10718D01*
X24140Y10718D01*
G37*
G36*
X24271Y10719D02*
X102035Y11112D01*
X102036Y11406D01*
X19992Y11933D01*
X19962Y11669D01*
X24271Y10719D01*
X24271Y10719D01*
G37*
G36*
X25712Y10719D02*
X118259Y11112D01*
X118258Y11408D01*
X24139Y11014D01*
X24140Y10719D01*
X25712Y10719D01*
X25712Y10719D01*
G37*
G36*
X34287Y10719D02*
X118260Y11112D01*
X118258Y11408D01*
X25564Y11014D01*
X25565Y10719D01*
X34287Y10719D01*
X34287Y10719D01*
G37*
G36*
X35712Y10719D02*
X118260Y11112D01*
X118258Y11408D01*
X34139Y11014D01*
X34140Y10719D01*
X35712Y10719D01*
X35712Y10719D01*
G37*
G36*
X44287Y10719D02*
X118260Y11112D01*
X118258Y11408D01*
X35564Y11014D01*
X35565Y10719D01*
X44287Y10719D01*
X44287Y10719D01*
G37*
G36*
X45712Y10719D02*
X118260Y11113D01*
X118258Y11408D01*
X44139Y11014D01*
X44140Y10719D01*
X45712Y10719D01*
X45712Y10719D01*
G37*
G36*
X54288Y10719D02*
X118260Y11113D01*
X118258Y11408D01*
X45564Y11013D01*
X45565Y10719D01*
X54288Y10719D01*
X54288Y10719D01*
G37*
G36*
X55712Y10719D02*
X118260Y11113D01*
X118258Y11408D01*
X54139Y11013D01*
X54140Y10719D01*
X55712Y10719D01*
X55712Y10719D01*
G37*
G36*
X64288Y10719D02*
X118260Y11113D01*
X118258Y11408D01*
X55564Y11013D01*
X55565Y10719D01*
X64288Y10719D01*
X64288Y10719D01*
G37*
G36*
X65712Y10719D02*
X118260Y11113D01*
X118258Y11408D01*
X64139Y11013D01*
X64140Y10719D01*
X65712Y10719D01*
X65712Y10719D01*
G37*
G36*
X74141Y10718D02*
X180024Y11638D01*
X180022Y11934D01*
X118110Y11407D01*
X74138Y11013D01*
X74141Y10718D01*
X74141Y10718D01*
G37*
G36*
X74288Y10719D02*
X118260Y11113D01*
X118258Y11408D01*
X65564Y11013D01*
X65565Y10719D01*
X74288Y10719D01*
X74288Y10719D01*
G37*
G36*
X75713Y10719D02*
X180025Y11638D01*
X180022Y11934D01*
X74139Y11013D01*
X74140Y10719D01*
X75713Y10719D01*
X75713Y10719D01*
G37*
G36*
X84288Y10719D02*
X180025Y11638D01*
X180022Y11934D01*
X75564Y11013D01*
X75565Y10719D01*
X84288Y10719D01*
X84288Y10719D01*
G37*
G36*
X85713Y10719D02*
X180025Y11638D01*
X180022Y11934D01*
X84139Y11013D01*
X84140Y10719D01*
X85713Y10719D01*
X85713Y10719D01*
G37*
G36*
X94288Y10719D02*
X180025Y11639D01*
X180022Y11934D01*
X85564Y11013D01*
X85565Y10719D01*
X94288Y10719D01*
X94288Y10719D01*
G37*
G36*
X95713Y10719D02*
X180025Y11639D01*
X180022Y11934D01*
X94139Y11013D01*
X94140Y10719D01*
X95713Y10719D01*
X95713Y10719D01*
G37*
G36*
X104288Y10719D02*
X180025Y11639D01*
X180022Y11934D01*
X95563Y11013D01*
X95565Y10719D01*
X104288Y10719D01*
X104288Y10719D01*
G37*
G36*
X105713Y10719D02*
X180025Y11639D01*
X180021Y11934D01*
X104139Y11012D01*
X104140Y10719D01*
X105713Y10719D01*
X105713Y10719D01*
G37*
G36*
X114288Y10719D02*
X180025Y11639D01*
X180021Y11934D01*
X105563Y11012D01*
X105565Y10719D01*
X114288Y10719D01*
X114288Y10719D01*
G37*
G36*
X115713Y10719D02*
X180025Y11639D01*
X180021Y11934D01*
X114138Y11012D01*
X114140Y10719D01*
X115713Y10719D01*
X115713Y10719D01*
G37*
G36*
X124288Y10719D02*
X180025Y11639D01*
X180021Y11934D01*
X115563Y11012D01*
X115565Y10719D01*
X124288Y10719D01*
X124288Y10719D01*
G37*
G36*
X125713Y10719D02*
X180026Y11639D01*
X180021Y11935D01*
X124138Y11012D01*
X124141Y10719D01*
X125713Y10719D01*
X125713Y10719D01*
G37*
G36*
X134289Y10719D02*
X180026Y11640D01*
X180020Y11935D01*
X125563Y11012D01*
X125566Y10719D01*
X134289Y10719D01*
X134289Y10719D01*
G37*
G36*
X135713Y10719D02*
X180026Y11640D01*
X180020Y11935D01*
X134138Y11011D01*
X134141Y10719D01*
X135713Y10719D01*
X135713Y10719D01*
G37*
G36*
X144289Y10719D02*
X180027Y11641D01*
X180020Y11935D01*
X135563Y11011D01*
X135566Y10719D01*
X144289Y10719D01*
X144289Y10719D01*
G37*
G36*
X145714Y10719D02*
X180027Y11641D01*
X180019Y11936D01*
X144138Y11010D01*
X144141Y10719D01*
X145714Y10719D01*
X145714Y10719D01*
G37*
G36*
X154290Y10719D02*
X180028Y11642D01*
X180019Y11936D01*
X145562Y11010D01*
X145566Y10719D01*
X154290Y10719D01*
X154290Y10719D01*
G37*
G36*
X155715Y10719D02*
X180029Y11643D01*
X180018Y11937D01*
X154137Y11009D01*
X154142Y10719D01*
X155715Y10719D01*
X155715Y10719D01*
G37*
G36*
X164291Y10719D02*
X180030Y11646D01*
X180016Y11938D01*
X155562Y11009D01*
X155567Y10719D01*
X164291Y10719D01*
X164291Y10719D01*
G37*
G36*
X165717Y10719D02*
X180032Y11647D01*
X180014Y11941D01*
X164135Y11006D01*
X164144Y10719D01*
X165717Y10719D01*
X165717Y10719D01*
G37*
G36*
X174299Y10719D02*
X180038Y11662D01*
X180006Y11941D01*
X165560Y11005D01*
X165569Y10719D01*
X174299Y10719D01*
X174299Y10719D01*
G37*
G36*
X175728Y10719D02*
X180048Y11671D01*
X179993Y11954D01*
X174129Y10990D01*
X174151Y10719D01*
X175728Y10719D01*
X175728Y10719D01*
G37*
G36*
X22889Y10370D02*
X24436Y10751D01*
X24433Y10986D01*
X20025Y11957D01*
X19941Y11705D01*
X22889Y10370D01*
X22889Y10370D01*
G37*
G36*
X27081Y10377D02*
X34438Y10726D01*
X34431Y11014D01*
X25581Y11014D01*
X25550Y10755D01*
X27081Y10377D01*
X27081Y10377D01*
G37*
G36*
X32922Y10378D02*
X34452Y10755D01*
X34414Y11020D01*
X26944Y10666D01*
X26951Y10378D01*
X32922Y10378D01*
X32922Y10378D01*
G37*
G36*
X37081Y10377D02*
X44438Y10726D01*
X44431Y11014D01*
X35581Y11014D01*
X35550Y10755D01*
X37081Y10377D01*
X37081Y10377D01*
G37*
G36*
X42922Y10378D02*
X44452Y10755D01*
X44414Y11020D01*
X36944Y10666D01*
X36951Y10378D01*
X42922Y10378D01*
X42922Y10378D01*
G37*
G36*
X47081Y10377D02*
X54438Y10726D01*
X54431Y11014D01*
X45581Y11014D01*
X45550Y10755D01*
X47081Y10377D01*
X47081Y10377D01*
G37*
G36*
X52922Y10378D02*
X54452Y10755D01*
X54414Y11020D01*
X46944Y10666D01*
X46951Y10378D01*
X52922Y10378D01*
X52922Y10378D01*
G37*
G36*
X57081Y10377D02*
X64438Y10726D01*
X64431Y11014D01*
X55581Y11014D01*
X55550Y10755D01*
X57081Y10377D01*
X57081Y10377D01*
G37*
G36*
X62922Y10378D02*
X64452Y10755D01*
X64414Y11020D01*
X56944Y10666D01*
X56951Y10378D01*
X62922Y10378D01*
X62922Y10378D01*
G37*
G36*
X67081Y10377D02*
X74438Y10726D01*
X74431Y11014D01*
X65581Y11014D01*
X65550Y10755D01*
X67081Y10377D01*
X67081Y10377D01*
G37*
G36*
X72922Y10378D02*
X74452Y10755D01*
X74414Y11020D01*
X66944Y10666D01*
X66951Y10378D01*
X72922Y10378D01*
X72922Y10378D01*
G37*
G36*
X77081Y10377D02*
X84438Y10726D01*
X84431Y11014D01*
X75581Y11014D01*
X75550Y10755D01*
X77081Y10377D01*
X77081Y10377D01*
G37*
G36*
X82922Y10378D02*
X84452Y10755D01*
X84414Y11020D01*
X76944Y10666D01*
X76951Y10378D01*
X82922Y10378D01*
X82922Y10378D01*
G37*
G36*
X87081Y10377D02*
X94438Y10726D01*
X94431Y11014D01*
X85581Y11014D01*
X85550Y10755D01*
X87081Y10377D01*
X87081Y10377D01*
G37*
G36*
X92922Y10378D02*
X94452Y10755D01*
X94414Y11020D01*
X86944Y10666D01*
X86951Y10378D01*
X92922Y10378D01*
X92922Y10378D01*
G37*
G36*
X97081Y10377D02*
X104438Y10726D01*
X104431Y11014D01*
X95581Y11014D01*
X95550Y10755D01*
X97081Y10377D01*
X97081Y10377D01*
G37*
G36*
X102922Y10378D02*
X104452Y10755D01*
X104414Y11020D01*
X96944Y10666D01*
X96951Y10378D01*
X102922Y10378D01*
X102922Y10378D01*
G37*
G36*
X107081Y10377D02*
X114438Y10726D01*
X114431Y11014D01*
X105581Y11014D01*
X105550Y10755D01*
X107081Y10377D01*
X107081Y10377D01*
G37*
G36*
X112922Y10378D02*
X114452Y10755D01*
X114414Y11020D01*
X106944Y10666D01*
X106951Y10378D01*
X112922Y10378D01*
X112922Y10378D01*
G37*
G36*
X117081Y10377D02*
X124438Y10726D01*
X124431Y11014D01*
X115581Y11014D01*
X115550Y10755D01*
X117081Y10377D01*
X117081Y10377D01*
G37*
G36*
X122922Y10378D02*
X124452Y10755D01*
X124414Y11020D01*
X116944Y10666D01*
X116951Y10378D01*
X122922Y10378D01*
X122922Y10378D01*
G37*
G36*
X127081Y10377D02*
X134438Y10726D01*
X134431Y11014D01*
X125581Y11014D01*
X125550Y10755D01*
X127081Y10377D01*
X127081Y10377D01*
G37*
G36*
X132922Y10378D02*
X134452Y10755D01*
X134414Y11020D01*
X126944Y10666D01*
X126951Y10378D01*
X132922Y10378D01*
X132922Y10378D01*
G37*
G36*
X137081Y10377D02*
X144438Y10726D01*
X144431Y11014D01*
X135581Y11014D01*
X135550Y10755D01*
X137081Y10377D01*
X137081Y10377D01*
G37*
G36*
X142922Y10378D02*
X144452Y10755D01*
X144414Y11020D01*
X136944Y10666D01*
X136951Y10378D01*
X142922Y10378D01*
X142922Y10378D01*
G37*
G36*
X147081Y10377D02*
X154438Y10726D01*
X154431Y11014D01*
X145581Y11014D01*
X145550Y10755D01*
X147081Y10377D01*
X147081Y10377D01*
G37*
G36*
X152922Y10378D02*
X154452Y10755D01*
X154414Y11020D01*
X146944Y10666D01*
X146951Y10378D01*
X152922Y10378D01*
X152922Y10378D01*
G37*
G36*
X157081Y10377D02*
X164438Y10726D01*
X164431Y11014D01*
X155581Y11014D01*
X155550Y10755D01*
X157081Y10377D01*
X157081Y10377D01*
G37*
G36*
X162922Y10378D02*
X164452Y10755D01*
X164414Y11020D01*
X156944Y10666D01*
X156951Y10378D01*
X162922Y10378D01*
X162922Y10378D01*
G37*
G36*
X167081Y10377D02*
X174438Y10726D01*
X174431Y11014D01*
X165581Y11014D01*
X165550Y10755D01*
X167081Y10377D01*
X167081Y10377D01*
G37*
G36*
X172922Y10378D02*
X174452Y10755D01*
X174414Y11020D01*
X166944Y10666D01*
X166951Y10378D01*
X172922Y10378D01*
X172922Y10378D01*
G37*
G36*
X177110Y10370D02*
X180058Y11705D01*
X179974Y11957D01*
X175566Y10986D01*
X175563Y10751D01*
X177110Y10370D01*
X177110Y10370D01*
G37*
G36*
X179852Y9822D02*
X180045Y12023D01*
X176936Y10616D01*
X176961Y10402D01*
X179852Y9822D01*
X179852Y9822D01*
G37*
G36*
X20147Y9822D02*
X23038Y10402D01*
X23063Y10616D01*
X19954Y12023D01*
X20147Y9822D01*
X20147Y9822D01*
G37*
G36*
X21671Y9712D02*
X23086Y10454D01*
X23000Y10696D01*
X20126Y10119D01*
X20138Y9865D01*
X21671Y9712D01*
X21671Y9712D01*
G37*
G36*
X28331Y9711D02*
X33061Y10399D01*
X33041Y10673D01*
X26980Y10673D01*
X26924Y10449D01*
X28331Y9711D01*
X28331Y9711D01*
G37*
G36*
X31678Y9716D02*
X33083Y10453D01*
X33006Y10690D01*
X28200Y9990D01*
X28220Y9716D01*
X31678Y9716D01*
X31678Y9716D01*
G37*
G36*
X38331Y9711D02*
X43061Y10399D01*
X43041Y10673D01*
X36980Y10673D01*
X36924Y10449D01*
X38331Y9711D01*
X38331Y9711D01*
G37*
G36*
X41678Y9716D02*
X43083Y10453D01*
X43006Y10690D01*
X38200Y9990D01*
X38220Y9716D01*
X41678Y9716D01*
X41678Y9716D01*
G37*
G36*
X48331Y9711D02*
X53061Y10399D01*
X53041Y10673D01*
X46980Y10673D01*
X46924Y10449D01*
X48331Y9711D01*
X48331Y9711D01*
G37*
G36*
X51678Y9716D02*
X53083Y10453D01*
X53006Y10690D01*
X48200Y9990D01*
X48220Y9716D01*
X51678Y9716D01*
X51678Y9716D01*
G37*
G36*
X58331Y9711D02*
X63061Y10399D01*
X63041Y10673D01*
X56980Y10673D01*
X56924Y10449D01*
X58331Y9711D01*
X58331Y9711D01*
G37*
G36*
X61678Y9716D02*
X63083Y10453D01*
X63006Y10690D01*
X58200Y9990D01*
X58220Y9716D01*
X61678Y9716D01*
X61678Y9716D01*
G37*
G36*
X68331Y9711D02*
X73061Y10399D01*
X73041Y10673D01*
X66980Y10673D01*
X66924Y10449D01*
X68331Y9711D01*
X68331Y9711D01*
G37*
G36*
X71678Y9716D02*
X73083Y10453D01*
X73006Y10690D01*
X68200Y9990D01*
X68220Y9716D01*
X71678Y9716D01*
X71678Y9716D01*
G37*
G36*
X78331Y9711D02*
X83061Y10399D01*
X83041Y10673D01*
X76980Y10673D01*
X76924Y10449D01*
X78331Y9711D01*
X78331Y9711D01*
G37*
G36*
X81678Y9716D02*
X83083Y10453D01*
X83006Y10690D01*
X78200Y9990D01*
X78220Y9716D01*
X81678Y9716D01*
X81678Y9716D01*
G37*
G36*
X88331Y9711D02*
X93061Y10399D01*
X93041Y10673D01*
X86980Y10673D01*
X86924Y10449D01*
X88331Y9711D01*
X88331Y9711D01*
G37*
G36*
X91678Y9716D02*
X93083Y10453D01*
X93006Y10690D01*
X88200Y9990D01*
X88220Y9716D01*
X91678Y9716D01*
X91678Y9716D01*
G37*
G36*
X98331Y9711D02*
X103061Y10399D01*
X103041Y10673D01*
X96980Y10673D01*
X96924Y10449D01*
X98331Y9711D01*
X98331Y9711D01*
G37*
G36*
X101678Y9716D02*
X103083Y10453D01*
X103006Y10690D01*
X98200Y9990D01*
X98220Y9716D01*
X101678Y9716D01*
X101678Y9716D01*
G37*
G36*
X108331Y9711D02*
X113061Y10399D01*
X113041Y10673D01*
X106980Y10673D01*
X106924Y10449D01*
X108331Y9711D01*
X108331Y9711D01*
G37*
G36*
X111678Y9716D02*
X113083Y10453D01*
X113006Y10690D01*
X108200Y9990D01*
X108220Y9716D01*
X111678Y9716D01*
X111678Y9716D01*
G37*
G36*
X118331Y9711D02*
X123061Y10399D01*
X123041Y10673D01*
X116980Y10673D01*
X116924Y10449D01*
X118331Y9711D01*
X118331Y9711D01*
G37*
G36*
X121678Y9716D02*
X123083Y10453D01*
X123006Y10690D01*
X118200Y9990D01*
X118220Y9716D01*
X121678Y9716D01*
X121678Y9716D01*
G37*
G36*
X128331Y9711D02*
X133061Y10399D01*
X133041Y10673D01*
X126980Y10673D01*
X126924Y10449D01*
X128331Y9711D01*
X128331Y9711D01*
G37*
G36*
X131678Y9716D02*
X133083Y10453D01*
X133006Y10690D01*
X128200Y9990D01*
X128220Y9716D01*
X131678Y9716D01*
X131678Y9716D01*
G37*
G36*
X138331Y9711D02*
X143061Y10399D01*
X143041Y10673D01*
X136980Y10673D01*
X136924Y10449D01*
X138331Y9711D01*
X138331Y9711D01*
G37*
G36*
X141678Y9716D02*
X143083Y10453D01*
X143006Y10690D01*
X138200Y9990D01*
X138220Y9716D01*
X141678Y9716D01*
X141678Y9716D01*
G37*
G36*
X148331Y9711D02*
X153061Y10399D01*
X153041Y10673D01*
X146980Y10673D01*
X146924Y10449D01*
X148331Y9711D01*
X148331Y9711D01*
G37*
G36*
X151678Y9716D02*
X153083Y10453D01*
X153006Y10690D01*
X148200Y9990D01*
X148220Y9716D01*
X151678Y9716D01*
X151678Y9716D01*
G37*
G36*
X158331Y9711D02*
X163061Y10399D01*
X163041Y10673D01*
X156980Y10673D01*
X156924Y10449D01*
X158331Y9711D01*
X158331Y9711D01*
G37*
G36*
X161678Y9716D02*
X163083Y10453D01*
X163006Y10690D01*
X158200Y9990D01*
X158220Y9716D01*
X161678Y9716D01*
X161678Y9716D01*
G37*
G36*
X168331Y9711D02*
X173061Y10399D01*
X173041Y10673D01*
X166980Y10673D01*
X166924Y10449D01*
X168331Y9711D01*
X168331Y9711D01*
G37*
G36*
X171678Y9716D02*
X173083Y10453D01*
X173006Y10690D01*
X168200Y9990D01*
X168220Y9716D01*
X171678Y9716D01*
X171678Y9716D01*
G37*
G36*
X178328Y9712D02*
X179861Y9865D01*
X179873Y10119D01*
X176999Y10696D01*
X176913Y10454D01*
X178328Y9712D01*
X178328Y9712D01*
G37*
G36*
X20496Y8651D02*
X21812Y9817D01*
X21753Y10001D01*
X20080Y10168D01*
X20496Y8651D01*
X20496Y8651D01*
G37*
G36*
X29395Y8746D02*
X31811Y9775D01*
X31763Y10011D01*
X28255Y10011D01*
X28183Y9821D01*
X29395Y8746D01*
X29395Y8746D01*
G37*
G36*
X30632Y8771D02*
X31834Y9836D01*
X31700Y10049D01*
X29255Y9007D01*
X29303Y8771D01*
X30632Y8771D01*
X30632Y8771D01*
G37*
G36*
X39395Y8746D02*
X41811Y9775D01*
X41763Y10011D01*
X38255Y10011D01*
X38183Y9821D01*
X39395Y8746D01*
X39395Y8746D01*
G37*
G36*
X40632Y8771D02*
X41834Y9836D01*
X41700Y10049D01*
X39255Y9007D01*
X39303Y8771D01*
X40632Y8771D01*
X40632Y8771D01*
G37*
G36*
X49395Y8746D02*
X51811Y9775D01*
X51763Y10011D01*
X48255Y10011D01*
X48183Y9821D01*
X49395Y8746D01*
X49395Y8746D01*
G37*
G36*
X50632Y8771D02*
X51834Y9836D01*
X51700Y10049D01*
X49255Y9007D01*
X49303Y8771D01*
X50632Y8771D01*
X50632Y8771D01*
G37*
G36*
X59395Y8746D02*
X61811Y9775D01*
X61763Y10011D01*
X58255Y10011D01*
X58183Y9821D01*
X59395Y8746D01*
X59395Y8746D01*
G37*
G36*
X60632Y8771D02*
X61834Y9836D01*
X61700Y10049D01*
X59255Y9007D01*
X59303Y8771D01*
X60632Y8771D01*
X60632Y8771D01*
G37*
G36*
X69395Y8746D02*
X71811Y9775D01*
X71763Y10011D01*
X68255Y10011D01*
X68183Y9821D01*
X69395Y8746D01*
X69395Y8746D01*
G37*
G36*
X70632Y8771D02*
X71834Y9836D01*
X71700Y10049D01*
X69255Y9007D01*
X69303Y8771D01*
X70632Y8771D01*
X70632Y8771D01*
G37*
G36*
X79395Y8746D02*
X81811Y9775D01*
X81763Y10011D01*
X78255Y10011D01*
X78183Y9821D01*
X79395Y8746D01*
X79395Y8746D01*
G37*
G36*
X80632Y8771D02*
X81834Y9836D01*
X81700Y10049D01*
X79255Y9007D01*
X79303Y8771D01*
X80632Y8771D01*
X80632Y8771D01*
G37*
G36*
X89395Y8746D02*
X91811Y9775D01*
X91763Y10011D01*
X88255Y10011D01*
X88183Y9821D01*
X89395Y8746D01*
X89395Y8746D01*
G37*
G36*
X90632Y8771D02*
X91834Y9836D01*
X91700Y10049D01*
X89255Y9007D01*
X89303Y8771D01*
X90632Y8771D01*
X90632Y8771D01*
G37*
G36*
X99395Y8746D02*
X101811Y9775D01*
X101763Y10011D01*
X98255Y10011D01*
X98183Y9821D01*
X99395Y8746D01*
X99395Y8746D01*
G37*
G36*
X100632Y8771D02*
X101834Y9836D01*
X101700Y10049D01*
X99255Y9007D01*
X99303Y8771D01*
X100632Y8771D01*
X100632Y8771D01*
G37*
G36*
X109395Y8746D02*
X111811Y9775D01*
X111763Y10011D01*
X108255Y10011D01*
X108183Y9821D01*
X109395Y8746D01*
X109395Y8746D01*
G37*
G36*
X110632Y8771D02*
X111834Y9836D01*
X111700Y10049D01*
X109255Y9007D01*
X109303Y8771D01*
X110632Y8771D01*
X110632Y8771D01*
G37*
G36*
X119395Y8746D02*
X121811Y9775D01*
X121763Y10011D01*
X118255Y10011D01*
X118183Y9821D01*
X119395Y8746D01*
X119395Y8746D01*
G37*
G36*
X120632Y8771D02*
X121834Y9836D01*
X121700Y10049D01*
X119255Y9007D01*
X119303Y8771D01*
X120632Y8771D01*
X120632Y8771D01*
G37*
G36*
X129395Y8746D02*
X131811Y9775D01*
X131763Y10011D01*
X128255Y10011D01*
X128183Y9821D01*
X129395Y8746D01*
X129395Y8746D01*
G37*
G36*
X130632Y8771D02*
X131834Y9836D01*
X131700Y10049D01*
X129255Y9007D01*
X129303Y8771D01*
X130632Y8771D01*
X130632Y8771D01*
G37*
G36*
X139395Y8746D02*
X141811Y9775D01*
X141763Y10011D01*
X138255Y10011D01*
X138183Y9821D01*
X139395Y8746D01*
X139395Y8746D01*
G37*
G36*
X140632Y8771D02*
X141834Y9836D01*
X141700Y10049D01*
X139255Y9007D01*
X139303Y8771D01*
X140632Y8771D01*
X140632Y8771D01*
G37*
G36*
X149395Y8746D02*
X151811Y9775D01*
X151763Y10011D01*
X148255Y10011D01*
X148183Y9821D01*
X149395Y8746D01*
X149395Y8746D01*
G37*
G36*
X150632Y8771D02*
X151834Y9836D01*
X151700Y10049D01*
X149255Y9007D01*
X149303Y8771D01*
X150632Y8771D01*
X150632Y8771D01*
G37*
G36*
X159395Y8746D02*
X161811Y9775D01*
X161763Y10011D01*
X158255Y10011D01*
X158183Y9821D01*
X159395Y8746D01*
X159395Y8746D01*
G37*
G36*
X160632Y8771D02*
X161834Y9836D01*
X161700Y10049D01*
X159255Y9007D01*
X159303Y8771D01*
X160632Y8771D01*
X160632Y8771D01*
G37*
G36*
X169395Y8746D02*
X171811Y9775D01*
X171763Y10011D01*
X168255Y10011D01*
X168183Y9821D01*
X169395Y8746D01*
X169395Y8746D01*
G37*
G36*
X170632Y8771D02*
X171834Y9836D01*
X171700Y10049D01*
X169255Y9007D01*
X169303Y8771D01*
X170632Y8771D01*
X170632Y8771D01*
G37*
G36*
X179503Y8651D02*
X179919Y10168D01*
X178246Y10001D01*
X178187Y9817D01*
X179503Y8651D01*
X179503Y8651D01*
G37*
G36*
X179814Y8093D02*
X180028Y8170D01*
X179856Y10135D01*
X179610Y10158D01*
X179263Y8891D01*
X179814Y8093D01*
X179814Y8093D01*
G37*
G36*
X20185Y8093D02*
X20736Y8891D01*
X20389Y10158D01*
X20143Y10135D01*
X19971Y8170D01*
X20185Y8093D01*
X20185Y8093D01*
G37*
G36*
X30000Y7824D02*
X30748Y8908D01*
X30665Y9066D01*
X29334Y9066D01*
X29251Y8908D01*
X30000Y7824D01*
X30000Y7824D01*
G37*
G36*
X40000Y7824D02*
X40748Y8908D01*
X40665Y9066D01*
X39334Y9066D01*
X39251Y8908D01*
X40000Y7824D01*
X40000Y7824D01*
G37*
G36*
X50000Y7824D02*
X50748Y8908D01*
X50665Y9066D01*
X49334Y9066D01*
X49251Y8908D01*
X50000Y7824D01*
X50000Y7824D01*
G37*
G36*
X60000Y7824D02*
X60748Y8908D01*
X60665Y9066D01*
X59334Y9066D01*
X59251Y8908D01*
X60000Y7824D01*
X60000Y7824D01*
G37*
G36*
X70000Y7824D02*
X70748Y8908D01*
X70665Y9066D01*
X69334Y9066D01*
X69251Y8908D01*
X70000Y7824D01*
X70000Y7824D01*
G37*
G36*
X80000Y7824D02*
X80748Y8908D01*
X80665Y9066D01*
X79334Y9066D01*
X79251Y8908D01*
X80000Y7824D01*
X80000Y7824D01*
G37*
G36*
X90000Y7824D02*
X90748Y8908D01*
X90665Y9066D01*
X89334Y9066D01*
X89251Y8908D01*
X90000Y7824D01*
X90000Y7824D01*
G37*
G36*
X100000Y7824D02*
X100748Y8908D01*
X100665Y9066D01*
X99334Y9066D01*
X99251Y8908D01*
X100000Y7824D01*
X100000Y7824D01*
G37*
G36*
X110000Y7824D02*
X110748Y8908D01*
X110665Y9066D01*
X109334Y9066D01*
X109251Y8908D01*
X110000Y7824D01*
X110000Y7824D01*
G37*
G36*
X120000Y7824D02*
X120748Y8908D01*
X120665Y9066D01*
X119334Y9066D01*
X119251Y8908D01*
X120000Y7824D01*
X120000Y7824D01*
G37*
G36*
X130000Y7824D02*
X130748Y8908D01*
X130665Y9066D01*
X129334Y9066D01*
X129251Y8908D01*
X130000Y7824D01*
X130000Y7824D01*
G37*
G36*
X140000Y7824D02*
X140748Y8908D01*
X140665Y9066D01*
X139334Y9066D01*
X139251Y8908D01*
X140000Y7824D01*
X140000Y7824D01*
G37*
G36*
X150000Y7824D02*
X150748Y8908D01*
X150665Y9066D01*
X149334Y9066D01*
X149251Y8908D01*
X150000Y7824D01*
X150000Y7824D01*
G37*
G36*
X160000Y7824D02*
X160748Y8908D01*
X160665Y9066D01*
X159334Y9066D01*
X159251Y8908D01*
X160000Y7824D01*
X160000Y7824D01*
G37*
G36*
X170000Y7824D02*
X170748Y8908D01*
X170665Y9066D01*
X169334Y9066D01*
X169251Y8908D01*
X170000Y7824D01*
X170000Y7824D01*
G37*
M02*
