%FSLAX35Y35*%
%MOIN*%
G04 2=Kupferunten/CopperbottomL4(X.Bot)*
%ADD10C,0.00591*%
%ADD11C,0.00394*%
%ADD12C,0.00472*%
%ADD13C,0.00650*%
%ADD14C,0.00709*%
%ADD15C,0.00787*%
%ADD16C,0.00945*%
%ADD17C,0.01181*%
%ADD18C,0.01575*%
%ADD19C,0.01969*%
%ADD20C,0.02362*%
%ADD21C,0.02489*%
%ADD22C,0.03937*%
%ADD23C,0.07000*%
%ADD24C,0.15748*%
%AMR_25*21,1,0.01420,0.01420,0,0,0.000*%
%ADD25R_25*%
%AMR_26*21,1,0.02200,0.02200,0,0,0.000*%
%ADD26R_26*%
%AMR_27*21,1,0.02200,0.02200,0,0,45.000*%
%ADD27R_27*%
%AMR_28*21,1,0.02200,0.02200,0,0,90.000*%
%ADD28R_28*%
%AMR_29*21,1,0.02200,0.02200,0,0,135.000*%
%ADD29R_29*%
%AMR_30*21,1,0.02200,0.02200,0,0,180.000*%
%ADD30R_30*%
%AMR_31*21,1,0.02200,0.02200,0,0,225.000*%
%ADD31R_31*%
%AMR_32*21,1,0.02200,0.02200,0,0,315.000*%
%ADD32R_32*%
%AMR_33*21,1,0.04375,0.17500,0,0,0.000*%
%ADD33R_33*%
%AMR_34*21,1,0.04409,0.06299,0,0,135.000*%
%ADD34R_34*%
%AMR_35*21,1,0.04724,0.01181,0,0,45.000*%
%ADD35R_35*%
%AMR_36*21,1,0.04724,0.01181,0,0,315.000*%
%ADD36R_36*%
%AMR_37*21,1,0.05000,0.05000,0,0,225.000*%
%ADD37R_37*%
%AMR_38*21,1,0.06102,0.02362,0,0,0.000*%
%ADD38R_38*%
%AMR_39*21,1,0.06563,0.14063,0,0,0.000*%
%ADD39R_39*%
%AMR_40*21,1,0.09688,0.06250,0,0,0.000*%
%ADD40R_40*%
%AMR_41*21,1,0.20079,0.20079,0,0,45.000*%
%ADD41R_41*%
%ADD42O,0.06102X0.02362*%
%AMRR_43*21,1,0.02559,0.10610,0,0,270.000*21,1,0.02303,0.10866,0,0,270.000*1,1,0.00256,0.05305,-0.01152*1,1,0.00256,-0.05305,0.01152*1,1,0.00256,-0.05305,-0.01152*1,1,0.00256,0.05305,0.01152*%
%ADD43RR_43*%
G54D10*
X119531Y58471D02*
X117762Y56701D01*
X117622Y56840D01*
X119392Y58610D01*
X119531Y58471D01*
X118034Y57252D02*
X118313Y57252D01*
X118586Y57804D02*
X118864Y57804D01*
X119137Y58355D02*
X119415Y58355D01*
G54D13*
X3937Y97874D02*
X3937Y102598D01*
X3937Y100236D02*
X8267Y100236D01*
X8267Y102598D02*
X8267Y97874D01*
X3937Y102598D02*
X6102Y104960D01*
X8267Y102598D01*
X9566Y104960D02*
X9566Y97874D01*
X9566Y100236D02*
X12814Y103779D01*
X11190Y102007D02*
X13897Y97874D01*
X15196Y104960D02*
X15196Y99055D01*
X16279Y97874D01*
X19527Y97874D01*
X15196Y102007D02*
X17362Y102007D01*
X20826Y102007D02*
X20826Y99055D01*
X21909Y97874D01*
X24074Y97874D01*
X25157Y99055D01*
X25157Y102007D02*
X25157Y97874D01*
X30787Y98464D02*
X29704Y97874D01*
X27539Y97874D01*
X26456Y99055D01*
X26456Y100826D01*
X27539Y102007D01*
X29704Y102007D01*
X30787Y101417D01*
X30787Y100826D01*
X29704Y100236D01*
X26456Y100236D01*
X32086Y97874D02*
X36417Y97874D01*
X33169Y104960D02*
X34251Y104960D01*
X34251Y97874D01*
X37716Y97874D02*
X42047Y97874D01*
X38799Y104960D02*
X39881Y104960D01*
X39881Y97874D01*
X47677Y98464D02*
X46594Y97874D01*
X44429Y97874D01*
X43346Y99055D01*
X43346Y100826D01*
X44429Y102007D01*
X46594Y102007D01*
X47677Y101417D01*
X47677Y100826D01*
X46594Y100236D01*
X43346Y100236D01*
X48976Y97874D02*
X52765Y97874D01*
X53307Y99055D01*
X52765Y100236D01*
X49517Y100236D01*
X48976Y101417D01*
X49517Y102007D01*
X53307Y102007D01*
X60236Y104960D02*
X60236Y97874D01*
X60236Y101417D02*
X62942Y101417D01*
X64025Y102007D01*
X64566Y103188D01*
X64025Y104370D01*
X62942Y104960D01*
X60236Y104960D01*
X65866Y102007D02*
X65866Y97874D01*
X65866Y100236D02*
X67490Y102007D01*
X70196Y102007D01*
X71496Y100826D02*
X71496Y99055D01*
X71496Y100826D02*
X72578Y102007D01*
X74744Y102007D01*
X75826Y100826D01*
X75826Y99055D01*
X74744Y97874D01*
X72578Y97874D01*
X71496Y99055D01*
X77125Y95511D02*
X80374Y95511D01*
X81456Y96692D01*
X81456Y102007D01*
X79832Y102007D01*
X81456Y104960D02*
X81456Y104370D01*
X87086Y98464D02*
X86003Y97874D01*
X83838Y97874D01*
X82755Y99055D01*
X82755Y100826D01*
X83838Y102007D01*
X86003Y102007D01*
X87086Y101417D01*
X87086Y100826D01*
X86003Y100236D01*
X82755Y100236D01*
X88385Y104960D02*
X88385Y97874D01*
X88385Y100236D02*
X91633Y103779D01*
X90009Y102007D02*
X92716Y97874D01*
X94015Y104960D02*
X94015Y99055D01*
X95098Y97874D01*
X98346Y97874D01*
X94015Y102007D02*
X96181Y102007D01*
X105275Y102007D02*
X107440Y97874D01*
X109606Y102007D01*
X110905Y100826D02*
X110905Y99055D01*
X110905Y100826D02*
X111988Y102007D01*
X114153Y102007D01*
X115236Y100826D01*
X115236Y99055D01*
X114153Y97874D01*
X111988Y97874D01*
X110905Y99055D01*
X116535Y97874D02*
X116535Y102007D01*
X116535Y100826D02*
X117618Y102007D01*
X119783Y102007D01*
X120866Y100826D01*
X120866Y97874D01*
X127795Y104960D02*
X132125Y104960D01*
X129960Y104960D02*
X129960Y97874D01*
X133425Y97874D02*
X133425Y102598D01*
X133425Y100236D02*
X137755Y100236D01*
X137755Y102598D02*
X137755Y97874D01*
X133425Y102598D02*
X135590Y104960D01*
X137755Y102598D01*
X139055Y104960D02*
X139055Y97874D01*
X139055Y101417D02*
X141761Y101417D01*
X142844Y102007D01*
X143385Y103188D01*
X142844Y104370D01*
X141761Y104960D01*
X139055Y104960D01*
X141220Y101417D02*
X143385Y97874D01*
X146309Y104960D02*
X145226Y104370D01*
X144685Y103188D01*
X144685Y99645D01*
X145226Y98464D01*
X146309Y97874D01*
X147391Y97874D01*
X148474Y98464D01*
X149015Y99645D01*
X149015Y101417D01*
X147933Y101417D01*
X146309Y104960D02*
X147391Y104960D01*
X148474Y104370D01*
X150314Y104960D02*
X150314Y97874D01*
X154645Y97874D01*
X150314Y101417D02*
X152480Y101417D01*
X150314Y104960D02*
X154645Y104960D01*
X155944Y104960D02*
X160275Y104960D01*
X158110Y104960D02*
X158110Y97874D01*
X167204Y97874D02*
X167204Y104960D01*
X171535Y97874D01*
X171535Y104960D01*
X175541Y97874D02*
X176624Y98464D01*
X177165Y99645D01*
X175541Y97874D02*
X174458Y97874D01*
X173375Y98464D01*
X172834Y99645D01*
X172834Y103188D01*
X173375Y104370D01*
X174458Y104960D01*
X175541Y104960D01*
X176624Y104370D01*
X177165Y103188D01*
X178464Y101417D02*
X182795Y101417D01*
X184094Y104960D02*
X184094Y97874D01*
X188425Y97874D01*
X184094Y101417D02*
X186259Y101417D01*
X184094Y104960D02*
X188425Y104960D01*
X194055Y104960D02*
X194055Y97874D01*
X190807Y97874D01*
X189724Y99055D01*
X189724Y100826D01*
X190807Y102007D01*
X194055Y102007D01*
X195354Y97874D02*
X199685Y97874D01*
X197519Y97874D02*
X197519Y102007D01*
X197519Y104960D02*
X197519Y104370D01*
X195895Y102007D02*
X197519Y102007D01*
X200984Y104960D02*
X200984Y99055D01*
X202066Y97874D01*
X205314Y97874D01*
X200984Y102007D02*
X203149Y102007D01*
X206614Y97874D02*
X210944Y97874D01*
X208779Y97874D02*
X208779Y102007D01*
X208779Y104960D02*
X208779Y104370D01*
X207155Y102007D02*
X208779Y102007D01*
X212244Y100826D02*
X212244Y99055D01*
X212244Y100826D02*
X213326Y102007D01*
X215492Y102007D01*
X216574Y100826D01*
X216574Y99055D01*
X215492Y97874D01*
X213326Y97874D01*
X212244Y99055D01*
X217874Y97874D02*
X217874Y102007D01*
X217874Y100826D02*
X218956Y102007D01*
X221122Y102007D01*
X222204Y100826D01*
X222204Y97874D01*
X224586Y98464D02*
X224586Y97874D01*
X225127Y97874D01*
X225127Y98464D01*
X224586Y98464D01*
X225127Y101417D02*
X224586Y101417D01*
X224586Y100826D01*
X225127Y100826D01*
X225127Y101417D01*
X234763Y104960D02*
X234763Y97874D01*
X234763Y100236D02*
X239094Y104960D01*
X236387Y102007D02*
X239094Y97874D01*
X240393Y100826D02*
X240393Y99055D01*
X240393Y100826D02*
X241476Y102007D01*
X243641Y102007D01*
X244724Y100826D01*
X244724Y99055D01*
X243641Y97874D01*
X241476Y97874D01*
X240393Y99055D01*
X250354Y97874D02*
X250354Y100826D01*
X249271Y102007D01*
X248188Y97874D02*
X248188Y100826D01*
X246023Y102007D02*
X249271Y102007D01*
X246023Y97874D02*
X246023Y102007D01*
X248188Y100826D02*
X247106Y102007D01*
X255984Y97874D02*
X255984Y100826D01*
X254901Y102007D01*
X253818Y97874D02*
X253818Y100826D01*
X251653Y102007D02*
X254901Y102007D01*
X251653Y97874D02*
X251653Y102007D01*
X253818Y100826D02*
X252736Y102007D01*
X261614Y98464D02*
X260531Y97874D01*
X258366Y97874D01*
X257283Y99055D01*
X257283Y100826D01*
X258366Y102007D01*
X260531Y102007D01*
X261614Y101417D01*
X261614Y100826D01*
X260531Y100236D01*
X257283Y100236D01*
X262913Y102007D02*
X262913Y97874D01*
X262913Y100236D02*
X264537Y102007D01*
X267244Y102007D01*
X268543Y102007D02*
X272874Y102007D01*
X268543Y97874D01*
X272874Y97874D01*
X274173Y97874D02*
X278503Y97874D01*
X276338Y97874D02*
X276338Y102007D01*
X276338Y104960D02*
X276338Y104370D01*
X274714Y102007D02*
X276338Y102007D01*
X284133Y98464D02*
X283051Y97874D01*
X280885Y97874D01*
X279803Y99055D01*
X279803Y100826D01*
X280885Y102007D01*
X283051Y102007D01*
X284133Y101417D01*
X284133Y100826D01*
X283051Y100236D01*
X279803Y100236D01*
X285433Y97874D02*
X289763Y97874D01*
X286515Y104960D02*
X287598Y104960D01*
X287598Y97874D01*
X291062Y97874D02*
X295393Y97874D01*
X292145Y104960D02*
X293228Y104960D01*
X293228Y97874D01*
X301023Y98464D02*
X299940Y97874D01*
X297775Y97874D01*
X296692Y99055D01*
X296692Y100826D01*
X297775Y102007D01*
X299940Y102007D01*
X301023Y101417D01*
X301023Y100826D01*
X299940Y100236D01*
X296692Y100236D01*
X307952Y97874D02*
X307952Y104960D01*
X312283Y97874D01*
X312283Y104960D01*
X313582Y102007D02*
X313582Y99055D01*
X314665Y97874D01*
X316830Y97874D01*
X317913Y99055D01*
X317913Y102007D02*
X317913Y97874D01*
X319212Y104960D02*
X319212Y99055D01*
X320295Y97874D01*
X323543Y97874D01*
X319212Y102007D02*
X321377Y102007D01*
X324842Y102007D02*
X329173Y102007D01*
X324842Y97874D01*
X329173Y97874D01*
X330472Y102007D02*
X330472Y99055D01*
X331555Y97874D01*
X333720Y97874D01*
X334803Y99055D01*
X334803Y102007D02*
X334803Y97874D01*
X336102Y97874D02*
X336102Y102007D01*
X336102Y100826D02*
X337185Y102007D01*
X339350Y102007D01*
X340433Y100826D01*
X340433Y97874D01*
X346062Y99055D02*
X344980Y97874D01*
X342814Y97874D01*
X341732Y99055D01*
X341732Y100826D01*
X342814Y102007D01*
X344980Y102007D01*
X346062Y100826D01*
X346062Y96692D01*
X344980Y95511D01*
X341732Y95511D01*
X352992Y97874D02*
X357322Y97874D01*
X355157Y97874D02*
X355157Y102007D01*
X355157Y104960D02*
X355157Y104370D01*
X353533Y102007D02*
X355157Y102007D01*
X358622Y97874D02*
X362411Y97874D01*
X362952Y99055D01*
X362411Y100236D01*
X359163Y100236D01*
X358622Y101417D01*
X359163Y102007D01*
X362952Y102007D01*
X364251Y104960D02*
X364251Y99055D01*
X365334Y97874D01*
X368582Y97874D01*
X364251Y102007D02*
X366417Y102007D01*
X375511Y97874D02*
X379301Y97874D01*
X379842Y99055D01*
X379301Y100236D01*
X376053Y100236D01*
X375511Y101417D01*
X376053Y102007D01*
X379842Y102007D01*
X381141Y104960D02*
X381141Y99055D01*
X382224Y97874D01*
X385472Y97874D01*
X381141Y102007D02*
X383307Y102007D01*
X386771Y102007D02*
X386771Y97874D01*
X386771Y100236D02*
X388395Y102007D01*
X391102Y102007D01*
X392401Y99055D02*
X393484Y97874D01*
X395649Y97874D01*
X396732Y99055D01*
X392401Y99055D02*
X392401Y100826D01*
X393484Y102007D01*
X395649Y102007D01*
X396732Y100826D01*
X396732Y97874D01*
X398031Y95511D02*
X398031Y103779D01*
X399114Y104960D01*
X402362Y104960D01*
X398031Y100236D02*
X400196Y100236D01*
X403661Y104960D02*
X403661Y97874D01*
X406909Y97874D01*
X407992Y99055D01*
X407992Y100826D01*
X406909Y102007D01*
X403661Y102007D01*
X409291Y99055D02*
X410374Y97874D01*
X412539Y97874D01*
X413622Y99055D01*
X409291Y99055D02*
X409291Y100826D01*
X410374Y102007D01*
X412539Y102007D01*
X413622Y100826D01*
X413622Y97874D01*
X414921Y102007D02*
X414921Y97874D01*
X414921Y100236D02*
X416545Y102007D01*
X419251Y102007D01*
X422716Y97874D02*
X422716Y98464D01*
X423257Y98464D01*
X423257Y97874D01*
X422716Y97874D01*
X422716Y100236D02*
X423257Y100236D01*
X423799Y103779D01*
X423257Y104960D01*
X422716Y104960D01*
X422175Y103779D01*
X422716Y100236D01*
G54D15*
X124663Y58306D02*
X126250Y59892D01*
X128047Y54922D02*
X129687Y56562D01*
X121172Y61797D02*
X122812Y63437D01*
X121118Y22523D02*
X123666Y22523D01*
X124556Y25961D02*
X125937Y24580D01*
X86381Y58413D02*
X86381Y58413D01*
X86381Y58413D01*
X90390Y62422D02*
X89531Y63281D01*
X123666Y22523D02*
X125723Y24580D01*
X125937Y24580D01*
X133750Y32392D02*
X125937Y24580D01*
X133750Y32392D02*
X133750Y52500D01*
X129687Y56562D01*
X129580Y56562D02*
X126250Y59892D01*
X129580Y56562D02*
X129687Y56562D01*
X126250Y59999D02*
X122812Y63437D01*
X126250Y59999D02*
X126250Y59892D01*
X130830Y19687D02*
X125937Y24580D01*
X102969Y51562D02*
X106719Y47812D01*
X108594Y45937D01*
X110469Y44062D01*
X112344Y42187D01*
X114219Y40312D01*
X106094Y54687D02*
X102969Y51562D01*
X106094Y54687D02*
X117344Y43437D01*
X115782Y41875D01*
X106407Y51250D01*
X115782Y41875D02*
X114219Y40312D01*
X106407Y51250D02*
X120703Y65546D01*
X98282Y46875D02*
X100157Y45000D01*
X93907Y42187D02*
X95626Y40468D01*
X183125Y65937D02*
X165312Y65937D01*
X183125Y65937D02*
X189375Y59687D01*
X189375Y32500D01*
X184375Y27500D01*
X178750Y27500D01*
X156245Y47187D02*
X161250Y47187D01*
X164775Y50712D01*
X130830Y19687D02*
X163437Y19687D01*
X171250Y27500D01*
X173125Y27500D01*
X175000Y27500D01*
X176875Y27500D01*
X178750Y27500D01*
X89531Y63281D02*
X89062Y63750D01*
X90390Y62422D01*
X85000Y59794D02*
X86381Y58413D01*
X86431Y58413D01*
X88437Y60419D01*
X88437Y60469D02*
X90390Y62422D01*
X88437Y60469D02*
X88437Y60419D01*
X97681Y42523D02*
X95782Y40625D01*
X95782Y40312D01*
X95626Y40468D02*
X95782Y40312D01*
X95782Y40625D02*
X95626Y40468D01*
X97681Y42523D02*
X100157Y45000D01*
X107657Y37500D01*
X109765Y40730D02*
X107657Y38622D01*
X107657Y37500D01*
X109532Y35625D01*
X109765Y40730D02*
X112472Y43437D01*
X112472Y42314D01*
X112344Y42187D01*
X165312Y65937D02*
X164775Y65400D01*
X164775Y61875D01*
X164775Y57187D01*
X164775Y50712D01*
X89062Y63750D02*
X86982Y61669D01*
X86875Y61669D01*
X85000Y59794D01*
X86875Y61669D02*
X88074Y60469D01*
X88437Y60419D01*
X88074Y60469D02*
X88387Y60419D01*
X88074Y60469D02*
X88437Y60469D01*
X88387Y60419D01*
X95782Y40312D02*
X99532Y36562D01*
X21875Y11357D02*
X43437Y11357D01*
X183900Y2730D02*
X182730Y3900D01*
X181781Y5255D01*
X181082Y6754D01*
X180654Y8352D01*
X180510Y10000D01*
X180654Y11647D01*
X181082Y13245D01*
X181781Y14744D01*
X182730Y16099D01*
X183900Y17269D01*
X185255Y18218D01*
X186754Y18917D01*
X188352Y19345D01*
X190000Y19489D01*
X191647Y19345D01*
X193245Y18917D01*
X194744Y18218D01*
X196099Y17269D01*
X197269Y16099D01*
X197637Y15573D01*
X197637Y74426D01*
X197269Y73900D01*
X196099Y72730D01*
X194744Y71781D01*
X193245Y71082D01*
X191647Y70654D01*
X190000Y70510D01*
X188352Y70654D01*
X186754Y71082D01*
X185255Y71781D01*
X183900Y72730D01*
X182730Y73900D01*
X181781Y75255D01*
X181082Y76754D01*
X180654Y78352D01*
X180510Y80000D01*
X180654Y81647D01*
X181082Y83245D01*
X181781Y84744D01*
X182730Y86099D01*
X183900Y87269D01*
X184426Y87637D01*
X179351Y87637D01*
X179530Y87378D01*
X179968Y86224D01*
X180117Y85000D01*
X179968Y83775D01*
X179530Y82621D01*
X178830Y81606D01*
X177906Y80788D01*
X176814Y80215D01*
X175616Y79920D01*
X174383Y79920D01*
X173185Y80215D01*
X172093Y80788D01*
X171169Y81606D01*
X170469Y82621D01*
X170031Y83775D01*
X170000Y84035D01*
X169968Y83775D01*
X169530Y82621D01*
X168830Y81606D01*
X167906Y80788D01*
X166814Y80215D01*
X165616Y79920D01*
X164383Y79920D01*
X163185Y80215D01*
X162093Y80788D01*
X161169Y81606D01*
X160469Y82621D01*
X160031Y83775D01*
X160000Y84035D01*
X159968Y83775D01*
X159530Y82621D01*
X158830Y81606D01*
X157906Y80788D01*
X156814Y80215D01*
X155616Y79920D01*
X154383Y79920D01*
X153185Y80215D01*
X152093Y80788D01*
X151169Y81606D01*
X150469Y82621D01*
X150031Y83775D01*
X150000Y84035D01*
X149968Y83775D01*
X149530Y82621D01*
X148830Y81606D01*
X147906Y80788D01*
X146814Y80215D01*
X145616Y79920D01*
X144383Y79920D01*
X143185Y80215D01*
X142093Y80788D01*
X141169Y81606D01*
X140469Y82621D01*
X140031Y83775D01*
X140000Y84035D01*
X139968Y83775D01*
X139530Y82621D01*
X138830Y81606D01*
X137906Y80788D01*
X136814Y80215D01*
X135616Y79920D01*
X134383Y79920D01*
X133185Y80215D01*
X132093Y80788D01*
X131169Y81606D01*
X130469Y82621D01*
X130031Y83775D01*
X130000Y84035D01*
X129968Y83775D01*
X129530Y82621D01*
X128830Y81606D01*
X127906Y80788D01*
X126814Y80215D01*
X125616Y79920D01*
X124383Y79920D01*
X123185Y80215D01*
X122093Y80788D01*
X121169Y81606D01*
X120469Y82621D01*
X120031Y83775D01*
X120000Y84035D01*
X119968Y83775D01*
X119530Y82621D01*
X118830Y81606D01*
X117906Y80788D01*
X116814Y80215D01*
X115616Y79920D01*
X114383Y79920D01*
X113185Y80215D01*
X112093Y80788D01*
X111169Y81606D01*
X110469Y82621D01*
X110031Y83775D01*
X110000Y84035D01*
X109968Y83775D01*
X109530Y82621D01*
X108830Y81606D01*
X107906Y80788D01*
X106814Y80215D01*
X105616Y79920D01*
X104383Y79920D01*
X103185Y80215D01*
X102093Y80788D01*
X101169Y81606D01*
X100469Y82621D01*
X100031Y83775D01*
X100000Y84035D01*
X99968Y83775D01*
X99530Y82621D01*
X98830Y81606D01*
X97906Y80788D01*
X96814Y80215D01*
X95616Y79920D01*
X94383Y79920D01*
X93185Y80215D01*
X92093Y80788D01*
X91169Y81606D01*
X90469Y82621D01*
X90031Y83775D01*
X90000Y84035D01*
X89968Y83775D01*
X89530Y82621D01*
X88830Y81606D01*
X87906Y80788D01*
X86814Y80215D01*
X85616Y79920D01*
X84383Y79920D01*
X83185Y80215D01*
X82093Y80788D01*
X81169Y81606D01*
X80469Y82621D01*
X80031Y83775D01*
X80000Y84035D01*
X79968Y83775D01*
X79530Y82621D01*
X78830Y81606D01*
X77906Y80788D01*
X76814Y80215D01*
X75616Y79920D01*
X74383Y79920D01*
X73185Y80215D01*
X72093Y80788D01*
X71169Y81606D01*
X70469Y82621D01*
X70031Y83775D01*
X70000Y84035D01*
X69968Y83775D01*
X69530Y82621D01*
X68830Y81606D01*
X67906Y80788D01*
X66814Y80215D01*
X65616Y79920D01*
X64383Y79920D01*
X63185Y80215D01*
X62093Y80788D01*
X61169Y81606D01*
X60469Y82621D01*
X60031Y83775D01*
X59882Y85000D01*
X60031Y86224D01*
X60469Y87378D01*
X60648Y87637D01*
X15573Y87637D01*
X16099Y87269D01*
X17269Y86099D01*
X18218Y84744D01*
X18917Y83245D01*
X19345Y81647D01*
X19489Y80000D01*
X19345Y78352D01*
X18917Y76754D01*
X18218Y75255D01*
X17269Y73900D01*
X16099Y72730D01*
X14744Y71781D01*
X13245Y71082D01*
X11647Y70654D01*
X10000Y70510D01*
X8352Y70654D01*
X6754Y71082D01*
X5255Y71781D01*
X3900Y72730D01*
X2730Y73900D01*
X2362Y74426D01*
X2362Y15573D01*
X2730Y16099D01*
X3900Y17269D01*
X5255Y18218D01*
X6754Y18917D01*
X8352Y19345D01*
X10000Y19489D01*
X11647Y19345D01*
X13245Y18917D01*
X14744Y18218D01*
X16099Y17269D01*
X17269Y16099D01*
X18218Y14744D01*
X18917Y13245D01*
X19345Y11647D01*
X19489Y10000D01*
X19345Y8352D01*
X18917Y6754D01*
X18218Y5255D01*
X17269Y3900D01*
X16099Y2730D01*
X15573Y2362D01*
X20648Y2362D01*
X20469Y2621D01*
X20031Y3775D01*
X19882Y5000D01*
X20031Y6224D01*
X20469Y7378D01*
X21169Y8393D01*
X22093Y9211D01*
X23185Y9784D01*
X24383Y10079D01*
X25616Y10079D01*
X26814Y9784D01*
X27906Y9211D01*
X28830Y8393D01*
X29530Y7378D01*
X29968Y6224D01*
X30000Y5964D01*
X30031Y6224D01*
X30469Y7378D01*
X31169Y8393D01*
X32093Y9211D01*
X33185Y9784D01*
X34383Y10079D01*
X35616Y10079D01*
X36814Y9784D01*
X37906Y9211D01*
X38830Y8393D01*
X39530Y7378D01*
X39968Y6224D01*
X40000Y5964D01*
X40031Y6224D01*
X40469Y7378D01*
X41169Y8393D01*
X42093Y9211D01*
X43185Y9784D01*
X44383Y10079D01*
X45616Y10079D01*
X46814Y9784D01*
X47906Y9211D01*
X48830Y8393D01*
X49530Y7378D01*
X49968Y6224D01*
X50000Y5964D01*
X50031Y6224D01*
X50469Y7378D01*
X51169Y8393D01*
X52093Y9211D01*
X53185Y9784D01*
X54383Y10079D01*
X55616Y10079D01*
X56814Y9784D01*
X57906Y9211D01*
X58830Y8393D01*
X59530Y7378D01*
X59968Y6224D01*
X60000Y5964D01*
X60031Y6224D01*
X60469Y7378D01*
X61169Y8393D01*
X62093Y9211D01*
X63185Y9784D01*
X64383Y10079D01*
X65616Y10079D01*
X66814Y9784D01*
X67906Y9211D01*
X68830Y8393D01*
X69530Y7378D01*
X69968Y6224D01*
X70000Y5964D01*
X70031Y6224D01*
X70469Y7378D01*
X71169Y8393D01*
X72093Y9211D01*
X73185Y9784D01*
X74383Y10079D01*
X75616Y10079D01*
X76814Y9784D01*
X77906Y9211D01*
X78830Y8393D01*
X79530Y7378D01*
X79968Y6224D01*
X80000Y5964D01*
X80031Y6224D01*
X80469Y7378D01*
X81169Y8393D01*
X82093Y9211D01*
X83185Y9784D01*
X84383Y10079D01*
X85616Y10079D01*
X86814Y9784D01*
X87906Y9211D01*
X88830Y8393D01*
X89530Y7378D01*
X89968Y6224D01*
X90000Y5964D01*
X90031Y6224D01*
X90469Y7378D01*
X91169Y8393D01*
X92093Y9211D01*
X93185Y9784D01*
X94383Y10079D01*
X95616Y10079D01*
X96391Y9888D01*
X82244Y24035D01*
X82244Y25638D01*
X81775Y26340D01*
X81607Y27187D01*
X81775Y28034D01*
X82255Y28751D01*
X82972Y29231D01*
X83819Y29399D01*
X84666Y29231D01*
X84716Y29198D01*
X84716Y29736D01*
X84428Y30166D01*
X84297Y30827D01*
X82917Y29447D01*
X82231Y29447D01*
X81752Y28969D01*
X80122Y28969D01*
X79400Y29690D01*
X79199Y29824D01*
X79065Y30025D01*
X78036Y31054D01*
X77903Y31080D01*
X77185Y31560D01*
X76705Y32278D01*
X76679Y32411D01*
X76630Y32460D01*
X76497Y32487D01*
X75779Y32966D01*
X75299Y33684D01*
X75131Y34531D01*
X75299Y35377D01*
X75779Y36095D01*
X76497Y36575D01*
X76630Y36601D01*
X76679Y36650D01*
X76705Y36784D01*
X77185Y37501D01*
X77903Y37981D01*
X78036Y38008D01*
X78241Y38213D01*
X78268Y38346D01*
X78748Y39064D01*
X79465Y39544D01*
X79599Y39570D01*
X80434Y40406D01*
X82934Y40406D01*
X83554Y41025D01*
X83580Y41159D01*
X84060Y41876D01*
X84778Y42356D01*
X84822Y42365D01*
X84830Y42409D01*
X85310Y43126D01*
X85844Y43483D01*
X85844Y44809D01*
X84599Y46054D01*
X84465Y46080D01*
X83748Y46560D01*
X83268Y47278D01*
X83259Y47322D01*
X83215Y47330D01*
X82498Y47810D01*
X82018Y48528D01*
X81888Y49180D01*
X77660Y53408D01*
X77396Y53143D01*
X76091Y53143D01*
X73613Y55621D01*
X73613Y56113D01*
X73121Y56113D01*
X70643Y58591D01*
X70643Y59896D01*
X73121Y62374D01*
X74426Y62374D01*
X74690Y62109D01*
X74873Y62291D01*
X74568Y62747D01*
X74006Y63123D01*
X73526Y63840D01*
X73358Y64687D01*
X73526Y65534D01*
X74006Y66251D01*
X74724Y66731D01*
X75570Y66899D01*
X76417Y66731D01*
X77135Y66251D01*
X77510Y65689D01*
X78072Y65314D01*
X78448Y64752D01*
X79010Y64376D01*
X79385Y63814D01*
X79947Y63439D01*
X80427Y62721D01*
X80595Y61875D01*
X80427Y61028D01*
X79947Y60310D01*
X79230Y59830D01*
X78383Y59662D01*
X77536Y59830D01*
X76818Y60310D01*
X76807Y60328D01*
X76639Y60160D01*
X76904Y59896D01*
X76904Y59404D01*
X77396Y59404D01*
X79874Y56926D01*
X79874Y55621D01*
X79609Y55356D01*
X83359Y51607D01*
X83748Y52189D01*
X84465Y52669D01*
X85292Y52833D01*
X85171Y53437D01*
X85325Y54208D01*
X85762Y54862D01*
X86220Y55168D01*
X86220Y55283D01*
X85728Y55283D01*
X83250Y57761D01*
X83250Y59065D01*
X85728Y61543D01*
X87033Y61543D01*
X89511Y59065D01*
X89511Y58574D01*
X89590Y58574D01*
X89824Y58925D01*
X90373Y59291D01*
X89737Y59291D01*
X87259Y61770D01*
X87259Y63074D01*
X89737Y65552D01*
X91042Y65552D01*
X93520Y63074D01*
X93520Y61992D01*
X93767Y61992D01*
X95630Y60129D01*
X95846Y60086D01*
X96564Y59606D01*
X97044Y58888D01*
X97212Y58042D01*
X97044Y57195D01*
X96564Y56477D01*
X95846Y55998D01*
X95000Y55829D01*
X94453Y55938D01*
X94362Y55478D01*
X93925Y54824D01*
X93271Y54387D01*
X92794Y54293D01*
X92840Y54062D01*
X92672Y53215D01*
X92192Y52498D01*
X91474Y52018D01*
X90707Y51865D01*
X94004Y48569D01*
X94059Y48624D01*
X95363Y48624D01*
X97841Y46146D01*
X97841Y45654D01*
X98333Y45654D01*
X100811Y43176D01*
X100811Y41871D01*
X98333Y39393D01*
X97029Y39393D01*
X94550Y41871D01*
X94550Y42363D01*
X94059Y42363D01*
X91581Y44841D01*
X91581Y46146D01*
X92055Y46620D01*
X88644Y50032D01*
X88774Y49375D01*
X88606Y48528D01*
X88240Y47980D01*
X89781Y46440D01*
X89781Y41684D01*
X88945Y40849D01*
X88919Y40715D01*
X88439Y39998D01*
X87721Y39518D01*
X87677Y39509D01*
X87669Y39465D01*
X87327Y38954D01*
X87507Y38919D01*
X88225Y38439D01*
X88704Y37721D01*
X88873Y36875D01*
X88704Y36028D01*
X88365Y35520D01*
X88365Y34895D01*
X86401Y32931D01*
X87062Y32799D01*
X87716Y32362D01*
X87984Y31961D01*
X88303Y32174D01*
X89074Y32328D01*
X89846Y32174D01*
X90293Y31875D01*
X90325Y32037D01*
X90762Y32691D01*
X91416Y33128D01*
X92187Y33281D01*
X92958Y33128D01*
X93612Y32691D01*
X94049Y32037D01*
X94203Y31266D01*
X94049Y30494D01*
X93762Y30064D01*
X93762Y25027D01*
X95826Y22962D01*
X95950Y23583D01*
X96387Y24237D01*
X97041Y24674D01*
X97333Y24732D01*
X97353Y24833D01*
X97790Y25487D01*
X98444Y25924D01*
X98551Y25945D01*
X98456Y26041D01*
X98456Y27346D01*
X100934Y29824D01*
X101425Y29824D01*
X101425Y30315D01*
X103904Y32793D01*
X105208Y32793D01*
X107686Y30315D01*
X107686Y29502D01*
X108695Y29502D01*
X111967Y26231D01*
X112187Y26274D01*
X113034Y26106D01*
X113075Y26078D01*
X113121Y26124D01*
X114426Y26124D01*
X115018Y25531D01*
X115018Y26146D01*
X117496Y28624D01*
X117636Y28624D01*
X117643Y28659D01*
X118115Y29365D01*
X117895Y29512D01*
X117458Y30166D01*
X117305Y30937D01*
X117316Y30993D01*
X113533Y34776D01*
X113387Y34630D01*
X112082Y34630D01*
X109604Y37108D01*
X109604Y37600D01*
X109112Y37600D01*
X106634Y40078D01*
X106634Y41382D01*
X109112Y43860D01*
X110417Y43860D01*
X112895Y41382D01*
X112895Y40891D01*
X113387Y40891D01*
X115865Y38412D01*
X115865Y37108D01*
X115482Y36725D01*
X119265Y32941D01*
X119320Y32953D01*
X120092Y32799D01*
X120746Y32362D01*
X120947Y32061D01*
X122238Y32061D01*
X124716Y29583D01*
X124716Y29091D01*
X125208Y29091D01*
X127686Y26613D01*
X127686Y25309D01*
X125208Y22831D01*
X124249Y22831D01*
X124249Y21871D01*
X121771Y19393D01*
X120466Y19393D01*
X119874Y19985D01*
X119874Y19371D01*
X117812Y17310D01*
X117837Y17187D01*
X117669Y16340D01*
X117616Y16262D01*
X135964Y16262D01*
X142698Y9528D01*
X143185Y9784D01*
X144383Y10079D01*
X145616Y10079D01*
X146814Y9784D01*
X147906Y9211D01*
X148830Y8393D01*
X149530Y7378D01*
X149968Y6224D01*
X150000Y5964D01*
X150031Y6224D01*
X150469Y7378D01*
X151169Y8393D01*
X152093Y9211D01*
X153185Y9784D01*
X154383Y10079D01*
X155616Y10079D01*
X156814Y9784D01*
X157906Y9211D01*
X158830Y8393D01*
X159530Y7378D01*
X159968Y6224D01*
X160000Y5964D01*
X160031Y6224D01*
X160469Y7378D01*
X161169Y8393D01*
X162093Y9211D01*
X163185Y9784D01*
X164383Y10079D01*
X165616Y10079D01*
X166814Y9784D01*
X167906Y9211D01*
X168830Y8393D01*
X169530Y7378D01*
X169968Y6224D01*
X170000Y5964D01*
X170031Y6224D01*
X170469Y7378D01*
X171169Y8393D01*
X172093Y9211D01*
X173185Y9784D01*
X174383Y10079D01*
X175616Y10079D01*
X176814Y9784D01*
X177906Y9211D01*
X178830Y8393D01*
X179530Y7378D01*
X179968Y6224D01*
X180117Y5000D01*
X179968Y3775D01*
X179530Y2621D01*
X179351Y2362D01*
X184426Y2362D01*
X183900Y2730D01*
X195000Y50484D02*
X194228Y50637D01*
X193574Y51074D01*
X193137Y51728D01*
X192984Y52500D01*
X193137Y53271D01*
X193574Y53925D01*
X194228Y54362D01*
X195000Y54515D01*
X195771Y54362D01*
X196425Y53925D01*
X196862Y53271D01*
X197015Y52500D01*
X196862Y51728D01*
X196425Y51074D01*
X195771Y50637D01*
X195000Y50484D01*
X124425Y48822D02*
X121947Y51300D01*
X121947Y52112D01*
X121884Y52206D01*
X121797Y52206D01*
X121159Y51779D01*
X120312Y51611D01*
X119465Y51779D01*
X118748Y52259D01*
X118268Y52976D01*
X118100Y53823D01*
X118234Y54499D01*
X117483Y54350D01*
X116637Y54518D01*
X115919Y54998D01*
X115439Y55715D01*
X115271Y56562D01*
X115439Y57409D01*
X115599Y57648D01*
X115072Y58175D01*
X115072Y59479D01*
X117550Y61958D01*
X118041Y61958D01*
X118041Y62449D01*
X120520Y64927D01*
X121824Y64927D01*
X124302Y62449D01*
X124302Y61436D01*
X125315Y61436D01*
X127793Y58958D01*
X127793Y58052D01*
X128699Y58052D01*
X131177Y55574D01*
X131177Y54270D01*
X128699Y51791D01*
X128208Y51791D01*
X128208Y51300D01*
X125729Y48822D01*
X124425Y48822D01*
X141250Y20287D02*
X140403Y20455D01*
X139685Y20935D01*
X139205Y21653D01*
X139037Y22500D01*
X139205Y23346D01*
X139685Y24064D01*
X140403Y24544D01*
X141250Y24712D01*
X142096Y24544D01*
X142814Y24064D01*
X142939Y23877D01*
X157241Y23877D01*
X167487Y34123D01*
X167487Y34402D01*
X168410Y35324D01*
X173596Y35324D01*
X173354Y35612D01*
X171847Y35612D01*
X169347Y38112D01*
X162824Y38112D01*
X162824Y34035D01*
X161902Y33112D01*
X148097Y33112D01*
X147175Y34035D01*
X147175Y55508D01*
X147096Y55455D01*
X146250Y55287D01*
X145403Y55455D01*
X144685Y55935D01*
X144205Y56653D01*
X144037Y57500D01*
X144205Y58346D01*
X144675Y59048D01*
X144675Y67527D01*
X147160Y70012D01*
X183737Y70012D01*
X194041Y59708D01*
X194062Y59712D01*
X194909Y59544D01*
X195626Y59064D01*
X196106Y58346D01*
X196274Y57500D01*
X196106Y56653D01*
X195626Y55935D01*
X194909Y55455D01*
X194062Y55287D01*
X193215Y55455D01*
X192498Y55935D01*
X192018Y56653D01*
X191863Y57432D01*
X182433Y66862D01*
X148464Y66862D01*
X147824Y66222D01*
X147824Y65989D01*
X148097Y66262D01*
X154402Y66262D01*
X155324Y65339D01*
X155324Y54982D01*
X158149Y54982D01*
X159073Y54819D01*
X159915Y54333D01*
X160541Y53588D01*
X160873Y52673D01*
X160873Y51701D01*
X160541Y50786D01*
X159915Y50041D01*
X159302Y49687D01*
X159915Y49333D01*
X160541Y48588D01*
X160873Y47673D01*
X160873Y46701D01*
X160541Y45786D01*
X159915Y45041D01*
X159302Y44687D01*
X159915Y44333D01*
X160541Y43588D01*
X160873Y42673D01*
X160873Y41701D01*
X160714Y41262D01*
X165497Y41262D01*
X165497Y50498D01*
X165310Y50623D01*
X164830Y51340D01*
X164662Y52187D01*
X164830Y53034D01*
X165310Y53751D01*
X166028Y54231D01*
X166875Y54399D01*
X167597Y54256D01*
X167597Y54512D01*
X167222Y54512D01*
X166875Y54860D01*
X166527Y54512D01*
X163022Y54512D01*
X162100Y55435D01*
X162100Y58939D01*
X162691Y59531D01*
X162100Y60122D01*
X162100Y63627D01*
X163022Y64549D01*
X166527Y64549D01*
X166875Y64202D01*
X167222Y64549D01*
X170727Y64549D01*
X171649Y63627D01*
X171649Y63252D01*
X172100Y63252D01*
X172100Y63627D01*
X173022Y64549D01*
X176527Y64549D01*
X176875Y64202D01*
X177222Y64549D01*
X180727Y64549D01*
X181649Y63627D01*
X181649Y63252D01*
X181820Y63252D01*
X182940Y62133D01*
X182940Y62113D01*
X183437Y62212D01*
X184284Y62044D01*
X185001Y61564D01*
X185481Y60846D01*
X185649Y60000D01*
X185481Y59153D01*
X185001Y58435D01*
X184284Y57955D01*
X183437Y57787D01*
X182590Y57955D01*
X182500Y58016D01*
X182409Y57955D01*
X181562Y57787D01*
X180715Y57955D01*
X179998Y58435D01*
X179518Y59153D01*
X179509Y59200D01*
X177222Y59200D01*
X176875Y59547D01*
X176527Y59200D01*
X173022Y59200D01*
X172100Y60122D01*
X172100Y60497D01*
X171649Y60497D01*
X171649Y60122D01*
X171058Y59531D01*
X171649Y58939D01*
X171649Y55435D01*
X170727Y54512D01*
X170352Y54512D01*
X170352Y51595D01*
X173278Y48670D01*
X173834Y49333D01*
X174447Y49687D01*
X173834Y50041D01*
X173208Y50786D01*
X172876Y51701D01*
X172876Y52673D01*
X173208Y53588D01*
X173834Y54333D01*
X174676Y54819D01*
X175600Y54982D01*
X179409Y54982D01*
X180333Y54819D01*
X181175Y54333D01*
X181801Y53588D01*
X182133Y52673D01*
X182133Y51701D01*
X181801Y50786D01*
X181175Y50041D01*
X180562Y49687D01*
X181175Y49333D01*
X181801Y48588D01*
X182133Y47673D01*
X182133Y46701D01*
X181801Y45786D01*
X181175Y45041D01*
X180562Y44687D01*
X181175Y44333D01*
X181801Y43588D01*
X182133Y42673D01*
X182133Y41701D01*
X181801Y40786D01*
X181175Y40041D01*
X180562Y39687D01*
X181175Y39333D01*
X181801Y38588D01*
X182133Y37673D01*
X182133Y36701D01*
X181801Y35786D01*
X181413Y35324D01*
X182472Y35324D01*
X183425Y36277D01*
X183425Y45951D01*
X182955Y46653D01*
X182787Y47500D01*
X182955Y48346D01*
X183435Y49064D01*
X184153Y49544D01*
X185000Y49712D01*
X185846Y49544D01*
X186564Y49064D01*
X187044Y48346D01*
X187212Y47500D01*
X187044Y46653D01*
X186574Y45951D01*
X186574Y34972D01*
X183777Y32175D01*
X169436Y32175D01*
X158383Y21122D01*
X142939Y21122D01*
X142814Y20935D01*
X142096Y20455D01*
X141250Y20287D01*
X70625Y67861D02*
X69778Y68029D01*
X69060Y68509D01*
X68685Y69071D01*
X68123Y69446D01*
X67747Y70008D01*
X67185Y70384D01*
X66810Y70946D01*
X66248Y71321D01*
X65768Y72039D01*
X65600Y72886D01*
X65768Y73732D01*
X66248Y74450D01*
X66965Y74930D01*
X67812Y75098D01*
X68659Y74930D01*
X69376Y74450D01*
X69752Y73888D01*
X70314Y73512D01*
X70689Y72950D01*
X71251Y72575D01*
X71627Y72013D01*
X72189Y71637D01*
X72669Y70920D01*
X72837Y70073D01*
X72669Y69226D01*
X72189Y68509D01*
X71471Y68029D01*
X70625Y67861D01*
X123647Y53125D02*
X124842Y52187D01*
X125077Y51952D01*
X86660Y36875D02*
X85645Y35859D01*
X85234Y35547D01*
X86562Y36875D02*
X85234Y35547D01*
X86562Y36875D02*
X86660Y36875D01*
X118202Y58827D02*
X118905Y58125D01*
X112734Y37523D02*
X119320Y30937D01*
X112734Y37760D02*
X112734Y37523D01*
X95000Y58042D02*
X93589Y59452D01*
X93359Y59452D01*
X147812Y68437D02*
X146250Y66875D01*
X146250Y57500D01*
X183085Y68437D02*
X194062Y57460D01*
X194062Y57500D01*
X183085Y68437D02*
X147812Y68437D01*
X172500Y37187D02*
X177504Y37187D01*
X170000Y39687D02*
X172500Y37187D01*
X166875Y39687D02*
X170000Y39687D01*
X153750Y52187D02*
X153750Y64687D01*
X148750Y64687D01*
X148750Y34687D02*
X148750Y64687D01*
X148750Y34687D02*
X161250Y34687D01*
X161250Y39375D01*
X156245Y52187D02*
X153750Y52187D01*
X166875Y52187D02*
X166875Y39687D01*
X153437Y39687D01*
X156245Y52187D02*
X151875Y52187D01*
X151875Y39687D01*
X153437Y39687D01*
X112187Y24062D02*
X113256Y22993D01*
X113773Y22993D01*
X111875Y24463D02*
X112187Y24062D01*
X92500Y56250D02*
X91250Y57500D01*
X112187Y21562D02*
X113618Y22993D01*
X113773Y22993D01*
X104556Y29663D02*
X106094Y28125D01*
X108125Y28125D01*
X112187Y24062D01*
X73773Y59243D02*
X77342Y62812D01*
X77445Y62812D01*
X77342Y62812D02*
X77394Y62864D01*
X120312Y53823D02*
X121693Y55204D01*
X121693Y55336D01*
X118148Y25493D02*
X119921Y27266D01*
X121586Y29243D02*
X121586Y28931D01*
X119921Y27266D02*
X121586Y28931D01*
X119687Y27812D02*
X119921Y27266D01*
X181562Y60000D02*
X183437Y60000D01*
X67812Y72886D02*
X68750Y71948D01*
X69687Y71011D01*
X70625Y70073D01*
X119687Y27812D02*
X120937Y26562D01*
X181562Y61562D02*
X181562Y60000D01*
X181562Y61562D02*
X181250Y61875D01*
X178975Y61875D01*
X77343Y34531D02*
X78750Y35937D01*
X112344Y18848D02*
X112344Y17187D01*
X113907Y17187D01*
X115625Y17187D01*
X115625Y18642D01*
X78750Y33125D02*
X78750Y33125D01*
X77500Y34375D02*
X77343Y34531D01*
X80312Y37500D02*
X80156Y37343D01*
X115526Y18750D02*
X115517Y18750D01*
X115526Y18750D02*
X115625Y18848D01*
X115526Y18750D02*
X115625Y18642D01*
X113931Y18871D02*
X113907Y18848D01*
X113931Y18871D02*
X113931Y18848D01*
X115625Y18848D02*
X115625Y18905D01*
X115625Y18642D01*
X115625Y18905D02*
X115526Y18750D01*
X115625Y18905D02*
X116743Y20023D01*
X97965Y22812D02*
X99215Y24062D01*
X97965Y22812D02*
X97812Y22812D01*
X101586Y26433D02*
X99215Y24062D01*
X101586Y26433D02*
X101586Y26693D01*
X76743Y56273D02*
X83642Y49375D01*
X84062Y49375D01*
X90628Y54166D02*
X89351Y55443D01*
X90628Y54166D02*
X90628Y54062D01*
X87187Y53437D02*
X88437Y52187D01*
X94711Y45913D01*
X94711Y45493D01*
X150312Y55625D02*
X151250Y56562D01*
X150312Y38125D02*
X150312Y55625D01*
X151250Y56562D02*
X151250Y62500D01*
X150312Y38125D02*
X151250Y37187D01*
X156245Y37187D01*
X169062Y33750D02*
X183125Y33750D01*
X185000Y35625D01*
X185000Y47500D01*
X141250Y22500D02*
X157812Y22500D01*
X169062Y33750D01*
X86290Y25271D02*
X86290Y30937D01*
X100000Y11562D02*
X86290Y25271D01*
X100000Y11562D02*
X118437Y11562D01*
X125000Y5000D01*
X126875Y13125D02*
X135000Y5000D01*
X100937Y13125D02*
X126875Y13125D01*
X100937Y13125D02*
X89074Y24987D01*
X89074Y30312D01*
X135312Y14687D02*
X145000Y5000D01*
X135312Y14687D02*
X101875Y14687D01*
X92187Y24375D01*
X92187Y31266D01*
X98534Y9972D02*
X83819Y24687D01*
X98534Y9972D02*
X110027Y9972D01*
X115000Y5000D01*
X83819Y24687D02*
X83819Y27187D01*
X168975Y61875D02*
X168975Y57187D01*
X168975Y51025D02*
X168975Y57187D01*
X168975Y51025D02*
X172812Y47187D01*
X177504Y47187D01*
X174775Y61875D02*
X168975Y61875D01*
G54D19*
X126250Y59892D03*
X129687Y56562D03*
X122812Y63437D03*
X178750Y27500D03*
X123666Y22523D03*
X125937Y24580D03*
X85000Y59794D03*
X89062Y63750D03*
X88437Y60419D03*
X86875Y61669D03*
X68907Y42187D03*
X70157Y43437D03*
X71407Y44687D03*
X72657Y45937D03*
X67657Y43437D03*
X68907Y44687D03*
X70157Y45937D03*
X71407Y47187D03*
X67657Y43437D02*
X71407Y47187D01*
X67657Y43437D02*
X68907Y42187D01*
X72657Y45937D01*
X71407Y47187D01*
X88955Y63750D02*
X89062Y63750D01*
X88387Y60419D02*
X88437Y60419D01*
X86381Y58413D02*
X86381Y58413D01*
X95000Y69687D02*
X116562Y69687D01*
X120703Y65546D01*
X122812Y63437D01*
X107969Y52812D03*
X109844Y50937D03*
X111719Y49062D03*
X113594Y47187D03*
X115469Y45312D03*
X117344Y43437D03*
X106094Y54687D03*
X106407Y51250D03*
X108282Y49375D03*
X110157Y47500D03*
X112032Y45625D03*
X113907Y43750D03*
X115782Y41875D03*
X104532Y53125D03*
X104844Y49687D03*
X106719Y47812D03*
X108594Y45937D03*
X110469Y44062D03*
X112344Y42187D03*
X114219Y40312D03*
X102969Y51562D03*
X100157Y45000D03*
X102032Y43125D03*
X103907Y41250D03*
X105782Y39375D03*
X107657Y37500D03*
X109532Y35625D03*
X98282Y46875D03*
X95782Y40312D03*
X97657Y38437D03*
X99532Y36562D03*
X93907Y42187D03*
X22500Y86357D03*
X25000Y86357D03*
X27500Y86357D03*
X30000Y86357D03*
X32500Y86357D03*
X35000Y86357D03*
X37500Y86357D03*
X40000Y86357D03*
X42500Y86357D03*
X45000Y86357D03*
X47500Y86357D03*
X50000Y86357D03*
X52500Y86357D03*
X55000Y86357D03*
X57500Y86357D03*
X22500Y83857D03*
X25000Y83857D03*
X27500Y83857D03*
X30000Y83857D03*
X32500Y83857D03*
X35000Y83857D03*
X37500Y83857D03*
X40000Y83857D03*
X42500Y83857D03*
X45000Y83857D03*
X47500Y83857D03*
X50000Y83857D03*
X52500Y83857D03*
X55000Y83857D03*
X57500Y83857D03*
X22500Y81357D03*
X25000Y81357D03*
X27500Y81357D03*
X30000Y81357D03*
X32500Y81357D03*
X35000Y81357D03*
X37500Y81357D03*
X40000Y81357D03*
X42500Y81357D03*
X45000Y81357D03*
X47500Y81357D03*
X50000Y81357D03*
X52500Y81357D03*
X55000Y81357D03*
X57500Y81357D03*
X22500Y78857D03*
X25000Y78857D03*
X27500Y78857D03*
X30000Y78857D03*
X32500Y78857D03*
X35000Y78857D03*
X37500Y78857D03*
X40000Y78857D03*
X42500Y78857D03*
X45000Y78857D03*
X47500Y78857D03*
X50000Y78857D03*
X52500Y78857D03*
X55000Y78857D03*
X57500Y78857D03*
X22500Y76357D03*
X25000Y76357D03*
X27500Y76357D03*
X30000Y76357D03*
X32500Y76357D03*
X35000Y76357D03*
X37500Y76357D03*
X40000Y76357D03*
X42500Y76357D03*
X45000Y76357D03*
X47500Y76357D03*
X50000Y76357D03*
X52500Y76357D03*
X55000Y76357D03*
X57500Y76357D03*
X22500Y72607D03*
X25000Y72607D03*
X27500Y72607D03*
X30000Y72607D03*
X32500Y72607D03*
X35000Y72607D03*
X37500Y72607D03*
X40000Y72607D03*
X42500Y72607D03*
X45000Y72607D03*
X47500Y72607D03*
X50000Y72607D03*
X52500Y72607D03*
X55000Y72607D03*
X57500Y72607D03*
X22500Y70107D03*
X25000Y70107D03*
X27500Y70107D03*
X30000Y70107D03*
X32500Y70107D03*
X35000Y70107D03*
X37500Y70107D03*
X40000Y70107D03*
X42500Y70107D03*
X45000Y70107D03*
X47500Y70107D03*
X50000Y70107D03*
X52500Y70107D03*
X55000Y70107D03*
X57500Y70107D03*
X22500Y67607D03*
X25000Y67607D03*
X27500Y67607D03*
X30000Y67607D03*
X32500Y67607D03*
X35000Y67607D03*
X37500Y67607D03*
X40000Y67607D03*
X42500Y67607D03*
X45000Y67607D03*
X47500Y67607D03*
X50000Y67607D03*
X52500Y67607D03*
X55000Y67607D03*
X57500Y67607D03*
X22500Y65107D03*
X25000Y65107D03*
X27500Y65107D03*
X30000Y65107D03*
X32500Y65107D03*
X35000Y65107D03*
X37500Y65107D03*
X40000Y65107D03*
X42500Y65107D03*
X45000Y65107D03*
X47500Y65107D03*
X50000Y65107D03*
X52500Y65107D03*
X55000Y65107D03*
X22500Y62607D03*
X25000Y62607D03*
X27500Y62607D03*
X30000Y62607D03*
X32500Y62607D03*
X35000Y62607D03*
X37500Y62607D03*
X40000Y62607D03*
X42500Y62607D03*
X45000Y62607D03*
X47500Y62607D03*
X50000Y62607D03*
X52500Y62607D03*
X21875Y18857D03*
X24375Y18857D03*
X26875Y18857D03*
X29375Y18857D03*
X21875Y16357D03*
X24375Y16357D03*
X26875Y16357D03*
X29375Y16357D03*
X21875Y13857D03*
X24375Y13857D03*
X26875Y13857D03*
X29375Y13857D03*
X21875Y11357D03*
X24375Y11357D03*
X26875Y11357D03*
X29375Y11357D03*
X40937Y18857D03*
X43437Y18857D03*
X45937Y18857D03*
X48437Y18857D03*
X40937Y16357D03*
X43437Y16357D03*
X45937Y16357D03*
X48437Y16357D03*
X40937Y13857D03*
X43437Y13857D03*
X45937Y13857D03*
X48437Y13857D03*
X40937Y11357D03*
X43437Y11357D03*
X45937Y11357D03*
X48437Y11357D03*
X120000Y77607D03*
X122500Y77607D03*
X125000Y77607D03*
X127500Y77607D03*
X130000Y77607D03*
X132500Y77607D03*
X135000Y77607D03*
X137500Y77607D03*
X140000Y77607D03*
X120000Y75107D03*
X122500Y75107D03*
X125000Y75107D03*
X127500Y75107D03*
X130000Y75107D03*
X132500Y75107D03*
X135000Y75107D03*
X137500Y75107D03*
X140000Y75107D03*
X120000Y72607D03*
X122500Y72607D03*
X125000Y72607D03*
X127500Y72607D03*
X130000Y72607D03*
X132500Y72607D03*
X135000Y72607D03*
X137500Y72607D03*
X140000Y72607D03*
X130000Y70107D03*
X132500Y70107D03*
X135000Y70107D03*
X137500Y70107D03*
X140000Y70107D03*
X132500Y67607D03*
X135000Y67607D03*
X137500Y67607D03*
X140000Y67607D03*
X132187Y27607D03*
X134687Y27607D03*
X137187Y27607D03*
X139687Y27607D03*
X129687Y25107D03*
X132187Y25107D03*
X134687Y25107D03*
X137187Y25107D03*
X139687Y25107D03*
X124375Y61874D03*
X127812Y58437D03*
X176875Y27500D03*
X175000Y27500D03*
X173125Y27500D03*
X171250Y27500D03*
X95000Y69687D02*
X89062Y63750D01*
X123647Y53125D03*
X86660Y36875D03*
X117483Y56562D03*
X119320Y30937D03*
X95000Y58042D03*
X194062Y57500D03*
X146250Y57500D03*
X166875Y52187D03*
X112187Y24062D03*
X75570Y64687D03*
X76508Y63750D03*
X77445Y62812D03*
X78383Y61875D03*
X75570Y64687D02*
X77394Y62864D01*
X112187Y21562D03*
X92500Y56250D03*
X91250Y57500D03*
X77394Y62864D02*
X77445Y62812D01*
X78383Y61875D01*
X120312Y53823D03*
X181562Y60000D03*
X183437Y60000D03*
X119687Y27812D03*
X67812Y72886D03*
X68750Y71948D03*
X69687Y71011D03*
X70625Y70073D03*
X120937Y26562D03*
X112344Y18848D03*
X115625Y18848D03*
X115625Y17187D03*
X113907Y17187D03*
X112344Y17187D03*
X86562Y49375D03*
X85312Y48125D03*
X85312Y50625D03*
X84062Y49375D03*
X85625Y40312D03*
X86875Y41562D03*
X80312Y37500D03*
X78750Y33125D03*
X77343Y34531D03*
X99215Y24062D03*
X97812Y22812D03*
X113907Y18848D03*
X78750Y35937D03*
X80625Y31250D03*
X84062Y49375D02*
X85312Y50625D01*
X86562Y49375D01*
X85312Y48125D01*
X84062Y49375D01*
X86875Y41562D02*
X85625Y40312D01*
X115625Y17187D02*
X112344Y17187D01*
X77343Y34531D02*
X80312Y37500D01*
X81250Y38437D01*
X83750Y38437D01*
X85625Y40312D01*
X78750Y33125D02*
X80937Y30937D01*
X82265Y32265D01*
X82265Y32577D01*
X77500Y34375D02*
X78750Y33125D01*
X112344Y18848D02*
X113931Y18848D01*
X115625Y18848D02*
X115625Y18642D01*
X115625Y18848D02*
X115625Y17187D01*
X113931Y18848D02*
X115625Y18848D01*
X86875Y41562D02*
X87812Y42500D01*
X87812Y45625D01*
X85312Y48125D01*
X90628Y54062D03*
X87187Y53437D03*
X88437Y52187D03*
X195000Y52500D03*
X151250Y62500D03*
X141250Y22500D03*
X185000Y47500D03*
X86290Y30937D03*
X89074Y30312D03*
X92187Y31266D03*
X83819Y27187D03*
G54D23*
X65000Y85000D03*
X75000Y85000D03*
X85000Y85000D03*
X95000Y85000D03*
X105000Y85000D03*
X115000Y85000D03*
X125000Y85000D03*
X135000Y85000D03*
X145000Y85000D03*
X155000Y85000D03*
X165000Y85000D03*
X175000Y85000D03*
X65000Y5000D03*
X75000Y5000D03*
X85000Y5000D03*
X95000Y5000D03*
X105000Y5000D03*
X115000Y5000D03*
X125000Y5000D03*
X135000Y5000D03*
X145000Y5000D03*
X155000Y5000D03*
X165000Y5000D03*
X175000Y5000D03*
X55000Y5000D03*
X45000Y5000D03*
X35000Y5000D03*
X25000Y5000D03*
G54D24*
X190000Y80000D03*
X190000Y10000D03*
X10000Y80000D03*
X10000Y10000D03*
G54D26*
X174775Y61875D03*
X178975Y61875D03*
G54D27*
X125077Y51952D03*
X128047Y54922D03*
X118202Y58827D03*
X121172Y61797D03*
X121693Y55336D03*
X124663Y58306D03*
G54D29*
X112734Y37760D03*
X109765Y40730D03*
X93359Y59452D03*
X90390Y62422D03*
X89351Y55443D03*
X86381Y58413D03*
G54D30*
X168975Y57187D03*
X164775Y57187D03*
X168975Y61875D03*
X164775Y61875D03*
G54D31*
X85234Y35547D03*
X82265Y32577D03*
X104556Y29663D03*
X101586Y26693D03*
G54D32*
X118148Y25493D03*
X121118Y22523D03*
X121586Y28931D03*
X124556Y25961D03*
X73773Y59243D03*
X76743Y56273D03*
X113773Y22993D03*
X116743Y20023D03*
X94711Y45493D03*
X97681Y42523D03*
G54D38*
X156245Y37187D03*
G54D42*
X156245Y42187D03*
X156245Y47187D03*
X156245Y52187D03*
X177504Y52187D03*
X177504Y47187D03*
X177504Y42187D03*
X177504Y37187D03*
G36*
X60546Y87229D02*
X60820Y87627D01*
X60737Y87785D01*
X15426Y87785D01*
X15425Y87490D01*
X60546Y87229D01*
X60546Y87229D01*
G37*
G36*
X179456Y87226D02*
X184577Y87497D01*
X184569Y87785D01*
X179262Y87785D01*
X179179Y87627D01*
X179456Y87226D01*
X179456Y87226D01*
G37*
G36*
X16053Y87121D02*
X60616Y87230D01*
X60616Y87524D01*
X15466Y87786D01*
X15400Y87579D01*
X16053Y87121D01*
X16053Y87121D01*
G37*
G36*
X183945Y87120D02*
X184601Y87580D01*
X184529Y87791D01*
X179381Y87517D01*
X179385Y87233D01*
X183945Y87120D01*
X183945Y87120D01*
G37*
G36*
X60132Y86074D02*
X60683Y87526D01*
X15953Y87416D01*
X15950Y87125D01*
X60132Y86074D01*
X60132Y86074D01*
G37*
G36*
X179877Y86047D02*
X184061Y87159D01*
X184031Y87413D01*
X179314Y87531D01*
X179877Y86047D01*
X179877Y86047D01*
G37*
G36*
X17208Y85952D02*
X60177Y86077D01*
X60180Y86368D01*
X16003Y87419D01*
X15924Y87235D01*
X17208Y85952D01*
X17208Y85952D01*
G37*
G36*
X182788Y85949D02*
X184084Y87245D01*
X183971Y87441D01*
X179808Y86334D01*
X179835Y86082D01*
X182788Y85949D01*
X182788Y85949D01*
G37*
G36*
X60013Y84848D02*
X60198Y86372D01*
X17123Y86247D01*
X17120Y85956D01*
X60013Y84848D01*
X60013Y84848D01*
G37*
G36*
X179994Y84788D02*
X182896Y86009D01*
X182855Y86242D01*
X179800Y86379D01*
X179994Y84788D01*
X179994Y84788D01*
G37*
G36*
X18141Y84596D02*
X60029Y84853D01*
X60032Y85143D01*
X17182Y86249D01*
X17096Y86089D01*
X18141Y84596D01*
X18141Y84596D01*
G37*
G36*
X181850Y84585D02*
X182915Y86106D01*
X182775Y86279D01*
X179956Y85092D01*
X179984Y84870D01*
X181850Y84585D01*
X181850Y84585D01*
G37*
G36*
X60198Y83623D02*
X60013Y85148D01*
X18071Y84891D01*
X18069Y84600D01*
X60198Y83623D01*
X60198Y83623D01*
G37*
G36*
X70198Y83627D02*
X70130Y84183D01*
X69869Y84183D01*
X69801Y83627D01*
X70198Y83627D01*
X70198Y83627D01*
G37*
G36*
X80198Y83627D02*
X80130Y84183D01*
X79869Y84183D01*
X79801Y83627D01*
X80198Y83627D01*
X80198Y83627D01*
G37*
G36*
X90198Y83627D02*
X90130Y84183D01*
X89869Y84183D01*
X89801Y83627D01*
X90198Y83627D01*
X90198Y83627D01*
G37*
G36*
X100198Y83627D02*
X100130Y84183D01*
X99869Y84183D01*
X99801Y83627D01*
X100198Y83627D01*
X100198Y83627D01*
G37*
G36*
X110198Y83627D02*
X110130Y84183D01*
X109869Y84183D01*
X109801Y83627D01*
X110198Y83627D01*
X110198Y83627D01*
G37*
G36*
X120198Y83627D02*
X120130Y84183D01*
X119869Y84183D01*
X119801Y83627D01*
X120198Y83627D01*
X120198Y83627D01*
G37*
G36*
X130198Y83627D02*
X130130Y84183D01*
X129869Y84183D01*
X129801Y83627D01*
X130198Y83627D01*
X130198Y83627D01*
G37*
G36*
X140198Y83627D02*
X140130Y84183D01*
X139869Y84183D01*
X139801Y83627D01*
X140198Y83627D01*
X140198Y83627D01*
G37*
G36*
X150198Y83627D02*
X150130Y84183D01*
X149869Y84183D01*
X149801Y83627D01*
X150198Y83627D01*
X150198Y83627D01*
G37*
G36*
X160198Y83627D02*
X160130Y84183D01*
X159869Y84183D01*
X159801Y83627D01*
X160198Y83627D01*
X160198Y83627D01*
G37*
G36*
X170198Y83627D02*
X170130Y84183D01*
X169869Y84183D01*
X169801Y83627D01*
X170198Y83627D01*
X170198Y83627D01*
G37*
G36*
X179958Y83602D02*
X181945Y84664D01*
X181909Y84874D01*
X179988Y85169D01*
X179811Y83704D01*
X179958Y83602D01*
X179958Y83602D01*
G37*
G36*
X18823Y83096D02*
X60178Y83629D01*
X60180Y83919D01*
X17984Y84897D01*
X18823Y83096D01*
X18823Y83096D01*
G37*
G36*
X181153Y83048D02*
X181960Y84778D01*
X181805Y84925D01*
X179818Y83862D01*
X179822Y83681D01*
X181153Y83048D01*
X181153Y83048D01*
G37*
G36*
X60684Y82471D02*
X60133Y83924D01*
X18769Y83391D01*
X18769Y83100D01*
X60684Y82471D01*
X60684Y82471D01*
G37*
G36*
X70391Y82430D02*
X70658Y82539D01*
X70133Y83923D01*
X69743Y83923D01*
X70391Y82430D01*
X70391Y82430D01*
G37*
G36*
X80391Y82430D02*
X80658Y82539D01*
X80133Y83923D01*
X79743Y83923D01*
X80391Y82430D01*
X80391Y82430D01*
G37*
G36*
X90391Y82430D02*
X90658Y82539D01*
X90133Y83923D01*
X89743Y83923D01*
X90391Y82430D01*
X90391Y82430D01*
G37*
G36*
X100391Y82430D02*
X100658Y82539D01*
X100133Y83923D01*
X99743Y83923D01*
X100391Y82430D01*
X100391Y82430D01*
G37*
G36*
X110391Y82430D02*
X110658Y82539D01*
X110133Y83923D01*
X109743Y83923D01*
X110391Y82430D01*
X110391Y82430D01*
G37*
G36*
X120391Y82430D02*
X120658Y82539D01*
X120133Y83923D01*
X119743Y83923D01*
X120391Y82430D01*
X120391Y82430D01*
G37*
G36*
X130391Y82430D02*
X130658Y82539D01*
X130133Y83923D01*
X129743Y83923D01*
X130391Y82430D01*
X130391Y82430D01*
G37*
G36*
X140391Y82430D02*
X140658Y82539D01*
X140133Y83923D01*
X139743Y83923D01*
X140391Y82430D01*
X140391Y82430D01*
G37*
G36*
X150391Y82430D02*
X150658Y82539D01*
X150133Y83923D01*
X149743Y83923D01*
X150391Y82430D01*
X150391Y82430D01*
G37*
G36*
X160391Y82430D02*
X160658Y82539D01*
X160133Y83923D01*
X159743Y83923D01*
X160391Y82430D01*
X160391Y82430D01*
G37*
G36*
X170391Y82430D02*
X170658Y82539D01*
X170133Y83923D01*
X169743Y83923D01*
X170391Y82430D01*
X170391Y82430D01*
G37*
G36*
X69317Y82474D02*
X70694Y82474D01*
X70064Y83925D01*
X69865Y83920D01*
X69317Y82474D01*
X69317Y82474D01*
G37*
G36*
X79317Y82474D02*
X80694Y82474D01*
X80064Y83925D01*
X79865Y83920D01*
X79317Y82474D01*
X79317Y82474D01*
G37*
G36*
X89317Y82474D02*
X90694Y82474D01*
X90064Y83925D01*
X89865Y83920D01*
X89317Y82474D01*
X89317Y82474D01*
G37*
G36*
X99317Y82474D02*
X100694Y82474D01*
X100064Y83925D01*
X99865Y83920D01*
X99317Y82474D01*
X99317Y82474D01*
G37*
G36*
X109317Y82474D02*
X110694Y82474D01*
X110064Y83925D01*
X109865Y83920D01*
X109317Y82474D01*
X109317Y82474D01*
G37*
G36*
X119317Y82474D02*
X120694Y82474D01*
X120064Y83925D01*
X119865Y83920D01*
X119317Y82474D01*
X119317Y82474D01*
G37*
G36*
X129317Y82474D02*
X130694Y82474D01*
X130064Y83925D01*
X129865Y83920D01*
X129317Y82474D01*
X129317Y82474D01*
G37*
G36*
X139317Y82474D02*
X140694Y82474D01*
X140064Y83925D01*
X139865Y83920D01*
X139317Y82474D01*
X139317Y82474D01*
G37*
G36*
X149317Y82474D02*
X150694Y82474D01*
X150064Y83925D01*
X149865Y83920D01*
X149317Y82474D01*
X149317Y82474D01*
G37*
G36*
X159317Y82474D02*
X160694Y82474D01*
X160064Y83925D01*
X159865Y83920D01*
X159317Y82474D01*
X159317Y82474D01*
G37*
G36*
X169317Y82474D02*
X170694Y82474D01*
X170064Y83925D01*
X169865Y83920D01*
X169317Y82474D01*
X169317Y82474D01*
G37*
G36*
X179496Y82449D02*
X181227Y83144D01*
X181233Y83337D01*
X179887Y83977D01*
X179358Y82584D01*
X179496Y82449D01*
X179496Y82449D01*
G37*
G36*
X19232Y81497D02*
X60617Y82477D01*
X60616Y82767D01*
X18724Y83396D01*
X19232Y81497D01*
X19232Y81497D01*
G37*
G36*
X180736Y81381D02*
X181248Y83295D01*
X181112Y83416D01*
X179251Y82668D01*
X180736Y81381D01*
X180736Y81381D01*
G37*
G36*
X61258Y81459D02*
X61342Y81617D01*
X60545Y82771D01*
X19196Y81792D01*
X19199Y81500D01*
X61258Y81459D01*
X61258Y81459D01*
G37*
G36*
X71194Y81418D02*
X71359Y81591D01*
X70546Y82769D01*
X69419Y82769D01*
X69358Y82555D01*
X71194Y81418D01*
X71194Y81418D01*
G37*
G36*
X81194Y81418D02*
X81359Y81591D01*
X80546Y82769D01*
X79419Y82769D01*
X79358Y82555D01*
X81194Y81418D01*
X81194Y81418D01*
G37*
G36*
X91194Y81418D02*
X91359Y81591D01*
X90546Y82769D01*
X89419Y82769D01*
X89358Y82555D01*
X91194Y81418D01*
X91194Y81418D01*
G37*
G36*
X101194Y81418D02*
X101359Y81591D01*
X100546Y82769D01*
X99419Y82769D01*
X99358Y82555D01*
X101194Y81418D01*
X101194Y81418D01*
G37*
G36*
X111194Y81418D02*
X111359Y81591D01*
X110546Y82769D01*
X109419Y82769D01*
X109358Y82555D01*
X111194Y81418D01*
X111194Y81418D01*
G37*
G36*
X121194Y81418D02*
X121359Y81591D01*
X120546Y82769D01*
X119419Y82769D01*
X119358Y82555D01*
X121194Y81418D01*
X121194Y81418D01*
G37*
G36*
X131194Y81418D02*
X131359Y81591D01*
X130546Y82769D01*
X129419Y82769D01*
X129358Y82555D01*
X131194Y81418D01*
X131194Y81418D01*
G37*
G36*
X141194Y81418D02*
X141359Y81591D01*
X140546Y82769D01*
X139419Y82769D01*
X139358Y82555D01*
X141194Y81418D01*
X141194Y81418D01*
G37*
G36*
X151194Y81418D02*
X151359Y81591D01*
X150546Y82769D01*
X149419Y82769D01*
X149358Y82555D01*
X151194Y81418D01*
X151194Y81418D01*
G37*
G36*
X161194Y81418D02*
X161359Y81591D01*
X160546Y82769D01*
X159419Y82769D01*
X159358Y82555D01*
X161194Y81418D01*
X161194Y81418D01*
G37*
G36*
X171194Y81418D02*
X171359Y81591D01*
X170546Y82769D01*
X169419Y82769D01*
X169358Y82555D01*
X171194Y81418D01*
X171194Y81418D01*
G37*
G36*
X68740Y81459D02*
X71281Y81459D01*
X71342Y81673D01*
X69489Y82821D01*
X68657Y81617D01*
X68740Y81459D01*
X68740Y81459D01*
G37*
G36*
X78740Y81459D02*
X81281Y81459D01*
X81342Y81673D01*
X79489Y82821D01*
X78657Y81617D01*
X78740Y81459D01*
X78740Y81459D01*
G37*
G36*
X88740Y81459D02*
X91281Y81459D01*
X91342Y81673D01*
X89489Y82821D01*
X88657Y81617D01*
X88740Y81459D01*
X88740Y81459D01*
G37*
G36*
X98740Y81459D02*
X101281Y81459D01*
X101342Y81673D01*
X99489Y82821D01*
X98657Y81617D01*
X98740Y81459D01*
X98740Y81459D01*
G37*
G36*
X108740Y81459D02*
X111281Y81459D01*
X111342Y81673D01*
X109489Y82821D01*
X108657Y81617D01*
X108740Y81459D01*
X108740Y81459D01*
G37*
G36*
X118740Y81459D02*
X121281Y81459D01*
X121342Y81673D01*
X119489Y82821D01*
X118657Y81617D01*
X118740Y81459D01*
X118740Y81459D01*
G37*
G36*
X128740Y81459D02*
X131281Y81459D01*
X131342Y81673D01*
X129489Y82821D01*
X128657Y81617D01*
X128740Y81459D01*
X128740Y81459D01*
G37*
G36*
X138740Y81459D02*
X141281Y81459D01*
X141342Y81673D01*
X139489Y82821D01*
X138657Y81617D01*
X138740Y81459D01*
X138740Y81459D01*
G37*
G36*
X148740Y81459D02*
X151281Y81459D01*
X151342Y81673D01*
X149489Y82821D01*
X148657Y81617D01*
X148740Y81459D01*
X148740Y81459D01*
G37*
G36*
X158740Y81459D02*
X161281Y81459D01*
X161342Y81673D01*
X159489Y82821D01*
X158657Y81617D01*
X158740Y81459D01*
X158740Y81459D01*
G37*
G36*
X168740Y81459D02*
X171281Y81459D01*
X171342Y81673D01*
X169489Y82821D01*
X168657Y81617D01*
X168740Y81459D01*
X168740Y81459D01*
G37*
G36*
X178743Y81457D02*
X180759Y81502D01*
X180827Y81693D01*
X179503Y82841D01*
X178657Y81616D01*
X178743Y81457D01*
X178743Y81457D01*
G37*
G36*
X62193Y80639D02*
X62268Y80830D01*
X61225Y81754D01*
X19199Y81795D01*
X19196Y81503D01*
X62193Y80639D01*
X62193Y80639D01*
G37*
G36*
X67830Y80617D02*
X71332Y81495D01*
X71300Y81754D01*
X68774Y81754D01*
X67722Y80822D01*
X67830Y80617D01*
X67830Y80617D01*
G37*
G36*
X72195Y80641D02*
X72267Y80831D01*
X71209Y81768D01*
X67744Y80900D01*
X67776Y80641D01*
X72195Y80641D01*
X72195Y80641D01*
G37*
G36*
X77830Y80617D02*
X81332Y81495D01*
X81300Y81754D01*
X78774Y81754D01*
X77722Y80822D01*
X77830Y80617D01*
X77830Y80617D01*
G37*
G36*
X82195Y80641D02*
X82267Y80831D01*
X81209Y81768D01*
X77744Y80900D01*
X77776Y80641D01*
X82195Y80641D01*
X82195Y80641D01*
G37*
G36*
X87830Y80617D02*
X91332Y81495D01*
X91300Y81754D01*
X88774Y81754D01*
X87722Y80822D01*
X87830Y80617D01*
X87830Y80617D01*
G37*
G36*
X92195Y80641D02*
X92267Y80831D01*
X91209Y81768D01*
X87744Y80900D01*
X87776Y80641D01*
X92195Y80641D01*
X92195Y80641D01*
G37*
G36*
X97830Y80617D02*
X101332Y81495D01*
X101300Y81754D01*
X98774Y81754D01*
X97722Y80822D01*
X97830Y80617D01*
X97830Y80617D01*
G37*
G36*
X102195Y80641D02*
X102267Y80831D01*
X101209Y81768D01*
X97744Y80900D01*
X97776Y80641D01*
X102195Y80641D01*
X102195Y80641D01*
G37*
G36*
X107830Y80617D02*
X111332Y81495D01*
X111300Y81754D01*
X108774Y81754D01*
X107722Y80822D01*
X107830Y80617D01*
X107830Y80617D01*
G37*
G36*
X112195Y80641D02*
X112267Y80831D01*
X111209Y81768D01*
X107744Y80900D01*
X107776Y80641D01*
X112195Y80641D01*
X112195Y80641D01*
G37*
G36*
X117830Y80617D02*
X121332Y81495D01*
X121300Y81754D01*
X118774Y81754D01*
X117722Y80822D01*
X117830Y80617D01*
X117830Y80617D01*
G37*
G36*
X122195Y80641D02*
X122267Y80831D01*
X121209Y81768D01*
X117744Y80900D01*
X117776Y80641D01*
X122195Y80641D01*
X122195Y80641D01*
G37*
G36*
X127830Y80617D02*
X131332Y81495D01*
X131300Y81754D01*
X128774Y81754D01*
X127722Y80822D01*
X127830Y80617D01*
X127830Y80617D01*
G37*
G36*
X132195Y80641D02*
X132267Y80831D01*
X131209Y81768D01*
X127744Y80900D01*
X127776Y80641D01*
X132195Y80641D01*
X132195Y80641D01*
G37*
G36*
X137830Y80617D02*
X141332Y81495D01*
X141300Y81754D01*
X138774Y81754D01*
X137722Y80822D01*
X137830Y80617D01*
X137830Y80617D01*
G37*
G36*
X142195Y80641D02*
X142267Y80831D01*
X141209Y81768D01*
X137744Y80900D01*
X137776Y80641D01*
X142195Y80641D01*
X142195Y80641D01*
G37*
G36*
X147830Y80617D02*
X151332Y81495D01*
X151300Y81754D01*
X148774Y81754D01*
X147722Y80822D01*
X147830Y80617D01*
X147830Y80617D01*
G37*
G36*
X152195Y80641D02*
X152267Y80831D01*
X151209Y81768D01*
X147744Y80900D01*
X147776Y80641D01*
X152195Y80641D01*
X152195Y80641D01*
G37*
G36*
X157830Y80617D02*
X161332Y81495D01*
X161300Y81754D01*
X158774Y81754D01*
X157722Y80822D01*
X157830Y80617D01*
X157830Y80617D01*
G37*
G36*
X162195Y80641D02*
X162267Y80831D01*
X161209Y81768D01*
X157744Y80900D01*
X157776Y80641D01*
X162195Y80641D01*
X162195Y80641D01*
G37*
G36*
X167830Y80617D02*
X171332Y81495D01*
X171300Y81754D01*
X168774Y81754D01*
X167722Y80822D01*
X167830Y80617D01*
X167830Y80617D01*
G37*
G36*
X172195Y80641D02*
X172267Y80831D01*
X171209Y81768D01*
X167744Y80900D01*
X167776Y80641D01*
X172195Y80641D01*
X172195Y80641D01*
G37*
G36*
X177836Y80612D02*
X180820Y81545D01*
X180779Y81798D01*
X178772Y81753D01*
X177719Y80820D01*
X177836Y80612D01*
X177836Y80612D01*
G37*
G36*
X63298Y80064D02*
X63358Y80291D01*
X62130Y80935D01*
X19201Y81798D01*
X19194Y81505D01*
X63298Y80064D01*
X63298Y80064D01*
G37*
G36*
X66708Y80055D02*
X72248Y80657D01*
X72233Y80936D01*
X67870Y80936D01*
X66637Y80289D01*
X66708Y80055D01*
X66708Y80055D01*
G37*
G36*
X73301Y80067D02*
X73356Y80292D01*
X72121Y80940D01*
X66659Y80347D01*
X66674Y80067D01*
X73301Y80067D01*
X73301Y80067D01*
G37*
G36*
X76708Y80055D02*
X82248Y80657D01*
X82233Y80936D01*
X77870Y80936D01*
X76637Y80289D01*
X76708Y80055D01*
X76708Y80055D01*
G37*
G36*
X83301Y80067D02*
X83356Y80292D01*
X82121Y80940D01*
X76659Y80347D01*
X76674Y80067D01*
X83301Y80067D01*
X83301Y80067D01*
G37*
G36*
X86708Y80055D02*
X92248Y80657D01*
X92233Y80936D01*
X87870Y80936D01*
X86637Y80289D01*
X86708Y80055D01*
X86708Y80055D01*
G37*
G36*
X93301Y80067D02*
X93356Y80292D01*
X92121Y80940D01*
X86659Y80347D01*
X86674Y80067D01*
X93301Y80067D01*
X93301Y80067D01*
G37*
G36*
X96708Y80055D02*
X102248Y80657D01*
X102233Y80936D01*
X97870Y80936D01*
X96637Y80289D01*
X96708Y80055D01*
X96708Y80055D01*
G37*
G36*
X103301Y80067D02*
X103356Y80292D01*
X102121Y80940D01*
X96659Y80347D01*
X96674Y80067D01*
X103301Y80067D01*
X103301Y80067D01*
G37*
G36*
X106708Y80055D02*
X112248Y80657D01*
X112233Y80936D01*
X107870Y80936D01*
X106637Y80289D01*
X106708Y80055D01*
X106708Y80055D01*
G37*
G36*
X113301Y80067D02*
X113356Y80292D01*
X112121Y80940D01*
X106659Y80347D01*
X106674Y80067D01*
X113301Y80067D01*
X113301Y80067D01*
G37*
G36*
X116708Y80055D02*
X122248Y80657D01*
X122233Y80936D01*
X117870Y80936D01*
X116637Y80289D01*
X116708Y80055D01*
X116708Y80055D01*
G37*
G36*
X123301Y80067D02*
X123356Y80292D01*
X122121Y80940D01*
X116659Y80347D01*
X116674Y80067D01*
X123301Y80067D01*
X123301Y80067D01*
G37*
G36*
X126708Y80055D02*
X132248Y80657D01*
X132233Y80936D01*
X127870Y80936D01*
X126637Y80289D01*
X126708Y80055D01*
X126708Y80055D01*
G37*
G36*
X133301Y80067D02*
X133356Y80292D01*
X132121Y80940D01*
X126659Y80347D01*
X126674Y80067D01*
X133301Y80067D01*
X133301Y80067D01*
G37*
G36*
X136708Y80055D02*
X142248Y80657D01*
X142233Y80936D01*
X137870Y80936D01*
X136637Y80289D01*
X136708Y80055D01*
X136708Y80055D01*
G37*
G36*
X143301Y80067D02*
X143356Y80292D01*
X142121Y80940D01*
X136659Y80347D01*
X136674Y80067D01*
X143301Y80067D01*
X143301Y80067D01*
G37*
G36*
X146708Y80055D02*
X152248Y80657D01*
X152233Y80936D01*
X147870Y80936D01*
X146637Y80289D01*
X146708Y80055D01*
X146708Y80055D01*
G37*
G36*
X153301Y80067D02*
X153356Y80292D01*
X152121Y80940D01*
X146659Y80347D01*
X146674Y80067D01*
X153301Y80067D01*
X153301Y80067D01*
G37*
G36*
X156708Y80055D02*
X162248Y80657D01*
X162233Y80936D01*
X157870Y80936D01*
X156637Y80289D01*
X156708Y80055D01*
X156708Y80055D01*
G37*
G36*
X163301Y80067D02*
X163356Y80292D01*
X162121Y80940D01*
X156659Y80347D01*
X156674Y80067D01*
X163301Y80067D01*
X163301Y80067D01*
G37*
G36*
X166708Y80055D02*
X172248Y80657D01*
X172233Y80936D01*
X167870Y80936D01*
X166637Y80289D01*
X166708Y80055D01*
X166708Y80055D01*
G37*
G36*
X173301Y80067D02*
X173356Y80292D01*
X172121Y80940D01*
X166659Y80347D01*
X166674Y80067D01*
X173301Y80067D01*
X173301Y80067D01*
G37*
G36*
X176736Y80028D02*
X180840Y81559D01*
X180747Y81831D01*
X177850Y80925D01*
X176623Y80281D01*
X176736Y80028D01*
X176736Y80028D01*
G37*
G36*
X180644Y79844D02*
X180821Y81867D01*
X176650Y80311D01*
X176686Y80075D01*
X180644Y79844D01*
X180644Y79844D01*
G37*
G36*
X19354Y79851D02*
X63331Y80068D01*
X63335Y80358D01*
X19183Y81800D01*
X19354Y79851D01*
X19354Y79851D01*
G37*
G36*
X64513Y79772D02*
X64545Y80032D01*
X63203Y80363D01*
X19341Y80146D01*
X19342Y79852D01*
X64513Y79772D01*
X64513Y79772D01*
G37*
G36*
X65489Y79767D02*
X73335Y80073D01*
X73330Y80363D01*
X66796Y80363D01*
X65451Y80031D01*
X65489Y79767D01*
X65489Y79767D01*
G37*
G36*
X74514Y79772D02*
X74545Y80032D01*
X73200Y80363D01*
X65466Y80062D01*
X65472Y79772D01*
X74514Y79772D01*
X74514Y79772D01*
G37*
G36*
X75489Y79767D02*
X83335Y80073D01*
X83330Y80363D01*
X76796Y80363D01*
X75451Y80031D01*
X75489Y79767D01*
X75489Y79767D01*
G37*
G36*
X84514Y79772D02*
X84545Y80032D01*
X83200Y80363D01*
X75466Y80062D01*
X75472Y79772D01*
X84514Y79772D01*
X84514Y79772D01*
G37*
G36*
X85489Y79767D02*
X93335Y80073D01*
X93330Y80363D01*
X86796Y80363D01*
X85451Y80031D01*
X85489Y79767D01*
X85489Y79767D01*
G37*
G36*
X94514Y79772D02*
X94545Y80032D01*
X93200Y80363D01*
X85466Y80062D01*
X85472Y79772D01*
X94514Y79772D01*
X94514Y79772D01*
G37*
G36*
X95489Y79767D02*
X103335Y80073D01*
X103330Y80363D01*
X96796Y80363D01*
X95451Y80031D01*
X95489Y79767D01*
X95489Y79767D01*
G37*
G36*
X104514Y79772D02*
X104545Y80032D01*
X103200Y80363D01*
X95466Y80062D01*
X95472Y79772D01*
X104514Y79772D01*
X104514Y79772D01*
G37*
G36*
X105489Y79767D02*
X113335Y80073D01*
X113330Y80363D01*
X106796Y80363D01*
X105451Y80031D01*
X105489Y79767D01*
X105489Y79767D01*
G37*
G36*
X114514Y79772D02*
X114545Y80032D01*
X113200Y80363D01*
X105466Y80062D01*
X105472Y79772D01*
X114514Y79772D01*
X114514Y79772D01*
G37*
G36*
X115489Y79767D02*
X123335Y80073D01*
X123330Y80363D01*
X116796Y80363D01*
X115451Y80031D01*
X115489Y79767D01*
X115489Y79767D01*
G37*
G36*
X124514Y79772D02*
X124545Y80032D01*
X123200Y80363D01*
X115466Y80062D01*
X115472Y79772D01*
X124514Y79772D01*
X124514Y79772D01*
G37*
G36*
X125489Y79767D02*
X133335Y80073D01*
X133330Y80363D01*
X126796Y80363D01*
X125451Y80031D01*
X125489Y79767D01*
X125489Y79767D01*
G37*
G36*
X134514Y79772D02*
X134545Y80032D01*
X133200Y80363D01*
X125466Y80062D01*
X125472Y79772D01*
X134514Y79772D01*
X134514Y79772D01*
G37*
G36*
X135489Y79767D02*
X143335Y80073D01*
X143330Y80363D01*
X136796Y80363D01*
X135451Y80031D01*
X135489Y79767D01*
X135489Y79767D01*
G37*
G36*
X144514Y79772D02*
X144545Y80032D01*
X143200Y80363D01*
X135466Y80062D01*
X135472Y79772D01*
X144514Y79772D01*
X144514Y79772D01*
G37*
G36*
X145489Y79767D02*
X153335Y80073D01*
X153330Y80363D01*
X146796Y80363D01*
X145451Y80031D01*
X145489Y79767D01*
X145489Y79767D01*
G37*
G36*
X154514Y79772D02*
X154545Y80032D01*
X153200Y80363D01*
X145466Y80062D01*
X145472Y79772D01*
X154514Y79772D01*
X154514Y79772D01*
G37*
G36*
X155489Y79767D02*
X163335Y80073D01*
X163330Y80363D01*
X156796Y80363D01*
X155451Y80031D01*
X155489Y79767D01*
X155489Y79767D01*
G37*
G36*
X164514Y79772D02*
X164545Y80032D01*
X163200Y80363D01*
X155466Y80062D01*
X155472Y79772D01*
X164514Y79772D01*
X164514Y79772D01*
G37*
G36*
X165489Y79767D02*
X173335Y80073D01*
X173330Y80363D01*
X166796Y80363D01*
X165451Y80031D01*
X165489Y79767D01*
X165489Y79767D01*
G37*
G36*
X174514Y79772D02*
X174545Y80032D01*
X173200Y80363D01*
X165466Y80062D01*
X165472Y79772D01*
X174514Y79772D01*
X174514Y79772D01*
G37*
G36*
X175487Y79770D02*
X180654Y79854D01*
X180660Y80139D01*
X176800Y80364D01*
X175453Y80032D01*
X175487Y79770D01*
X175487Y79770D01*
G37*
G36*
X19183Y78198D02*
X64533Y79777D01*
X64528Y80067D01*
X19354Y80147D01*
X19183Y78198D01*
X19183Y78198D01*
G37*
G36*
X19201Y78203D02*
X175765Y79774D01*
X175763Y80067D01*
X64380Y80067D01*
X19194Y78494D01*
X19201Y78203D01*
X19201Y78203D01*
G37*
G36*
X180820Y78145D02*
X180645Y80149D01*
X175488Y80065D01*
X175452Y79816D01*
X180820Y78145D01*
X180820Y78145D01*
G37*
G36*
X180781Y78204D02*
X180819Y78455D01*
X175638Y80068D01*
X19197Y78498D01*
X19198Y78204D01*
X180781Y78204D01*
X180781Y78204D01*
G37*
G36*
X18724Y76604D02*
X180802Y78205D01*
X180801Y78499D01*
X19232Y78499D01*
X18724Y76604D01*
X18724Y76604D01*
G37*
G36*
X181275Y76606D02*
X180767Y78500D01*
X18769Y76900D01*
X18770Y76606D01*
X181275Y76606D01*
X181275Y76606D01*
G37*
G36*
X182014Y75105D02*
X181176Y76901D01*
X18770Y76901D01*
X18769Y76608D01*
X182014Y75105D01*
X182014Y75105D01*
G37*
G36*
X17986Y75107D02*
X181928Y75107D01*
X181929Y75401D01*
X18823Y76902D01*
X17986Y75107D01*
X17986Y75107D01*
G37*
G36*
X67812Y74950D02*
X181929Y75107D01*
X181929Y75402D01*
X18070Y75402D01*
X18070Y75107D01*
X67812Y74950D01*
X67812Y74950D01*
G37*
G36*
X66979Y74782D02*
X67972Y74979D01*
X67946Y75245D01*
X18071Y75403D01*
X18069Y75108D01*
X66979Y74782D01*
X66979Y74782D01*
G37*
G36*
X68644Y74782D02*
X181929Y75107D01*
X181929Y75403D01*
X67678Y75245D01*
X67652Y74979D01*
X68644Y74782D01*
X68644Y74782D01*
G37*
G36*
X66291Y74302D02*
X67138Y74867D01*
X67075Y75076D01*
X18072Y75403D01*
X18068Y75109D01*
X66291Y74302D01*
X66291Y74302D01*
G37*
G36*
X69332Y74302D02*
X181930Y75108D01*
X181928Y75403D01*
X68549Y75077D01*
X68486Y74868D01*
X69332Y74302D01*
X69332Y74302D01*
G37*
G36*
X182819Y73752D02*
X182902Y73911D01*
X181858Y75403D01*
X69229Y74597D01*
X69229Y74303D01*
X182819Y73752D01*
X182819Y73752D01*
G37*
G36*
X17181Y73751D02*
X66395Y74304D01*
X66396Y74595D01*
X18142Y75404D01*
X17096Y73910D01*
X17181Y73751D01*
X17181Y73751D01*
G37*
G36*
X69673Y73740D02*
X182877Y73752D01*
X182878Y74047D01*
X69288Y74598D01*
X69204Y74442D01*
X69673Y73740D01*
X69673Y73740D01*
G37*
G36*
X65847Y73584D02*
X66420Y74442D01*
X66335Y74599D01*
X17121Y74046D01*
X17122Y73753D01*
X65847Y73584D01*
X65847Y73584D01*
G37*
G36*
X70269Y73365D02*
X182878Y73753D01*
X182877Y74047D01*
X69642Y74036D01*
X69579Y73826D01*
X70269Y73365D01*
X70269Y73365D01*
G37*
G36*
X70611Y72802D02*
X182878Y73753D01*
X182877Y74048D01*
X70225Y73660D01*
X70142Y73504D01*
X70611Y72802D01*
X70611Y72802D01*
G37*
G36*
X65720Y72735D02*
X65948Y73879D01*
X17123Y74048D01*
X17120Y73755D01*
X65720Y72735D01*
X65720Y72735D01*
G37*
G36*
X183998Y72582D02*
X184074Y72765D01*
X182791Y74048D01*
X70541Y73097D01*
X70542Y72803D01*
X183998Y72582D01*
X183998Y72582D01*
G37*
G36*
X16001Y72582D02*
X65746Y72738D01*
X65749Y73030D01*
X17209Y74049D01*
X15925Y72764D01*
X16001Y72582D01*
X16001Y72582D01*
G37*
G36*
X71207Y72427D02*
X184047Y72583D01*
X184047Y72877D01*
X70580Y73098D01*
X70516Y72889D01*
X71207Y72427D01*
X71207Y72427D01*
G37*
G36*
X65948Y71889D02*
X65721Y73034D01*
X15953Y72877D01*
X15951Y72584D01*
X65948Y71889D01*
X65948Y71889D01*
G37*
G36*
X71548Y71865D02*
X184048Y72583D01*
X184047Y72878D01*
X71163Y72722D01*
X71080Y72566D01*
X71548Y71865D01*
X71548Y71865D01*
G37*
G36*
X14637Y71633D02*
X65915Y71892D01*
X65916Y72184D01*
X16054Y72878D01*
X14571Y71840D01*
X14637Y71633D01*
X14637Y71633D01*
G37*
G36*
X185363Y71633D02*
X185428Y71840D01*
X183946Y72878D01*
X71479Y72160D01*
X71480Y71866D01*
X185363Y71633D01*
X185363Y71633D01*
G37*
G36*
X72144Y71490D02*
X185402Y71634D01*
X185402Y71929D01*
X71518Y72161D01*
X71454Y71951D01*
X72144Y71490D01*
X72144Y71490D01*
G37*
G36*
X66335Y71173D02*
X66420Y71329D01*
X65847Y72187D01*
X14597Y71928D01*
X14596Y71635D01*
X66335Y71173D01*
X66335Y71173D01*
G37*
G36*
X13127Y70934D02*
X66395Y71174D01*
X66396Y71467D01*
X14712Y71929D01*
X13075Y71166D01*
X13127Y70934D01*
X13127Y70934D01*
G37*
G36*
X186872Y70934D02*
X186924Y71166D01*
X185287Y71929D01*
X72042Y71785D01*
X72041Y71491D01*
X186872Y70934D01*
X186872Y70934D01*
G37*
G36*
X66919Y70798D02*
X66983Y71007D01*
X66292Y71469D01*
X13097Y71229D01*
X13098Y70935D01*
X66919Y70798D01*
X66919Y70798D01*
G37*
G36*
X72590Y70772D02*
X186901Y70935D01*
X186902Y71229D01*
X72101Y71786D01*
X72017Y71629D01*
X72590Y70772D01*
X72590Y70772D01*
G37*
G36*
X11518Y70506D02*
X66957Y70799D01*
X66957Y71093D01*
X13226Y71230D01*
X11484Y70763D01*
X11518Y70506D01*
X11518Y70506D01*
G37*
G36*
X188481Y70506D02*
X188515Y70763D01*
X186773Y71230D01*
X72521Y71067D01*
X72521Y70772D01*
X188481Y70506D01*
X188481Y70506D01*
G37*
G36*
X9859Y70361D02*
X66958Y70799D01*
X66956Y71094D01*
X11641Y70802D01*
X9845Y70645D01*
X9859Y70361D01*
X9859Y70361D01*
G37*
G36*
X190141Y70362D02*
X190153Y70645D01*
X188358Y70802D01*
X72521Y71068D01*
X72520Y70773D01*
X190141Y70362D01*
X190141Y70362D01*
G37*
G36*
X67273Y70236D02*
X67357Y70392D01*
X66888Y71094D01*
X9851Y70656D01*
X9852Y70362D01*
X67273Y70236D01*
X67273Y70236D01*
G37*
G36*
X72716Y69925D02*
X190147Y70363D01*
X190147Y70657D01*
X72488Y71068D01*
X72716Y69925D01*
X72716Y69925D01*
G37*
G36*
X147160Y69864D02*
X190148Y70364D01*
X190146Y70658D01*
X72689Y70220D01*
X72690Y69926D01*
X147160Y69864D01*
X147160Y69864D01*
G37*
G36*
X183743Y69864D02*
X190153Y70374D01*
X190140Y70659D01*
X147011Y70158D01*
X147013Y69864D01*
X183743Y69864D01*
X183743Y69864D01*
G37*
G36*
X67856Y69860D02*
X67921Y70070D01*
X67230Y70531D01*
X9853Y70658D01*
X9851Y70363D01*
X67856Y69860D01*
X67856Y69860D01*
G37*
G36*
X68209Y69297D02*
X68295Y69454D01*
X67826Y70155D01*
X9854Y70659D01*
X9850Y70365D01*
X68209Y69297D01*
X68209Y69297D01*
G37*
G36*
X72488Y69077D02*
X147308Y69866D01*
X147307Y70159D01*
X72716Y70221D01*
X72488Y69077D01*
X72488Y69077D01*
G37*
G36*
X68792Y68920D02*
X68859Y69132D01*
X68169Y69593D01*
X9855Y70660D01*
X9849Y70366D01*
X68792Y68920D01*
X68792Y68920D01*
G37*
G36*
X69145Y68358D02*
X69233Y68516D01*
X68765Y69216D01*
X9856Y70661D01*
X9848Y70367D01*
X69145Y68358D01*
X69145Y68358D01*
G37*
G36*
X72102Y68359D02*
X147310Y69867D01*
X147305Y70161D01*
X72589Y69373D01*
X72016Y68516D01*
X72102Y68359D01*
X72102Y68359D01*
G37*
G36*
X69884Y67877D02*
X69953Y68090D01*
X69107Y68655D01*
X9858Y70662D01*
X9846Y70368D01*
X69884Y67877D01*
X69884Y67877D01*
G37*
G36*
X71364Y67879D02*
X147311Y69868D01*
X147304Y70162D01*
X72143Y68655D01*
X71297Y68090D01*
X71364Y67879D01*
X71364Y67879D01*
G37*
G36*
X70755Y67707D02*
X70787Y67979D01*
X69795Y68176D01*
X9858Y70663D01*
X9846Y70369D01*
X70755Y67707D01*
X70755Y67707D01*
G37*
G36*
X70493Y67709D02*
X147311Y69868D01*
X147303Y70163D01*
X71455Y68176D01*
X70463Y67979D01*
X70493Y67709D01*
X70493Y67709D01*
G37*
G36*
X144736Y67379D02*
X147335Y69978D01*
X147256Y70162D01*
X70475Y68004D01*
X70479Y67714D01*
X144736Y67379D01*
X144736Y67379D01*
G37*
G36*
X75557Y66752D02*
X144823Y67381D01*
X144822Y67674D01*
X70491Y68009D01*
X70464Y67741D01*
X75557Y66752D01*
X75557Y66752D01*
G37*
G36*
X75700Y66744D02*
X75734Y67018D01*
X70642Y68008D01*
X9859Y70664D01*
X9845Y70370D01*
X75700Y66744D01*
X75700Y66744D01*
G37*
G36*
X74734Y66583D02*
X75727Y66780D01*
X75708Y67040D01*
X9860Y70665D01*
X9844Y70371D01*
X74734Y66583D01*
X74734Y66583D01*
G37*
G36*
X76403Y66583D02*
X144824Y67381D01*
X144821Y67676D01*
X75436Y67046D01*
X75411Y66781D01*
X76403Y66583D01*
X76403Y66583D01*
G37*
G36*
X148012Y66113D02*
X182582Y66717D01*
X182579Y67010D01*
X148382Y67010D01*
X147926Y66264D01*
X148012Y66113D01*
X148012Y66113D01*
G37*
G36*
X154403Y66114D02*
X182583Y66718D01*
X182577Y67012D01*
X147948Y66407D01*
X147951Y66114D01*
X154403Y66114D01*
X154403Y66114D01*
G37*
G36*
X74046Y66101D02*
X74894Y66667D01*
X74838Y66872D01*
X9861Y70666D01*
X9843Y70372D01*
X74046Y66101D01*
X74046Y66101D01*
G37*
G36*
X77091Y66103D02*
X144825Y67382D01*
X144820Y67676D01*
X76306Y66877D01*
X76245Y66669D01*
X77091Y66103D01*
X77091Y66103D01*
G37*
G36*
X147740Y66061D02*
X148187Y66126D01*
X148659Y66897D01*
X148453Y67059D01*
X147645Y66251D01*
X147740Y66061D01*
X147740Y66061D01*
G37*
G36*
X147859Y65815D02*
X148277Y66233D01*
X148181Y66423D01*
X147677Y66350D01*
X147677Y65890D01*
X147859Y65815D01*
X147859Y65815D01*
G37*
G36*
X77433Y65540D02*
X144826Y67383D01*
X144819Y67677D01*
X77044Y66397D01*
X76963Y66242D01*
X77433Y65540D01*
X77433Y65540D01*
G37*
G36*
X89739Y65405D02*
X144827Y67385D01*
X144818Y67678D01*
X77362Y65833D01*
X77364Y65543D01*
X89739Y65405D01*
X89739Y65405D01*
G37*
G36*
X91045Y65405D02*
X144828Y67385D01*
X144817Y67680D01*
X89587Y65695D01*
X89592Y65405D01*
X91045Y65405D01*
X91045Y65405D01*
G37*
G36*
X73601Y65380D02*
X74271Y66382D01*
X9863Y70667D01*
X9842Y70374D01*
X73601Y65380D01*
X73601Y65380D01*
G37*
G36*
X155267Y65188D02*
X182586Y66723D01*
X182574Y67013D01*
X154301Y66407D01*
X154228Y66226D01*
X155267Y65188D01*
X155267Y65188D01*
G37*
G36*
X78029Y65165D02*
X89886Y65408D01*
X89884Y65698D01*
X77402Y65838D01*
X77337Y65628D01*
X78029Y65165D01*
X78029Y65165D01*
G37*
G36*
X120526Y64780D02*
X144832Y67395D01*
X144812Y67680D01*
X90893Y65695D01*
X90895Y65408D01*
X120526Y64780D01*
X120526Y64780D01*
G37*
G36*
X121833Y64780D02*
X144838Y67397D01*
X144805Y67689D01*
X120365Y65059D01*
X120380Y64780D01*
X121833Y64780D01*
X121833Y64780D01*
G37*
G36*
X78373Y64599D02*
X89891Y65415D01*
X89878Y65703D01*
X77982Y65460D01*
X77901Y65305D01*
X78373Y64599D01*
X78373Y64599D01*
G37*
G36*
X73477Y64528D02*
X73704Y65668D01*
X9865Y70668D01*
X9840Y70376D01*
X73477Y64528D01*
X73477Y64528D01*
G37*
G36*
X73491Y64526D02*
X73518Y64821D01*
X10013Y70657D01*
X8218Y70814D01*
X8191Y70520D01*
X73491Y64526D01*
X73491Y64526D01*
G37*
G36*
X163023Y64401D02*
X182592Y66733D01*
X182567Y67018D01*
X155180Y65479D01*
X155174Y65206D01*
X163023Y64401D01*
X163023Y64401D01*
G37*
G36*
X166537Y64402D02*
X182598Y66737D01*
X182560Y67026D01*
X162867Y64679D01*
X162883Y64402D01*
X166537Y64402D01*
X166537Y64402D01*
G37*
G36*
X167233Y64402D02*
X182600Y66738D01*
X182557Y67029D01*
X166370Y64676D01*
X166389Y64402D01*
X167233Y64402D01*
X167233Y64402D01*
G37*
G36*
X170741Y64402D02*
X182603Y66745D01*
X182553Y67030D01*
X167065Y64675D01*
X167085Y64402D01*
X170741Y64402D01*
X170741Y64402D01*
G37*
G36*
X173040Y64402D02*
X182608Y66753D01*
X182546Y67035D01*
X170567Y64668D01*
X170593Y64402D01*
X173040Y64402D01*
X173040Y64402D01*
G37*
G36*
X176555Y64402D02*
X182615Y66775D01*
X182532Y67039D01*
X172860Y64661D01*
X172891Y64402D01*
X176555Y64402D01*
X176555Y64402D01*
G37*
G36*
X177253Y64402D02*
X182624Y66786D01*
X182513Y67052D01*
X176359Y64642D01*
X176404Y64402D01*
X177253Y64402D01*
X177253Y64402D01*
G37*
G36*
X180801Y64402D02*
X182619Y66866D01*
X182477Y67043D01*
X177053Y64636D01*
X177103Y64402D01*
X180801Y64402D01*
X180801Y64402D01*
G37*
G36*
X78972Y64224D02*
X89897Y65421D01*
X89871Y65710D01*
X78332Y64892D01*
X78278Y64688D01*
X78972Y64224D01*
X78972Y64224D01*
G37*
G36*
X166875Y63993D02*
X167396Y64515D01*
X167321Y64697D01*
X166428Y64697D01*
X166353Y64515D01*
X166875Y63993D01*
X166875Y63993D01*
G37*
G36*
X176875Y63993D02*
X177396Y64515D01*
X177321Y64697D01*
X176428Y64697D01*
X176353Y64515D01*
X176875Y63993D01*
X176875Y63993D01*
G37*
G36*
X73710Y63673D02*
X73481Y64824D01*
X8219Y70814D01*
X8190Y70522D01*
X73710Y63673D01*
X73710Y63673D01*
G37*
G36*
X79316Y63653D02*
X89903Y65431D01*
X89864Y65715D01*
X78752Y64497D01*
X79316Y63653D01*
X79316Y63653D01*
G37*
G36*
X162145Y63463D02*
X163193Y64511D01*
X163130Y64687D01*
X155203Y65500D01*
X155155Y65230D01*
X162145Y63463D01*
X162145Y63463D01*
G37*
G36*
X171631Y63437D02*
X173195Y64488D01*
X173132Y64697D01*
X170628Y64697D01*
X170553Y64515D01*
X171631Y63437D01*
X171631Y63437D01*
G37*
G36*
X172161Y63479D02*
X173221Y64540D01*
X173051Y64747D01*
X171476Y63688D01*
X171540Y63479D01*
X172161Y63479D01*
X172161Y63479D01*
G37*
G36*
X181606Y63461D02*
X181772Y63508D01*
X182605Y66945D01*
X182385Y67047D01*
X180533Y64535D01*
X181606Y63461D01*
X181606Y63461D01*
G37*
G36*
X79917Y63281D02*
X89909Y65438D01*
X89855Y65722D01*
X79262Y63943D01*
X79220Y63747D01*
X79917Y63281D01*
X79917Y63281D01*
G37*
G36*
X171672Y63079D02*
X172274Y63580D01*
X172203Y63774D01*
X171502Y63774D01*
X171502Y63159D01*
X171672Y63079D01*
X171672Y63079D01*
G37*
G36*
X172247Y63105D02*
X172247Y63721D01*
X172077Y63800D01*
X171475Y63300D01*
X171546Y63105D01*
X172247Y63105D01*
X172247Y63105D01*
G37*
G36*
X181765Y63092D02*
X182608Y66973D01*
X182323Y67039D01*
X181502Y63644D01*
X181502Y63120D01*
X181765Y63092D01*
X181765Y63092D01*
G37*
G36*
X181945Y63105D02*
X182602Y66980D01*
X182319Y67035D01*
X181466Y63105D01*
X181945Y63105D01*
X181945Y63105D01*
G37*
G36*
X74083Y62965D02*
X74181Y63126D01*
X73611Y63980D01*
X8221Y70816D01*
X8189Y70524D01*
X74083Y62965D01*
X74083Y62965D01*
G37*
G36*
X87317Y62924D02*
X89920Y65526D01*
X89814Y65720D01*
X79790Y63556D01*
X79811Y63298D01*
X87317Y62924D01*
X87317Y62924D01*
G37*
G36*
X93463Y62922D02*
X120671Y64790D01*
X120664Y65072D01*
X90945Y65702D01*
X90867Y65519D01*
X93463Y62922D01*
X93463Y62922D01*
G37*
G36*
X74666Y62587D02*
X74747Y62805D01*
X74058Y63265D01*
X8222Y70817D01*
X8188Y70525D01*
X74666Y62587D01*
X74666Y62587D01*
G37*
G36*
X80351Y62569D02*
X87407Y62934D01*
X87407Y63215D01*
X79864Y63591D01*
X79774Y63433D01*
X80351Y62569D01*
X80351Y62569D01*
G37*
G36*
X118101Y62300D02*
X120696Y64895D01*
X120612Y65082D01*
X93369Y63212D01*
X93375Y62930D01*
X118101Y62300D01*
X118101Y62300D01*
G37*
G36*
X124257Y62286D02*
X144845Y67417D01*
X144795Y67689D01*
X121715Y65064D01*
X121654Y64889D01*
X124257Y62286D01*
X124257Y62286D01*
G37*
G36*
X73131Y62224D02*
X74723Y62635D01*
X74707Y62879D01*
X8223Y70818D01*
X8187Y70526D01*
X73131Y62224D01*
X73131Y62224D01*
G37*
G36*
X74528Y62226D02*
X74738Y62779D01*
X74618Y62912D01*
X72958Y62484D01*
X72991Y62226D01*
X74528Y62226D01*
X74528Y62226D01*
G37*
G36*
X74942Y62128D02*
X75050Y62292D01*
X74641Y62904D01*
X74462Y62884D01*
X74225Y62261D01*
X74942Y62128D01*
X74942Y62128D01*
G37*
G36*
X183440Y62034D02*
X183602Y62147D01*
X182551Y67013D01*
X182307Y67007D01*
X181658Y63181D01*
X183440Y62034D01*
X183440Y62034D01*
G37*
G36*
X182889Y61975D02*
X183561Y62082D01*
X183602Y62281D01*
X181789Y63448D01*
X181622Y63242D01*
X182889Y61975D01*
X182889Y61975D01*
G37*
G36*
X182792Y61933D02*
X183608Y62095D01*
X183557Y62381D01*
X182792Y62259D01*
X182792Y61933D01*
X182792Y61933D01*
G37*
G36*
X74690Y61900D02*
X75040Y62250D01*
X74987Y62420D01*
X74346Y62539D01*
X74244Y62346D01*
X74690Y61900D01*
X74690Y61900D01*
G37*
G36*
X184340Y61882D02*
X184453Y62015D01*
X182521Y67043D01*
X182259Y66965D01*
X183313Y62086D01*
X184340Y61882D01*
X184340Y61882D01*
G37*
G36*
X93372Y61842D02*
X118189Y62304D01*
X118190Y62593D01*
X93372Y63226D01*
X93372Y61842D01*
X93372Y61842D01*
G37*
G36*
X93769Y61844D02*
X118192Y62304D01*
X118186Y62600D01*
X93371Y62137D01*
X93374Y61844D01*
X93769Y61844D01*
X93769Y61844D01*
G37*
G36*
X117611Y61810D02*
X118216Y62415D01*
X118138Y62599D01*
X93618Y62137D01*
X93621Y61845D01*
X117611Y61810D01*
X117611Y61810D01*
G37*
G36*
X118189Y61810D02*
X118189Y62548D01*
X118007Y62623D01*
X117376Y61992D01*
X117451Y61810D01*
X118189Y61810D01*
X118189Y61810D01*
G37*
G36*
X80479Y61704D02*
X87422Y62953D01*
X87390Y63229D01*
X80249Y62860D01*
X80479Y61704D01*
X80479Y61704D01*
G37*
G36*
X87407Y61620D02*
X87407Y63251D01*
X80437Y61996D01*
X80459Y61729D01*
X87407Y61620D01*
X87407Y61620D01*
G37*
G36*
X185013Y61378D02*
X185184Y61527D01*
X182504Y67054D01*
X182244Y66941D01*
X184163Y61947D01*
X185013Y61378D01*
X185013Y61378D01*
G37*
G36*
X85734Y61395D02*
X87415Y61643D01*
X87398Y61915D01*
X80454Y62024D01*
X80442Y61736D01*
X85734Y61395D01*
X85734Y61395D01*
G37*
G36*
X87094Y61396D02*
X87439Y61741D01*
X87343Y61931D01*
X85571Y61669D01*
X85591Y61396D01*
X87094Y61396D01*
X87094Y61396D01*
G37*
G36*
X124155Y61238D02*
X144855Y67427D01*
X144779Y67705D01*
X124155Y62565D01*
X124155Y61238D01*
X124155Y61238D01*
G37*
G36*
X125338Y61289D02*
X144859Y67430D01*
X144773Y67710D01*
X124138Y61541D01*
X124175Y61289D01*
X125338Y61289D01*
X125338Y61289D01*
G37*
G36*
X80243Y60862D02*
X85878Y61410D01*
X85874Y61682D01*
X80476Y62030D01*
X80243Y60862D01*
X80243Y60862D01*
G37*
G36*
X185436Y60649D02*
X185676Y60789D01*
X182498Y67059D01*
X182236Y66929D01*
X184873Y61490D01*
X185436Y60649D01*
X185436Y60649D01*
G37*
G36*
X79881Y60145D02*
X85896Y61428D01*
X85853Y61704D01*
X80343Y61168D01*
X79769Y60309D01*
X79881Y60145D01*
X79881Y60145D01*
G37*
G36*
X76625Y59957D02*
X77015Y60282D01*
X76829Y60559D01*
X76435Y60165D01*
X76625Y59957D01*
X76625Y59957D01*
G37*
G36*
X95574Y59976D02*
X117703Y61822D01*
X117692Y62105D01*
X93669Y62140D01*
X93593Y61957D01*
X95574Y59976D01*
X95574Y59976D01*
G37*
G36*
X162082Y59949D02*
X162247Y60030D01*
X162247Y63742D01*
X155244Y65512D01*
X155139Y65296D01*
X162082Y59949D01*
X162082Y59949D01*
G37*
G36*
X171672Y59949D02*
X172274Y60449D01*
X172203Y60644D01*
X171502Y60644D01*
X171502Y60028D01*
X171672Y59949D01*
X171672Y59949D01*
G37*
G36*
X172247Y59975D02*
X172247Y60590D01*
X172077Y60670D01*
X171475Y60169D01*
X171546Y59975D01*
X172247Y59975D01*
X172247Y59975D01*
G37*
G36*
X95838Y59937D02*
X117709Y61823D01*
X117684Y62117D01*
X95490Y60265D01*
X95476Y60009D01*
X95838Y59937D01*
X95838Y59937D01*
G37*
G36*
X70693Y59737D02*
X73291Y62334D01*
X73231Y62509D01*
X8227Y70819D01*
X8184Y70533D01*
X70693Y59737D01*
X70693Y59737D01*
G37*
G36*
X76877Y59714D02*
X77071Y59818D01*
X76913Y60582D01*
X76421Y60170D01*
X76877Y59714D01*
X76877Y59714D01*
G37*
G36*
X77636Y59672D02*
X77714Y59889D01*
X76818Y60488D01*
X76654Y60377D01*
X76781Y59760D01*
X77636Y59672D01*
X77636Y59672D01*
G37*
G36*
X79146Y59656D02*
X85905Y61437D01*
X85839Y61718D01*
X79889Y60449D01*
X79044Y59884D01*
X79146Y59656D01*
X79146Y59656D01*
G37*
G36*
X194171Y59535D02*
X197810Y74510D01*
X197587Y74610D01*
X197131Y73961D01*
X193886Y59602D01*
X194171Y59535D01*
X194171Y59535D01*
G37*
G36*
X194175Y59540D02*
X197438Y73975D01*
X197243Y74083D01*
X195961Y72800D01*
X193894Y59594D01*
X194175Y59540D01*
X194175Y59540D01*
G37*
G36*
X194186Y59550D02*
X196260Y72804D01*
X196095Y72907D01*
X194601Y71861D01*
X193907Y59580D01*
X194186Y59550D01*
X194186Y59550D01*
G37*
G36*
X193925Y59563D02*
X194202Y59565D01*
X194906Y72019D01*
X193091Y71173D01*
X193925Y59563D01*
X193925Y59563D01*
G37*
G36*
X193947Y59546D02*
X194219Y59586D01*
X193380Y71271D01*
X191473Y70760D01*
X193947Y59546D01*
X193947Y59546D01*
G37*
G36*
X193972Y59531D02*
X194236Y59610D01*
X191764Y70812D01*
X189793Y70640D01*
X193972Y59531D01*
X193972Y59531D01*
G37*
G36*
X194042Y59523D02*
X194242Y59652D01*
X190099Y70666D01*
X183631Y70151D01*
X183566Y69974D01*
X194042Y59523D01*
X194042Y59523D01*
G37*
G36*
X193993Y59548D02*
X194178Y59584D01*
X194229Y59754D01*
X183737Y70221D01*
X183528Y70012D01*
X193993Y59548D01*
X193993Y59548D01*
G37*
G36*
X78503Y59494D02*
X78554Y59779D01*
X77558Y59977D01*
X76776Y60057D01*
X76739Y59772D01*
X78503Y59494D01*
X78503Y59494D01*
G37*
G36*
X96527Y59453D02*
X117711Y61827D01*
X117682Y62117D01*
X95729Y60224D01*
X95677Y60021D01*
X96527Y59453D01*
X96527Y59453D01*
G37*
G36*
X195027Y59369D02*
X197808Y74540D01*
X197528Y74600D01*
X193882Y59597D01*
X195027Y59369D01*
X195027Y59369D01*
G37*
G36*
X162709Y59329D02*
X162894Y59537D01*
X162197Y60233D01*
X155298Y65546D01*
X155118Y65314D01*
X162709Y59329D01*
X162709Y59329D01*
G37*
G36*
X171019Y59339D02*
X172271Y60050D01*
X172213Y60270D01*
X171588Y60270D01*
X170862Y59544D01*
X171019Y59339D01*
X171019Y59339D01*
G37*
G36*
X115132Y59331D02*
X117728Y61927D01*
X117637Y62116D01*
X96409Y59737D01*
X96424Y59460D01*
X115132Y59331D01*
X115132Y59331D01*
G37*
G36*
X76756Y59228D02*
X78532Y59538D01*
X78529Y59788D01*
X76756Y60068D01*
X76756Y59228D01*
X76756Y59228D01*
G37*
G36*
X77415Y59256D02*
X78557Y59555D01*
X78497Y59832D01*
X76745Y59526D01*
X76768Y59256D01*
X77415Y59256D01*
X77415Y59256D01*
G37*
G36*
X77287Y59227D02*
X79404Y59720D01*
X79343Y60004D01*
X78350Y59806D01*
X77217Y59510D01*
X77287Y59227D01*
X77287Y59227D01*
G37*
G36*
X89751Y59088D02*
X89941Y59296D01*
X87259Y61978D01*
X86814Y61534D01*
X89751Y59088D01*
X89751Y59088D01*
G37*
G36*
X173104Y59036D02*
X173203Y59228D01*
X172125Y60306D01*
X170894Y59608D01*
X170931Y59402D01*
X173104Y59036D01*
X173104Y59036D01*
G37*
G36*
X177321Y59052D02*
X177396Y59234D01*
X176875Y59756D01*
X176353Y59234D01*
X176428Y59052D01*
X177321Y59052D01*
X177321Y59052D01*
G37*
G36*
X179698Y59004D02*
X179630Y59347D01*
X172875Y59347D01*
X172874Y59053D01*
X179698Y59004D01*
X179698Y59004D01*
G37*
G36*
X83299Y58906D02*
X85913Y61519D01*
X85800Y61715D01*
X79078Y59943D01*
X79086Y59707D01*
X83299Y58906D01*
X83299Y58906D01*
G37*
G36*
X83380Y58910D02*
X83414Y59185D01*
X79226Y59981D01*
X77238Y59519D01*
X77259Y59264D01*
X83380Y58910D01*
X83380Y58910D01*
G37*
G36*
X89511Y58857D02*
X89956Y59301D01*
X87019Y61747D01*
X86829Y61539D01*
X89511Y58857D01*
X89511Y58857D01*
G37*
G36*
X89439Y58894D02*
X90536Y59182D01*
X90503Y59439D01*
X89676Y59439D01*
X89327Y59090D01*
X89439Y58894D01*
X89439Y58894D01*
G37*
G36*
X195742Y58809D02*
X197802Y74549D01*
X197518Y74594D01*
X194746Y59475D01*
X195742Y58809D01*
X195742Y58809D01*
G37*
G36*
X144822Y58881D02*
X144822Y67728D01*
X125157Y61541D01*
X125179Y61304D01*
X144822Y58881D01*
X144822Y58881D01*
G37*
G36*
X127733Y58810D02*
X144814Y58902D01*
X144830Y59178D01*
X125229Y61596D01*
X125136Y61406D01*
X127733Y58810D01*
X127733Y58810D01*
G37*
G36*
X162103Y58733D02*
X162913Y59544D01*
X155305Y65543D01*
X155120Y65329D01*
X162103Y58733D01*
X162103Y58733D01*
G37*
G36*
X171600Y58780D02*
X173171Y59078D01*
X173169Y59325D01*
X170976Y59694D01*
X170877Y59503D01*
X171600Y58780D01*
X171600Y58780D01*
G37*
G36*
X171517Y58788D02*
X179667Y59009D01*
X179664Y59299D01*
X173009Y59347D01*
X171488Y59059D01*
X171517Y58788D01*
X171517Y58788D01*
G37*
G36*
X89838Y58757D02*
X90559Y59238D01*
X90456Y59466D01*
X89373Y59182D01*
X89355Y58973D01*
X89838Y58757D01*
X89838Y58757D01*
G37*
G36*
X96966Y58738D02*
X115221Y59337D01*
X115217Y59626D01*
X96476Y59754D01*
X96392Y59598D01*
X96966Y58738D01*
X96966Y58738D01*
G37*
G36*
X70791Y58412D02*
X70791Y60020D01*
X8233Y70824D01*
X8180Y70537D01*
X70791Y58412D01*
X70791Y58412D01*
G37*
G36*
X89554Y58399D02*
X90069Y58977D01*
X89363Y59293D01*
X89363Y58472D01*
X89554Y58399D01*
X89554Y58399D01*
G37*
G36*
X89669Y58426D02*
X90024Y58957D01*
X89806Y59126D01*
X89337Y58601D01*
X89415Y58426D01*
X89669Y58426D01*
X89669Y58426D01*
G37*
G36*
X180080Y58282D02*
X180171Y58441D01*
X179595Y59303D01*
X171504Y59083D01*
X171499Y58800D01*
X180080Y58282D01*
X180080Y58282D01*
G37*
G36*
X144282Y58196D02*
X144847Y59040D01*
X144763Y59197D01*
X127648Y59105D01*
X127644Y58816D01*
X144282Y58196D01*
X144282Y58196D01*
G37*
G36*
X196041Y58178D02*
X196243Y58228D01*
X197798Y74556D01*
X197510Y74588D01*
X195473Y59028D01*
X196041Y58178D01*
X196041Y58178D01*
G37*
G36*
X115219Y58021D02*
X115219Y59632D01*
X96896Y59031D01*
X96895Y58747D01*
X115219Y58021D01*
X115219Y58021D01*
G37*
G36*
X127646Y57902D02*
X144352Y58201D01*
X144355Y58488D01*
X127646Y59111D01*
X127646Y57902D01*
X127646Y57902D01*
G37*
G36*
X128701Y57905D02*
X144356Y58201D01*
X144350Y58496D01*
X127645Y58197D01*
X127647Y57905D01*
X128701Y57905D01*
X128701Y57905D01*
G37*
G36*
X97091Y57893D02*
X115217Y58028D01*
X115222Y58317D01*
X96862Y59043D01*
X97091Y57893D01*
X97091Y57893D01*
G37*
G36*
X180815Y57796D02*
X180894Y58014D01*
X180046Y58580D01*
X171514Y59095D01*
X171490Y58808D01*
X180815Y57796D01*
X180815Y57796D01*
G37*
G36*
X182700Y57808D02*
X182763Y58017D01*
X182500Y58194D01*
X182236Y58017D01*
X182299Y57808D01*
X182700Y57808D01*
X182700Y57808D01*
G37*
G36*
X181686Y57624D02*
X181730Y57904D01*
X180738Y58102D01*
X171519Y59102D01*
X171486Y58810D01*
X181686Y57624D01*
X181686Y57624D01*
G37*
G36*
X181443Y57618D02*
X182749Y57832D01*
X182726Y58103D01*
X182394Y58103D01*
X181391Y57904D01*
X181443Y57618D01*
X181443Y57618D01*
G37*
G36*
X183571Y57639D02*
X183597Y57906D01*
X182593Y58106D01*
X181404Y57911D01*
X181426Y57639D01*
X183571Y57639D01*
X183571Y57639D01*
G37*
G36*
X83398Y57566D02*
X83398Y59205D01*
X77272Y59559D01*
X77228Y59298D01*
X83398Y57566D01*
X83398Y57566D01*
G37*
G36*
X115695Y57498D02*
X115774Y57681D01*
X115132Y58323D01*
X97065Y58188D01*
X97063Y57897D01*
X115695Y57498D01*
X115695Y57498D01*
G37*
G36*
X144157Y57347D02*
X144386Y58497D01*
X128553Y58197D01*
X128550Y57910D01*
X144157Y57347D01*
X144157Y57347D01*
G37*
G36*
X196155Y57345D02*
X196411Y57360D01*
X197796Y74560D01*
X197504Y74585D01*
X195957Y58339D01*
X196155Y57345D01*
X196155Y57345D01*
G37*
G36*
X191906Y57241D02*
X192058Y57446D01*
X182448Y67056D01*
X182244Y66908D01*
X185370Y60738D01*
X191906Y57241D01*
X191906Y57241D01*
G37*
G36*
X191936Y57242D02*
X192057Y57496D01*
X185468Y61020D01*
X185318Y60909D01*
X185520Y59893D01*
X191936Y57242D01*
X191936Y57242D01*
G37*
G36*
X191958Y57253D02*
X192047Y57515D01*
X185540Y60205D01*
X185309Y59046D01*
X191958Y57253D01*
X191958Y57253D01*
G37*
G36*
X191979Y57266D02*
X192036Y57538D01*
X185417Y59323D01*
X184749Y58323D01*
X191979Y57266D01*
X191979Y57266D01*
G37*
G36*
X191995Y57275D02*
X192025Y57557D01*
X184967Y58589D01*
X184114Y58020D01*
X184168Y57815D01*
X191995Y57275D01*
X191995Y57275D01*
G37*
G36*
X192002Y57278D02*
X192019Y57569D01*
X184274Y58104D01*
X183280Y57906D01*
X183300Y57645D01*
X192002Y57278D01*
X192002Y57278D01*
G37*
G36*
X192005Y57279D02*
X192016Y57573D01*
X183440Y57935D01*
X181417Y57935D01*
X181412Y57645D01*
X192005Y57279D01*
X192005Y57279D01*
G37*
G36*
X115516Y57258D02*
X115770Y57638D01*
X115689Y57793D01*
X97068Y58193D01*
X97060Y57899D01*
X115516Y57258D01*
X115516Y57258D01*
G37*
G36*
X96863Y57045D02*
X115585Y57263D01*
X115588Y57551D01*
X97092Y58194D01*
X96863Y57045D01*
X96863Y57045D01*
G37*
G36*
X79828Y56762D02*
X83396Y57645D01*
X83400Y57872D01*
X77326Y59577D01*
X77211Y59380D01*
X79828Y56762D01*
X79828Y56762D01*
G37*
G36*
X144389Y56488D02*
X144159Y57643D01*
X128561Y58205D01*
X128543Y57918D01*
X144389Y56488D01*
X144389Y56488D01*
G37*
G36*
X192202Y56484D02*
X191985Y57575D01*
X181425Y57940D01*
X181405Y57656D01*
X192202Y56484D01*
X192202Y56484D01*
G37*
G36*
X115391Y56410D02*
X115619Y57558D01*
X96898Y57341D01*
X96894Y57053D01*
X115391Y56410D01*
X115391Y56410D01*
G37*
G36*
X96476Y56329D02*
X115416Y56415D01*
X115421Y56705D01*
X96966Y57346D01*
X96392Y56486D01*
X96476Y56329D01*
X96476Y56329D01*
G37*
G36*
X73197Y55945D02*
X73304Y56139D01*
X70715Y58727D01*
X8237Y70827D01*
X8177Y70542D01*
X73197Y55945D01*
X73197Y55945D01*
G37*
G36*
X95739Y55847D02*
X115421Y56419D01*
X115416Y56710D01*
X96519Y56625D01*
X95672Y56059D01*
X95739Y55847D01*
X95739Y55847D01*
G37*
G36*
X144760Y55776D02*
X144861Y55938D01*
X144289Y56794D01*
X128568Y58212D01*
X128537Y57925D01*
X144760Y55776D01*
X144760Y55776D01*
G37*
G36*
X192569Y55773D02*
X192674Y55936D01*
X192102Y56792D01*
X181435Y57949D01*
X181396Y57665D01*
X192569Y55773D01*
X192569Y55773D01*
G37*
G36*
X192621Y55768D02*
X192666Y56056D01*
X181583Y57933D01*
X171522Y59103D01*
X171484Y58814D01*
X192621Y55768D01*
X192621Y55768D01*
G37*
G36*
X94869Y55677D02*
X115423Y56420D01*
X115414Y56714D01*
X95830Y56145D01*
X94837Y55948D01*
X94869Y55677D01*
X94869Y55677D01*
G37*
G36*
X115619Y55567D02*
X115391Y56714D01*
X94850Y55972D01*
X94854Y55683D01*
X115619Y55567D01*
X115619Y55567D01*
G37*
G36*
X79879Y55450D02*
X83435Y57703D01*
X83337Y57934D01*
X79726Y57041D01*
X79726Y55534D01*
X79879Y55450D01*
X79879Y55450D01*
G37*
G36*
X73578Y55447D02*
X73761Y55522D01*
X73761Y56261D01*
X73023Y56261D01*
X72947Y56078D01*
X73578Y55447D01*
X73578Y55447D01*
G37*
G36*
X73688Y55452D02*
X73796Y55647D01*
X73195Y56248D01*
X8240Y70830D01*
X8175Y70543D01*
X73688Y55452D01*
X73688Y55452D01*
G37*
G36*
X131118Y55425D02*
X144825Y55791D01*
X144840Y56064D01*
X128614Y58213D01*
X128520Y58023D01*
X131118Y55425D01*
X131118Y55425D01*
G37*
G36*
X94350Y55303D02*
X95161Y55750D01*
X95130Y55954D01*
X94337Y56112D01*
X94198Y55415D01*
X94350Y55303D01*
X94350Y55303D01*
G37*
G36*
X94248Y55329D02*
X115587Y55569D01*
X115586Y55862D01*
X94962Y55977D01*
X94190Y55552D01*
X94248Y55329D01*
X94248Y55329D01*
G37*
G36*
X145512Y55307D02*
X145576Y55517D01*
X144728Y56084D01*
X131028Y55718D01*
X131031Y55428D01*
X145512Y55307D01*
X145512Y55307D01*
G37*
G36*
X193309Y55291D02*
X193396Y55512D01*
X192552Y56076D01*
X171525Y59106D01*
X171481Y58817D01*
X193309Y55291D01*
X193309Y55291D01*
G37*
G36*
X162039Y55261D02*
X162247Y55326D01*
X162247Y59003D01*
X155329Y65538D01*
X155128Y65365D01*
X162039Y55261D01*
X162039Y55261D01*
G37*
G36*
X171502Y55287D02*
X193352Y55308D01*
X193373Y55580D01*
X171502Y59113D01*
X171502Y55287D01*
X171502Y55287D01*
G37*
G36*
X79579Y55160D02*
X83454Y57718D01*
X83295Y57964D01*
X79781Y55737D01*
X79410Y55366D01*
X79579Y55160D01*
X79579Y55160D01*
G37*
G36*
X146382Y55137D02*
X146411Y55406D01*
X145418Y55603D01*
X131032Y55723D01*
X131028Y55429D01*
X146382Y55137D01*
X146382Y55137D01*
G37*
G36*
X194195Y55139D02*
X194222Y55406D01*
X193230Y55603D01*
X171502Y55582D01*
X171501Y55288D01*
X194195Y55139D01*
X194195Y55139D01*
G37*
G36*
X85826Y55134D02*
X85903Y55317D01*
X83269Y57950D01*
X79437Y55420D01*
X79498Y55210D01*
X85826Y55134D01*
X85826Y55134D01*
G37*
G36*
X86368Y54983D02*
X86368Y55430D01*
X85597Y55430D01*
X85567Y55169D01*
X86368Y54983D01*
X86368Y54983D01*
G37*
G36*
X86349Y55017D02*
X86384Y55282D01*
X85746Y55430D01*
X79464Y55506D01*
X79458Y55213D01*
X86349Y55017D01*
X86349Y55017D01*
G37*
G36*
X116005Y54848D02*
X116091Y55005D01*
X115517Y55864D01*
X94215Y55624D01*
X94213Y55334D01*
X116005Y54848D01*
X116005Y54848D01*
G37*
G36*
X155177Y54824D02*
X162195Y55293D01*
X162270Y55447D01*
X155385Y65513D01*
X155177Y65448D01*
X155177Y54824D01*
X155177Y54824D01*
G37*
G36*
X158158Y54835D02*
X162260Y55304D01*
X162234Y55592D01*
X155172Y55120D01*
X155182Y54835D01*
X158158Y54835D01*
X158158Y54835D01*
G37*
G36*
X175593Y54834D02*
X194210Y55142D01*
X194209Y55434D01*
X171510Y55583D01*
X171493Y55304D01*
X175593Y54834D01*
X175593Y54834D01*
G37*
G36*
X179410Y54835D02*
X194212Y55143D01*
X194207Y55437D01*
X175451Y55127D01*
X175453Y54835D01*
X179410Y54835D01*
X179410Y54835D01*
G37*
G36*
X85801Y54711D02*
X86392Y55106D01*
X86332Y55313D01*
X79469Y55508D01*
X79454Y55221D01*
X85801Y54711D01*
X85801Y54711D01*
G37*
G36*
X93837Y54676D02*
X116065Y54851D01*
X116067Y55142D01*
X94284Y55628D01*
X93753Y54832D01*
X93837Y54676D01*
X93837Y54676D01*
G37*
G36*
X159075Y54669D02*
X162268Y55318D01*
X162223Y55597D01*
X158005Y55114D01*
X157998Y54859D01*
X159075Y54669D01*
X159075Y54669D01*
G37*
G36*
X174674Y54669D02*
X175751Y54859D01*
X175744Y55114D01*
X171526Y55597D01*
X171481Y55318D01*
X174674Y54669D01*
X174674Y54669D01*
G37*
G36*
X180322Y54671D02*
X194214Y55145D01*
X194206Y55438D01*
X179272Y55127D01*
X179251Y54860D01*
X180322Y54671D01*
X180322Y54671D01*
G37*
G36*
X116745Y54369D02*
X116810Y54579D01*
X115963Y55146D01*
X93778Y54971D01*
X93777Y54679D01*
X116745Y54369D01*
X116745Y54369D01*
G37*
G36*
X195065Y54320D02*
X196301Y56709D01*
X196061Y56851D01*
X195497Y56006D01*
X194807Y54444D01*
X195065Y54320D01*
X195065Y54320D01*
G37*
G36*
X195089Y54351D02*
X195806Y55977D01*
X195637Y56119D01*
X194753Y55529D01*
X194864Y54387D01*
X195089Y54351D01*
X195089Y54351D01*
G37*
G36*
X194982Y54338D02*
X195156Y54431D01*
X195040Y55632D01*
X193942Y55414D01*
X193896Y55232D01*
X194982Y54338D01*
X194982Y54338D01*
G37*
G36*
X195101Y54365D02*
X195174Y54562D01*
X194113Y55437D01*
X180184Y54962D01*
X180186Y54675D01*
X195101Y54365D01*
X195101Y54365D01*
G37*
G36*
X163113Y54357D02*
X163199Y54544D01*
X162148Y55595D01*
X158918Y54939D01*
X158933Y54682D01*
X163113Y54357D01*
X163113Y54357D01*
G37*
G36*
X167321Y54365D02*
X167396Y54547D01*
X166875Y55069D01*
X166353Y54547D01*
X166428Y54365D01*
X167321Y54365D01*
X167321Y54365D01*
G37*
G36*
X170636Y54357D02*
X174816Y54682D01*
X174831Y54939D01*
X171601Y55595D01*
X170550Y54544D01*
X170636Y54357D01*
X170636Y54357D01*
G37*
G36*
X166884Y54251D02*
X167754Y54387D01*
X167733Y54660D01*
X162877Y54660D01*
X162872Y54369D01*
X166884Y54251D01*
X166884Y54251D01*
G37*
G36*
X93162Y54239D02*
X116784Y54371D01*
X116785Y54664D01*
X93881Y54973D01*
X93098Y54449D01*
X93162Y54239D01*
X93162Y54239D01*
G37*
G36*
X194240Y54214D02*
X195158Y54396D01*
X195135Y54660D01*
X180189Y54970D01*
X180181Y54677D01*
X194240Y54214D01*
X194240Y54214D01*
G37*
G36*
X195894Y54187D02*
X196270Y56755D01*
X196032Y56832D01*
X194778Y54409D01*
X195894Y54187D01*
X195894Y54187D01*
G37*
G36*
X195893Y54193D02*
X196443Y57619D01*
X196158Y57670D01*
X195960Y56678D01*
X195604Y54238D01*
X195893Y54193D01*
X195893Y54193D01*
G37*
G36*
X117617Y54202D02*
X117643Y54468D01*
X116651Y54666D01*
X93123Y54534D01*
X93123Y54240D01*
X117617Y54202D01*
X117617Y54202D01*
G37*
G36*
X159880Y54183D02*
X163168Y54373D01*
X163171Y54649D01*
X158967Y54976D01*
X158897Y54750D01*
X159880Y54183D01*
X159880Y54183D01*
G37*
G36*
X159773Y54184D02*
X167021Y54253D01*
X167024Y54543D01*
X163020Y54660D01*
X159763Y54472D01*
X159773Y54184D01*
X159773Y54184D01*
G37*
G36*
X173869Y54183D02*
X174852Y54750D01*
X174782Y54976D01*
X170578Y54649D01*
X170581Y54373D01*
X173869Y54183D01*
X173869Y54183D01*
G37*
G36*
X173973Y54178D02*
X173989Y54472D01*
X170731Y54660D01*
X170209Y54660D01*
X170201Y54372D01*
X173973Y54178D01*
X173973Y54178D01*
G37*
G36*
X181136Y54185D02*
X194374Y54214D01*
X194378Y54504D01*
X180222Y54971D01*
X180159Y54749D01*
X181136Y54185D01*
X181136Y54185D01*
G37*
G36*
X92661Y54145D02*
X117631Y54202D01*
X117631Y54497D01*
X93256Y54535D01*
X92634Y54411D01*
X92661Y54145D01*
X92661Y54145D01*
G37*
G36*
X131030Y54112D02*
X146401Y55149D01*
X146394Y55432D01*
X131030Y55725D01*
X131030Y54112D01*
X131030Y54112D01*
G37*
G36*
X167744Y54076D02*
X167744Y54685D01*
X166729Y54526D01*
X166724Y54279D01*
X167744Y54076D01*
X167744Y54076D01*
G37*
G36*
X166041Y54083D02*
X167035Y54281D01*
X167008Y54548D01*
X159768Y54479D01*
X159767Y54188D01*
X166041Y54083D01*
X166041Y54083D01*
G37*
G36*
X85393Y54044D02*
X86024Y54989D01*
X79482Y55515D01*
X79444Y55239D01*
X85393Y54044D01*
X85393Y54044D01*
G37*
G36*
X92719Y53913D02*
X117632Y54204D01*
X117630Y54498D01*
X92614Y54440D01*
X92719Y53913D01*
X92719Y53913D01*
G37*
G36*
X193617Y53776D02*
X194401Y54300D01*
X194337Y54510D01*
X181030Y54480D01*
X181025Y54190D01*
X193617Y53776D01*
X193617Y53776D01*
G37*
G36*
X196418Y53752D02*
X196576Y53840D01*
X196416Y57639D01*
X196150Y57655D01*
X195610Y54292D01*
X196418Y53752D01*
X196418Y53752D01*
G37*
G36*
X196564Y53776D02*
X197793Y74563D01*
X197502Y74583D01*
X196127Y57502D01*
X196283Y53778D01*
X196564Y53776D01*
X196564Y53776D01*
G37*
G36*
X118195Y53547D02*
X118422Y54687D01*
X117364Y54476D01*
X117317Y54297D01*
X118195Y53547D01*
X118195Y53547D01*
G37*
G36*
X118202Y53674D02*
X118274Y53868D01*
X117537Y54498D01*
X92692Y54208D01*
X92693Y53916D01*
X118202Y53674D01*
X118202Y53674D01*
G37*
G36*
X165348Y53599D02*
X166200Y54169D01*
X166139Y54377D01*
X159777Y54483D01*
X159759Y54201D01*
X165348Y53599D01*
X165348Y53599D01*
G37*
G36*
X160474Y53438D02*
X165453Y53609D01*
X165463Y53883D01*
X159832Y54490D01*
X159738Y54314D01*
X160474Y53438D01*
X160474Y53438D01*
G37*
G36*
X173257Y53417D02*
X174006Y54308D01*
X173933Y54476D01*
X170231Y54666D01*
X170184Y54412D01*
X173257Y53417D01*
X173257Y53417D01*
G37*
G36*
X181733Y53438D02*
X193722Y53781D01*
X193722Y54068D01*
X181084Y54484D01*
X181001Y54311D01*
X181733Y53438D01*
X181733Y53438D01*
G37*
G36*
X85283Y53242D02*
X85498Y54324D01*
X79503Y55528D01*
X79430Y55262D01*
X85283Y53242D01*
X85283Y53242D01*
G37*
G36*
X193215Y53121D02*
X193747Y53917D01*
X193660Y54075D01*
X181653Y53731D01*
X181653Y53444D01*
X193215Y53121D01*
X193215Y53121D01*
G37*
G36*
X196799Y53100D02*
X197005Y53158D01*
X197790Y74566D01*
X197499Y74580D01*
X196274Y53884D01*
X196799Y53100D01*
X196799Y53100D01*
G37*
G36*
X92491Y53063D02*
X118248Y53679D01*
X118246Y53969D01*
X92719Y54211D01*
X92491Y53063D01*
X92491Y53063D01*
G37*
G36*
X76163Y52972D02*
X76275Y53168D01*
X73687Y55756D01*
X8243Y70831D01*
X8174Y70548D01*
X76163Y52972D01*
X76163Y52972D01*
G37*
G36*
X164902Y52876D02*
X165483Y53744D01*
X165395Y53902D01*
X160400Y53731D01*
X160387Y53459D01*
X164902Y52876D01*
X164902Y52876D01*
G37*
G36*
X118448Y52827D02*
X118220Y53974D01*
X92523Y53359D01*
X92525Y53069D01*
X118448Y52827D01*
X118448Y52827D01*
G37*
G36*
X85314Y52662D02*
X85454Y52774D01*
X85300Y53549D01*
X79523Y55542D01*
X79420Y55279D01*
X85314Y52662D01*
X85314Y52662D01*
G37*
G36*
X160774Y52516D02*
X164976Y52899D01*
X164981Y53163D01*
X160319Y53765D01*
X160774Y52516D01*
X160774Y52516D01*
G37*
G36*
X172947Y52439D02*
X173399Y53681D01*
X170278Y54691D01*
X170164Y54467D01*
X172947Y52439D01*
X172947Y52439D01*
G37*
G36*
X182032Y52520D02*
X193287Y53131D01*
X193283Y53414D01*
X181588Y53741D01*
X182032Y52520D01*
X182032Y52520D01*
G37*
G36*
X84441Y52513D02*
X85426Y52709D01*
X85450Y52924D01*
X79540Y55549D01*
X79414Y55296D01*
X84441Y52513D01*
X84441Y52513D01*
G37*
G36*
X193105Y52350D02*
X193319Y53429D01*
X181983Y52813D01*
X181988Y52528D01*
X193105Y52350D01*
X193105Y52350D01*
G37*
G36*
X196896Y52341D02*
X197159Y52363D01*
X197789Y74568D01*
X197495Y74578D01*
X196713Y53259D01*
X196896Y52341D01*
X196896Y52341D01*
G37*
G36*
X92105Y52348D02*
X118416Y52831D01*
X118415Y53123D01*
X92593Y53364D01*
X92020Y52505D01*
X92105Y52348D01*
X92105Y52348D01*
G37*
G36*
X118835Y52110D02*
X118920Y52267D01*
X118346Y53125D01*
X92044Y52643D01*
X92045Y52351D01*
X118835Y52110D01*
X118835Y52110D01*
G37*
G36*
X83742Y52007D02*
X84749Y52680D01*
X79561Y55552D01*
X79410Y55323D01*
X83742Y52007D01*
X83742Y52007D01*
G37*
G36*
X164780Y52023D02*
X165014Y53199D01*
X160728Y52808D01*
X160723Y52544D01*
X164780Y52023D01*
X164780Y52023D01*
G37*
G36*
X121969Y51923D02*
X122136Y52094D01*
X121963Y52353D01*
X121686Y52353D01*
X121624Y52140D01*
X121969Y51923D01*
X121969Y51923D01*
G37*
G36*
X91366Y51869D02*
X118895Y52112D01*
X118895Y52405D01*
X92148Y52646D01*
X91301Y52080D01*
X91366Y51869D01*
X91366Y51869D01*
G37*
G36*
X90575Y51716D02*
X118897Y52113D01*
X118894Y52408D01*
X91459Y52165D01*
X90546Y51984D01*
X90575Y51716D01*
X90575Y51716D01*
G37*
G36*
X128621Y51625D02*
X146414Y55169D01*
X146378Y55444D01*
X131112Y54413D01*
X128517Y51818D01*
X128621Y51625D01*
X128621Y51625D01*
G37*
G36*
X128583Y51618D02*
X147270Y55340D01*
X147212Y55629D01*
X146221Y55432D01*
X128526Y51907D01*
X128583Y51618D01*
X128583Y51618D01*
G37*
G36*
X119575Y51631D02*
X119639Y51841D01*
X118791Y52407D01*
X90559Y52011D01*
X90561Y51718D01*
X119575Y51631D01*
X119575Y51631D01*
G37*
G36*
X121092Y51591D02*
X122087Y52010D01*
X122101Y52189D01*
X121794Y52381D01*
X120965Y51827D01*
X121092Y51591D01*
X121092Y51591D01*
G37*
G36*
X193320Y51564D02*
X193105Y52645D01*
X181993Y52823D01*
X181979Y52539D01*
X193320Y51564D01*
X193320Y51564D01*
G37*
G36*
X160726Y51533D02*
X164810Y52057D01*
X164810Y52317D01*
X160726Y52841D01*
X160726Y51533D01*
X160726Y51533D01*
G37*
G36*
X172834Y51526D02*
X173023Y51599D01*
X173023Y52749D01*
X170332Y54710D01*
X170154Y54513D01*
X172834Y51526D01*
X172834Y51526D01*
G37*
G36*
X181986Y51553D02*
X193279Y51581D01*
X193291Y51863D01*
X181986Y52834D01*
X181986Y51553D01*
X181986Y51553D01*
G37*
G36*
X120445Y51462D02*
X120473Y51729D01*
X119480Y51927D01*
X90561Y52013D01*
X90559Y51719D01*
X120445Y51462D01*
X120445Y51462D01*
G37*
G36*
X83381Y51375D02*
X83947Y52222D01*
X79589Y55558D01*
X79407Y55350D01*
X83381Y51375D01*
X83381Y51375D01*
G37*
G36*
X170205Y51441D02*
X172975Y51557D01*
X173048Y51729D01*
X170395Y54686D01*
X170205Y54614D01*
X170205Y51441D01*
X170205Y51441D01*
G37*
G36*
X165014Y51175D02*
X164780Y52351D01*
X160723Y51830D01*
X160728Y51566D01*
X165014Y51175D01*
X165014Y51175D01*
G37*
G36*
X121944Y51129D02*
X122094Y51213D01*
X122094Y52334D01*
X121018Y51880D01*
X121005Y51700D01*
X121944Y51129D01*
X121944Y51129D01*
G37*
G36*
X122040Y51132D02*
X122129Y51362D01*
X121186Y51935D01*
X120164Y51732D01*
X120165Y51488D01*
X122040Y51132D01*
X122040Y51132D01*
G37*
G36*
X122080Y51150D02*
X122107Y51419D01*
X120327Y51758D01*
X90562Y52014D01*
X90558Y51720D01*
X122080Y51150D01*
X122080Y51150D01*
G37*
G36*
X128242Y51126D02*
X128873Y51757D01*
X128798Y51939D01*
X128060Y51939D01*
X128060Y51201D01*
X128242Y51126D01*
X128242Y51126D01*
G37*
G36*
X128131Y51132D02*
X147271Y55343D01*
X147211Y55629D01*
X128626Y51928D01*
X128025Y51326D01*
X128131Y51132D01*
X128131Y51132D01*
G37*
G36*
X193657Y50922D02*
X193748Y51080D01*
X193216Y51876D01*
X181989Y51848D01*
X181982Y51561D01*
X193657Y50922D01*
X193657Y50922D01*
G37*
G36*
X160319Y50609D02*
X164981Y51211D01*
X164976Y51475D01*
X160774Y51858D01*
X160319Y50609D01*
X160319Y50609D01*
G37*
G36*
X173255Y50620D02*
X173378Y50752D01*
X172977Y51853D01*
X170221Y51738D01*
X170191Y51488D01*
X173255Y50620D01*
X173255Y50620D01*
G37*
G36*
X181588Y50633D02*
X193720Y50930D01*
X193724Y51214D01*
X182032Y51854D01*
X181588Y50633D01*
X181588Y50633D01*
G37*
G36*
X194337Y50488D02*
X194402Y50699D01*
X193617Y51223D01*
X181652Y50930D01*
X181654Y50640D01*
X194337Y50488D01*
X194337Y50488D01*
G37*
G36*
X165395Y50472D02*
X165483Y50630D01*
X164902Y51498D01*
X160387Y50915D01*
X160400Y50643D01*
X165395Y50472D01*
X165395Y50472D01*
G37*
G36*
X165601Y50344D02*
X165672Y50558D01*
X165357Y50769D01*
X160400Y50939D01*
X160386Y50647D01*
X165601Y50344D01*
X165601Y50344D01*
G37*
G36*
X195131Y50333D02*
X195161Y50602D01*
X194244Y50785D01*
X181655Y50936D01*
X181650Y50642D01*
X195131Y50333D01*
X195131Y50333D01*
G37*
G36*
X159829Y49886D02*
X165646Y50362D01*
X165643Y50637D01*
X160475Y50938D01*
X159739Y50061D01*
X159829Y49886D01*
X159829Y49886D01*
G37*
G36*
X173881Y49858D02*
X174022Y50046D01*
X173292Y50916D01*
X170261Y51775D01*
X170167Y51516D01*
X173881Y49858D01*
X173881Y49858D01*
G37*
G36*
X181084Y49890D02*
X195148Y50341D01*
X195146Y50628D01*
X181733Y50936D01*
X181001Y50063D01*
X181084Y49890D01*
X181084Y49890D01*
G37*
G36*
X184999Y49564D02*
X195155Y50348D01*
X195139Y50636D01*
X181031Y50184D01*
X181024Y49906D01*
X184999Y49564D01*
X184999Y49564D01*
G37*
G36*
X159201Y49525D02*
X165659Y50370D01*
X165628Y50657D01*
X159870Y50185D01*
X159123Y49754D01*
X159201Y49525D01*
X159201Y49525D01*
G37*
G36*
X174513Y49493D02*
X174643Y49744D01*
X173901Y50173D01*
X170279Y51790D01*
X170157Y51523D01*
X174513Y49493D01*
X174513Y49493D01*
G37*
G36*
X180449Y49539D02*
X185141Y49565D01*
X185153Y49847D01*
X181142Y50192D01*
X180390Y49758D01*
X180449Y49539D01*
X180449Y49539D01*
G37*
G36*
X184164Y49395D02*
X185160Y49593D01*
X185133Y49860D01*
X180417Y49834D01*
X180412Y49545D01*
X184164Y49395D01*
X184164Y49395D01*
G37*
G36*
X185839Y49394D02*
X195160Y50352D01*
X195133Y50642D01*
X184860Y49849D01*
X184844Y49592D01*
X185839Y49394D01*
X185839Y49394D01*
G37*
G36*
X159890Y49177D02*
X165666Y50383D01*
X165618Y50663D01*
X159178Y49820D01*
X159137Y49612D01*
X159890Y49177D01*
X159890Y49177D01*
G37*
G36*
X173829Y49160D02*
X174598Y49604D01*
X174590Y49783D01*
X170290Y51787D01*
X170157Y51546D01*
X173829Y49160D01*
X173829Y49160D01*
G37*
G36*
X181141Y49182D02*
X184303Y49406D01*
X184298Y49685D01*
X180452Y49839D01*
X180388Y49617D01*
X181141Y49182D01*
X181141Y49182D01*
G37*
G36*
X81898Y48974D02*
X82094Y49183D01*
X77660Y53617D01*
X77180Y53136D01*
X81898Y48974D01*
X81898Y48974D01*
G37*
G36*
X81920Y48980D02*
X82090Y49199D01*
X77451Y53291D01*
X75982Y53291D01*
X75918Y53083D01*
X81920Y48980D01*
X81920Y48980D01*
G37*
G36*
X81968Y49003D02*
X82076Y49230D01*
X76153Y53279D01*
X8248Y70833D01*
X8171Y70553D01*
X81968Y49003D01*
X81968Y49003D01*
G37*
G36*
X81989Y48997D02*
X82071Y49280D01*
X8391Y70796D01*
X6651Y71263D01*
X6572Y70981D01*
X81989Y48997D01*
X81989Y48997D01*
G37*
G36*
X183472Y48911D02*
X184329Y49484D01*
X184256Y49699D01*
X181031Y49471D01*
X181024Y49202D01*
X183472Y48911D01*
X183472Y48911D01*
G37*
G36*
X186531Y48909D02*
X195165Y50362D01*
X195127Y50645D01*
X185728Y49680D01*
X185678Y49478D01*
X186531Y48909D01*
X186531Y48909D01*
G37*
G36*
X124515Y48665D02*
X124602Y48853D01*
X122009Y51446D01*
X90568Y52016D01*
X90552Y51731D01*
X124515Y48665D01*
X124515Y48665D01*
G37*
G36*
X125663Y48646D02*
X147275Y55356D01*
X147203Y55630D01*
X128134Y51435D01*
X125543Y48844D01*
X125663Y48646D01*
X125663Y48646D01*
G37*
G36*
X173287Y48452D02*
X174054Y49366D01*
X170321Y51792D01*
X170154Y51585D01*
X173287Y48452D01*
X173287Y48452D01*
G37*
G36*
X93912Y48475D02*
X125877Y48675D01*
X125877Y48969D01*
X124424Y48969D01*
X93910Y48770D01*
X93912Y48475D01*
X93912Y48475D01*
G37*
G36*
X93999Y48476D02*
X124566Y48675D01*
X124578Y48956D01*
X90617Y52022D01*
X90530Y51832D01*
X93999Y48476D01*
X93999Y48476D01*
G37*
G36*
X95364Y48476D02*
X125878Y48675D01*
X125876Y48970D01*
X93911Y48770D01*
X93911Y48476D01*
X95364Y48476D01*
X95364Y48476D01*
G37*
G36*
X160495Y48412D02*
X165677Y50409D01*
X165600Y50670D01*
X159644Y49427D01*
X160495Y48412D01*
X160495Y48412D01*
G37*
G36*
X181749Y48419D02*
X183592Y48956D01*
X183572Y49196D01*
X181093Y49491D01*
X180998Y49315D01*
X181749Y48419D01*
X181749Y48419D01*
G37*
G36*
X94004Y48360D02*
X94269Y48626D01*
X90705Y52073D01*
X90499Y51865D01*
X94004Y48360D01*
X94004Y48360D01*
G37*
G36*
X82211Y48316D02*
X82016Y49296D01*
X6654Y71265D01*
X6571Y70983D01*
X82211Y48316D01*
X82211Y48316D01*
G37*
G36*
X183023Y48181D02*
X183615Y49068D01*
X183493Y49235D01*
X181649Y48697D01*
X181657Y48467D01*
X183023Y48181D01*
X183023Y48181D01*
G37*
G36*
X186980Y48176D02*
X195174Y50378D01*
X195114Y50653D01*
X186314Y49172D01*
X186980Y48176D01*
X186980Y48176D01*
G37*
G36*
X186939Y48166D02*
X195947Y50531D01*
X195883Y50810D01*
X194966Y50628D01*
X186863Y48451D01*
X186939Y48166D01*
X186939Y48166D01*
G37*
G36*
X82554Y47638D02*
X82678Y47805D01*
X82111Y48654D01*
X6655Y71266D01*
X6570Y70984D01*
X82554Y47638D01*
X82554Y47638D01*
G37*
G36*
X160796Y47453D02*
X165689Y50442D01*
X165569Y50684D01*
X160352Y48673D01*
X160796Y47453D01*
X160796Y47453D01*
G37*
G36*
X182066Y47427D02*
X183121Y48291D01*
X183077Y48472D01*
X181746Y48750D01*
X181632Y48619D01*
X182066Y47427D01*
X182066Y47427D01*
G37*
G36*
X182901Y47316D02*
X183121Y48419D01*
X182942Y48526D01*
X181970Y47731D01*
X182008Y47554D01*
X182901Y47316D01*
X182901Y47316D01*
G37*
G36*
X187101Y47302D02*
X195954Y50547D01*
X195870Y50816D01*
X186872Y48454D01*
X187101Y47302D01*
X187101Y47302D01*
G37*
G36*
X83294Y47152D02*
X83404Y47382D01*
X82562Y47945D01*
X6656Y71267D01*
X6569Y70985D01*
X83294Y47152D01*
X83294Y47152D01*
G37*
G36*
X83241Y47096D02*
X83434Y47199D01*
X83385Y47447D01*
X83137Y47497D01*
X83034Y47304D01*
X83241Y47096D01*
X83241Y47096D01*
G37*
G36*
X83335Y47103D02*
X83454Y47300D01*
X83294Y47461D01*
X6657Y71267D01*
X6569Y70985D01*
X83335Y47103D01*
X83335Y47103D01*
G37*
G36*
X160895Y46527D02*
X165697Y50471D01*
X165537Y50696D01*
X160726Y47756D01*
X160726Y46607D01*
X160895Y46527D01*
X160895Y46527D01*
G37*
G36*
X182182Y46527D02*
X183046Y47583D01*
X181986Y47866D01*
X181986Y46596D01*
X182182Y46527D01*
X182182Y46527D01*
G37*
G36*
X183138Y46494D02*
X182914Y47620D01*
X182732Y47665D01*
X181962Y46724D01*
X182034Y46558D01*
X183138Y46494D01*
X183138Y46494D01*
G37*
G36*
X187023Y46481D02*
X195961Y50562D01*
X195853Y50825D01*
X187083Y47610D01*
X186881Y46593D01*
X187023Y46481D01*
X187023Y46481D01*
G37*
G36*
X92068Y46416D02*
X92259Y46625D01*
X88671Y50213D01*
X88478Y50110D01*
X88640Y49295D01*
X92068Y46416D01*
X92068Y46416D01*
G37*
G36*
X92101Y46426D02*
X92253Y46647D01*
X88678Y49648D01*
X88440Y48451D01*
X92101Y46426D01*
X92101Y46426D01*
G37*
G36*
X92134Y46435D02*
X92246Y46684D01*
X88559Y48723D01*
X88012Y47905D01*
X92134Y46435D01*
X92134Y46435D01*
G37*
G36*
X83803Y46388D02*
X83929Y46555D01*
X83362Y47403D01*
X6657Y71267D01*
X6569Y70986D01*
X83803Y46388D01*
X83803Y46388D01*
G37*
G36*
X89724Y46287D02*
X92186Y46482D01*
X92217Y46719D01*
X88178Y48159D01*
X88052Y47959D01*
X89724Y46287D01*
X89724Y46287D01*
G37*
G36*
X91631Y45988D02*
X92232Y46589D01*
X92146Y46776D01*
X89638Y46577D01*
X89628Y46315D01*
X91631Y45988D01*
X91631Y45988D01*
G37*
G36*
X97786Y45992D02*
X125884Y48688D01*
X125870Y48970D01*
X95264Y48771D01*
X95189Y48589D01*
X97786Y45992D01*
X97786Y45992D01*
G37*
G36*
X84542Y45901D02*
X84654Y46132D01*
X83812Y46694D01*
X6658Y71268D01*
X6568Y70987D01*
X84542Y45901D01*
X84542Y45901D01*
G37*
G36*
X183452Y45764D02*
X183613Y45935D01*
X183037Y46796D01*
X182025Y46855D01*
X181958Y46631D01*
X183452Y45764D01*
X183452Y45764D01*
G37*
G36*
X186540Y45767D02*
X195967Y50571D01*
X195841Y50832D01*
X186944Y46770D01*
X186388Y45938D01*
X186540Y45767D01*
X186540Y45767D01*
G37*
G36*
X160558Y45599D02*
X165701Y50489D01*
X165513Y50702D01*
X160749Y46789D01*
X160362Y45727D01*
X160558Y45599D01*
X160558Y45599D01*
G37*
G36*
X181581Y45616D02*
X183546Y45815D01*
X183592Y46024D01*
X182055Y46917D01*
X181581Y45616D01*
X181581Y45616D01*
G37*
G36*
X97694Y45489D02*
X125891Y48691D01*
X125861Y48983D01*
X97694Y46280D01*
X97694Y45489D01*
X97694Y45489D01*
G37*
G36*
X98342Y45506D02*
X125893Y48692D01*
X125859Y48985D01*
X97686Y45785D01*
X97702Y45506D01*
X98342Y45506D01*
X98342Y45506D01*
G37*
G36*
X159918Y44837D02*
X165705Y50495D01*
X165501Y50706D01*
X160433Y45888D01*
X159712Y45028D01*
X159918Y44837D01*
X159918Y44837D01*
G37*
G36*
X181124Y44861D02*
X183599Y45862D01*
X183537Y46110D01*
X181726Y45927D01*
X180988Y45048D01*
X181124Y44861D01*
X181124Y44861D01*
G37*
G36*
X91554Y44667D02*
X91728Y44745D01*
X91728Y46271D01*
X89695Y46603D01*
X89600Y46403D01*
X91554Y44667D01*
X91554Y44667D01*
G37*
G36*
X85850Y44602D02*
X86050Y44811D01*
X84671Y46190D01*
X84384Y46247D01*
X84283Y46048D01*
X85850Y44602D01*
X85850Y44602D01*
G37*
G36*
X85910Y44631D02*
X86031Y44837D01*
X84542Y46211D01*
X6659Y71268D01*
X6568Y70988D01*
X85910Y44631D01*
X85910Y44631D01*
G37*
G36*
X180494Y44495D02*
X183617Y45874D01*
X183504Y46142D01*
X181110Y45174D01*
X180367Y44745D01*
X180494Y44495D01*
X180494Y44495D01*
G37*
G36*
X159915Y44162D02*
X160063Y44248D01*
X160063Y45126D01*
X159915Y45212D01*
X159007Y44687D01*
X159915Y44162D01*
X159915Y44162D01*
G37*
G36*
X159957Y44159D02*
X165702Y50505D01*
X165496Y50704D01*
X159768Y45103D01*
X159768Y44232D01*
X159957Y44159D01*
X159957Y44159D01*
G37*
G36*
X181184Y44157D02*
X183619Y45908D01*
X183487Y46139D01*
X180419Y44785D01*
X180410Y44604D01*
X181184Y44157D01*
X181184Y44157D01*
G37*
G36*
X109122Y43709D02*
X125901Y48719D01*
X125847Y48984D01*
X98189Y45786D01*
X98182Y45529D01*
X109122Y43709D01*
X109122Y43709D01*
G37*
G36*
X110440Y43713D02*
X125914Y48726D01*
X125827Y49005D01*
X108948Y43965D01*
X108985Y43713D01*
X110440Y43713D01*
X110440Y43713D01*
G37*
G36*
X110321Y43675D02*
X147281Y55359D01*
X147193Y55640D01*
X125685Y48962D01*
X110231Y43956D01*
X110321Y43675D01*
X110321Y43675D01*
G37*
G36*
X160550Y43347D02*
X165698Y50525D01*
X165481Y50700D01*
X159720Y44337D01*
X160550Y43347D01*
X160550Y43347D01*
G37*
G36*
X181812Y43344D02*
X183617Y45969D01*
X183439Y46143D01*
X180960Y44360D01*
X181812Y43344D01*
X181812Y43344D01*
G37*
G36*
X85991Y43275D02*
X85991Y44916D01*
X6661Y71268D01*
X6567Y70991D01*
X85991Y43275D01*
X85991Y43275D01*
G37*
G36*
X100755Y43023D02*
X109254Y43724D01*
X109265Y43985D01*
X98251Y45817D01*
X98153Y45626D01*
X100755Y43023D01*
X100755Y43023D01*
G37*
G36*
X85330Y42962D02*
X86001Y43411D01*
X85978Y43592D01*
X6664Y71270D01*
X6566Y70992D01*
X85330Y42962D01*
X85330Y42962D01*
G37*
G36*
X160953Y42518D02*
X165696Y50544D01*
X165459Y50699D01*
X160375Y43610D01*
X160767Y42535D01*
X160953Y42518D01*
X160953Y42518D01*
G37*
G36*
X182233Y42524D02*
X183610Y46019D01*
X183378Y46143D01*
X181636Y43609D01*
X182029Y42527D01*
X182233Y42524D01*
X182233Y42524D01*
G37*
G36*
X84889Y42230D02*
X85538Y43202D01*
X6665Y71270D01*
X6565Y70994D01*
X84889Y42230D01*
X84889Y42230D01*
G37*
G36*
X84933Y42167D02*
X85000Y42504D01*
X6666Y71272D01*
X6564Y70995D01*
X84933Y42167D01*
X84933Y42167D01*
G37*
G36*
X94062Y42155D02*
X94266Y42364D01*
X91682Y44948D01*
X89770Y46647D01*
X89574Y46433D01*
X94062Y42155D01*
X94062Y42155D01*
G37*
G36*
X84766Y42203D02*
X84960Y42242D01*
X84978Y42465D01*
X6666Y71272D01*
X6564Y70995D01*
X84766Y42203D01*
X84766Y42203D01*
G37*
G36*
X84079Y41711D02*
X84935Y42284D01*
X84914Y42463D01*
X6667Y71271D01*
X6564Y70996D01*
X84079Y41711D01*
X84079Y41711D01*
G37*
G36*
X100664Y41684D02*
X109280Y43749D01*
X109236Y44019D01*
X100664Y43312D01*
X100664Y41684D01*
X100664Y41684D01*
G37*
G36*
X94516Y41697D02*
X94698Y41773D01*
X94698Y42511D01*
X93960Y42511D01*
X93885Y42328D01*
X94516Y41697D01*
X94516Y41697D01*
G37*
G36*
X94554Y41664D02*
X94758Y41872D01*
X94162Y42469D01*
X89776Y46648D01*
X89572Y46435D01*
X94554Y41664D01*
X94554Y41664D01*
G37*
G36*
X160950Y41530D02*
X165694Y50557D01*
X165443Y50697D01*
X160726Y42714D01*
X160726Y41585D01*
X160950Y41530D01*
X160950Y41530D01*
G37*
G36*
X182238Y41536D02*
X183607Y46043D01*
X183339Y46137D01*
X181986Y42701D01*
X181986Y41573D01*
X182238Y41536D01*
X182238Y41536D01*
G37*
G36*
X89633Y41531D02*
X94654Y41727D01*
X94723Y41910D01*
X89812Y46614D01*
X89633Y46537D01*
X89633Y41531D01*
X89633Y41531D01*
G37*
G36*
X106690Y41229D02*
X109296Y43835D01*
X109187Y44030D01*
X100655Y41985D01*
X100674Y41735D01*
X106690Y41229D01*
X106690Y41229D01*
G37*
G36*
X112860Y41208D02*
X147283Y55373D01*
X147187Y55639D01*
X110141Y43928D01*
X112860Y41208D01*
X112860Y41208D01*
G37*
G36*
X160781Y41071D02*
X165695Y50561D01*
X165434Y50697D01*
X160738Y41760D01*
X160528Y41182D01*
X160781Y41071D01*
X160781Y41071D01*
G37*
G36*
X165644Y41114D02*
X165644Y50614D01*
X165419Y50669D01*
X160471Y41114D01*
X165644Y41114D01*
X165644Y41114D01*
G37*
G36*
X83637Y40978D02*
X84286Y41949D01*
X6669Y71272D01*
X6563Y70998D01*
X83637Y40978D01*
X83637Y40978D01*
G37*
G36*
X83664Y40824D02*
X83749Y41251D01*
X6670Y71273D01*
X6563Y70998D01*
X83664Y40824D01*
X83664Y40824D01*
G37*
G36*
X112747Y40667D02*
X147289Y55377D01*
X147176Y55648D01*
X112747Y41481D01*
X112747Y40667D01*
X112747Y40667D01*
G37*
G36*
X113417Y40743D02*
X147290Y55378D01*
X147174Y55649D01*
X112726Y40979D01*
X112774Y40743D01*
X113417Y40743D01*
X113417Y40743D01*
G37*
G36*
X88865Y40684D02*
X94712Y41751D01*
X94682Y42024D01*
X89717Y41829D01*
X88764Y40876D01*
X88865Y40684D01*
X88865Y40684D01*
G37*
G36*
X88730Y40526D02*
X94723Y41756D01*
X94668Y42043D01*
X88820Y40976D01*
X88730Y40526D01*
X88730Y40526D01*
G37*
G36*
X80419Y40252D02*
X83691Y40902D01*
X83711Y41122D01*
X6672Y71273D01*
X6562Y71002D01*
X80419Y40252D01*
X80419Y40252D01*
G37*
G36*
X82995Y40258D02*
X83736Y40998D01*
X83633Y41191D01*
X80274Y40524D01*
X80300Y40258D01*
X82995Y40258D01*
X82995Y40258D01*
G37*
G36*
X106782Y39878D02*
X106782Y41518D01*
X100691Y42029D01*
X100641Y41769D01*
X106782Y39878D01*
X106782Y39878D01*
G37*
G36*
X88383Y39826D02*
X94728Y41771D01*
X94659Y42044D01*
X88829Y40848D01*
X88258Y39993D01*
X88383Y39826D01*
X88383Y39826D01*
G37*
G36*
X79632Y39395D02*
X80694Y40457D01*
X6675Y71275D01*
X6561Y71005D01*
X79632Y39395D01*
X79632Y39395D01*
G37*
G36*
X79449Y39390D02*
X79734Y39446D01*
X79757Y39662D01*
X6677Y71276D01*
X6560Y71005D01*
X79449Y39390D01*
X79449Y39390D01*
G37*
G36*
X87647Y39336D02*
X94736Y41779D01*
X94646Y42055D01*
X88375Y40132D01*
X87531Y39569D01*
X87647Y39336D01*
X87647Y39336D01*
G37*
G36*
X87695Y39284D02*
X87903Y39491D01*
X87800Y39684D01*
X87552Y39635D01*
X87502Y39387D01*
X87695Y39284D01*
X87695Y39284D01*
G37*
G36*
X87606Y39287D02*
X94738Y41780D01*
X94642Y42059D01*
X87641Y39646D01*
X87481Y39486D01*
X87606Y39287D01*
X87606Y39287D01*
G37*
G36*
X97126Y39245D02*
X97203Y39427D01*
X94589Y42041D01*
X87503Y39564D01*
X87543Y39319D01*
X97126Y39245D01*
X97126Y39245D01*
G37*
G36*
X98242Y39237D02*
X106768Y39941D01*
X106794Y40183D01*
X100770Y42038D01*
X98156Y39425D01*
X98242Y39237D01*
X98242Y39237D01*
G37*
G36*
X181175Y39162D02*
X181323Y39248D01*
X181323Y40126D01*
X181175Y40212D01*
X180267Y39687D01*
X181175Y39162D01*
X181175Y39162D01*
G37*
G36*
X181263Y39164D02*
X181987Y40845D01*
X181769Y40979D01*
X181028Y40095D01*
X181028Y39213D01*
X181263Y39164D01*
X181263Y39164D01*
G37*
G36*
X78762Y38896D02*
X79620Y39469D01*
X79605Y39644D01*
X6678Y71276D01*
X6560Y71007D01*
X78762Y38896D01*
X78762Y38896D01*
G37*
G36*
X87243Y38803D02*
X97179Y39252D01*
X97173Y39540D01*
X87590Y39614D01*
X87154Y38961D01*
X87243Y38803D01*
X87243Y38803D01*
G37*
G36*
X87186Y38801D02*
X98484Y39251D01*
X98478Y39541D01*
X97025Y39541D01*
X87173Y39095D01*
X87186Y38801D01*
X87186Y38801D01*
G37*
G36*
X87495Y38770D02*
X98487Y39252D01*
X98474Y39546D01*
X87190Y39097D01*
X87170Y38835D01*
X87495Y38770D01*
X87495Y38770D01*
G37*
G36*
X181754Y38414D02*
X181948Y38484D01*
X181948Y40907D01*
X181712Y40955D01*
X181004Y39308D01*
X181754Y38414D01*
X181754Y38414D01*
G37*
G36*
X181932Y38433D02*
X182294Y41815D01*
X182039Y41874D01*
X181653Y40812D01*
X181653Y38448D01*
X181932Y38433D01*
X181932Y38433D01*
G37*
G36*
X181915Y38419D02*
X183599Y46057D01*
X183325Y46129D01*
X181988Y41730D01*
X181639Y38464D01*
X181915Y38419D01*
X181915Y38419D01*
G37*
G36*
X88186Y38287D02*
X98490Y39260D01*
X98470Y39547D01*
X87393Y39061D01*
X87336Y38855D01*
X88186Y38287D01*
X88186Y38287D01*
G37*
G36*
X88091Y38279D02*
X106794Y39944D01*
X106769Y40237D01*
X98320Y39540D01*
X88064Y38572D01*
X88091Y38279D01*
X88091Y38279D01*
G37*
G36*
X115839Y38230D02*
X147291Y55393D01*
X147167Y55647D01*
X113129Y40940D01*
X115839Y38230D01*
X115839Y38230D01*
G37*
G36*
X78321Y38160D02*
X78968Y39128D01*
X6680Y71277D01*
X6559Y71009D01*
X78321Y38160D01*
X78321Y38160D01*
G37*
G36*
X78350Y38001D02*
X78436Y38432D01*
X6681Y71278D01*
X6558Y71010D01*
X78350Y38001D01*
X78350Y38001D01*
G37*
G36*
X78068Y37830D02*
X78496Y38258D01*
X6682Y71278D01*
X6558Y71010D01*
X78068Y37830D01*
X78068Y37830D01*
G37*
G36*
X77884Y37827D02*
X78170Y37884D01*
X78195Y38096D01*
X6682Y71278D01*
X6558Y71011D01*
X77884Y37827D01*
X77884Y37827D01*
G37*
G36*
X88632Y37563D02*
X106797Y39950D01*
X106765Y40238D01*
X87964Y38564D01*
X88632Y37563D01*
X88632Y37563D01*
G37*
G36*
X182034Y37515D02*
X182262Y37538D01*
X183593Y46069D01*
X183311Y46122D01*
X181647Y38578D01*
X182034Y37515D01*
X182034Y37515D01*
G37*
G36*
X109210Y37451D02*
X109287Y37634D01*
X106687Y40234D01*
X88548Y37850D01*
X88565Y37574D01*
X109210Y37451D01*
X109210Y37451D01*
G37*
G36*
X77197Y37332D02*
X78057Y37906D01*
X78043Y38078D01*
X6683Y71278D01*
X6558Y71012D01*
X77197Y37332D01*
X77197Y37332D01*
G37*
G36*
X77255Y37305D02*
X77382Y37571D01*
X6817Y71216D01*
X5184Y71977D01*
X5058Y71711D01*
X77255Y37305D01*
X77255Y37305D01*
G37*
G36*
X109569Y36934D02*
X109752Y37009D01*
X109752Y37747D01*
X109014Y37747D01*
X108938Y37565D01*
X109569Y36934D01*
X109569Y36934D01*
G37*
G36*
X109700Y36957D02*
X109779Y37141D01*
X109174Y37747D01*
X88559Y37870D01*
X88554Y37578D01*
X109700Y36957D01*
X109700Y36957D01*
G37*
G36*
X115866Y36937D02*
X147296Y55402D01*
X147153Y55655D01*
X115717Y38500D01*
X115717Y37022D01*
X115866Y36937D01*
X115866Y36937D01*
G37*
G36*
X88752Y36725D02*
X109750Y36962D01*
X109753Y37251D01*
X88523Y37874D01*
X88752Y36725D01*
X88752Y36725D01*
G37*
G36*
X76757Y36594D02*
X77403Y37561D01*
X5186Y71978D01*
X5058Y71713D01*
X76757Y36594D01*
X76757Y36594D01*
G37*
G36*
X115445Y36531D02*
X147298Y55404D01*
X147148Y55657D01*
X115774Y37226D01*
X115285Y36737D01*
X115445Y36531D01*
X115445Y36531D01*
G37*
G36*
X182260Y36544D02*
X183591Y46075D01*
X183301Y46118D01*
X181986Y37685D01*
X181986Y36563D01*
X182260Y36544D01*
X182260Y36544D01*
G37*
G36*
X76786Y36433D02*
X76872Y36866D01*
X5187Y71979D01*
X5057Y71714D01*
X76786Y36433D01*
X76786Y36433D01*
G37*
G36*
X76660Y36422D02*
X76929Y36692D01*
X5187Y71979D01*
X5057Y71714D01*
X76660Y36422D01*
X76660Y36422D01*
G37*
G36*
X76476Y36420D02*
X76763Y36477D01*
X76790Y36687D01*
X5188Y71979D01*
X5057Y71714D01*
X76476Y36420D01*
X76476Y36420D01*
G37*
G36*
X183572Y36073D02*
X183572Y46088D01*
X183298Y46107D01*
X181970Y36599D01*
X183572Y36073D01*
X183572Y36073D01*
G37*
G36*
X75789Y35925D02*
X76791Y36594D01*
X5188Y71979D01*
X5057Y71716D01*
X75789Y35925D01*
X75789Y35925D01*
G37*
G36*
X88522Y35871D02*
X109756Y36968D01*
X109747Y37257D01*
X88751Y37021D01*
X88522Y35871D01*
X88522Y35871D01*
G37*
G36*
X181756Y35619D02*
X183571Y36167D01*
X183574Y36383D01*
X182043Y36885D01*
X181631Y35751D01*
X181756Y35619D01*
X181756Y35619D01*
G37*
G36*
X171917Y35440D02*
X172032Y35636D01*
X169408Y38260D01*
X162695Y38260D01*
X162661Y38004D01*
X171917Y35440D01*
X171917Y35440D01*
G37*
G36*
X88284Y35366D02*
X109761Y36971D01*
X109742Y37263D01*
X88623Y36171D01*
X88191Y35525D01*
X88284Y35366D01*
X88284Y35366D01*
G37*
G36*
X75349Y35185D02*
X75994Y36152D01*
X5190Y71979D01*
X5056Y71718D01*
X75349Y35185D01*
X75349Y35185D01*
G37*
G36*
X173673Y35162D02*
X173775Y35341D01*
X173423Y35760D01*
X171711Y35760D01*
X171689Y35489D01*
X173673Y35162D01*
X173673Y35162D01*
G37*
G36*
X168268Y35177D02*
X173732Y35177D01*
X173754Y35448D01*
X171853Y35761D01*
X168256Y35460D01*
X168268Y35177D01*
X168268Y35177D01*
G37*
G36*
X168381Y35174D02*
X171983Y35475D01*
X172006Y35721D01*
X162735Y38290D01*
X162638Y38040D01*
X168381Y35174D01*
X168381Y35174D01*
G37*
G36*
X181369Y35140D02*
X183612Y36202D01*
X183513Y36458D01*
X181716Y35915D01*
X181223Y35328D01*
X181369Y35140D01*
X181369Y35140D01*
G37*
G36*
X182533Y35177D02*
X183617Y36260D01*
X183474Y36463D01*
X181243Y35407D01*
X181295Y35177D01*
X182533Y35177D01*
X182533Y35177D01*
G37*
G36*
X186644Y34800D02*
X195954Y50658D01*
X195802Y50819D01*
X186427Y46041D01*
X186427Y34859D01*
X186644Y34800D01*
X186644Y34800D01*
G37*
G36*
X186624Y34770D02*
X196613Y51098D01*
X196441Y51263D01*
X195661Y50741D01*
X186373Y34921D01*
X186624Y34770D01*
X186624Y34770D01*
G37*
G36*
X186623Y34769D02*
X197063Y51774D01*
X196819Y51931D01*
X196300Y51154D01*
X186371Y34923D01*
X186623Y34769D01*
X186623Y34769D01*
G37*
G36*
X88217Y34731D02*
X109764Y36976D01*
X109738Y37266D01*
X88217Y35657D01*
X88217Y34731D01*
X88217Y34731D01*
G37*
G36*
X112180Y34481D02*
X112257Y34664D01*
X109659Y37262D01*
X88211Y35027D01*
X88224Y34749D01*
X112180Y34481D01*
X112180Y34481D01*
G37*
G36*
X75237Y34307D02*
X75466Y35457D01*
X5192Y71980D01*
X5056Y71720D01*
X75237Y34307D01*
X75237Y34307D01*
G37*
G36*
X167498Y34204D02*
X168659Y35365D01*
X162771Y38304D01*
X162628Y38079D01*
X167498Y34204D01*
X167498Y34204D01*
G37*
G36*
X167463Y33950D02*
X167635Y34029D01*
X167635Y34473D01*
X162803Y38318D01*
X162618Y38094D01*
X167463Y33950D01*
X167463Y33950D01*
G37*
G36*
X147028Y33887D02*
X147322Y33887D01*
X147322Y55596D01*
X147166Y55680D01*
X146948Y55534D01*
X147028Y33887D01*
X147028Y33887D01*
G37*
G36*
X147323Y33874D02*
X147243Y55542D01*
X147095Y55626D01*
X115314Y36797D01*
X115362Y36587D01*
X147323Y33874D01*
X147323Y33874D01*
G37*
G36*
X162677Y33884D02*
X167592Y33978D01*
X167661Y34169D01*
X162848Y38286D01*
X162677Y38207D01*
X162677Y33884D01*
X162677Y33884D01*
G37*
G36*
X75311Y33510D02*
X75462Y33621D01*
X75262Y34628D01*
X5194Y71981D01*
X5055Y71722D01*
X75311Y33510D01*
X75311Y33510D01*
G37*
G36*
X92049Y33125D02*
X113539Y34491D01*
X113530Y34777D01*
X112077Y34777D01*
X92030Y33419D01*
X92049Y33125D01*
X92049Y33125D01*
G37*
G36*
X92162Y33132D02*
X112234Y34492D01*
X112226Y34776D01*
X88245Y35044D01*
X88196Y34806D01*
X92162Y33132D01*
X92162Y33132D01*
G37*
G36*
X91390Y32972D02*
X92323Y33158D01*
X92345Y33375D01*
X88295Y35085D01*
X88171Y34836D01*
X91390Y32972D01*
X91390Y32972D01*
G37*
G36*
X92949Y32979D02*
X113544Y34493D01*
X113524Y34786D01*
X92048Y33421D01*
X92031Y33162D01*
X92949Y32979D01*
X92949Y32979D01*
G37*
G36*
X148185Y32954D02*
X148276Y33143D01*
X147241Y34177D01*
X115349Y36884D01*
X115320Y36594D01*
X148185Y32954D01*
X148185Y32954D01*
G37*
G36*
X161821Y32948D02*
X167648Y34002D01*
X167621Y34274D01*
X162762Y34181D01*
X161721Y33140D01*
X161821Y32948D01*
X161821Y32948D01*
G37*
G36*
X75809Y32781D02*
X75966Y32952D01*
X75402Y33796D01*
X5196Y71981D01*
X5054Y71723D01*
X75809Y32781D01*
X75809Y32781D01*
G37*
G36*
X119173Y32804D02*
X162050Y32965D01*
X162049Y33260D01*
X148097Y33260D01*
X119172Y33099D01*
X119173Y32804D01*
X119173Y32804D01*
G37*
G36*
X119260Y32805D02*
X148237Y32965D01*
X148252Y33244D01*
X115393Y36883D01*
X115303Y36693D01*
X119260Y32805D01*
X119260Y32805D01*
G37*
G36*
X119216Y32781D02*
X119436Y32825D01*
X119487Y32996D01*
X115480Y36933D01*
X115273Y36724D01*
X119216Y32781D01*
X119216Y32781D01*
G37*
G36*
X86306Y32779D02*
X91532Y32985D01*
X91586Y33200D01*
X88341Y35079D01*
X86225Y32964D01*
X86306Y32779D01*
X86306Y32779D01*
G37*
G36*
X87053Y32650D02*
X91571Y32992D01*
X91555Y33281D01*
X86264Y33073D01*
X86243Y32811D01*
X87053Y32650D01*
X87053Y32650D01*
G37*
G36*
X120078Y32651D02*
X162050Y32966D01*
X162049Y33260D01*
X119186Y33100D01*
X119161Y32834D01*
X120078Y32651D01*
X120078Y32651D01*
G37*
G36*
X103915Y32645D02*
X113551Y34511D01*
X113515Y34787D01*
X92808Y33265D01*
X92814Y32985D01*
X103915Y32645D01*
X103915Y32645D01*
G37*
G36*
X105224Y32646D02*
X113561Y34518D01*
X113501Y34802D01*
X103744Y32913D01*
X103769Y32646D01*
X105224Y32646D01*
X105224Y32646D01*
G37*
G36*
X90805Y32542D02*
X91592Y33068D01*
X91518Y33284D01*
X86911Y32936D01*
X86917Y32656D01*
X90805Y32542D01*
X90805Y32542D01*
G37*
G36*
X93568Y32543D02*
X104050Y32647D01*
X104053Y32937D01*
X92852Y33279D01*
X92784Y33067D01*
X93568Y32543D01*
X93568Y32543D01*
G37*
G36*
X76549Y32289D02*
X76696Y32531D01*
X75856Y33093D01*
X5197Y71982D01*
X5054Y71723D01*
X76549Y32289D01*
X76549Y32289D01*
G37*
G36*
X76734Y32228D02*
X76869Y32430D01*
X76703Y32596D01*
X76394Y32658D01*
X76316Y32402D01*
X76734Y32228D01*
X76734Y32228D01*
G37*
G36*
X87678Y32210D02*
X90915Y32559D01*
X90904Y32835D01*
X86955Y32950D01*
X86887Y32738D01*
X87678Y32210D01*
X87678Y32210D01*
G37*
G36*
X120702Y32214D02*
X162051Y32967D01*
X162048Y33261D01*
X119982Y32946D01*
X119919Y32737D01*
X120702Y32214D01*
X120702Y32214D01*
G37*
G36*
X89088Y32180D02*
X90930Y32576D01*
X90885Y32853D01*
X87562Y32494D01*
X87574Y32218D01*
X89088Y32180D01*
X89088Y32180D01*
G37*
G36*
X76679Y32096D02*
X76872Y32199D01*
X76808Y32517D01*
X76441Y32670D01*
X76307Y32468D01*
X76679Y32096D01*
X76679Y32096D01*
G37*
G36*
X76746Y32087D02*
X76901Y32292D01*
X76586Y32606D01*
X5197Y71982D01*
X5054Y71723D01*
X76746Y32087D01*
X76746Y32087D01*
G37*
G36*
X88294Y32022D02*
X89233Y32209D01*
X89210Y32472D01*
X87591Y32513D01*
X87549Y32261D01*
X88294Y32022D01*
X88294Y32022D01*
G37*
G36*
X89871Y32019D02*
X90945Y32625D01*
X90855Y32862D01*
X88926Y32447D01*
X88928Y32206D01*
X89871Y32019D01*
X89871Y32019D01*
G37*
G36*
X120869Y31912D02*
X162053Y32968D01*
X162046Y33262D01*
X120655Y32508D01*
X120574Y32353D01*
X120869Y31912D01*
X120869Y31912D01*
G37*
G36*
X122240Y31914D02*
X162053Y32969D01*
X162046Y33264D01*
X120797Y32205D01*
X120801Y31914D01*
X122240Y31914D01*
X122240Y31914D01*
G37*
G36*
X90388Y31866D02*
X90949Y32706D01*
X90791Y32877D01*
X89687Y32254D01*
X89711Y32059D01*
X90388Y31866D01*
X90388Y31866D01*
G37*
G36*
X93974Y31883D02*
X104057Y32657D01*
X104045Y32943D01*
X93523Y32838D01*
X93441Y32682D01*
X93974Y31883D01*
X93974Y31883D01*
G37*
G36*
X87943Y31756D02*
X88462Y32103D01*
X88436Y32286D01*
X87661Y32535D01*
X87535Y32367D01*
X87943Y31756D01*
X87943Y31756D01*
G37*
G36*
X90394Y31630D02*
X90496Y32142D01*
X89765Y32351D01*
X89659Y32122D01*
X90394Y31630D01*
X90394Y31630D01*
G37*
G36*
X77215Y31374D02*
X77372Y31545D01*
X76808Y32390D01*
X5197Y71982D01*
X5054Y71724D01*
X77215Y31374D01*
X77215Y31374D01*
G37*
G36*
X94085Y31098D02*
X104067Y32670D01*
X104034Y32952D01*
X93872Y32172D01*
X94085Y31098D01*
X94085Y31098D01*
G37*
G36*
X77955Y30882D02*
X78103Y31124D01*
X77262Y31686D01*
X5198Y71982D01*
X5054Y71725D01*
X77955Y30882D01*
X77955Y30882D01*
G37*
G36*
X117322Y30786D02*
X117523Y30995D01*
X113533Y34985D01*
X113174Y34626D01*
X117322Y30786D01*
X117322Y30786D01*
G37*
G36*
X117402Y30831D02*
X117496Y31027D01*
X113430Y34791D01*
X105056Y32911D01*
X105065Y32665D01*
X117402Y30831D01*
X117402Y30831D01*
G37*
G36*
X117422Y30770D02*
X117491Y31116D01*
X105084Y32961D01*
X105040Y32670D01*
X117422Y30770D01*
X117422Y30770D01*
G37*
G36*
X93860Y30299D02*
X104076Y32682D01*
X104021Y32961D01*
X94078Y31396D01*
X93860Y30299D01*
X93860Y30299D01*
G37*
G36*
X101485Y30166D02*
X104087Y32768D01*
X103978Y32963D01*
X93889Y30609D01*
X93916Y30350D01*
X101485Y30166D01*
X101485Y30166D01*
G37*
G36*
X107629Y30164D02*
X117446Y30798D01*
X117458Y31063D01*
X105125Y32956D01*
X105028Y32765D01*
X107629Y30164D01*
X107629Y30164D01*
G37*
G36*
X117639Y30015D02*
X117424Y31093D01*
X107535Y30454D01*
X107542Y30170D01*
X117639Y30015D01*
X117639Y30015D01*
G37*
G36*
X93677Y29914D02*
X101574Y30172D01*
X101572Y30459D01*
X93972Y30644D01*
X93589Y30071D01*
X93677Y29914D01*
X93677Y29914D01*
G37*
G36*
X79073Y29819D02*
X79272Y30027D01*
X78109Y31190D01*
X77822Y31247D01*
X77720Y31047D01*
X79073Y29819D01*
X79073Y29819D01*
G37*
G36*
X79107Y29831D02*
X79262Y30045D01*
X77990Y31201D01*
X5198Y71982D01*
X5054Y71725D01*
X79107Y29831D01*
X79107Y29831D01*
G37*
G36*
X79228Y29638D02*
X79387Y29809D01*
X79168Y30136D01*
X5199Y71982D01*
X5053Y71726D01*
X79228Y29638D01*
X79228Y29638D01*
G37*
G36*
X100993Y29674D02*
X101601Y30282D01*
X101521Y30466D01*
X93614Y30207D01*
X93614Y29922D01*
X100993Y29674D01*
X100993Y29674D01*
G37*
G36*
X101573Y29676D02*
X101573Y30414D01*
X101391Y30489D01*
X100760Y29858D01*
X100835Y29676D01*
X101573Y29676D01*
X101573Y29676D01*
G37*
G36*
X79451Y29492D02*
X79600Y29734D01*
X79277Y29950D01*
X5199Y71982D01*
X5053Y71726D01*
X79451Y29492D01*
X79451Y29492D01*
G37*
G36*
X124661Y29430D02*
X162058Y32979D01*
X162041Y33264D01*
X122137Y32206D01*
X122065Y32026D01*
X124661Y29430D01*
X124661Y29430D01*
G37*
G36*
X117976Y29357D02*
X118069Y29517D01*
X117538Y30312D01*
X107545Y30465D01*
X107532Y30179D01*
X117976Y29357D01*
X117976Y29357D01*
G37*
G36*
X107539Y29355D02*
X118037Y29364D01*
X118048Y29648D01*
X107539Y30475D01*
X107539Y29355D01*
X107539Y29355D01*
G37*
G36*
X108695Y29355D02*
X118043Y29364D01*
X118043Y29660D01*
X107539Y29650D01*
X107539Y29355D01*
X108695Y29355D01*
X108695Y29355D01*
G37*
G36*
X82868Y29260D02*
X84595Y30082D01*
X84424Y30942D01*
X84255Y30993D01*
X82725Y29463D01*
X82868Y29260D01*
X82868Y29260D01*
G37*
G36*
X82814Y29281D02*
X84966Y29626D01*
X84480Y30354D01*
X82738Y29525D01*
X82814Y29281D01*
X82814Y29281D01*
G37*
G36*
X83842Y29250D02*
X84893Y29644D01*
X84824Y29903D01*
X82762Y29571D01*
X82777Y29306D01*
X83842Y29250D01*
X83842Y29250D01*
G37*
G36*
X83961Y29248D02*
X83973Y29539D01*
X82921Y29594D01*
X82085Y29594D01*
X82081Y29303D01*
X83961Y29248D01*
X83961Y29248D01*
G37*
G36*
X118223Y29216D02*
X118289Y29426D01*
X117940Y29659D01*
X108549Y29650D01*
X108547Y29357D01*
X118223Y29216D01*
X118223Y29216D01*
G37*
G36*
X82966Y29079D02*
X83977Y29280D01*
X83955Y29543D01*
X82105Y29598D01*
X82064Y29341D01*
X82966Y29079D01*
X82966Y29079D01*
G37*
G36*
X84797Y29054D02*
X84886Y29957D01*
X83663Y29499D01*
X83681Y29276D01*
X84797Y29054D01*
X84797Y29054D01*
G37*
G36*
X84707Y29026D02*
X84863Y29109D01*
X84863Y29876D01*
X84583Y29890D01*
X84510Y29157D01*
X84707Y29026D01*
X84707Y29026D01*
G37*
G36*
X124569Y28927D02*
X162063Y32981D01*
X162034Y33273D01*
X124569Y29717D01*
X124569Y28927D01*
X124569Y28927D01*
G37*
G36*
X125216Y28944D02*
X162065Y32982D01*
X162033Y33275D01*
X124561Y29223D01*
X124577Y28944D01*
X125216Y28944D01*
X125216Y28944D01*
G37*
G36*
X80160Y28776D02*
X80317Y28982D01*
X79490Y29809D01*
X5199Y71982D01*
X5053Y71726D01*
X80160Y28776D01*
X80160Y28776D01*
G37*
G36*
X81676Y28801D02*
X83116Y29111D01*
X83124Y29341D01*
X82188Y29613D01*
X81570Y28995D01*
X81676Y28801D01*
X81676Y28801D01*
G37*
G36*
X82270Y28584D02*
X83156Y29176D01*
X83061Y29401D01*
X81616Y29090D01*
X81595Y28876D01*
X82270Y28584D01*
X82270Y28584D01*
G37*
G36*
X82366Y28592D02*
X82429Y28837D01*
X81783Y29116D01*
X79981Y29116D01*
X79967Y28836D01*
X82366Y28592D01*
X82366Y28592D01*
G37*
G36*
X117717Y28503D02*
X118286Y29356D01*
X118205Y29511D01*
X108556Y29652D01*
X108540Y29369D01*
X117717Y28503D01*
X117717Y28503D01*
G37*
G36*
X117506Y28474D02*
X117799Y28544D01*
X117782Y28794D01*
X108563Y29663D01*
X108534Y29370D01*
X117506Y28474D01*
X117506Y28474D01*
G37*
G36*
X117757Y28476D02*
X117833Y28856D01*
X117334Y28737D01*
X117365Y28476D01*
X117757Y28476D01*
X117757Y28476D01*
G37*
G36*
X81822Y27838D02*
X82514Y28873D01*
X80017Y29128D01*
X79945Y28899D01*
X81822Y27838D01*
X81822Y27838D01*
G37*
G36*
X98480Y27161D02*
X101107Y29788D01*
X101035Y29968D01*
X93652Y30216D01*
X93588Y29994D01*
X98480Y27161D01*
X98480Y27161D01*
G37*
G36*
X81553Y27021D02*
X81733Y27067D01*
X81941Y28110D01*
X80087Y29158D01*
X79929Y28969D01*
X81553Y27021D01*
X81553Y27021D01*
G37*
G36*
X81639Y26997D02*
X81799Y27186D01*
X80218Y29083D01*
X5200Y71982D01*
X5053Y71728D01*
X81639Y26997D01*
X81639Y26997D01*
G37*
G36*
X127637Y26454D02*
X162069Y32994D01*
X162027Y33274D01*
X125100Y29228D01*
X125038Y29053D01*
X127637Y26454D01*
X127637Y26454D01*
G37*
G36*
X127569Y26441D02*
X167659Y34006D01*
X167606Y34295D01*
X161875Y33257D01*
X127514Y26731D01*
X127569Y26441D01*
X127569Y26441D01*
G37*
G36*
X81782Y26164D02*
X81939Y26275D01*
X81738Y27281D01*
X5202Y71983D01*
X5053Y71729D01*
X81782Y26164D01*
X81782Y26164D01*
G37*
G36*
X112158Y26100D02*
X117660Y28535D01*
X117624Y28759D01*
X108604Y29660D01*
X108517Y29466D01*
X112158Y26100D01*
X112158Y26100D01*
G37*
G36*
X111918Y26070D02*
X112305Y26147D01*
X112354Y26321D01*
X108689Y29709D01*
X108489Y29500D01*
X111918Y26070D01*
X111918Y26070D01*
G37*
G36*
X115076Y25995D02*
X117687Y28606D01*
X117549Y28808D01*
X112020Y26362D01*
X112063Y26132D01*
X115076Y25995D01*
X115076Y25995D01*
G37*
G36*
X113110Y25976D02*
X115163Y26000D01*
X115168Y26287D01*
X112054Y26428D01*
X112026Y26151D01*
X113110Y25976D01*
X113110Y25976D01*
G37*
G36*
X114428Y25976D02*
X115169Y26003D01*
X115162Y26295D01*
X112973Y26270D01*
X112974Y25976D01*
X114428Y25976D01*
X114428Y25976D01*
G37*
G36*
X113034Y25955D02*
X113271Y26003D01*
X113266Y26250D01*
X112067Y26443D01*
X112016Y26158D01*
X113034Y25955D01*
X113034Y25955D01*
G37*
G36*
X113094Y25888D02*
X113303Y26097D01*
X113199Y26290D01*
X112908Y26231D01*
X112870Y26038D01*
X113094Y25888D01*
X113094Y25888D01*
G37*
G36*
X98431Y25867D02*
X98603Y25946D01*
X98603Y27431D01*
X93719Y30260D01*
X93563Y30040D01*
X98431Y25867D01*
X98431Y25867D01*
G37*
G36*
X98562Y25741D02*
X98756Y25949D01*
X98556Y26149D01*
X93746Y30273D01*
X93554Y30049D01*
X98562Y25741D01*
X98562Y25741D01*
G37*
G36*
X98401Y25765D02*
X98670Y25819D01*
X98717Y25997D01*
X93747Y30272D01*
X93554Y30051D01*
X98401Y25765D01*
X98401Y25765D01*
G37*
G36*
X82270Y25451D02*
X82433Y25622D01*
X81879Y26450D01*
X5203Y71983D01*
X5052Y71730D01*
X82270Y25451D01*
X82270Y25451D01*
G37*
G36*
X114983Y25357D02*
X115166Y25433D01*
X115166Y26299D01*
X114324Y26268D01*
X114253Y26088D01*
X114983Y25357D01*
X114983Y25357D01*
G37*
G36*
X97764Y25293D02*
X98685Y25908D01*
X93756Y30267D01*
X93559Y30071D01*
X97764Y25293D01*
X97764Y25293D01*
G37*
G36*
X127539Y25125D02*
X167661Y34011D01*
X167603Y34295D01*
X127539Y26736D01*
X127539Y25125D01*
X127539Y25125D01*
G37*
G36*
X93614Y24861D02*
X97896Y25351D01*
X97960Y25518D01*
X93805Y30239D01*
X93614Y30167D01*
X93614Y24861D01*
X93614Y24861D01*
G37*
G36*
X97429Y24681D02*
X97965Y25484D01*
X97867Y25645D01*
X93610Y25158D01*
X93618Y24887D01*
X97429Y24681D01*
X97429Y24681D01*
G37*
G36*
X97452Y24574D02*
X97531Y24972D01*
X93624Y25182D01*
X93605Y24892D01*
X97452Y24574D01*
X97452Y24574D01*
G37*
G36*
X141272Y24563D02*
X167667Y34031D01*
X167591Y34298D01*
X127528Y25425D01*
X127550Y25167D01*
X141272Y24563D01*
X141272Y24563D01*
G37*
G36*
X97047Y24525D02*
X97488Y24613D01*
X97473Y24869D01*
X93629Y25186D01*
X93601Y24896D01*
X97047Y24525D01*
X97047Y24525D01*
G37*
G36*
X140413Y24395D02*
X141407Y24593D01*
X141387Y24854D01*
X127546Y25463D01*
X127531Y25170D01*
X140413Y24395D01*
X140413Y24395D01*
G37*
G36*
X142109Y24390D02*
X167676Y34037D01*
X167575Y34312D01*
X141094Y24813D01*
X141111Y24589D01*
X142109Y24390D01*
X142109Y24390D01*
G37*
G36*
X96411Y24076D02*
X97209Y24609D01*
X97159Y24810D01*
X93644Y25188D01*
X93590Y24924D01*
X96411Y24076D01*
X96411Y24076D01*
G37*
G36*
X139723Y23912D02*
X140573Y24480D01*
X140518Y24685D01*
X127551Y25465D01*
X127527Y25177D01*
X139723Y23912D01*
X139723Y23912D01*
G37*
G36*
X142797Y23898D02*
X167678Y34042D01*
X167571Y34313D01*
X141960Y24650D01*
X141939Y24471D01*
X142797Y23898D01*
X142797Y23898D01*
G37*
G36*
X82240Y23863D02*
X82392Y23948D01*
X82392Y25722D01*
X5205Y71983D01*
X5052Y71733D01*
X82240Y23863D01*
X82240Y23863D01*
G37*
G36*
X142883Y23694D02*
X167680Y34044D01*
X167568Y34316D01*
X142591Y24132D01*
X142883Y23694D01*
X142883Y23694D01*
G37*
G36*
X157302Y23730D02*
X167677Y34105D01*
X167542Y34306D01*
X142770Y23967D01*
X142818Y23730D01*
X157302Y23730D01*
X157302Y23730D01*
G37*
G36*
X95991Y23379D02*
X96620Y24321D01*
X93682Y25205D01*
X93574Y24974D01*
X95991Y23379D01*
X95991Y23379D01*
G37*
G36*
X139275Y23185D02*
X139944Y24186D01*
X127559Y25470D01*
X127521Y25187D01*
X139275Y23185D01*
X139275Y23185D01*
G37*
G36*
X95784Y22795D02*
X95954Y22847D01*
X96114Y23652D01*
X93732Y25224D01*
X93563Y25017D01*
X95784Y22795D01*
X95784Y22795D01*
G37*
G36*
X125113Y22679D02*
X139344Y23204D01*
X139362Y23469D01*
X127636Y25467D01*
X125033Y22864D01*
X125113Y22679D01*
X125113Y22679D01*
G37*
G36*
X139158Y22349D02*
X139387Y23501D01*
X125060Y22973D01*
X125061Y22686D01*
X139158Y22349D01*
X139158Y22349D01*
G37*
G36*
X139181Y22349D02*
X139188Y22644D01*
X125210Y22978D01*
X124103Y22978D01*
X124099Y22686D01*
X139181Y22349D01*
X139181Y22349D01*
G37*
G36*
X124101Y21717D02*
X139186Y22358D01*
X139183Y22644D01*
X124101Y22981D01*
X124101Y21717D01*
X124101Y21717D01*
G37*
G36*
X139386Y21503D02*
X139157Y22652D01*
X124099Y22013D01*
X124103Y21726D01*
X139386Y21503D01*
X139386Y21503D01*
G37*
G36*
X158330Y20937D02*
X183946Y32087D01*
X183897Y32322D01*
X169375Y32322D01*
X158192Y21139D01*
X158330Y20937D01*
X158330Y20937D01*
G37*
G36*
X139768Y20782D02*
X139859Y20941D01*
X139285Y21799D01*
X124107Y22021D01*
X124096Y21733D01*
X139768Y20782D01*
X139768Y20782D01*
G37*
G36*
X142727Y20786D02*
X158531Y20976D01*
X158530Y21269D01*
X142860Y21269D01*
X142642Y20943D01*
X142727Y20786D01*
X142727Y20786D01*
G37*
G36*
X140504Y20298D02*
X140580Y20515D01*
X139734Y21080D01*
X124112Y22027D01*
X124091Y21737D01*
X140504Y20298D01*
X140504Y20298D01*
G37*
G36*
X141990Y20303D02*
X158534Y20980D01*
X158527Y21271D01*
X142768Y21082D01*
X141921Y20516D01*
X141990Y20303D01*
X141990Y20303D01*
G37*
G36*
X141375Y20127D02*
X141416Y20405D01*
X140424Y20602D01*
X124115Y22031D01*
X124088Y21738D01*
X141375Y20127D01*
X141375Y20127D01*
G37*
G36*
X141120Y20133D02*
X158537Y20981D01*
X158524Y21275D01*
X142079Y20603D01*
X141086Y20405D01*
X141120Y20133D01*
X141120Y20133D01*
G37*
G36*
X9865Y19333D02*
X82361Y23894D01*
X82414Y24103D01*
X5255Y71955D01*
X5099Y71859D01*
X9865Y19333D01*
X9865Y19333D01*
G37*
G36*
X9869Y19327D02*
X10160Y19357D01*
X5395Y71863D01*
X3906Y72906D01*
X3742Y72808D01*
X9869Y19327D01*
X9869Y19327D01*
G37*
G36*
X9873Y19325D02*
X10163Y19361D01*
X4040Y72798D01*
X2759Y74079D01*
X2570Y73985D01*
X9873Y19325D01*
X9873Y19325D01*
G37*
G36*
X9874Y19323D02*
X10165Y19363D01*
X2872Y73955D01*
X2416Y74605D01*
X2199Y74520D01*
X9874Y19323D01*
X9874Y19323D01*
G37*
G36*
X189881Y19341D02*
X190119Y19342D01*
X197032Y51819D01*
X196801Y51911D01*
X186417Y34999D01*
X189881Y19341D01*
X189881Y19341D01*
G37*
G36*
X189925Y19307D02*
X190172Y19393D01*
X186700Y35089D01*
X186532Y35138D01*
X183598Y32204D01*
X189925Y19307D01*
X189925Y19307D01*
G37*
G36*
X190243Y19329D02*
X183847Y32366D01*
X158217Y21210D01*
X158258Y20980D01*
X190243Y19329D01*
X190243Y19329D01*
G37*
G36*
X190142Y19339D02*
X190152Y19629D01*
X158383Y21269D01*
X141100Y20428D01*
X141104Y20142D01*
X190142Y19339D01*
X190142Y19339D01*
G37*
G36*
X121676Y19241D02*
X141394Y20146D01*
X141400Y20421D01*
X124193Y22025D01*
X121595Y19426D01*
X121676Y19241D01*
X121676Y19241D01*
G37*
G36*
X121626Y19245D02*
X190146Y19342D01*
X190148Y19634D01*
X141247Y20435D01*
X121620Y19534D01*
X121626Y19245D01*
X121626Y19245D01*
G37*
G36*
X119726Y19218D02*
X120568Y19249D01*
X120639Y19429D01*
X119908Y20159D01*
X119726Y20084D01*
X119726Y19218D01*
X119726Y19218D01*
G37*
G36*
X119730Y19222D02*
X121919Y19247D01*
X121917Y19541D01*
X120463Y19541D01*
X119723Y19513D01*
X119730Y19222D01*
X119730Y19222D01*
G37*
G36*
X119727Y19223D02*
X190147Y19342D01*
X190147Y19637D01*
X121770Y19541D01*
X119725Y19517D01*
X119727Y19223D01*
X119727Y19223D01*
G37*
G36*
X8220Y19185D02*
X10167Y19356D01*
X2488Y74590D01*
X2199Y74554D01*
X8220Y19185D01*
X8220Y19185D01*
G37*
G36*
X11646Y19197D02*
X82401Y23897D01*
X82382Y24191D01*
X9854Y19628D01*
X9850Y19354D01*
X11646Y19197D01*
X11646Y19197D01*
G37*
G36*
X188358Y19197D02*
X190153Y19354D01*
X190141Y19637D01*
X119726Y19519D01*
X119726Y19224D01*
X188358Y19197D01*
X188358Y19197D01*
G37*
G36*
X191771Y19186D02*
X197030Y51847D01*
X196747Y51900D01*
X189820Y19357D01*
X191771Y19186D01*
X191771Y19186D01*
G37*
G36*
X191770Y19176D02*
X197184Y52619D01*
X196899Y52671D01*
X196716Y51754D01*
X191478Y19223D01*
X191770Y19176D01*
X191770Y19176D01*
G37*
G36*
X6621Y18728D02*
X8512Y19235D01*
X2493Y74586D01*
X2203Y74559D01*
X6621Y18728D01*
X6621Y18728D01*
G37*
G36*
X13231Y18768D02*
X82402Y23898D01*
X82381Y24192D01*
X11513Y19484D01*
X11488Y19235D01*
X13231Y18768D01*
X13231Y18768D01*
G37*
G36*
X186773Y18769D02*
X188515Y19236D01*
X188481Y19493D01*
X119727Y19519D01*
X119726Y19225D01*
X186773Y18769D01*
X186773Y18769D01*
G37*
G36*
X193373Y18730D02*
X197178Y52626D01*
X196892Y52665D01*
X191480Y19237D01*
X193373Y18730D01*
X193373Y18730D01*
G37*
G36*
X5118Y17991D02*
X6909Y18826D01*
X2497Y74582D01*
X2207Y74563D01*
X5118Y17991D01*
X5118Y17991D01*
G37*
G36*
X14718Y18067D02*
X82403Y23900D01*
X82380Y24193D01*
X13120Y19056D01*
X13079Y18831D01*
X14718Y18067D01*
X14718Y18067D01*
G37*
G36*
X185286Y18070D02*
X186923Y18833D01*
X186873Y19064D01*
X119728Y19520D01*
X119724Y19226D01*
X185286Y18070D01*
X185286Y18070D01*
G37*
G36*
X194877Y17993D02*
X197172Y52634D01*
X196884Y52659D01*
X193087Y18828D01*
X194877Y17993D01*
X194877Y17993D01*
G37*
G36*
X117715Y17161D02*
X185402Y18072D01*
X185403Y18363D01*
X119814Y19520D01*
X117638Y17344D01*
X117715Y17161D01*
X117715Y17161D01*
G37*
G36*
X3912Y17097D02*
X5406Y18144D01*
X2502Y74579D01*
X2210Y74567D01*
X3754Y17177D01*
X3912Y17097D01*
X3912Y17097D01*
G37*
G36*
X16060Y17117D02*
X82405Y23903D01*
X82377Y24194D01*
X14629Y18356D01*
X14575Y18156D01*
X16060Y17117D01*
X16060Y17117D01*
G37*
G36*
X183946Y17121D02*
X185429Y18159D01*
X185362Y18367D01*
X117664Y17456D01*
X117666Y17162D01*
X183946Y17121D01*
X183946Y17121D01*
G37*
G36*
X196087Y17097D02*
X196245Y17177D01*
X197166Y52640D01*
X196877Y52654D01*
X194592Y18145D01*
X196087Y17097D01*
X196087Y17097D01*
G37*
G36*
X196243Y17118D02*
X197789Y74569D01*
X197494Y74577D01*
X196868Y52504D01*
X195948Y17125D01*
X196243Y17118D01*
X196243Y17118D01*
G37*
G36*
X117716Y17039D02*
X184047Y17122D01*
X184047Y17417D01*
X117633Y17458D01*
X117716Y17039D01*
X117716Y17039D01*
G37*
G36*
X117488Y16190D02*
X184048Y17123D01*
X184046Y17417D01*
X117716Y17334D01*
X117488Y16190D01*
X117488Y16190D01*
G37*
G36*
X117529Y16113D02*
X184049Y17124D01*
X184045Y17419D01*
X117589Y16487D01*
X117444Y16270D01*
X117529Y16113D01*
X117529Y16113D01*
G37*
G36*
X135966Y16114D02*
X184050Y17125D01*
X184045Y17419D01*
X117467Y16407D01*
X117470Y16114D01*
X135966Y16114D01*
X135966Y16114D01*
G37*
G36*
X2765Y15925D02*
X4049Y17210D01*
X2505Y74576D01*
X2213Y74571D01*
X2583Y16000D01*
X2765Y15925D01*
X2765Y15925D01*
G37*
G36*
X17216Y15944D02*
X82407Y23906D01*
X82375Y24196D01*
X15992Y17406D01*
X15929Y17231D01*
X17216Y15944D01*
X17216Y15944D01*
G37*
G36*
X182791Y15952D02*
X184075Y17235D01*
X183996Y17419D01*
X135815Y16406D01*
X135818Y16115D01*
X182791Y15952D01*
X182791Y15952D01*
G37*
G36*
X197234Y15925D02*
X197416Y16000D01*
X197786Y74571D01*
X197494Y74576D01*
X195950Y17210D01*
X197234Y15925D01*
X197234Y15925D01*
G37*
G36*
X2421Y15400D02*
X2878Y16053D01*
X2508Y74574D01*
X2214Y74573D01*
X2214Y15465D01*
X2421Y15400D01*
X2421Y15400D01*
G37*
G36*
X197578Y15400D02*
X197785Y15465D01*
X197785Y74573D01*
X197491Y74574D01*
X197121Y16053D01*
X197578Y15400D01*
X197578Y15400D01*
G37*
G36*
X18149Y14585D02*
X82410Y23910D01*
X82371Y24199D01*
X17007Y16216D01*
X18149Y14585D01*
X18149Y14585D01*
G37*
G36*
X181856Y14594D02*
X182902Y16088D01*
X182820Y16247D01*
X135819Y16410D01*
X135814Y16119D01*
X181856Y14594D01*
X181856Y14594D01*
G37*
G36*
X18831Y13081D02*
X82413Y23914D01*
X82367Y24202D01*
X18000Y14862D01*
X18831Y13081D01*
X18831Y13081D01*
G37*
G36*
X181173Y13091D02*
X182009Y14885D01*
X135824Y16414D01*
X135810Y16124D01*
X181173Y13091D01*
X181173Y13091D01*
G37*
G36*
X19238Y11476D02*
X82416Y23918D01*
X82363Y24205D01*
X18732Y13363D01*
X19238Y11476D01*
X19238Y11476D01*
G37*
G36*
X180764Y11488D02*
X181271Y13380D01*
X135829Y16419D01*
X135805Y16130D01*
X180764Y11488D01*
X180764Y11488D01*
G37*
G36*
X24378Y9926D02*
X82419Y23925D01*
X82358Y24207D01*
X19204Y11770D01*
X19191Y11541D01*
X24378Y9926D01*
X24378Y9926D01*
G37*
G36*
X25634Y9932D02*
X82423Y23927D01*
X82353Y24213D01*
X24221Y10192D01*
X24252Y9932D01*
X25634Y9932D01*
X25634Y9932D01*
G37*
G36*
X34404Y9932D02*
X82424Y23933D01*
X82349Y24213D01*
X25454Y10191D01*
X25485Y9932D01*
X34404Y9932D01*
X34404Y9932D01*
G37*
G36*
X35638Y9932D02*
X82428Y23935D01*
X82344Y24218D01*
X34218Y10185D01*
X34255Y9932D01*
X35638Y9932D01*
X35638Y9932D01*
G37*
G36*
X44409Y9932D02*
X82430Y23946D01*
X82339Y24217D01*
X35452Y10184D01*
X35489Y9932D01*
X44409Y9932D01*
X44409Y9932D01*
G37*
G36*
X45643Y9932D02*
X82434Y23949D01*
X82331Y24224D01*
X44216Y10175D01*
X44259Y9932D01*
X45643Y9932D01*
X45643Y9932D01*
G37*
G36*
X54418Y9932D02*
X82436Y23966D01*
X82323Y24223D01*
X45449Y10173D01*
X45493Y9932D01*
X54418Y9932D01*
X54418Y9932D01*
G37*
G36*
X55653Y9932D02*
X82442Y23972D01*
X82309Y24232D01*
X54212Y10159D01*
X54266Y9932D01*
X55653Y9932D01*
X55653Y9932D01*
G37*
G36*
X64434Y9932D02*
X82441Y24001D01*
X82295Y24228D01*
X55445Y10156D01*
X55501Y9932D01*
X64434Y9932D01*
X64434Y9932D01*
G37*
G36*
X65670Y9932D02*
X82450Y24015D01*
X82268Y24240D01*
X64209Y10131D01*
X64277Y9932D01*
X65670Y9932D01*
X65670Y9932D01*
G37*
G36*
X74469Y9932D02*
X82433Y24070D01*
X82244Y24227D01*
X65442Y10126D01*
X65513Y9932D01*
X74469Y9932D01*
X74469Y9932D01*
G37*
G36*
X75710Y9932D02*
X82439Y24100D01*
X82186Y24231D01*
X74130Y9932D01*
X75710Y9932D01*
X75710Y9932D01*
G37*
G36*
X84555Y9932D02*
X82374Y24165D01*
X82158Y24197D01*
X75383Y9932D01*
X84555Y9932D01*
X84555Y9932D01*
G37*
G36*
X85804Y9932D02*
X82355Y24207D01*
X82077Y24152D01*
X84256Y9932D01*
X85804Y9932D01*
X85804Y9932D01*
G37*
G36*
X94478Y9932D02*
X94556Y10104D01*
X82280Y24219D01*
X82073Y24113D01*
X85500Y9932D01*
X94478Y9932D01*
X94478Y9932D01*
G37*
G36*
X95714Y9932D02*
X95790Y10111D01*
X82251Y24241D01*
X82038Y24047D01*
X94315Y9932D01*
X95714Y9932D01*
X95714Y9932D01*
G37*
G36*
X144337Y9930D02*
X180797Y11506D01*
X180806Y11780D01*
X135867Y16420D01*
X135786Y16210D01*
X144337Y9930D01*
X144337Y9930D01*
G37*
G36*
X145620Y9932D02*
X180808Y11506D01*
X180795Y11801D01*
X144232Y10221D01*
X144238Y9932D01*
X145620Y9932D01*
X145620Y9932D01*
G37*
G36*
X154387Y9932D02*
X180809Y11509D01*
X180794Y11801D01*
X145465Y10220D01*
X145472Y9932D01*
X154387Y9932D01*
X154387Y9932D01*
G37*
G36*
X155621Y9932D02*
X180810Y11509D01*
X180792Y11804D01*
X154231Y10218D01*
X154239Y9932D01*
X155621Y9932D01*
X155621Y9932D01*
G37*
G36*
X164390Y9932D02*
X180813Y11514D01*
X180790Y11804D01*
X155464Y10218D01*
X155473Y9932D01*
X164390Y9932D01*
X164390Y9932D01*
G37*
G36*
X165624Y9932D02*
X180816Y11516D01*
X180786Y11808D01*
X164228Y10213D01*
X164242Y9932D01*
X165624Y9932D01*
X165624Y9932D01*
G37*
G36*
X174401Y9932D02*
X180823Y11538D01*
X180776Y11808D01*
X165462Y10212D01*
X165476Y9932D01*
X174401Y9932D01*
X174401Y9932D01*
G37*
G36*
X175639Y9932D02*
X180835Y11549D01*
X180757Y11825D01*
X174220Y10191D01*
X174252Y9932D01*
X175639Y9932D01*
X175639Y9932D01*
G37*
G36*
X180645Y9850D02*
X180820Y11854D01*
X175452Y10183D01*
X175488Y9934D01*
X180645Y9850D01*
X180645Y9850D01*
G37*
G36*
X19354Y9850D02*
X24511Y9934D01*
X24547Y10183D01*
X19179Y11854D01*
X19354Y9850D01*
X19354Y9850D01*
G37*
G36*
X96464Y9718D02*
X96574Y9914D01*
X82245Y24242D01*
X82037Y24038D01*
X95539Y9946D01*
X96464Y9718D01*
X96464Y9718D01*
G37*
G36*
X23199Y9635D02*
X24546Y9967D01*
X24512Y10229D01*
X19345Y10145D01*
X19339Y9860D01*
X23199Y9635D01*
X23199Y9635D01*
G37*
G36*
X26799Y9636D02*
X34533Y9937D01*
X34528Y10227D01*
X25485Y10227D01*
X25454Y9967D01*
X26799Y9636D01*
X26799Y9636D01*
G37*
G36*
X33203Y9636D02*
X34548Y9968D01*
X34510Y10232D01*
X26664Y9926D01*
X26669Y9636D01*
X33203Y9636D01*
X33203Y9636D01*
G37*
G36*
X36799Y9636D02*
X44533Y9937D01*
X44528Y10227D01*
X35485Y10227D01*
X35454Y9967D01*
X36799Y9636D01*
X36799Y9636D01*
G37*
G36*
X43203Y9636D02*
X44548Y9968D01*
X44510Y10232D01*
X36664Y9926D01*
X36669Y9636D01*
X43203Y9636D01*
X43203Y9636D01*
G37*
G36*
X46799Y9636D02*
X54533Y9937D01*
X54528Y10227D01*
X45485Y10227D01*
X45454Y9967D01*
X46799Y9636D01*
X46799Y9636D01*
G37*
G36*
X53203Y9636D02*
X54548Y9968D01*
X54510Y10232D01*
X46664Y9926D01*
X46669Y9636D01*
X53203Y9636D01*
X53203Y9636D01*
G37*
G36*
X56799Y9636D02*
X64533Y9937D01*
X64528Y10227D01*
X55485Y10227D01*
X55454Y9967D01*
X56799Y9636D01*
X56799Y9636D01*
G37*
G36*
X63203Y9636D02*
X64548Y9968D01*
X64510Y10232D01*
X56664Y9926D01*
X56669Y9636D01*
X63203Y9636D01*
X63203Y9636D01*
G37*
G36*
X66799Y9636D02*
X74533Y9937D01*
X74528Y10227D01*
X65485Y10227D01*
X65454Y9967D01*
X66799Y9636D01*
X66799Y9636D01*
G37*
G36*
X73203Y9636D02*
X74548Y9968D01*
X74510Y10232D01*
X66664Y9926D01*
X66669Y9636D01*
X73203Y9636D01*
X73203Y9636D01*
G37*
G36*
X76799Y9636D02*
X84533Y9937D01*
X84528Y10227D01*
X75485Y10227D01*
X75454Y9967D01*
X76799Y9636D01*
X76799Y9636D01*
G37*
G36*
X83203Y9636D02*
X84548Y9968D01*
X84510Y10232D01*
X76664Y9926D01*
X76669Y9636D01*
X83203Y9636D01*
X83203Y9636D01*
G37*
G36*
X86799Y9636D02*
X94533Y9937D01*
X94528Y10227D01*
X85485Y10227D01*
X85454Y9967D01*
X86799Y9636D01*
X86799Y9636D01*
G37*
G36*
X93203Y9636D02*
X94548Y9968D01*
X94510Y10232D01*
X86664Y9926D01*
X86669Y9636D01*
X93203Y9636D01*
X93203Y9636D01*
G37*
G36*
X143144Y9622D02*
X144509Y9958D01*
X144546Y10143D01*
X135938Y16464D01*
X135761Y16246D01*
X143144Y9622D01*
X143144Y9622D01*
G37*
G36*
X146799Y9636D02*
X154533Y9937D01*
X154528Y10227D01*
X145485Y10227D01*
X145454Y9967D01*
X146799Y9636D01*
X146799Y9636D01*
G37*
G36*
X153203Y9636D02*
X154548Y9968D01*
X154510Y10232D01*
X146664Y9926D01*
X146669Y9636D01*
X153203Y9636D01*
X153203Y9636D01*
G37*
G36*
X156799Y9636D02*
X164533Y9937D01*
X164528Y10227D01*
X155485Y10227D01*
X155454Y9967D01*
X156799Y9636D01*
X156799Y9636D01*
G37*
G36*
X163203Y9636D02*
X164548Y9968D01*
X164510Y10232D01*
X156664Y9926D01*
X156669Y9636D01*
X163203Y9636D01*
X163203Y9636D01*
G37*
G36*
X166799Y9636D02*
X174533Y9937D01*
X174528Y10227D01*
X165485Y10227D01*
X165454Y9967D01*
X166799Y9636D01*
X166799Y9636D01*
G37*
G36*
X173203Y9636D02*
X174548Y9968D01*
X174510Y10232D01*
X166664Y9926D01*
X166669Y9636D01*
X173203Y9636D01*
X173203Y9636D01*
G37*
G36*
X176800Y9635D02*
X180660Y9860D01*
X180654Y10145D01*
X175487Y10229D01*
X175453Y9967D01*
X176800Y9635D01*
X176800Y9635D01*
G37*
G36*
X142670Y9347D02*
X143442Y9752D01*
X135956Y16468D01*
X135758Y16259D01*
X142670Y9347D01*
X142670Y9347D01*
G37*
G36*
X22108Y9052D02*
X23353Y9705D01*
X23306Y9925D01*
X19367Y10155D01*
X19321Y9896D01*
X22108Y9052D01*
X22108Y9052D01*
G37*
G36*
X27878Y9059D02*
X33340Y9652D01*
X33325Y9932D01*
X26698Y9932D01*
X26643Y9707D01*
X27878Y9059D01*
X27878Y9059D01*
G37*
G36*
X32129Y9063D02*
X33362Y9710D01*
X33291Y9944D01*
X27751Y9342D01*
X27766Y9063D01*
X32129Y9063D01*
X32129Y9063D01*
G37*
G36*
X37878Y9059D02*
X43340Y9652D01*
X43325Y9932D01*
X36698Y9932D01*
X36643Y9707D01*
X37878Y9059D01*
X37878Y9059D01*
G37*
G36*
X42129Y9063D02*
X43362Y9710D01*
X43291Y9944D01*
X37751Y9342D01*
X37766Y9063D01*
X42129Y9063D01*
X42129Y9063D01*
G37*
G36*
X47878Y9059D02*
X53340Y9652D01*
X53325Y9932D01*
X46698Y9932D01*
X46643Y9707D01*
X47878Y9059D01*
X47878Y9059D01*
G37*
G36*
X52129Y9063D02*
X53362Y9710D01*
X53291Y9944D01*
X47751Y9342D01*
X47766Y9063D01*
X52129Y9063D01*
X52129Y9063D01*
G37*
G36*
X57878Y9059D02*
X63340Y9652D01*
X63325Y9932D01*
X56698Y9932D01*
X56643Y9707D01*
X57878Y9059D01*
X57878Y9059D01*
G37*
G36*
X62129Y9063D02*
X63362Y9710D01*
X63291Y9944D01*
X57751Y9342D01*
X57766Y9063D01*
X62129Y9063D01*
X62129Y9063D01*
G37*
G36*
X67878Y9059D02*
X73340Y9652D01*
X73325Y9932D01*
X66698Y9932D01*
X66643Y9707D01*
X67878Y9059D01*
X67878Y9059D01*
G37*
G36*
X72129Y9063D02*
X73362Y9710D01*
X73291Y9944D01*
X67751Y9342D01*
X67766Y9063D01*
X72129Y9063D01*
X72129Y9063D01*
G37*
G36*
X77878Y9059D02*
X83340Y9652D01*
X83325Y9932D01*
X76698Y9932D01*
X76643Y9707D01*
X77878Y9059D01*
X77878Y9059D01*
G37*
G36*
X82129Y9063D02*
X83362Y9710D01*
X83291Y9944D01*
X77751Y9342D01*
X77766Y9063D01*
X82129Y9063D01*
X82129Y9063D01*
G37*
G36*
X87878Y9059D02*
X93340Y9652D01*
X93325Y9932D01*
X86698Y9932D01*
X86643Y9707D01*
X87878Y9059D01*
X87878Y9059D01*
G37*
G36*
X92129Y9063D02*
X93362Y9710D01*
X93291Y9944D01*
X87751Y9342D01*
X87766Y9063D01*
X92129Y9063D01*
X92129Y9063D01*
G37*
G36*
X147878Y9059D02*
X153340Y9652D01*
X153325Y9932D01*
X146698Y9932D01*
X146643Y9707D01*
X147878Y9059D01*
X147878Y9059D01*
G37*
G36*
X152129Y9063D02*
X153362Y9710D01*
X153291Y9944D01*
X147751Y9342D01*
X147766Y9063D01*
X152129Y9063D01*
X152129Y9063D01*
G37*
G36*
X157878Y9059D02*
X163340Y9652D01*
X163325Y9932D01*
X156698Y9932D01*
X156643Y9707D01*
X157878Y9059D01*
X157878Y9059D01*
G37*
G36*
X162129Y9063D02*
X163362Y9710D01*
X163291Y9944D01*
X157751Y9342D01*
X157766Y9063D01*
X162129Y9063D01*
X162129Y9063D01*
G37*
G36*
X167878Y9059D02*
X173340Y9652D01*
X173325Y9932D01*
X166698Y9932D01*
X166643Y9707D01*
X167878Y9059D01*
X167878Y9059D01*
G37*
G36*
X172129Y9063D02*
X173362Y9710D01*
X173291Y9944D01*
X167751Y9342D01*
X167766Y9063D01*
X172129Y9063D01*
X172129Y9063D01*
G37*
G36*
X177891Y9052D02*
X180678Y9896D01*
X180632Y10155D01*
X176693Y9925D01*
X176646Y9705D01*
X177891Y9052D01*
X177891Y9052D01*
G37*
G36*
X21166Y8192D02*
X22255Y9158D01*
X22218Y9327D01*
X19420Y10175D01*
X19303Y9973D01*
X21166Y8192D01*
X21166Y8192D01*
G37*
G36*
X28790Y8231D02*
X32255Y9099D01*
X32223Y9358D01*
X27804Y9358D01*
X27732Y9168D01*
X28790Y8231D01*
X28790Y8231D01*
G37*
G36*
X31225Y8245D02*
X32277Y9177D01*
X32169Y9382D01*
X28667Y8504D01*
X28699Y8245D01*
X31225Y8245D01*
X31225Y8245D01*
G37*
G36*
X38790Y8231D02*
X42255Y9099D01*
X42223Y9358D01*
X37804Y9358D01*
X37732Y9168D01*
X38790Y8231D01*
X38790Y8231D01*
G37*
G36*
X41225Y8245D02*
X42277Y9177D01*
X42169Y9382D01*
X38667Y8504D01*
X38699Y8245D01*
X41225Y8245D01*
X41225Y8245D01*
G37*
G36*
X48790Y8231D02*
X52255Y9099D01*
X52223Y9358D01*
X47804Y9358D01*
X47732Y9168D01*
X48790Y8231D01*
X48790Y8231D01*
G37*
G36*
X51225Y8245D02*
X52277Y9177D01*
X52169Y9382D01*
X48667Y8504D01*
X48699Y8245D01*
X51225Y8245D01*
X51225Y8245D01*
G37*
G36*
X58790Y8231D02*
X62255Y9099D01*
X62223Y9358D01*
X57804Y9358D01*
X57732Y9168D01*
X58790Y8231D01*
X58790Y8231D01*
G37*
G36*
X61225Y8245D02*
X62277Y9177D01*
X62169Y9382D01*
X58667Y8504D01*
X58699Y8245D01*
X61225Y8245D01*
X61225Y8245D01*
G37*
G36*
X68790Y8231D02*
X72255Y9099D01*
X72223Y9358D01*
X67804Y9358D01*
X67732Y9168D01*
X68790Y8231D01*
X68790Y8231D01*
G37*
G36*
X71225Y8245D02*
X72277Y9177D01*
X72169Y9382D01*
X68667Y8504D01*
X68699Y8245D01*
X71225Y8245D01*
X71225Y8245D01*
G37*
G36*
X78790Y8231D02*
X82255Y9099D01*
X82223Y9358D01*
X77804Y9358D01*
X77732Y9168D01*
X78790Y8231D01*
X78790Y8231D01*
G37*
G36*
X81225Y8245D02*
X82277Y9177D01*
X82169Y9382D01*
X78667Y8504D01*
X78699Y8245D01*
X81225Y8245D01*
X81225Y8245D01*
G37*
G36*
X88790Y8231D02*
X92255Y9099D01*
X92223Y9358D01*
X87804Y9358D01*
X87732Y9168D01*
X88790Y8231D01*
X88790Y8231D01*
G37*
G36*
X91225Y8245D02*
X92277Y9177D01*
X92169Y9382D01*
X88667Y8504D01*
X88699Y8245D01*
X91225Y8245D01*
X91225Y8245D01*
G37*
G36*
X148790Y8231D02*
X152255Y9099D01*
X152223Y9358D01*
X147804Y9358D01*
X147732Y9168D01*
X148790Y8231D01*
X148790Y8231D01*
G37*
G36*
X151225Y8245D02*
X152277Y9177D01*
X152169Y9382D01*
X148667Y8504D01*
X148699Y8245D01*
X151225Y8245D01*
X151225Y8245D01*
G37*
G36*
X158790Y8231D02*
X162255Y9099D01*
X162223Y9358D01*
X157804Y9358D01*
X157732Y9168D01*
X158790Y8231D01*
X158790Y8231D01*
G37*
G36*
X161225Y8245D02*
X162277Y9177D01*
X162169Y9382D01*
X158667Y8504D01*
X158699Y8245D01*
X161225Y8245D01*
X161225Y8245D01*
G37*
G36*
X168790Y8231D02*
X172255Y9099D01*
X172223Y9358D01*
X167804Y9358D01*
X167732Y9168D01*
X168790Y8231D01*
X168790Y8231D01*
G37*
G36*
X171225Y8245D02*
X172277Y9177D01*
X172169Y9382D01*
X168667Y8504D01*
X168699Y8245D01*
X171225Y8245D01*
X171225Y8245D01*
G37*
G36*
X178834Y8192D02*
X180696Y9973D01*
X180579Y10175D01*
X177781Y9327D01*
X177744Y9158D01*
X178834Y8192D01*
X178834Y8192D01*
G37*
G36*
X19184Y8200D02*
X21271Y8247D01*
X21343Y8431D01*
X19524Y10170D01*
X19350Y10105D01*
X19184Y8200D01*
X19184Y8200D01*
G37*
G36*
X180815Y8200D02*
X180649Y10105D01*
X180475Y10170D01*
X178656Y8431D01*
X178728Y8247D01*
X180815Y8200D01*
X180815Y8200D01*
G37*
G36*
X20496Y7158D02*
X21342Y8383D01*
X21256Y8542D01*
X19240Y8497D01*
X19172Y8306D01*
X20496Y7158D01*
X20496Y7158D01*
G37*
G36*
X29489Y7178D02*
X31342Y8326D01*
X31281Y8540D01*
X28740Y8540D01*
X28657Y8382D01*
X29489Y7178D01*
X29489Y7178D01*
G37*
G36*
X30546Y7230D02*
X31359Y8408D01*
X31194Y8581D01*
X29358Y7444D01*
X29419Y7230D01*
X30546Y7230D01*
X30546Y7230D01*
G37*
G36*
X39489Y7178D02*
X41342Y8326D01*
X41281Y8540D01*
X38740Y8540D01*
X38657Y8382D01*
X39489Y7178D01*
X39489Y7178D01*
G37*
G36*
X40546Y7230D02*
X41359Y8408D01*
X41194Y8581D01*
X39358Y7444D01*
X39419Y7230D01*
X40546Y7230D01*
X40546Y7230D01*
G37*
G36*
X49489Y7178D02*
X51342Y8326D01*
X51281Y8540D01*
X48740Y8540D01*
X48657Y8382D01*
X49489Y7178D01*
X49489Y7178D01*
G37*
G36*
X50546Y7230D02*
X51359Y8408D01*
X51194Y8581D01*
X49358Y7444D01*
X49419Y7230D01*
X50546Y7230D01*
X50546Y7230D01*
G37*
G36*
X59489Y7178D02*
X61342Y8326D01*
X61281Y8540D01*
X58740Y8540D01*
X58657Y8382D01*
X59489Y7178D01*
X59489Y7178D01*
G37*
G36*
X60546Y7230D02*
X61359Y8408D01*
X61194Y8581D01*
X59358Y7444D01*
X59419Y7230D01*
X60546Y7230D01*
X60546Y7230D01*
G37*
G36*
X69489Y7178D02*
X71342Y8326D01*
X71281Y8540D01*
X68740Y8540D01*
X68657Y8382D01*
X69489Y7178D01*
X69489Y7178D01*
G37*
G36*
X70546Y7230D02*
X71359Y8408D01*
X71194Y8581D01*
X69358Y7444D01*
X69419Y7230D01*
X70546Y7230D01*
X70546Y7230D01*
G37*
G36*
X79489Y7178D02*
X81342Y8326D01*
X81281Y8540D01*
X78740Y8540D01*
X78657Y8382D01*
X79489Y7178D01*
X79489Y7178D01*
G37*
G36*
X80546Y7230D02*
X81359Y8408D01*
X81194Y8581D01*
X79358Y7444D01*
X79419Y7230D01*
X80546Y7230D01*
X80546Y7230D01*
G37*
G36*
X89489Y7178D02*
X91342Y8326D01*
X91281Y8540D01*
X88740Y8540D01*
X88657Y8382D01*
X89489Y7178D01*
X89489Y7178D01*
G37*
G36*
X90546Y7230D02*
X91359Y8408D01*
X91194Y8581D01*
X89358Y7444D01*
X89419Y7230D01*
X90546Y7230D01*
X90546Y7230D01*
G37*
G36*
X149489Y7178D02*
X151342Y8326D01*
X151281Y8540D01*
X148740Y8540D01*
X148657Y8382D01*
X149489Y7178D01*
X149489Y7178D01*
G37*
G36*
X150546Y7230D02*
X151359Y8408D01*
X151194Y8581D01*
X149358Y7444D01*
X149419Y7230D01*
X150546Y7230D01*
X150546Y7230D01*
G37*
G36*
X159489Y7178D02*
X161342Y8326D01*
X161281Y8540D01*
X158740Y8540D01*
X158657Y8382D01*
X159489Y7178D01*
X159489Y7178D01*
G37*
G36*
X160546Y7230D02*
X161359Y8408D01*
X161194Y8581D01*
X159358Y7444D01*
X159419Y7230D01*
X160546Y7230D01*
X160546Y7230D01*
G37*
G36*
X169489Y7178D02*
X171342Y8326D01*
X171281Y8540D01*
X168740Y8540D01*
X168657Y8382D01*
X169489Y7178D01*
X169489Y7178D01*
G37*
G36*
X170546Y7230D02*
X171359Y8408D01*
X171194Y8581D01*
X169358Y7444D01*
X169419Y7230D01*
X170546Y7230D01*
X170546Y7230D01*
G37*
G36*
X179503Y7158D02*
X180827Y8306D01*
X180759Y8497D01*
X178743Y8542D01*
X178657Y8383D01*
X179503Y7158D01*
X179503Y7158D01*
G37*
G36*
X18887Y6583D02*
X20748Y7331D01*
X19263Y8618D01*
X18751Y6704D01*
X18887Y6583D01*
X18887Y6583D01*
G37*
G36*
X181112Y6583D02*
X181248Y6704D01*
X180736Y8618D01*
X179251Y7331D01*
X181112Y6583D01*
X181112Y6583D01*
G37*
G36*
X20112Y6022D02*
X20641Y7415D01*
X20503Y7550D01*
X18772Y6855D01*
X18766Y6662D01*
X20112Y6022D01*
X20112Y6022D01*
G37*
G36*
X30064Y6074D02*
X30694Y7525D01*
X29317Y7525D01*
X29865Y6079D01*
X30064Y6074D01*
X30064Y6074D01*
G37*
G36*
X30133Y6076D02*
X30658Y7460D01*
X30391Y7569D01*
X29743Y6076D01*
X30133Y6076D01*
X30133Y6076D01*
G37*
G36*
X40064Y6074D02*
X40694Y7525D01*
X39317Y7525D01*
X39865Y6079D01*
X40064Y6074D01*
X40064Y6074D01*
G37*
G36*
X40133Y6076D02*
X40658Y7460D01*
X40391Y7569D01*
X39743Y6076D01*
X40133Y6076D01*
X40133Y6076D01*
G37*
G36*
X50064Y6074D02*
X50694Y7525D01*
X49317Y7525D01*
X49865Y6079D01*
X50064Y6074D01*
X50064Y6074D01*
G37*
G36*
X50133Y6076D02*
X50658Y7460D01*
X50391Y7569D01*
X49743Y6076D01*
X50133Y6076D01*
X50133Y6076D01*
G37*
G36*
X60064Y6074D02*
X60694Y7525D01*
X59317Y7525D01*
X59865Y6079D01*
X60064Y6074D01*
X60064Y6074D01*
G37*
G36*
X60133Y6076D02*
X60658Y7460D01*
X60391Y7569D01*
X59743Y6076D01*
X60133Y6076D01*
X60133Y6076D01*
G37*
G36*
X70064Y6074D02*
X70694Y7525D01*
X69317Y7525D01*
X69865Y6079D01*
X70064Y6074D01*
X70064Y6074D01*
G37*
G36*
X70133Y6076D02*
X70658Y7460D01*
X70391Y7569D01*
X69743Y6076D01*
X70133Y6076D01*
X70133Y6076D01*
G37*
G36*
X80064Y6074D02*
X80694Y7525D01*
X79317Y7525D01*
X79865Y6079D01*
X80064Y6074D01*
X80064Y6074D01*
G37*
G36*
X80133Y6076D02*
X80658Y7460D01*
X80391Y7569D01*
X79743Y6076D01*
X80133Y6076D01*
X80133Y6076D01*
G37*
G36*
X90064Y6074D02*
X90694Y7525D01*
X89317Y7525D01*
X89865Y6079D01*
X90064Y6074D01*
X90064Y6074D01*
G37*
G36*
X90133Y6076D02*
X90658Y7460D01*
X90391Y7569D01*
X89743Y6076D01*
X90133Y6076D01*
X90133Y6076D01*
G37*
G36*
X150064Y6074D02*
X150694Y7525D01*
X149317Y7525D01*
X149865Y6079D01*
X150064Y6074D01*
X150064Y6074D01*
G37*
G36*
X150133Y6076D02*
X150658Y7460D01*
X150391Y7569D01*
X149743Y6076D01*
X150133Y6076D01*
X150133Y6076D01*
G37*
G36*
X160064Y6074D02*
X160694Y7525D01*
X159317Y7525D01*
X159865Y6079D01*
X160064Y6074D01*
X160064Y6074D01*
G37*
G36*
X160133Y6076D02*
X160658Y7460D01*
X160391Y7569D01*
X159743Y6076D01*
X160133Y6076D01*
X160133Y6076D01*
G37*
G36*
X170064Y6074D02*
X170694Y7525D01*
X169317Y7525D01*
X169865Y6079D01*
X170064Y6074D01*
X170064Y6074D01*
G37*
G36*
X170133Y6076D02*
X170658Y7460D01*
X170391Y7569D01*
X169743Y6076D01*
X170133Y6076D01*
X170133Y6076D01*
G37*
G36*
X179887Y6022D02*
X181233Y6662D01*
X181227Y6855D01*
X179496Y7550D01*
X179358Y7415D01*
X179887Y6022D01*
X179887Y6022D01*
G37*
G36*
X30130Y5816D02*
X30198Y6372D01*
X29801Y6372D01*
X29869Y5816D01*
X30130Y5816D01*
X30130Y5816D01*
G37*
G36*
X40130Y5816D02*
X40198Y6372D01*
X39801Y6372D01*
X39869Y5816D01*
X40130Y5816D01*
X40130Y5816D01*
G37*
G36*
X50130Y5816D02*
X50198Y6372D01*
X49801Y6372D01*
X49869Y5816D01*
X50130Y5816D01*
X50130Y5816D01*
G37*
G36*
X60130Y5816D02*
X60198Y6372D01*
X59801Y6372D01*
X59869Y5816D01*
X60130Y5816D01*
X60130Y5816D01*
G37*
G36*
X70130Y5816D02*
X70198Y6372D01*
X69801Y6372D01*
X69869Y5816D01*
X70130Y5816D01*
X70130Y5816D01*
G37*
G36*
X80130Y5816D02*
X80198Y6372D01*
X79801Y6372D01*
X79869Y5816D01*
X80130Y5816D01*
X80130Y5816D01*
G37*
G36*
X90130Y5816D02*
X90198Y6372D01*
X89801Y6372D01*
X89869Y5816D01*
X90130Y5816D01*
X90130Y5816D01*
G37*
G36*
X150130Y5816D02*
X150198Y6372D01*
X149801Y6372D01*
X149869Y5816D01*
X150130Y5816D01*
X150130Y5816D01*
G37*
G36*
X160130Y5816D02*
X160198Y6372D01*
X159801Y6372D01*
X159869Y5816D01*
X160130Y5816D01*
X160130Y5816D01*
G37*
G36*
X169869Y5816D02*
X170130Y5816D01*
X170198Y6372D01*
X169801Y6372D01*
X169869Y5816D01*
X169869Y5816D01*
G37*
G36*
X181805Y5074D02*
X181960Y5221D01*
X181153Y6951D01*
X179822Y6318D01*
X179818Y6137D01*
X181805Y5074D01*
X181805Y5074D01*
G37*
G36*
X18194Y5074D02*
X20181Y6137D01*
X20177Y6318D01*
X18846Y6951D01*
X18039Y5221D01*
X18194Y5074D01*
X18194Y5074D01*
G37*
G36*
X20011Y4830D02*
X20189Y6295D01*
X20041Y6397D01*
X18054Y5335D01*
X18090Y5125D01*
X20011Y4830D01*
X20011Y4830D01*
G37*
G36*
X179988Y4830D02*
X181909Y5125D01*
X181945Y5335D01*
X179958Y6397D01*
X179811Y6295D01*
X179988Y4830D01*
X179988Y4830D01*
G37*
G36*
X182775Y3720D02*
X182915Y3893D01*
X181850Y5414D01*
X179984Y5129D01*
X179956Y4907D01*
X182775Y3720D01*
X182775Y3720D01*
G37*
G36*
X17224Y3720D02*
X20043Y4907D01*
X20015Y5129D01*
X18149Y5414D01*
X17084Y3893D01*
X17224Y3720D01*
X17224Y3720D01*
G37*
G36*
X20199Y3620D02*
X20005Y5211D01*
X17103Y3990D01*
X17144Y3757D01*
X20199Y3620D01*
X20199Y3620D01*
G37*
G36*
X179800Y3620D02*
X182855Y3757D01*
X182896Y3990D01*
X179994Y5211D01*
X179800Y3620D01*
X179800Y3620D01*
G37*
G36*
X183971Y2558D02*
X184084Y2754D01*
X182788Y4050D01*
X179835Y3917D01*
X179808Y3665D01*
X183971Y2558D01*
X183971Y2558D01*
G37*
G36*
X16028Y2558D02*
X20191Y3665D01*
X20164Y3917D01*
X17211Y4050D01*
X15915Y2754D01*
X16028Y2558D01*
X16028Y2558D01*
G37*
G36*
X20685Y2468D02*
X20122Y3952D01*
X15938Y2840D01*
X15968Y2586D01*
X20685Y2468D01*
X20685Y2468D01*
G37*
G36*
X179314Y2468D02*
X184031Y2586D01*
X184061Y2840D01*
X179877Y3952D01*
X179314Y2468D01*
X179314Y2468D01*
G37*
G36*
X15470Y2208D02*
X20618Y2482D01*
X20614Y2766D01*
X16054Y2879D01*
X15398Y2419D01*
X15470Y2208D01*
X15470Y2208D01*
G37*
G36*
X20737Y2214D02*
X20820Y2372D01*
X20543Y2773D01*
X15422Y2502D01*
X15430Y2214D01*
X20737Y2214D01*
X20737Y2214D01*
G37*
G36*
X179270Y2207D02*
X184055Y2594D01*
X184040Y2881D01*
X179452Y2767D01*
X179177Y2369D01*
X179270Y2207D01*
X179270Y2207D01*
G37*
G36*
X184534Y2214D02*
X184599Y2421D01*
X183941Y2881D01*
X179198Y2497D01*
X179209Y2214D01*
X184534Y2214D01*
X184534Y2214D01*
G37*
M02*
