%FSLAX35Y35*%
%MOIN*%
G04 13=Kupferinnen/CopperinsideL2[Ebene13](X.L#)*
%ADD10C,0.00591*%
%ADD11C,0.00394*%
%ADD12C,0.00472*%
%ADD13C,0.00650*%
%ADD14C,0.00709*%
%ADD15C,0.00787*%
%ADD16C,0.00945*%
%ADD17C,0.01181*%
%ADD18C,0.01575*%
%ADD19C,0.01969*%
%ADD20C,0.02362*%
%ADD21C,0.02489*%
%ADD22C,0.03937*%
%ADD23C,0.07000*%
%ADD24C,0.15748*%
%AMR_25*21,1,0.01420,0.01420,0,0,0.000*%
%ADD25R_25*%
%AMR_26*21,1,0.02200,0.02200,0,0,0.000*%
%ADD26R_26*%
%AMR_27*21,1,0.02200,0.02200,0,0,45.000*%
%ADD27R_27*%
%AMR_28*21,1,0.02200,0.02200,0,0,90.000*%
%ADD28R_28*%
%AMR_29*21,1,0.02200,0.02200,0,0,135.000*%
%ADD29R_29*%
%AMR_30*21,1,0.02200,0.02200,0,0,180.000*%
%ADD30R_30*%
%AMR_31*21,1,0.02200,0.02200,0,0,225.000*%
%ADD31R_31*%
%AMR_32*21,1,0.02200,0.02200,0,0,315.000*%
%ADD32R_32*%
%AMR_33*21,1,0.04375,0.17500,0,0,0.000*%
%ADD33R_33*%
%AMR_34*21,1,0.04409,0.06299,0,0,135.000*%
%ADD34R_34*%
%AMR_35*21,1,0.04724,0.01181,0,0,45.000*%
%ADD35R_35*%
%AMR_36*21,1,0.04724,0.01181,0,0,315.000*%
%ADD36R_36*%
%AMR_37*21,1,0.05000,0.05000,0,0,225.000*%
%ADD37R_37*%
%AMR_38*21,1,0.06102,0.02362,0,0,0.000*%
%ADD38R_38*%
%AMR_39*21,1,0.06563,0.14063,0,0,0.000*%
%ADD39R_39*%
%AMR_40*21,1,0.09688,0.06250,0,0,0.000*%
%ADD40R_40*%
%AMR_41*21,1,0.20079,0.20079,0,0,45.000*%
%ADD41R_41*%
%ADD42O,0.06102X0.02362*%
%AMRR_43*21,1,0.02559,0.10610,0,0,270.000*21,1,0.02303,0.10866,0,0,270.000*1,1,0.00256,0.05305,-0.01152*1,1,0.00256,-0.05305,0.01152*1,1,0.00256,-0.05305,-0.01152*1,1,0.00256,0.05305,0.01152*%
%ADD43RR_43*%
G54D13*
X3937Y97874D02*
X3937Y102598D01*
X3937Y100236D02*
X8267Y100236D01*
X8267Y102598D02*
X8267Y97874D01*
X3937Y102598D02*
X6102Y104960D01*
X8267Y102598D01*
X9566Y104960D02*
X9566Y97874D01*
X9566Y100236D02*
X12814Y103779D01*
X11190Y102007D02*
X13897Y97874D01*
X15196Y104960D02*
X15196Y99055D01*
X16279Y97874D01*
X19527Y97874D01*
X15196Y102007D02*
X17362Y102007D01*
X20826Y102007D02*
X20826Y99055D01*
X21909Y97874D01*
X24074Y97874D01*
X25157Y99055D01*
X25157Y102007D02*
X25157Y97874D01*
X30787Y98464D02*
X29704Y97874D01*
X27539Y97874D01*
X26456Y99055D01*
X26456Y100826D01*
X27539Y102007D01*
X29704Y102007D01*
X30787Y101417D01*
X30787Y100826D01*
X29704Y100236D01*
X26456Y100236D01*
X32086Y97874D02*
X36417Y97874D01*
X33169Y104960D02*
X34251Y104960D01*
X34251Y97874D01*
X37716Y97874D02*
X42047Y97874D01*
X38799Y104960D02*
X39881Y104960D01*
X39881Y97874D01*
X47677Y98464D02*
X46594Y97874D01*
X44429Y97874D01*
X43346Y99055D01*
X43346Y100826D01*
X44429Y102007D01*
X46594Y102007D01*
X47677Y101417D01*
X47677Y100826D01*
X46594Y100236D01*
X43346Y100236D01*
X48976Y97874D02*
X52765Y97874D01*
X53307Y99055D01*
X52765Y100236D01*
X49517Y100236D01*
X48976Y101417D01*
X49517Y102007D01*
X53307Y102007D01*
X60236Y104960D02*
X60236Y97874D01*
X60236Y101417D02*
X62942Y101417D01*
X64025Y102007D01*
X64566Y103188D01*
X64025Y104370D01*
X62942Y104960D01*
X60236Y104960D01*
X65866Y102007D02*
X65866Y97874D01*
X65866Y100236D02*
X67490Y102007D01*
X70196Y102007D01*
X71496Y100826D02*
X71496Y99055D01*
X71496Y100826D02*
X72578Y102007D01*
X74744Y102007D01*
X75826Y100826D01*
X75826Y99055D01*
X74744Y97874D01*
X72578Y97874D01*
X71496Y99055D01*
X77125Y95511D02*
X80374Y95511D01*
X81456Y96692D01*
X81456Y102007D01*
X79832Y102007D01*
X81456Y104960D02*
X81456Y104370D01*
X87086Y98464D02*
X86003Y97874D01*
X83838Y97874D01*
X82755Y99055D01*
X82755Y100826D01*
X83838Y102007D01*
X86003Y102007D01*
X87086Y101417D01*
X87086Y100826D01*
X86003Y100236D01*
X82755Y100236D01*
X88385Y104960D02*
X88385Y97874D01*
X88385Y100236D02*
X91633Y103779D01*
X90009Y102007D02*
X92716Y97874D01*
X94015Y104960D02*
X94015Y99055D01*
X95098Y97874D01*
X98346Y97874D01*
X94015Y102007D02*
X96181Y102007D01*
X105275Y102007D02*
X107440Y97874D01*
X109606Y102007D01*
X110905Y100826D02*
X110905Y99055D01*
X110905Y100826D02*
X111988Y102007D01*
X114153Y102007D01*
X115236Y100826D01*
X115236Y99055D01*
X114153Y97874D01*
X111988Y97874D01*
X110905Y99055D01*
X116535Y97874D02*
X116535Y102007D01*
X116535Y100826D02*
X117618Y102007D01*
X119783Y102007D01*
X120866Y100826D01*
X120866Y97874D01*
X127795Y104960D02*
X132125Y104960D01*
X129960Y104960D02*
X129960Y97874D01*
X133425Y97874D02*
X133425Y102598D01*
X133425Y100236D02*
X137755Y100236D01*
X137755Y102598D02*
X137755Y97874D01*
X133425Y102598D02*
X135590Y104960D01*
X137755Y102598D01*
X139055Y104960D02*
X139055Y97874D01*
X139055Y101417D02*
X141761Y101417D01*
X142844Y102007D01*
X143385Y103188D01*
X142844Y104370D01*
X141761Y104960D01*
X139055Y104960D01*
X141220Y101417D02*
X143385Y97874D01*
X146309Y104960D02*
X145226Y104370D01*
X144685Y103188D01*
X144685Y99645D01*
X145226Y98464D01*
X146309Y97874D01*
X147391Y97874D01*
X148474Y98464D01*
X149015Y99645D01*
X149015Y101417D01*
X147933Y101417D01*
X146309Y104960D02*
X147391Y104960D01*
X148474Y104370D01*
X150314Y104960D02*
X150314Y97874D01*
X154645Y97874D01*
X150314Y101417D02*
X152480Y101417D01*
X150314Y104960D02*
X154645Y104960D01*
X155944Y104960D02*
X160275Y104960D01*
X158110Y104960D02*
X158110Y97874D01*
X167204Y97874D02*
X167204Y104960D01*
X171535Y97874D01*
X171535Y104960D01*
X175541Y97874D02*
X176624Y98464D01*
X177165Y99645D01*
X175541Y97874D02*
X174458Y97874D01*
X173375Y98464D01*
X172834Y99645D01*
X172834Y103188D01*
X173375Y104370D01*
X174458Y104960D01*
X175541Y104960D01*
X176624Y104370D01*
X177165Y103188D01*
X178464Y101417D02*
X182795Y101417D01*
X184094Y104960D02*
X184094Y97874D01*
X188425Y97874D01*
X184094Y101417D02*
X186259Y101417D01*
X184094Y104960D02*
X188425Y104960D01*
X194055Y104960D02*
X194055Y97874D01*
X190807Y97874D01*
X189724Y99055D01*
X189724Y100826D01*
X190807Y102007D01*
X194055Y102007D01*
X195354Y97874D02*
X199685Y97874D01*
X197519Y97874D02*
X197519Y102007D01*
X197519Y104960D02*
X197519Y104370D01*
X195895Y102007D02*
X197519Y102007D01*
X200984Y104960D02*
X200984Y99055D01*
X202066Y97874D01*
X205314Y97874D01*
X200984Y102007D02*
X203149Y102007D01*
X206614Y97874D02*
X210944Y97874D01*
X208779Y97874D02*
X208779Y102007D01*
X208779Y104960D02*
X208779Y104370D01*
X207155Y102007D02*
X208779Y102007D01*
X212244Y100826D02*
X212244Y99055D01*
X212244Y100826D02*
X213326Y102007D01*
X215492Y102007D01*
X216574Y100826D01*
X216574Y99055D01*
X215492Y97874D01*
X213326Y97874D01*
X212244Y99055D01*
X217874Y97874D02*
X217874Y102007D01*
X217874Y100826D02*
X218956Y102007D01*
X221122Y102007D01*
X222204Y100826D01*
X222204Y97874D01*
X224586Y98464D02*
X224586Y97874D01*
X225127Y97874D01*
X225127Y98464D01*
X224586Y98464D01*
X225127Y101417D02*
X224586Y101417D01*
X224586Y100826D01*
X225127Y100826D01*
X225127Y101417D01*
X234763Y104960D02*
X234763Y97874D01*
X234763Y100236D02*
X239094Y104960D01*
X236387Y102007D02*
X239094Y97874D01*
X240393Y100826D02*
X240393Y99055D01*
X240393Y100826D02*
X241476Y102007D01*
X243641Y102007D01*
X244724Y100826D01*
X244724Y99055D01*
X243641Y97874D01*
X241476Y97874D01*
X240393Y99055D01*
X250354Y97874D02*
X250354Y100826D01*
X249271Y102007D01*
X248188Y97874D02*
X248188Y100826D01*
X246023Y102007D02*
X249271Y102007D01*
X246023Y97874D02*
X246023Y102007D01*
X248188Y100826D02*
X247106Y102007D01*
X255984Y97874D02*
X255984Y100826D01*
X254901Y102007D01*
X253818Y97874D02*
X253818Y100826D01*
X251653Y102007D02*
X254901Y102007D01*
X251653Y97874D02*
X251653Y102007D01*
X253818Y100826D02*
X252736Y102007D01*
X261614Y98464D02*
X260531Y97874D01*
X258366Y97874D01*
X257283Y99055D01*
X257283Y100826D01*
X258366Y102007D01*
X260531Y102007D01*
X261614Y101417D01*
X261614Y100826D01*
X260531Y100236D01*
X257283Y100236D01*
X262913Y102007D02*
X262913Y97874D01*
X262913Y100236D02*
X264537Y102007D01*
X267244Y102007D01*
X268543Y102007D02*
X272874Y102007D01*
X268543Y97874D01*
X272874Y97874D01*
X274173Y97874D02*
X278503Y97874D01*
X276338Y97874D02*
X276338Y102007D01*
X276338Y104960D02*
X276338Y104370D01*
X274714Y102007D02*
X276338Y102007D01*
X284133Y98464D02*
X283051Y97874D01*
X280885Y97874D01*
X279803Y99055D01*
X279803Y100826D01*
X280885Y102007D01*
X283051Y102007D01*
X284133Y101417D01*
X284133Y100826D01*
X283051Y100236D01*
X279803Y100236D01*
X285433Y97874D02*
X289763Y97874D01*
X286515Y104960D02*
X287598Y104960D01*
X287598Y97874D01*
X291062Y97874D02*
X295393Y97874D01*
X292145Y104960D02*
X293228Y104960D01*
X293228Y97874D01*
X301023Y98464D02*
X299940Y97874D01*
X297775Y97874D01*
X296692Y99055D01*
X296692Y100826D01*
X297775Y102007D01*
X299940Y102007D01*
X301023Y101417D01*
X301023Y100826D01*
X299940Y100236D01*
X296692Y100236D01*
X307952Y97874D02*
X307952Y104960D01*
X312283Y97874D01*
X312283Y104960D01*
X313582Y102007D02*
X313582Y99055D01*
X314665Y97874D01*
X316830Y97874D01*
X317913Y99055D01*
X317913Y102007D02*
X317913Y97874D01*
X319212Y104960D02*
X319212Y99055D01*
X320295Y97874D01*
X323543Y97874D01*
X319212Y102007D02*
X321377Y102007D01*
X324842Y102007D02*
X329173Y102007D01*
X324842Y97874D01*
X329173Y97874D01*
X330472Y102007D02*
X330472Y99055D01*
X331555Y97874D01*
X333720Y97874D01*
X334803Y99055D01*
X334803Y102007D02*
X334803Y97874D01*
X336102Y97874D02*
X336102Y102007D01*
X336102Y100826D02*
X337185Y102007D01*
X339350Y102007D01*
X340433Y100826D01*
X340433Y97874D01*
X346062Y99055D02*
X344980Y97874D01*
X342814Y97874D01*
X341732Y99055D01*
X341732Y100826D01*
X342814Y102007D01*
X344980Y102007D01*
X346062Y100826D01*
X346062Y96692D01*
X344980Y95511D01*
X341732Y95511D01*
X352992Y97874D02*
X357322Y97874D01*
X355157Y97874D02*
X355157Y102007D01*
X355157Y104960D02*
X355157Y104370D01*
X353533Y102007D02*
X355157Y102007D01*
X358622Y97874D02*
X362411Y97874D01*
X362952Y99055D01*
X362411Y100236D01*
X359163Y100236D01*
X358622Y101417D01*
X359163Y102007D01*
X362952Y102007D01*
X364251Y104960D02*
X364251Y99055D01*
X365334Y97874D01*
X368582Y97874D01*
X364251Y102007D02*
X366417Y102007D01*
X375511Y97874D02*
X379301Y97874D01*
X379842Y99055D01*
X379301Y100236D01*
X376053Y100236D01*
X375511Y101417D01*
X376053Y102007D01*
X379842Y102007D01*
X381141Y104960D02*
X381141Y99055D01*
X382224Y97874D01*
X385472Y97874D01*
X381141Y102007D02*
X383307Y102007D01*
X386771Y102007D02*
X386771Y97874D01*
X386771Y100236D02*
X388395Y102007D01*
X391102Y102007D01*
X392401Y99055D02*
X393484Y97874D01*
X395649Y97874D01*
X396732Y99055D01*
X392401Y99055D02*
X392401Y100826D01*
X393484Y102007D01*
X395649Y102007D01*
X396732Y100826D01*
X396732Y97874D01*
X398031Y95511D02*
X398031Y103779D01*
X399114Y104960D01*
X402362Y104960D01*
X398031Y100236D02*
X400196Y100236D01*
X403661Y104960D02*
X403661Y97874D01*
X406909Y97874D01*
X407992Y99055D01*
X407992Y100826D01*
X406909Y102007D01*
X403661Y102007D01*
X409291Y99055D02*
X410374Y97874D01*
X412539Y97874D01*
X413622Y99055D01*
X409291Y99055D02*
X409291Y100826D01*
X410374Y102007D01*
X412539Y102007D01*
X413622Y100826D01*
X413622Y97874D01*
X414921Y102007D02*
X414921Y97874D01*
X414921Y100236D02*
X416545Y102007D01*
X419251Y102007D01*
X422716Y97874D02*
X422716Y98464D01*
X423257Y98464D01*
X423257Y97874D01*
X422716Y97874D01*
X422716Y100236D02*
X423257Y100236D01*
X423799Y103779D01*
X423257Y104960D01*
X422716Y104960D01*
X422175Y103779D01*
X422716Y100236D01*
G54D15*
X122812Y63437D02*
X126250Y59999D01*
X126250Y59892D01*
X129580Y56562D01*
X129687Y56562D01*
X129580Y56562D02*
X138955Y47187D01*
X138955Y37598D02*
X138955Y47187D01*
X173750Y27500D02*
X173125Y27500D01*
X85107Y59794D02*
X86928Y61616D01*
X85107Y59794D02*
X85000Y59794D01*
X86928Y61616D02*
X87241Y61616D01*
X86928Y61616D02*
X87084Y61772D01*
X86928Y61616D02*
X86928Y61616D01*
X86875Y61669D01*
X87241Y61616D02*
X87084Y61772D01*
X87241Y61616D02*
X86875Y61669D01*
X87241Y61616D02*
X88437Y60419D01*
X87084Y61772D02*
X89062Y63750D01*
X67657Y43437D02*
X71407Y47187D01*
X81250Y57030D01*
X82235Y57030D01*
X85000Y59794D01*
X89062Y63750D02*
X96250Y70937D01*
X115312Y70937D01*
X122812Y63437D01*
X125937Y24580D02*
X138955Y37598D01*
X68907Y42187D02*
X72657Y45937D01*
X71407Y47187D01*
X68907Y42187D02*
X67657Y43437D01*
X123666Y22523D02*
X125937Y24580D01*
X171250Y27500D02*
X173125Y27500D01*
X175000Y27500D01*
X176875Y27500D01*
X178750Y27500D01*
X99062Y24062D02*
X97812Y22812D01*
X99062Y24062D02*
X99215Y24062D01*
X115625Y18848D02*
X113907Y18848D01*
X115625Y17187D02*
X113907Y17187D01*
X115625Y17187D02*
X115625Y18848D01*
X113907Y18848D02*
X113907Y17187D01*
X112344Y18848D02*
X113907Y18848D01*
X112344Y17187D02*
X113907Y17187D01*
X78750Y33125D02*
X77343Y34531D01*
X85312Y50625D02*
X86562Y49375D01*
X85312Y48125D01*
X84062Y49375D01*
X85312Y50625D02*
X84062Y49375D01*
X120312Y20312D02*
X178437Y20312D01*
X195000Y36875D01*
X195000Y52500D01*
X87187Y53437D02*
X88437Y52187D01*
X120312Y20312D02*
X88437Y52187D01*
G54D19*
X126250Y59892D03*
X129687Y56562D03*
X122812Y63437D03*
X178750Y27500D03*
X123666Y22523D03*
X125937Y24580D03*
X85000Y59794D03*
X89062Y63750D03*
X88437Y60419D03*
X86875Y61669D03*
X68907Y42187D03*
X70157Y43437D03*
X71407Y44687D03*
X72657Y45937D03*
X67657Y43437D03*
X68907Y44687D03*
X70157Y45937D03*
X71407Y47187D03*
X107969Y52812D03*
X109844Y50937D03*
X111719Y49062D03*
X113594Y47187D03*
X115469Y45312D03*
X117344Y43437D03*
X106094Y54687D03*
X106407Y51250D03*
X108282Y49375D03*
X110157Y47500D03*
X112032Y45625D03*
X113907Y43750D03*
X115782Y41875D03*
X104532Y53125D03*
X104844Y49687D03*
X106719Y47812D03*
X108594Y45937D03*
X110469Y44062D03*
X112344Y42187D03*
X114219Y40312D03*
X102969Y51562D03*
X100157Y45000D03*
X102032Y43125D03*
X103907Y41250D03*
X105782Y39375D03*
X107657Y37500D03*
X109532Y35625D03*
X98282Y46875D03*
X95782Y40312D03*
X97657Y38437D03*
X99532Y36562D03*
X93907Y42187D03*
X22500Y86357D03*
X25000Y86357D03*
X27500Y86357D03*
X30000Y86357D03*
X32500Y86357D03*
X35000Y86357D03*
X37500Y86357D03*
X40000Y86357D03*
X42500Y86357D03*
X45000Y86357D03*
X47500Y86357D03*
X50000Y86357D03*
X52500Y86357D03*
X55000Y86357D03*
X57500Y86357D03*
X22500Y83857D03*
X25000Y83857D03*
X27500Y83857D03*
X30000Y83857D03*
X32500Y83857D03*
X35000Y83857D03*
X37500Y83857D03*
X40000Y83857D03*
X42500Y83857D03*
X45000Y83857D03*
X47500Y83857D03*
X50000Y83857D03*
X52500Y83857D03*
X55000Y83857D03*
X57500Y83857D03*
X22500Y81357D03*
X25000Y81357D03*
X27500Y81357D03*
X30000Y81357D03*
X32500Y81357D03*
X35000Y81357D03*
X37500Y81357D03*
X40000Y81357D03*
X42500Y81357D03*
X45000Y81357D03*
X47500Y81357D03*
X50000Y81357D03*
X52500Y81357D03*
X55000Y81357D03*
X57500Y81357D03*
X22500Y78857D03*
X25000Y78857D03*
X27500Y78857D03*
X30000Y78857D03*
X32500Y78857D03*
X35000Y78857D03*
X37500Y78857D03*
X40000Y78857D03*
X42500Y78857D03*
X45000Y78857D03*
X47500Y78857D03*
X50000Y78857D03*
X52500Y78857D03*
X55000Y78857D03*
X57500Y78857D03*
X22500Y76357D03*
X25000Y76357D03*
X27500Y76357D03*
X30000Y76357D03*
X32500Y76357D03*
X35000Y76357D03*
X37500Y76357D03*
X40000Y76357D03*
X42500Y76357D03*
X45000Y76357D03*
X47500Y76357D03*
X50000Y76357D03*
X52500Y76357D03*
X55000Y76357D03*
X57500Y76357D03*
X22500Y72607D03*
X25000Y72607D03*
X27500Y72607D03*
X30000Y72607D03*
X32500Y72607D03*
X35000Y72607D03*
X37500Y72607D03*
X40000Y72607D03*
X42500Y72607D03*
X45000Y72607D03*
X47500Y72607D03*
X50000Y72607D03*
X52500Y72607D03*
X55000Y72607D03*
X57500Y72607D03*
X22500Y70107D03*
X25000Y70107D03*
X27500Y70107D03*
X30000Y70107D03*
X32500Y70107D03*
X35000Y70107D03*
X37500Y70107D03*
X40000Y70107D03*
X42500Y70107D03*
X45000Y70107D03*
X47500Y70107D03*
X50000Y70107D03*
X52500Y70107D03*
X55000Y70107D03*
X57500Y70107D03*
X22500Y67607D03*
X25000Y67607D03*
X27500Y67607D03*
X30000Y67607D03*
X32500Y67607D03*
X35000Y67607D03*
X37500Y67607D03*
X40000Y67607D03*
X42500Y67607D03*
X45000Y67607D03*
X47500Y67607D03*
X50000Y67607D03*
X52500Y67607D03*
X55000Y67607D03*
X57500Y67607D03*
X22500Y65107D03*
X25000Y65107D03*
X27500Y65107D03*
X30000Y65107D03*
X32500Y65107D03*
X35000Y65107D03*
X37500Y65107D03*
X40000Y65107D03*
X42500Y65107D03*
X45000Y65107D03*
X47500Y65107D03*
X50000Y65107D03*
X52500Y65107D03*
X55000Y65107D03*
X22500Y62607D03*
X25000Y62607D03*
X27500Y62607D03*
X30000Y62607D03*
X32500Y62607D03*
X35000Y62607D03*
X37500Y62607D03*
X40000Y62607D03*
X42500Y62607D03*
X45000Y62607D03*
X47500Y62607D03*
X50000Y62607D03*
X52500Y62607D03*
X21875Y18857D03*
X24375Y18857D03*
X26875Y18857D03*
X29375Y18857D03*
X21875Y16357D03*
X24375Y16357D03*
X26875Y16357D03*
X29375Y16357D03*
X21875Y13857D03*
X24375Y13857D03*
X26875Y13857D03*
X29375Y13857D03*
X21875Y11357D03*
X24375Y11357D03*
X26875Y11357D03*
X29375Y11357D03*
X40937Y18857D03*
X43437Y18857D03*
X45937Y18857D03*
X48437Y18857D03*
X40937Y16357D03*
X43437Y16357D03*
X45937Y16357D03*
X48437Y16357D03*
X40937Y13857D03*
X43437Y13857D03*
X45937Y13857D03*
X48437Y13857D03*
X40937Y11357D03*
X43437Y11357D03*
X45937Y11357D03*
X48437Y11357D03*
X120000Y77607D03*
X122500Y77607D03*
X125000Y77607D03*
X127500Y77607D03*
X130000Y77607D03*
X132500Y77607D03*
X135000Y77607D03*
X137500Y77607D03*
X140000Y77607D03*
X120000Y75107D03*
X122500Y75107D03*
X125000Y75107D03*
X127500Y75107D03*
X130000Y75107D03*
X132500Y75107D03*
X135000Y75107D03*
X137500Y75107D03*
X140000Y75107D03*
X120000Y72607D03*
X122500Y72607D03*
X125000Y72607D03*
X127500Y72607D03*
X130000Y72607D03*
X132500Y72607D03*
X135000Y72607D03*
X137500Y72607D03*
X140000Y72607D03*
X130000Y70107D03*
X132500Y70107D03*
X135000Y70107D03*
X137500Y70107D03*
X140000Y70107D03*
X132500Y67607D03*
X135000Y67607D03*
X137500Y67607D03*
X140000Y67607D03*
X132187Y27607D03*
X134687Y27607D03*
X137187Y27607D03*
X139687Y27607D03*
X129687Y25107D03*
X132187Y25107D03*
X134687Y25107D03*
X137187Y25107D03*
X139687Y25107D03*
X124375Y61874D03*
X127812Y58437D03*
X176875Y27500D03*
X175000Y27500D03*
X173125Y27500D03*
X171250Y27500D03*
X123647Y53125D03*
X86660Y36875D03*
X117483Y56562D03*
X119320Y30937D03*
X95000Y58042D03*
X194062Y57500D03*
X146250Y57500D03*
X166875Y52187D03*
X112187Y24062D03*
X75570Y64687D03*
X76508Y63750D03*
X77445Y62812D03*
X78383Y61875D03*
X75570Y64687D02*
X78383Y61875D01*
X112187Y21562D03*
X92500Y56250D03*
X91250Y57500D03*
X120312Y53823D03*
X181562Y60000D03*
X183437Y60000D03*
X119687Y27812D03*
X67812Y72886D03*
X68750Y71948D03*
X69687Y71011D03*
X70625Y70073D03*
X120937Y26562D03*
X67812Y72886D02*
X70625Y70073D01*
X112344Y18848D03*
X115625Y18848D03*
X115625Y17187D03*
X113907Y17187D03*
X112344Y17187D03*
X86562Y49375D03*
X85312Y48125D03*
X85312Y50625D03*
X84062Y49375D03*
X85625Y40312D03*
X86875Y41562D03*
X80312Y37500D03*
X78750Y33125D03*
X77343Y34531D03*
X99215Y24062D03*
X97812Y22812D03*
X113907Y18848D03*
X78750Y35937D03*
X80625Y31250D03*
X112344Y18848D02*
X101776Y18848D01*
X97812Y22812D01*
X112344Y18848D02*
X115625Y18848D01*
X112344Y17187D02*
X115625Y17187D01*
X112344Y17187D02*
X112344Y18848D01*
X90628Y54062D03*
X87187Y53437D03*
X88437Y52187D03*
X195000Y52500D03*
X151250Y62500D03*
X141250Y22500D03*
X185000Y47500D03*
X86290Y30937D03*
X89074Y30312D03*
X92187Y31266D03*
X83819Y27187D03*
G54D20*
X78750Y35937D02*
X77343Y34531D01*
X97812Y22812D02*
X72812Y22812D01*
X80625Y31250D02*
X78750Y33125D01*
X78750Y33125D01*
X86875Y41562D02*
X85625Y40312D01*
X83125Y40312D01*
X80312Y37500D01*
X78750Y35937D01*
X86875Y41562D02*
X86875Y46562D01*
X85312Y48125D01*
X77343Y34531D02*
X55000Y12187D01*
X55000Y5000D01*
X78750Y33125D02*
X77343Y34531D01*
X77343Y34531D01*
X72812Y22812D02*
X55000Y5000D01*
G54D23*
X65000Y85000D03*
X75000Y85000D03*
X85000Y85000D03*
X95000Y85000D03*
X105000Y85000D03*
X115000Y85000D03*
X125000Y85000D03*
X135000Y85000D03*
X145000Y85000D03*
X155000Y85000D03*
X165000Y85000D03*
X175000Y85000D03*
X65000Y5000D03*
X75000Y5000D03*
X85000Y5000D03*
X95000Y5000D03*
X105000Y5000D03*
X115000Y5000D03*
X125000Y5000D03*
X135000Y5000D03*
X145000Y5000D03*
X155000Y5000D03*
X165000Y5000D03*
X175000Y5000D03*
X55000Y5000D03*
X45000Y5000D03*
X35000Y5000D03*
X25000Y5000D03*
G54D24*
X190000Y80000D03*
X190000Y10000D03*
X10000Y80000D03*
X10000Y10000D03*
M02*
